M48
; DRILL file {KiCad 9.0.5} date 2025-10-09T16:26:11-0600
; FORMAT={-:-/ absolute / inch / decimal}
; #@! TF.CreationDate,2025-10-09T16:26:11-06:00
; #@! TF.GenerationSoftware,Kicad,Pcbnew,9.0.5
; #@! TF.FileFunction,NonPlated,1,2,NPTH
FMAT,2
INCH
; #@! TA.AperFunction,NonPlated,NPTH,ComponentDrill
T1C0.0591
; #@! TA.AperFunction,NonPlated,NPTH,ComponentDrill
T2C0.0689
; #@! TA.AperFunction,NonPlated,NPTH,ComponentDrill
T3C0.0709
; #@! TA.AperFunction,NonPlated,NPTH,ComponentDrill
T4C0.1181
; #@! TA.AperFunction,NonPlated,NPTH,ComponentDrill
T5C0.1575
%
G90
G05
T1
X8.6472Y-3.2665
X8.8243Y-3.195
X9.06Y-5.345
X9.3155Y-5.2418
T2
X9.3409Y-2.5673
X9.6218Y-3.2627
X9.7118Y-2.4175
X9.9028Y-3.9581
X9.9919Y-2.1765
X9.9927Y-3.1128
X10.1838Y-4.6535
X10.2729Y-2.8719
X10.2737Y-3.8082
X10.3628Y-2.0267
X10.5538Y-3.5673
X10.5546Y-4.5036
X10.6429Y-1.7858
X10.6437Y-2.7221
X10.8348Y-4.2627
X10.9239Y-2.4812
X10.9247Y-3.4175
X11.0138Y-1.6359
X11.0615Y-5.3734
X11.2049Y-3.1766
X11.2057Y-4.1129
X11.2948Y-2.3313
X11.3827Y-1.6146
X11.4513Y-5.2835
X11.4858Y-3.872
X11.5757Y-3.0267
X11.6636Y-2.31
X11.7536Y-1.4648
X11.7953Y-5.0592
X11.8567Y-3.7221
X11.9446Y-3.0054
X12.0345Y-2.1602
X12.1712Y-4.9224
X12.2256Y-3.7008
X12.3155Y-2.8556
X12.4111Y-1.7571
X12.5964Y-3.551
X12.6428Y-2.4704
X12.7915Y-1.6335
X12.8746Y-3.1837
X13.0232Y-2.3468
X13.1063Y-3.897
X13.255Y-3.0601
X13.2755Y-1.5518
X13.4696Y-2.2762
X13.4868Y-3.7734
X13.6619Y-1.4482
X13.6637Y-3.0007
X13.856Y-2.1727
X13.8578Y-3.7251
X14.0501Y-2.8971
X14.2442Y-3.6216
T3
X8.5916Y-3.1603
X8.7906Y-3.08
T4
X9.3498Y-2.4558
X9.5441Y-2.2695
X9.6307Y-3.1512
X9.8251Y-2.9649
X9.9117Y-3.8466
X10.0008Y-2.0651
X10.106Y-3.6603
X10.1927Y-4.542
X10.1951Y-1.8787
X10.2818Y-2.7605
X10.387Y-4.3556
X10.4761Y-2.5741
X10.5627Y-3.4559
X10.6518Y-1.6743
X10.7571Y-3.2695
X10.8437Y-4.1513
X10.8462Y-1.488
X10.9328Y-2.3697
X11.038Y-3.9649
X11.0878Y-5.2648
X11.1271Y-2.1834
X11.2138Y-3.0651
X11.3089Y-5.1111
X11.3916Y-1.5032
X11.4081Y-2.8787
X11.4947Y-3.7605
X11.5859Y-1.3168
X11.6725Y-2.1986
X11.689Y-3.5741
X11.8081Y-4.9481
X11.8669Y-2.0122
X11.9535Y-2.894
X12.0088Y-4.7686
X12.1478Y-2.7076
X12.2345Y-3.5893
X12.4277Y-1.6466
X12.4288Y-3.403
X12.6346Y-1.4742
X12.6595Y-2.3599
X12.8663Y-2.1875
X12.8912Y-3.0731
X13.0981Y-2.9008
X13.123Y-3.7864
X13.2979Y-1.4422
X13.3299Y-3.6141
X13.492Y-2.1667
X13.5135Y-1.2809
X13.6861Y-2.8911
X13.7076Y-2.0054
X13.8803Y-3.6156
X13.9017Y-2.7298
X14.0959Y-3.4543
T5
X9.5263Y-2.4924
X9.8073Y-3.1878
X10.0882Y-3.8831
X10.1774Y-2.1016
X10.3692Y-4.5785
X10.4583Y-2.797
X10.7393Y-3.4924
X10.8284Y-1.7109
X11.0202Y-4.1878
X11.1093Y-2.4063
X11.2564Y-5.3285
X11.3903Y-3.1016
X11.5681Y-1.5397
X11.6712Y-3.797
X11.8491Y-2.2351
X11.9832Y-4.9908
X12.13Y-2.9305
X12.411Y-3.6259
X12.6013Y-1.6953
X12.833Y-2.4086
X13.0648Y-3.1219
X13.2966Y-3.8352
X13.4687Y-1.5
X13.6628Y-2.2244
X13.8569Y-2.9489
X14.051Y-3.6733
M30
