%TF.GenerationSoftware,KiCad,Pcbnew,9.0.5*%
%TF.CreationDate,2025-10-09T16:26:15-06:00*%
%TF.ProjectId,ergo-kola (another copy),6572676f-2d6b-46f6-9c61-2028616e6f74,rev?*%
%TF.SameCoordinates,Original*%
%TF.FileFunction,Paste,Bot*%
%TF.FilePolarity,Positive*%
%FSLAX46Y46*%
G04 Gerber Fmt 4.6, Leading zero omitted, Abs format (unit mm)*
G04 Created by KiCad (PCBNEW 9.0.5) date 2025-10-09 16:26:15*
%MOMM*%
%LPD*%
G01*
G04 APERTURE LIST*
G04 Aperture macros list*
%AMRoundRect*
0 Rectangle with rounded corners*
0 $1 Rounding radius*
0 $2 $3 $4 $5 $6 $7 $8 $9 X,Y pos of 4 corners*
0 Add a 4 corners polygon primitive as box body*
4,1,4,$2,$3,$4,$5,$6,$7,$8,$9,$2,$3,0*
0 Add four circle primitives for the rounded corners*
1,1,$1+$1,$2,$3*
1,1,$1+$1,$4,$5*
1,1,$1+$1,$6,$7*
1,1,$1+$1,$8,$9*
0 Add four rect primitives between the rounded corners*
20,1,$1+$1,$2,$3,$4,$5,0*
20,1,$1+$1,$4,$5,$6,$7,0*
20,1,$1+$1,$6,$7,$8,$9,0*
20,1,$1+$1,$8,$9,$2,$3,0*%
%AMRotRect*
0 Rectangle, with rotation*
0 The origin of the aperture is its center*
0 $1 length*
0 $2 width*
0 $3 Rotation angle, in degrees counterclockwise*
0 Add horizontal line*
21,1,$1,$2,0,0,$3*%
G04 Aperture macros list end*
%ADD10RotRect,2.550000X2.500000X18.000000*%
%ADD11RotRect,2.550000X2.500000X15.000000*%
%ADD12RotRect,2.550000X2.500000X22.000000*%
%ADD13RotRect,2.550000X2.500000X20.000000*%
%ADD14RotRect,2.550000X2.500000X13.000000*%
%ADD15RoundRect,0.250000X-0.337500X-0.475000X0.337500X-0.475000X0.337500X0.475000X-0.337500X0.475000X0*%
%ADD16RoundRect,0.225000X0.420456X-0.120276X0.303988X0.314390X-0.420456X0.120276X-0.303988X-0.314390X0*%
%ADD17RoundRect,0.250000X-0.154687X-0.561786X0.479606X-0.330922X0.154687X0.561786X-0.479606X0.330922X0*%
%ADD18RotRect,1.450000X0.820000X195.000000*%
%ADD19RoundRect,0.205000X0.449224X0.332601X-0.555339X0.063429X-0.449224X-0.332601X0.555339X-0.063429X0*%
%ADD20RoundRect,0.225000X0.426175X-0.098106X0.287117X0.329869X-0.426175X0.098106X-0.287117X-0.329869X0*%
%ADD21RotRect,1.450000X0.820000X202.000000*%
%ADD22RoundRect,0.205000X0.405341X0.384868X-0.558930X-0.004723X-0.405341X-0.384868X0.558930X0.004723X0*%
%ADD23RoundRect,0.225000X0.431980X-0.068139X0.263407X0.349094X-0.431980X0.068139X-0.263407X-0.349094X0*%
%ADD24RoundRect,0.250000X0.475000X-0.337500X0.475000X0.337500X-0.475000X0.337500X-0.475000X-0.337500X0*%
%ADD25RotRect,1.450000X0.820000X198.000000*%
%ADD26RoundRect,0.205000X0.431201X0.355655X-0.557898X0.034278X-0.431201X-0.355655X0.557898X-0.034278X0*%
%ADD27RotRect,1.450000X0.820000X193.000000*%
%ADD28RoundRect,0.205000X0.460557X0.316720X-0.552787X0.082771X-0.460557X-0.316720X0.552787X-0.082771X0*%
%ADD29RoundRect,0.225000X0.416003X-0.134877X0.314775X0.303590X-0.416003X0.134877X-0.314775X-0.303590X0*%
%ADD30RotRect,1.450000X0.820000X200.000000*%
%ADD31RoundRect,0.205000X0.418526X0.370487X-0.558754X0.014787X-0.418526X-0.370487X0.558754X-0.014787X0*%
%ADD32RoundRect,0.225000X0.429339X-0.083173X0.275430X0.339688X-0.429339X0.083173X-0.275430X-0.339688X0*%
G04 APERTURE END LIST*
D10*
%TO.C,SW30*%
X324013434Y-79170290D03*
X335996465Y-72606054D03*
%TD*%
D11*
%TO.C,SW38*%
X349081219Y-92767069D03*
X361391373Y-86838971D03*
%TD*%
D12*
%TO.C,SW8*%
X267218900Y-43876811D03*
X278714842Y-36492669D03*
%TD*%
%TO.C,SW28*%
X281491407Y-79202520D03*
X292987349Y-71818379D03*
%TD*%
%TO.C,SW10*%
X250682814Y-53801936D03*
X262178755Y-46417796D03*
%TD*%
%TO.C,SW40*%
X288627671Y-96865375D03*
X300123613Y-89481234D03*
%TD*%
%TO.C,SW22*%
X257819077Y-71464791D03*
X269315018Y-64080651D03*
%TD*%
%TO.C,SW44*%
X248419255Y-99052772D03*
X259915197Y-91668631D03*
%TD*%
D10*
%TO.C,SW42*%
X329900207Y-97287907D03*
X341883238Y-90723671D03*
%TD*%
%TO.C,SW18*%
X318126660Y-61052653D03*
X330109691Y-54488419D03*
%TD*%
D12*
%TO.C,SW48*%
X255555518Y-116715628D03*
X267051460Y-109331487D03*
%TD*%
%TO.C,SW34*%
X264955340Y-89127646D03*
X276451282Y-81743505D03*
%TD*%
%TO.C,SW46*%
X272091585Y-106790501D03*
X283587527Y-99406360D03*
%TD*%
D11*
%TO.C,SW26*%
X344150718Y-74366178D03*
X356460871Y-68438080D03*
%TD*%
D12*
%TO.C,SW32*%
X241283010Y-81389917D03*
X252778952Y-74005776D03*
%TD*%
%TO.C,SW4*%
X286008524Y-39529428D03*
X297504465Y-32145288D03*
%TD*%
D11*
%TO.C,SW12*%
X339220214Y-55965288D03*
X351530368Y-50037190D03*
%TD*%
D13*
%TO.C,SW50*%
X296542608Y-126912841D03*
X308289250Y-119934401D03*
%TD*%
D14*
%TO.C,SW52*%
X278121248Y-134534807D03*
X290630792Y-129039939D03*
%TD*%
D12*
%TO.C,SW36*%
X307417295Y-92517994D03*
X318913237Y-85133853D03*
%TD*%
D11*
%TO.C,SW2*%
X334289712Y-37564398D03*
X346599867Y-31636299D03*
%TD*%
D12*
%TO.C,SW20*%
X234146747Y-63727061D03*
X245642690Y-56342922D03*
%TD*%
%TO.C,SW14*%
X293144787Y-57192284D03*
X304640729Y-49808142D03*
%TD*%
%TO.C,SW24*%
X300281032Y-74855139D03*
X311776974Y-67470997D03*
%TD*%
%TO.C,SW16*%
X274355163Y-61539665D03*
X285851104Y-54155525D03*
%TD*%
D10*
%TO.C,SW6*%
X312239886Y-42935036D03*
X324222917Y-36370802D03*
%TD*%
D15*
%TO.C,C14*%
X255227000Y-108585000D03*
X257302000Y-108585000D03*
%TD*%
D16*
%TO.C,D2*%
X349892028Y-37721577D03*
X349037928Y-34534021D03*
%TD*%
D17*
%TO.C,C17*%
X268011069Y-128751846D03*
X269960931Y-128042154D03*
%TD*%
D18*
%TO.C,L38*%
X360994073Y-98260995D03*
X360605844Y-96812107D03*
D19*
X355438141Y-98196789D03*
D18*
X355826370Y-99645677D03*
%TD*%
D20*
%TO.C,D18*%
X333715820Y-60393056D03*
X332696064Y-57254570D03*
%TD*%
D21*
%TO.C,L24*%
X312774630Y-78856302D03*
X312212720Y-77465526D03*
D22*
X307252286Y-79469672D03*
D21*
X307814196Y-80860448D03*
%TD*%
D23*
%TO.C,D46*%
X287596759Y-105045064D03*
X286360557Y-101985358D03*
%TD*%
D21*
%TO.C,L10*%
X263176412Y-57803100D03*
X262614502Y-56412324D03*
D22*
X257654068Y-58416470D03*
D21*
X258215978Y-59807246D03*
%TD*%
%TO.C,L36*%
X319910893Y-96519158D03*
X319348983Y-95128382D03*
D22*
X314388549Y-97132528D03*
D21*
X314950459Y-98523304D03*
%TD*%
D24*
%TO.C,C18*%
X284353000Y-145944500D03*
X284353000Y-143869500D03*
%TD*%
D25*
%TO.C,L18*%
X330310717Y-65915582D03*
X329847191Y-64488997D03*
D26*
X324759039Y-66142238D03*
D25*
X325222565Y-67568823D03*
%TD*%
D18*
%TO.C,L2*%
X346202567Y-43058324D03*
X345814338Y-41609436D03*
D19*
X340646635Y-42994118D03*
D18*
X341034864Y-44443006D03*
%TD*%
D27*
%TO.C,L52*%
X289835109Y-140441140D03*
X289497683Y-138979585D03*
D28*
X284284803Y-140183074D03*
D27*
X284622229Y-141644629D03*
%TD*%
D29*
%TO.C,D52*%
X293708574Y-135236404D03*
X292966236Y-132020982D03*
%TD*%
D17*
%TO.C,C16*%
X266741069Y-127100846D03*
X268690931Y-126391154D03*
%TD*%
D20*
%TO.C,D42*%
X345489367Y-96628309D03*
X344469611Y-93489823D03*
%TD*%
D23*
%TO.C,D40*%
X304132845Y-95119938D03*
X302896643Y-92060232D03*
%TD*%
D21*
%TO.C,L8*%
X279712498Y-47877974D03*
X279150588Y-46487198D03*
D22*
X274190154Y-48491344D03*
D21*
X274752064Y-49882120D03*
%TD*%
D20*
%TO.C,D30*%
X339602594Y-78510692D03*
X338582838Y-75372206D03*
%TD*%
D23*
%TO.C,D32*%
X256788184Y-79644480D03*
X255551982Y-76584774D03*
%TD*%
D21*
%TO.C,L34*%
X277448938Y-93128810D03*
X276887028Y-91738034D03*
D22*
X271926594Y-93742180D03*
D21*
X272488504Y-95132956D03*
%TD*%
%TO.C,L48*%
X268049116Y-120716792D03*
X267487206Y-119326016D03*
D22*
X262526772Y-121330162D03*
D21*
X263088682Y-122720938D03*
%TD*%
D25*
%TO.C,L42*%
X342084264Y-102150835D03*
X341620738Y-100724250D03*
D26*
X336532586Y-102377491D03*
D25*
X336996112Y-103804076D03*
%TD*%
D23*
%TO.C,D34*%
X280460514Y-87382209D03*
X279224312Y-84322503D03*
%TD*%
D21*
%TO.C,L46*%
X284585183Y-110791665D03*
X284023273Y-109400889D03*
D22*
X279062839Y-111405035D03*
D21*
X279624749Y-112795811D03*
%TD*%
D23*
%TO.C,D36*%
X322922469Y-90772557D03*
X321686267Y-87712851D03*
%TD*%
D15*
%TO.C,C13*%
X251163000Y-93599000D03*
X253238000Y-93599000D03*
%TD*%
D23*
%TO.C,D10*%
X266187988Y-52056499D03*
X264951786Y-48996793D03*
%TD*%
D15*
%TO.C,C15*%
X257026500Y-111506000D03*
X259101500Y-111506000D03*
%TD*%
D21*
%TO.C,L16*%
X286848761Y-65540829D03*
X286286851Y-64150053D03*
D22*
X281326417Y-66154199D03*
D21*
X281888327Y-67544975D03*
%TD*%
%TO.C,L20*%
X246640345Y-67728226D03*
X246078435Y-66337450D03*
D22*
X241118001Y-68341596D03*
D21*
X241679911Y-69732372D03*
%TD*%
D25*
%TO.C,L6*%
X324423943Y-47797965D03*
X323960417Y-46371380D03*
D26*
X318872265Y-48024621D03*
D25*
X319335791Y-49451206D03*
%TD*%
D23*
%TO.C,D22*%
X273324251Y-69719354D03*
X272088049Y-66659648D03*
%TD*%
%TO.C,D14*%
X308649961Y-55446846D03*
X307413759Y-52387140D03*
%TD*%
D18*
%TO.C,L12*%
X351133069Y-61459214D03*
X350744840Y-60010326D03*
D19*
X345577137Y-61395008D03*
D18*
X345965366Y-62843896D03*
%TD*%
D30*
%TO.C,L50*%
X308888956Y-131347589D03*
X308375926Y-129938050D03*
D31*
X303348570Y-131767857D03*
D30*
X303861600Y-133177396D03*
%TD*%
D32*
%TO.C,D50*%
X312099251Y-125709591D03*
X310970585Y-122608605D03*
%TD*%
D21*
%TO.C,L28*%
X293985005Y-83203684D03*
X293423095Y-81812908D03*
D22*
X288462661Y-83817054D03*
D21*
X289024571Y-85207830D03*
%TD*%
D16*
%TO.C,D12*%
X354822530Y-56122467D03*
X353968430Y-52934911D03*
%TD*%
D21*
%TO.C,L44*%
X260912853Y-103053936D03*
X260350943Y-101663160D03*
D22*
X255390509Y-103667306D03*
D21*
X255952419Y-105058082D03*
%TD*%
D23*
%TO.C,D20*%
X249651921Y-61981625D03*
X248415719Y-58921919D03*
%TD*%
%TO.C,D44*%
X263924429Y-97307335D03*
X262688227Y-94247629D03*
%TD*%
%TO.C,D4*%
X301513698Y-37783991D03*
X300277496Y-34724285D03*
%TD*%
D21*
%TO.C,L4*%
X298502122Y-43530592D03*
X297940212Y-42139816D03*
D22*
X292979778Y-44143962D03*
D21*
X293541688Y-45534738D03*
%TD*%
D20*
%TO.C,D6*%
X327829046Y-42275439D03*
X326809290Y-39136953D03*
%TD*%
D21*
%TO.C,L40*%
X301121269Y-100866539D03*
X300559359Y-99475763D03*
D22*
X295598925Y-101479909D03*
D21*
X296160835Y-102870685D03*
%TD*%
D15*
%TO.C,C11*%
X242167500Y-74676000D03*
X244242500Y-74676000D03*
%TD*%
D21*
%TO.C,L32*%
X253776608Y-85391081D03*
X253214698Y-84000305D03*
D22*
X248254264Y-86004451D03*
D21*
X248816174Y-87395227D03*
%TD*%
D16*
%TO.C,D38*%
X364683534Y-92924248D03*
X363829434Y-89736692D03*
%TD*%
D23*
%TO.C,D28*%
X296996581Y-77457083D03*
X295760379Y-74397377D03*
%TD*%
D15*
%TO.C,C12*%
X249914500Y-91059000D03*
X251989500Y-91059000D03*
%TD*%
D23*
%TO.C,D8*%
X282724074Y-42131373D03*
X281487872Y-39071667D03*
%TD*%
D18*
%TO.C,L26*%
X356063571Y-79860104D03*
X355675342Y-78411216D03*
D19*
X350507639Y-79795898D03*
D18*
X350895868Y-81244786D03*
%TD*%
D23*
%TO.C,D24*%
X315786206Y-73109701D03*
X314550004Y-70049995D03*
%TD*%
%TO.C,D48*%
X271060692Y-114970191D03*
X269824490Y-111910485D03*
%TD*%
%TO.C,D16*%
X289860337Y-59794228D03*
X288624135Y-56734522D03*
%TD*%
D16*
%TO.C,D26*%
X359753032Y-74523357D03*
X358898932Y-71335801D03*
%TD*%
D15*
%TO.C,C10*%
X242146000Y-72136000D03*
X244221000Y-72136000D03*
%TD*%
D25*
%TO.C,L30*%
X336197491Y-84033218D03*
X335733965Y-82606633D03*
D26*
X330645813Y-84259874D03*
D25*
X331109339Y-85686459D03*
%TD*%
D21*
%TO.C,L14*%
X305638385Y-61193447D03*
X305076475Y-59802671D03*
D22*
X300116041Y-61806817D03*
D21*
X300677951Y-63197593D03*
%TD*%
%TO.C,L22*%
X270312675Y-75465955D03*
X269750765Y-74075179D03*
D22*
X264790331Y-76079325D03*
D21*
X265352241Y-77470101D03*
%TD*%
M02*
