%TF.GenerationSoftware,KiCad,Pcbnew,9.0.5*%
%TF.CreationDate,2025-10-09T16:26:15-06:00*%
%TF.ProjectId,ergo-kola (another copy),6572676f-2d6b-46f6-9c61-2028616e6f74,rev?*%
%TF.SameCoordinates,Original*%
%TF.FileFunction,Profile,NP*%
%FSLAX46Y46*%
G04 Gerber Fmt 4.6, Leading zero omitted, Abs format (unit mm)*
G04 Created by KiCad (PCBNEW 9.0.5) date 2025-10-09 16:26:15*
%MOMM*%
%LPD*%
G01*
G04 APERTURE LIST*
%TA.AperFunction,Profile*%
%ADD10C,1.587499*%
%TD*%
%TA.AperFunction,Profile*%
%ADD11C,0.120000*%
%TD*%
G04 APERTURE END LIST*
D10*
X350439565Y-26672870D02*
X370151021Y-99962493D01*
X370352101Y-100709937D01*
X369608632Y-100929550D01*
X324886098Y-114176170D01*
X318274159Y-132845176D01*
X318173604Y-133129074D01*
X317909047Y-133274856D01*
X282454884Y-152854019D01*
X281941319Y-153137649D01*
X281519567Y-152729934D01*
X258078023Y-130069961D01*
X230775395Y-141121078D01*
X230038289Y-141419258D01*
X229741139Y-140681869D01*
X206986974Y-84193328D01*
X206785634Y-83693000D01*
X207176427Y-83321262D01*
X225439549Y-65964862D01*
X223522923Y-61172729D01*
X223268651Y-60537731D01*
X223859471Y-60192714D01*
X270955297Y-32675967D01*
X271062718Y-32613181D01*
X271184163Y-32586300D01*
X299890920Y-26236302D01*
X300454488Y-26112054D01*
X300745503Y-26607190D01*
X306010732Y-35507220D01*
X349505574Y-26103204D01*
X350243794Y-25943610D01*
X350439565Y-26672870D01*
D11*
%TO.C,L38*%
X356185805Y-97219996D02*
X359469952Y-96340011D01*
X356717313Y-99976352D02*
X356044383Y-97464945D01*
X359714901Y-96481432D02*
X360387831Y-98992839D01*
X360246409Y-99237788D02*
X356962262Y-100117773D01*
X356044383Y-97464945D02*
G75*
G02*
X356185805Y-97219996I193185J51764D01*
G01*
X356962262Y-100117773D02*
G75*
G02*
X356717313Y-99976352I-51764J193185D01*
G01*
X359469952Y-96340011D02*
G75*
G02*
X359714901Y-96481432I51763J-193186D01*
G01*
X360387831Y-98992839D02*
G75*
G02*
X360246409Y-99237788I-193187J-51763D01*
G01*
%TO.C,L24*%
X307875336Y-78409042D02*
X311027760Y-77135380D01*
X308738797Y-81080079D02*
X307764820Y-78669401D01*
X311288119Y-77245895D02*
X312262096Y-79656573D01*
X312151580Y-79916932D02*
X308999156Y-81190594D01*
X307764820Y-78669401D02*
G75*
G02*
X307875336Y-78409042I185437J74922D01*
G01*
X308999156Y-81190594D02*
G75*
G02*
X308738797Y-81080079I-74922J185437D01*
G01*
X311027760Y-77135380D02*
G75*
G02*
X311288118Y-77245895I74921J-185438D01*
G01*
X312262096Y-79656573D02*
G75*
G02*
X312151580Y-79916932I-185438J-74921D01*
G01*
%TO.C,L10*%
X258277118Y-57355840D02*
X261429542Y-56082178D01*
X259140579Y-60026877D02*
X258166602Y-57616199D01*
X261689901Y-56192693D02*
X262663878Y-58603371D01*
X262553362Y-58863730D02*
X259400938Y-60137392D01*
X258166602Y-57616199D02*
G75*
G02*
X258277118Y-57355840I185437J74922D01*
G01*
X259400938Y-60137392D02*
G75*
G02*
X259140579Y-60026877I-74922J185437D01*
G01*
X261429542Y-56082178D02*
G75*
G02*
X261689900Y-56192693I74921J-185438D01*
G01*
X262663878Y-58603371D02*
G75*
G02*
X262553362Y-58863730I-185438J-74921D01*
G01*
%TO.C,L36*%
X315011599Y-96071898D02*
X318164023Y-94798236D01*
X315875060Y-98742935D02*
X314901083Y-96332257D01*
X318424382Y-94908751D02*
X319398359Y-97319429D01*
X319287843Y-97579788D02*
X316135419Y-98853450D01*
X314901083Y-96332257D02*
G75*
G02*
X315011599Y-96071898I185437J74922D01*
G01*
X316135419Y-98853450D02*
G75*
G02*
X315875060Y-98742935I-74922J185437D01*
G01*
X318164023Y-94798236D02*
G75*
G02*
X318424381Y-94908751I74921J-185438D01*
G01*
X319398359Y-97319429D02*
G75*
G02*
X319287843Y-97579788I-185438J-74921D01*
G01*
%TO.C,L18*%
X325454556Y-65127654D02*
X328688149Y-64076996D01*
X326129593Y-67852416D02*
X325326149Y-65379669D01*
X328940163Y-64205404D02*
X329743607Y-66678151D01*
X329615200Y-66930166D02*
X326381607Y-67980824D01*
X325326149Y-65379669D02*
G75*
G02*
X325454556Y-65127654I190211J61804D01*
G01*
X326381607Y-67980824D02*
G75*
G02*
X326129592Y-67852416I-61803J190212D01*
G01*
X328688149Y-64076996D02*
G75*
G02*
X328940163Y-64205404I61802J-190213D01*
G01*
X329743607Y-66678151D02*
G75*
G02*
X329615200Y-66930165I-190212J-61803D01*
G01*
%TO.C,L2*%
X341394299Y-42017325D02*
X344678446Y-41137340D01*
X341925807Y-44773681D02*
X341252877Y-42262274D01*
X344923395Y-41278761D02*
X345596325Y-43790168D01*
X345454903Y-44035117D02*
X342170756Y-44915102D01*
X341252877Y-42262274D02*
G75*
G02*
X341394299Y-42017325I193185J51764D01*
G01*
X342170756Y-44915102D02*
G75*
G02*
X341925807Y-44773681I-51764J193185D01*
G01*
X344678446Y-41137340D02*
G75*
G02*
X344923395Y-41278761I51763J-193186D01*
G01*
X345596325Y-43790168D02*
G75*
G02*
X345454903Y-44035117I-193187J-51763D01*
G01*
%TO.C,L52*%
X285066100Y-139232969D02*
X288378959Y-138468135D01*
X285501089Y-142006195D02*
X284916217Y-139472833D01*
X288618823Y-138618019D02*
X289203695Y-141151381D01*
X289053812Y-141391245D02*
X285740953Y-142156079D01*
X284916217Y-139472833D02*
G75*
G02*
X285066100Y-139232969I194874J44990D01*
G01*
X285740953Y-142156079D02*
G75*
G02*
X285501089Y-142006195I-44990J194874D01*
G01*
X288378959Y-138468135D02*
G75*
G02*
X288618823Y-138618019I44990J-194874D01*
G01*
X289203695Y-141151381D02*
G75*
G02*
X289053812Y-141391246I-194875J-44990D01*
G01*
%TO.C,L8*%
X274813204Y-47430714D02*
X277965628Y-46157052D01*
X275676665Y-50101751D02*
X274702688Y-47691073D01*
X278225987Y-46267567D02*
X279199964Y-48678245D01*
X279089448Y-48938604D02*
X275937024Y-50212266D01*
X274702688Y-47691073D02*
G75*
G02*
X274813204Y-47430714I185437J74922D01*
G01*
X275937024Y-50212266D02*
G75*
G02*
X275676665Y-50101751I-74922J185437D01*
G01*
X277965628Y-46157052D02*
G75*
G02*
X278225986Y-46267567I74921J-185438D01*
G01*
X279199964Y-48678245D02*
G75*
G02*
X279089448Y-48938604I-185438J-74921D01*
G01*
%TO.C,L34*%
X272549644Y-92681550D02*
X275702068Y-91407888D01*
X273413105Y-95352587D02*
X272439128Y-92941909D01*
X275962427Y-91518403D02*
X276936404Y-93929081D01*
X276825888Y-94189440D02*
X273673464Y-95463102D01*
X272439128Y-92941909D02*
G75*
G02*
X272549644Y-92681550I185437J74922D01*
G01*
X273673464Y-95463102D02*
G75*
G02*
X273413105Y-95352587I-74922J185437D01*
G01*
X275702068Y-91407888D02*
G75*
G02*
X275962426Y-91518403I74921J-185438D01*
G01*
X276936404Y-93929081D02*
G75*
G02*
X276825888Y-94189440I-185438J-74921D01*
G01*
%TO.C,L48*%
X263149822Y-120269532D02*
X266302247Y-118995870D01*
X264013283Y-122940569D02*
X263039306Y-120529891D01*
X266562605Y-119106385D02*
X267536582Y-121517063D01*
X267426066Y-121777422D02*
X264273641Y-123051084D01*
X263039306Y-120529891D02*
G75*
G02*
X263149822Y-120269532I185437J74922D01*
G01*
X264273641Y-123051084D02*
G75*
G02*
X264013283Y-122940569I-74921J185437D01*
G01*
X266302247Y-118995870D02*
G75*
G02*
X266562604Y-119106385I74919J-185441D01*
G01*
X267536582Y-121517063D02*
G75*
G02*
X267426066Y-121777422I-185438J-74921D01*
G01*
%TO.C,L42*%
X337228103Y-101362907D02*
X340461696Y-100312249D01*
X337903140Y-104087669D02*
X337099696Y-101614922D01*
X340713710Y-100440657D02*
X341517154Y-102913404D01*
X341388747Y-103165419D02*
X338155154Y-104216077D01*
X337099696Y-101614922D02*
G75*
G02*
X337228103Y-101362907I190211J61804D01*
G01*
X338155154Y-104216077D02*
G75*
G02*
X337903139Y-104087669I-61803J190212D01*
G01*
X340461696Y-100312249D02*
G75*
G02*
X340713710Y-100440657I61802J-190213D01*
G01*
X341517154Y-102913404D02*
G75*
G02*
X341388747Y-103165418I-190212J-61803D01*
G01*
%TO.C,L46*%
X279685889Y-110344405D02*
X282838313Y-109070743D01*
X280549350Y-113015442D02*
X279575373Y-110604764D01*
X283098672Y-109181258D02*
X284072649Y-111591936D01*
X283962133Y-111852295D02*
X280809709Y-113125957D01*
X279575373Y-110604764D02*
G75*
G02*
X279685889Y-110344405I185437J74922D01*
G01*
X280809709Y-113125957D02*
G75*
G02*
X280549350Y-113015442I-74922J185437D01*
G01*
X282838313Y-109070743D02*
G75*
G02*
X283098671Y-109181258I74921J-185438D01*
G01*
X284072649Y-111591936D02*
G75*
G02*
X283962133Y-111852295I-185438J-74921D01*
G01*
%TO.C,L16*%
X281949467Y-65093569D02*
X285101891Y-63819907D01*
X282812928Y-67764606D02*
X281838951Y-65353928D01*
X285362250Y-63930422D02*
X286336227Y-66341100D01*
X286225711Y-66601459D02*
X283073287Y-67875121D01*
X281838951Y-65353928D02*
G75*
G02*
X281949467Y-65093569I185437J74922D01*
G01*
X283073287Y-67875121D02*
G75*
G02*
X282812928Y-67764606I-74922J185437D01*
G01*
X285101891Y-63819907D02*
G75*
G02*
X285362249Y-63930422I74921J-185438D01*
G01*
X286336227Y-66341100D02*
G75*
G02*
X286225711Y-66601459I-185438J-74921D01*
G01*
%TO.C,L20*%
X241741051Y-67280966D02*
X244893476Y-66007304D01*
X242604512Y-69952003D02*
X241630535Y-67541325D01*
X245153834Y-66117819D02*
X246127811Y-68528497D01*
X246017295Y-68788856D02*
X242864870Y-70062518D01*
X241630535Y-67541325D02*
G75*
G02*
X241741051Y-67280966I185437J74922D01*
G01*
X242864870Y-70062518D02*
G75*
G02*
X242604512Y-69952003I-74921J185437D01*
G01*
X244893476Y-66007304D02*
G75*
G02*
X245153833Y-66117819I74919J-185441D01*
G01*
X246127811Y-68528497D02*
G75*
G02*
X246017295Y-68788856I-185438J-74921D01*
G01*
%TO.C,L6*%
X319567782Y-47010037D02*
X322801375Y-45959379D01*
X320242819Y-49734799D02*
X319439375Y-47262052D01*
X323053389Y-46087787D02*
X323856833Y-48560534D01*
X323728426Y-48812549D02*
X320494833Y-49863207D01*
X319439375Y-47262052D02*
G75*
G02*
X319567782Y-47010037I190211J61804D01*
G01*
X320494833Y-49863207D02*
G75*
G02*
X320242818Y-49734799I-61803J190212D01*
G01*
X322801375Y-45959379D02*
G75*
G02*
X323053389Y-46087787I61802J-190213D01*
G01*
X323856833Y-48560534D02*
G75*
G02*
X323728426Y-48812548I-190212J-61803D01*
G01*
%TO.C,L12*%
X346324801Y-60418215D02*
X349608948Y-59538230D01*
X346856309Y-63174571D02*
X346183379Y-60663164D01*
X349853897Y-59679651D02*
X350526827Y-62191058D01*
X350385405Y-62436007D02*
X347101258Y-63315992D01*
X346183379Y-60663164D02*
G75*
G02*
X346324801Y-60418215I193185J51764D01*
G01*
X347101258Y-63315992D02*
G75*
G02*
X346856309Y-63174571I-51764J193185D01*
G01*
X349608948Y-59538230D02*
G75*
G02*
X349853897Y-59679651I51763J-193186D01*
G01*
X350526827Y-62191058D02*
G75*
G02*
X350385405Y-62436007I-193187J-51763D01*
G01*
%TO.C,L50*%
X304008255Y-130729618D02*
X307203210Y-129566750D01*
X304777973Y-133429162D02*
X303888721Y-130985961D01*
X307459553Y-129686284D02*
X308348805Y-132129485D01*
X308229271Y-132385828D02*
X305034316Y-133548696D01*
X303888721Y-130985961D02*
G75*
G02*
X304008255Y-130729619I187938J68404D01*
G01*
X305034316Y-133548696D02*
G75*
G02*
X304777974Y-133429162I-68404J187938D01*
G01*
X307203210Y-129566750D02*
G75*
G02*
X307459553Y-129686284I68404J-187940D01*
G01*
X308348805Y-132129485D02*
G75*
G02*
X308229271Y-132385827I-187942J-68402D01*
G01*
%TO.C,L28*%
X289085711Y-82756424D02*
X292238135Y-81482762D01*
X289949172Y-85427461D02*
X288975195Y-83016783D01*
X292498494Y-81593277D02*
X293472471Y-84003955D01*
X293361955Y-84264314D02*
X290209531Y-85537976D01*
X288975195Y-83016783D02*
G75*
G02*
X289085711Y-82756424I185437J74922D01*
G01*
X290209531Y-85537976D02*
G75*
G02*
X289949172Y-85427461I-74922J185437D01*
G01*
X292238135Y-81482762D02*
G75*
G02*
X292498493Y-81593277I74921J-185438D01*
G01*
X293472471Y-84003955D02*
G75*
G02*
X293361955Y-84264314I-185438J-74921D01*
G01*
%TO.C,L44*%
X256013559Y-102606676D02*
X259165984Y-101333014D01*
X256877020Y-105277713D02*
X255903043Y-102867035D01*
X259426342Y-101443529D02*
X260400319Y-103854207D01*
X260289803Y-104114566D02*
X257137378Y-105388228D01*
X255903043Y-102867035D02*
G75*
G02*
X256013559Y-102606676I185437J74922D01*
G01*
X257137378Y-105388228D02*
G75*
G02*
X256877020Y-105277713I-74921J185437D01*
G01*
X259165984Y-101333014D02*
G75*
G02*
X259426341Y-101443529I74919J-185441D01*
G01*
X260400319Y-103854207D02*
G75*
G02*
X260289803Y-104114566I-185438J-74921D01*
G01*
%TO.C,L4*%
X293602828Y-43083332D02*
X296755252Y-41809670D01*
X294466289Y-45754369D02*
X293492312Y-43343691D01*
X297015611Y-41920185D02*
X297989588Y-44330863D01*
X297879072Y-44591222D02*
X294726648Y-45864884D01*
X293492312Y-43343691D02*
G75*
G02*
X293602828Y-43083332I185437J74922D01*
G01*
X294726648Y-45864884D02*
G75*
G02*
X294466289Y-45754369I-74922J185437D01*
G01*
X296755252Y-41809670D02*
G75*
G02*
X297015610Y-41920185I74921J-185438D01*
G01*
X297989588Y-44330863D02*
G75*
G02*
X297879072Y-44591222I-185438J-74921D01*
G01*
%TO.C,L40*%
X296221975Y-100419279D02*
X299374399Y-99145617D01*
X297085436Y-103090316D02*
X296111459Y-100679638D01*
X299634758Y-99256132D02*
X300608735Y-101666810D01*
X300498219Y-101927169D02*
X297345795Y-103200831D01*
X296111459Y-100679638D02*
G75*
G02*
X296221975Y-100419279I185437J74922D01*
G01*
X297345795Y-103200831D02*
G75*
G02*
X297085436Y-103090316I-74922J185437D01*
G01*
X299374399Y-99145617D02*
G75*
G02*
X299634757Y-99256132I74921J-185438D01*
G01*
X300608735Y-101666810D02*
G75*
G02*
X300498219Y-101927169I-185438J-74921D01*
G01*
%TO.C,L32*%
X248877314Y-84943821D02*
X252029739Y-83670159D01*
X249740775Y-87614858D02*
X248766798Y-85204180D01*
X252290097Y-83780674D02*
X253264074Y-86191352D01*
X253153558Y-86451711D02*
X250001133Y-87725373D01*
X248766798Y-85204180D02*
G75*
G02*
X248877314Y-84943821I185437J74922D01*
G01*
X250001133Y-87725373D02*
G75*
G02*
X249740775Y-87614858I-74921J185437D01*
G01*
X252029739Y-83670159D02*
G75*
G02*
X252290096Y-83780674I74919J-185441D01*
G01*
X253264074Y-86191352D02*
G75*
G02*
X253153558Y-86451711I-185438J-74921D01*
G01*
%TO.C,L26*%
X351255303Y-78819105D02*
X354539450Y-77939120D01*
X351786811Y-81575461D02*
X351113881Y-79064054D01*
X354784399Y-78080541D02*
X355457329Y-80591948D01*
X355315907Y-80836897D02*
X352031760Y-81716882D01*
X351113881Y-79064054D02*
G75*
G02*
X351255303Y-78819105I193185J51764D01*
G01*
X352031760Y-81716882D02*
G75*
G02*
X351786811Y-81575461I-51764J193185D01*
G01*
X354539450Y-77939120D02*
G75*
G02*
X354784399Y-78080541I51763J-193186D01*
G01*
X355457329Y-80591948D02*
G75*
G02*
X355315907Y-80836897I-193187J-51763D01*
G01*
%TO.C,L30*%
X331341330Y-83245290D02*
X334574923Y-82194632D01*
X332016367Y-85970052D02*
X331212923Y-83497305D01*
X334826937Y-82323040D02*
X335630381Y-84795787D01*
X335501974Y-85047802D02*
X332268381Y-86098460D01*
X331212923Y-83497305D02*
G75*
G02*
X331341330Y-83245290I190211J61804D01*
G01*
X332268381Y-86098460D02*
G75*
G02*
X332016366Y-85970052I-61803J190212D01*
G01*
X334574923Y-82194632D02*
G75*
G02*
X334826937Y-82323040I61802J-190213D01*
G01*
X335630381Y-84795787D02*
G75*
G02*
X335501974Y-85047801I-190212J-61803D01*
G01*
%TO.C,L14*%
X300739091Y-60746187D02*
X303891515Y-59472525D01*
X301602552Y-63417224D02*
X300628575Y-61006546D01*
X304151874Y-59583040D02*
X305125851Y-61993718D01*
X305015335Y-62254077D02*
X301862911Y-63527739D01*
X300628575Y-61006546D02*
G75*
G02*
X300739091Y-60746187I185437J74922D01*
G01*
X301862911Y-63527739D02*
G75*
G02*
X301602552Y-63417224I-74922J185437D01*
G01*
X303891515Y-59472525D02*
G75*
G02*
X304151873Y-59583040I74921J-185438D01*
G01*
X305125851Y-61993718D02*
G75*
G02*
X305015335Y-62254077I-185438J-74921D01*
G01*
%TO.C,L22*%
X265413381Y-75018695D02*
X268565805Y-73745033D01*
X266276842Y-77689732D02*
X265302865Y-75279054D01*
X268826164Y-73855548D02*
X269800141Y-76266226D01*
X269689625Y-76526585D02*
X266537201Y-77800247D01*
X265302865Y-75279054D02*
G75*
G02*
X265413381Y-75018695I185437J74922D01*
G01*
X266537201Y-77800247D02*
G75*
G02*
X266276842Y-77689732I-74922J185437D01*
G01*
X268565805Y-73745033D02*
G75*
G02*
X268826163Y-73855548I74921J-185438D01*
G01*
X269800141Y-76266226D02*
G75*
G02*
X269689625Y-76526585I-185438J-74921D01*
G01*
%TD*%
M02*
