%TF.GenerationSoftware,KiCad,Pcbnew,9.0.5*%
%TF.CreationDate,2025-10-09T16:26:15-06:00*%
%TF.ProjectId,ergo-kola (another copy),6572676f-2d6b-46f6-9c61-2028616e6f74,rev?*%
%TF.SameCoordinates,Original*%
%TF.FileFunction,Soldermask,Bot*%
%TF.FilePolarity,Negative*%
%FSLAX46Y46*%
G04 Gerber Fmt 4.6, Leading zero omitted, Abs format (unit mm)*
G04 Created by KiCad (PCBNEW 9.0.5) date 2025-10-09 16:26:15*
%MOMM*%
%LPD*%
G01*
G04 APERTURE LIST*
G04 Aperture macros list*
%AMRoundRect*
0 Rectangle with rounded corners*
0 $1 Rounding radius*
0 $2 $3 $4 $5 $6 $7 $8 $9 X,Y pos of 4 corners*
0 Add a 4 corners polygon primitive as box body*
4,1,4,$2,$3,$4,$5,$6,$7,$8,$9,$2,$3,0*
0 Add four circle primitives for the rounded corners*
1,1,$1+$1,$2,$3*
1,1,$1+$1,$4,$5*
1,1,$1+$1,$6,$7*
1,1,$1+$1,$8,$9*
0 Add four rect primitives between the rounded corners*
20,1,$1+$1,$2,$3,$4,$5,0*
20,1,$1+$1,$4,$5,$6,$7,0*
20,1,$1+$1,$6,$7,$8,$9,0*
20,1,$1+$1,$8,$9,$2,$3,0*%
%AMHorizOval*
0 Thick line with rounded ends*
0 $1 width*
0 $2 $3 position (X,Y) of the first rounded end (center of the circle)*
0 $4 $5 position (X,Y) of the second rounded end (center of the circle)*
0 Add line between two ends*
20,1,$1,$2,$3,$4,$5,0*
0 Add two circle primitives to create the rounded ends*
1,1,$1,$2,$3*
1,1,$1,$4,$5*%
%AMRotRect*
0 Rectangle, with rotation*
0 The origin of the aperture is its center*
0 $1 length*
0 $2 width*
0 $3 Rotation angle, in degrees counterclockwise*
0 Add horizontal line*
21,1,$1,$2,0,0,$3*%
G04 Aperture macros list end*
%ADD10C,1.750000*%
%ADD11C,3.000000*%
%ADD12C,4.000000*%
%ADD13RotRect,2.550000X2.500000X18.000000*%
%ADD14RotRect,2.550000X2.500000X15.000000*%
%ADD15C,1.600000*%
%ADD16RotRect,2.550000X2.500000X22.000000*%
%ADD17HorizOval,1.800000X0.000000X0.000000X0.000000X0.000000X0*%
%ADD18HorizOval,1.500000X0.000000X0.000000X0.000000X0.000000X0*%
%ADD19HorizOval,1.700000X0.000000X0.000000X0.000000X0.000000X0*%
%ADD20RotRect,1.700000X1.700000X22.000000*%
%ADD21RotRect,2.550000X2.500000X20.000000*%
%ADD22RotRect,2.550000X2.500000X13.000000*%
%ADD23RoundRect,0.250000X-0.337500X-0.475000X0.337500X-0.475000X0.337500X0.475000X-0.337500X0.475000X0*%
%ADD24RoundRect,0.225000X0.420456X-0.120276X0.303988X0.314390X-0.420456X0.120276X-0.303988X-0.314390X0*%
%ADD25RoundRect,0.250000X-0.154687X-0.561786X0.479606X-0.330922X0.154687X0.561786X-0.479606X0.330922X0*%
%ADD26RotRect,1.450000X0.820000X195.000000*%
%ADD27RoundRect,0.205000X0.449224X0.332601X-0.555339X0.063429X-0.449224X-0.332601X0.555339X-0.063429X0*%
%ADD28RoundRect,0.225000X0.426175X-0.098106X0.287117X0.329869X-0.426175X0.098106X-0.287117X-0.329869X0*%
%ADD29RotRect,1.450000X0.820000X202.000000*%
%ADD30RoundRect,0.205000X0.405341X0.384868X-0.558930X-0.004723X-0.405341X-0.384868X0.558930X0.004723X0*%
%ADD31RoundRect,0.225000X0.431980X-0.068139X0.263407X0.349094X-0.431980X0.068139X-0.263407X-0.349094X0*%
%ADD32RoundRect,0.250000X0.475000X-0.337500X0.475000X0.337500X-0.475000X0.337500X-0.475000X-0.337500X0*%
%ADD33RotRect,1.450000X0.820000X198.000000*%
%ADD34RoundRect,0.205000X0.431201X0.355655X-0.557898X0.034278X-0.431201X-0.355655X0.557898X-0.034278X0*%
%ADD35RotRect,1.450000X0.820000X193.000000*%
%ADD36RoundRect,0.205000X0.460557X0.316720X-0.552787X0.082771X-0.460557X-0.316720X0.552787X-0.082771X0*%
%ADD37RoundRect,0.225000X0.416003X-0.134877X0.314775X0.303590X-0.416003X0.134877X-0.314775X-0.303590X0*%
%ADD38RotRect,1.450000X0.820000X200.000000*%
%ADD39RoundRect,0.205000X0.418526X0.370487X-0.558754X0.014787X-0.418526X-0.370487X0.558754X-0.014787X0*%
%ADD40RoundRect,0.225000X0.429339X-0.083173X0.275430X0.339688X-0.429339X0.083173X-0.275430X-0.339688X0*%
G04 APERTURE END LIST*
D10*
%TO.C,SW30*%
X327014299Y-80865964D03*
D11*
X327437238Y-78057829D03*
D12*
X331845666Y-79296158D03*
D11*
X332691543Y-73679888D03*
D10*
X336677033Y-77726352D03*
D13*
X324013434Y-79170290D03*
X335996465Y-72606054D03*
%TD*%
D10*
%TO.C,SW38*%
X351989227Y-94617472D03*
D11*
X352558552Y-91835320D03*
D12*
X356896130Y-93302671D03*
D11*
X358034781Y-87738367D03*
D10*
X361803033Y-91987870D03*
D14*
X349081219Y-92767069D03*
X361391373Y-86838971D03*
%TD*%
D15*
%TO.C,J2*%
X239710022Y-134262772D03*
X237134569Y-130557770D03*
X233425833Y-132056196D03*
X230644282Y-133180016D03*
%TD*%
D10*
%TO.C,SW8*%
X270330739Y-45359023D03*
D11*
X270556762Y-42528226D03*
D12*
X275040833Y-43456022D03*
D11*
X275492878Y-37794427D03*
D10*
X279750927Y-41553021D03*
D16*
X267218900Y-43876811D03*
X278714842Y-36492669D03*
%TD*%
D10*
%TO.C,SW28*%
X284603246Y-80684733D03*
D11*
X284829269Y-77853936D03*
D12*
X289313340Y-78781732D03*
D11*
X289765385Y-73120137D03*
D10*
X294023434Y-76878731D03*
D16*
X281491407Y-79202520D03*
X292987349Y-71818379D03*
%TD*%
D10*
%TO.C,SW10*%
X253794653Y-55284149D03*
D11*
X254020677Y-52453352D03*
D12*
X258504747Y-53381148D03*
D11*
X258956791Y-47719553D03*
D10*
X263214841Y-51478147D03*
D16*
X250682814Y-53801936D03*
X262178755Y-46417796D03*
%TD*%
D10*
%TO.C,SW40*%
X291739510Y-98347588D03*
D11*
X291965533Y-95516791D03*
D12*
X296449604Y-96444587D03*
D11*
X296901649Y-90782992D03*
D10*
X301159698Y-94541586D03*
D16*
X288627671Y-96865375D03*
X300123613Y-89481234D03*
%TD*%
D10*
%TO.C,SW22*%
X260930916Y-72947004D03*
D11*
X261156940Y-70116207D03*
D12*
X265641010Y-71044003D03*
D11*
X266093054Y-65382408D03*
D10*
X270351104Y-69141002D03*
D16*
X257819077Y-71464791D03*
X269315018Y-64080651D03*
%TD*%
D10*
%TO.C,SW44*%
X251531094Y-100534985D03*
D11*
X251757118Y-97704188D03*
D12*
X256241188Y-98631984D03*
D11*
X256693233Y-92970389D03*
D10*
X260951282Y-96728983D03*
D16*
X248419255Y-99052772D03*
X259915197Y-91668631D03*
%TD*%
D10*
%TO.C,SW42*%
X332901072Y-98983581D03*
D11*
X333324011Y-96175446D03*
D12*
X337732439Y-97413775D03*
D11*
X338578316Y-91797505D03*
D10*
X342563806Y-95843969D03*
D13*
X329900207Y-97287907D03*
X341883238Y-90723671D03*
%TD*%
D10*
%TO.C,SW18*%
X321127526Y-62748327D03*
D11*
X321550464Y-59940193D03*
D12*
X325958892Y-61178522D03*
D11*
X326804769Y-55562252D03*
D10*
X330790258Y-59608717D03*
D13*
X318126660Y-61052653D03*
X330109691Y-54488419D03*
%TD*%
D10*
%TO.C,SW48*%
X258667357Y-118197841D03*
D11*
X258893381Y-115367044D03*
D12*
X263377451Y-116294840D03*
D11*
X263829496Y-110633245D03*
D10*
X268087545Y-114391839D03*
D16*
X255555518Y-116715628D03*
X267051460Y-109331487D03*
%TD*%
D10*
%TO.C,SW34*%
X268067179Y-90609859D03*
D11*
X268293202Y-87779062D03*
D12*
X272777273Y-88706858D03*
D11*
X273229318Y-83045263D03*
D10*
X277487367Y-86803857D03*
D16*
X264955340Y-89127646D03*
X276451282Y-81743505D03*
%TD*%
D10*
%TO.C,SW46*%
X275203424Y-108272714D03*
D11*
X275429447Y-105441917D03*
D12*
X279913518Y-106369713D03*
D11*
X280365563Y-100708118D03*
D10*
X284623612Y-104466712D03*
D16*
X272091585Y-106790501D03*
X283587527Y-99406360D03*
%TD*%
D10*
%TO.C,SW26*%
X347058725Y-76216581D03*
D11*
X347628050Y-73434429D03*
D12*
X351965628Y-74901780D03*
D11*
X353104280Y-69337476D03*
D10*
X356872531Y-73586979D03*
D14*
X344150718Y-74366178D03*
X356460871Y-68438080D03*
%TD*%
D10*
%TO.C,SW32*%
X244394849Y-82872130D03*
D11*
X244620873Y-80041333D03*
D12*
X249104943Y-80969129D03*
D11*
X249556988Y-75307534D03*
D10*
X253815037Y-79066128D03*
D16*
X241283010Y-81389917D03*
X252778952Y-74005776D03*
%TD*%
D10*
%TO.C,SW4*%
X289120363Y-41011641D03*
D11*
X289346387Y-38180844D03*
D12*
X293830457Y-39108640D03*
D11*
X294282501Y-33447045D03*
D10*
X298540551Y-37205639D03*
D16*
X286008524Y-39529428D03*
X297504465Y-32145288D03*
%TD*%
D10*
%TO.C,SW12*%
X342128223Y-57815691D03*
D11*
X342697548Y-55033539D03*
D12*
X347035126Y-56500890D03*
D11*
X348173777Y-50936586D03*
D10*
X351942029Y-55186089D03*
D14*
X339220214Y-55965288D03*
X351530368Y-50037190D03*
%TD*%
D17*
%TO.C,U2*%
X218226866Y-80272856D03*
D18*
X219640079Y-82969842D03*
X224136921Y-81153001D03*
D17*
X223280018Y-78231251D03*
D19*
X212462078Y-82461772D03*
X213413579Y-84816819D03*
D20*
X214365080Y-87171866D03*
D19*
X215316581Y-89526913D03*
X216268081Y-91881960D03*
X217219582Y-94237007D03*
X218171083Y-96592054D03*
D20*
X219122584Y-98947101D03*
D19*
X220074084Y-101302148D03*
X221025585Y-103657195D03*
X221977086Y-106012242D03*
X222928587Y-108367289D03*
D20*
X223880087Y-110722336D03*
D19*
X224831588Y-113077383D03*
X225783089Y-115432430D03*
X226734590Y-117787477D03*
X227686090Y-120142524D03*
D20*
X228637591Y-122497571D03*
D19*
X229589092Y-124852618D03*
X230540593Y-127207665D03*
X247025922Y-120547160D03*
X246074421Y-118192113D03*
D20*
X245122920Y-115837066D03*
D19*
X244171419Y-113482019D03*
X243219919Y-111126972D03*
X242268418Y-108771925D03*
X241316917Y-106416878D03*
D20*
X240365416Y-104061831D03*
D19*
X239413916Y-101706784D03*
X238462415Y-99351737D03*
X237510914Y-96996690D03*
X236559413Y-94641643D03*
D20*
X235607913Y-92286596D03*
D19*
X234656412Y-89931549D03*
X233704911Y-87576502D03*
X232753410Y-85221455D03*
X231801910Y-82866408D03*
D20*
X230850409Y-80511361D03*
D19*
X229898908Y-78156314D03*
X228947407Y-75801267D03*
X236342051Y-124615661D03*
D20*
X238697098Y-123664160D03*
D19*
X241052146Y-122712659D03*
%TD*%
D10*
%TO.C,SW50*%
X299600822Y-128502753D03*
D11*
X299925502Y-125681568D03*
D12*
X304374461Y-126765291D03*
D11*
X305023818Y-121122921D03*
D10*
X309148100Y-125027829D03*
D21*
X296542608Y-126912841D03*
X308289250Y-119934401D03*
%TD*%
D10*
%TO.C,SW52*%
X280962906Y-136485571D03*
D11*
X281628981Y-133724986D03*
D12*
X285912706Y-135342820D03*
D11*
X287244855Y-129821647D03*
D10*
X290862506Y-134200069D03*
D22*
X278121248Y-134534807D03*
X290630792Y-129039939D03*
%TD*%
D10*
%TO.C,SW36*%
X310529134Y-94000207D03*
D11*
X310755157Y-91169410D03*
D12*
X315239228Y-92097206D03*
D11*
X315691273Y-86435611D03*
D10*
X319949322Y-90194205D03*
D16*
X307417295Y-92517994D03*
X318913237Y-85133853D03*
%TD*%
D10*
%TO.C,SW2*%
X337197721Y-39414800D03*
D11*
X337767046Y-36632649D03*
D12*
X342104624Y-38100000D03*
D11*
X343243274Y-32535696D03*
D10*
X347011527Y-36785200D03*
D14*
X334289712Y-37564398D03*
X346599867Y-31636299D03*
%TD*%
D10*
%TO.C,SW20*%
X237258587Y-65209274D03*
D11*
X237484610Y-62378478D03*
D12*
X241968680Y-63306274D03*
D11*
X242420725Y-57644679D03*
D10*
X246678773Y-61403274D03*
D16*
X234146747Y-63727061D03*
X245642690Y-56342922D03*
%TD*%
D10*
%TO.C,SW14*%
X296256626Y-58674496D03*
D11*
X296482649Y-55843699D03*
D12*
X300966720Y-56771495D03*
D11*
X301418765Y-51109900D03*
D10*
X305676814Y-54868494D03*
D16*
X293144787Y-57192284D03*
X304640729Y-49808142D03*
%TD*%
D10*
%TO.C,SW24*%
X303392871Y-76337351D03*
D11*
X303618894Y-73506554D03*
D12*
X308102965Y-74434350D03*
D11*
X308555010Y-68772755D03*
D10*
X312813059Y-72531349D03*
D16*
X300281032Y-74855139D03*
X311776974Y-67470997D03*
%TD*%
D10*
%TO.C,SW16*%
X277467002Y-63021878D03*
D11*
X277693026Y-60191081D03*
D12*
X282177096Y-61118877D03*
D11*
X282629140Y-55457282D03*
D10*
X286887190Y-59215876D03*
D16*
X274355163Y-61539665D03*
X285851104Y-54155525D03*
%TD*%
D10*
%TO.C,SW6*%
X315240752Y-44630710D03*
D11*
X315663690Y-41822576D03*
D12*
X320072118Y-43060905D03*
D11*
X320917995Y-37444635D03*
D10*
X324903484Y-41491100D03*
D13*
X312239886Y-42935036D03*
X324222917Y-36370802D03*
%TD*%
D23*
%TO.C,C14*%
X255227000Y-108585000D03*
X257302000Y-108585000D03*
%TD*%
D24*
%TO.C,D2*%
X349892028Y-37721577D03*
X349037928Y-34534021D03*
%TD*%
D25*
%TO.C,C17*%
X268011069Y-128751846D03*
X269960931Y-128042154D03*
%TD*%
D26*
%TO.C,L38*%
X360994073Y-98260995D03*
X360605844Y-96812107D03*
D27*
X355438141Y-98196789D03*
D26*
X355826370Y-99645677D03*
%TD*%
D28*
%TO.C,D18*%
X333715820Y-60393056D03*
X332696064Y-57254570D03*
%TD*%
D29*
%TO.C,L24*%
X312774630Y-78856302D03*
X312212720Y-77465526D03*
D30*
X307252286Y-79469672D03*
D29*
X307814196Y-80860448D03*
%TD*%
D31*
%TO.C,D46*%
X287596759Y-105045064D03*
X286360557Y-101985358D03*
%TD*%
D29*
%TO.C,L10*%
X263176412Y-57803100D03*
X262614502Y-56412324D03*
D30*
X257654068Y-58416470D03*
D29*
X258215978Y-59807246D03*
%TD*%
%TO.C,L36*%
X319910893Y-96519158D03*
X319348983Y-95128382D03*
D30*
X314388549Y-97132528D03*
D29*
X314950459Y-98523304D03*
%TD*%
D32*
%TO.C,C18*%
X284353000Y-145944500D03*
X284353000Y-143869500D03*
%TD*%
D33*
%TO.C,L18*%
X330310717Y-65915582D03*
X329847191Y-64488997D03*
D34*
X324759039Y-66142238D03*
D33*
X325222565Y-67568823D03*
%TD*%
D26*
%TO.C,L2*%
X346202567Y-43058324D03*
X345814338Y-41609436D03*
D27*
X340646635Y-42994118D03*
D26*
X341034864Y-44443006D03*
%TD*%
D35*
%TO.C,L52*%
X289835109Y-140441140D03*
X289497683Y-138979585D03*
D36*
X284284803Y-140183074D03*
D35*
X284622229Y-141644629D03*
%TD*%
D37*
%TO.C,D52*%
X293708574Y-135236404D03*
X292966236Y-132020982D03*
%TD*%
D25*
%TO.C,C16*%
X266741069Y-127100846D03*
X268690931Y-126391154D03*
%TD*%
D28*
%TO.C,D42*%
X345489367Y-96628309D03*
X344469611Y-93489823D03*
%TD*%
D31*
%TO.C,D40*%
X304132845Y-95119938D03*
X302896643Y-92060232D03*
%TD*%
D29*
%TO.C,L8*%
X279712498Y-47877974D03*
X279150588Y-46487198D03*
D30*
X274190154Y-48491344D03*
D29*
X274752064Y-49882120D03*
%TD*%
D28*
%TO.C,D30*%
X339602594Y-78510692D03*
X338582838Y-75372206D03*
%TD*%
D31*
%TO.C,D32*%
X256788184Y-79644480D03*
X255551982Y-76584774D03*
%TD*%
D29*
%TO.C,L34*%
X277448938Y-93128810D03*
X276887028Y-91738034D03*
D30*
X271926594Y-93742180D03*
D29*
X272488504Y-95132956D03*
%TD*%
%TO.C,L48*%
X268049116Y-120716792D03*
X267487206Y-119326016D03*
D30*
X262526772Y-121330162D03*
D29*
X263088682Y-122720938D03*
%TD*%
D33*
%TO.C,L42*%
X342084264Y-102150835D03*
X341620738Y-100724250D03*
D34*
X336532586Y-102377491D03*
D33*
X336996112Y-103804076D03*
%TD*%
D31*
%TO.C,D34*%
X280460514Y-87382209D03*
X279224312Y-84322503D03*
%TD*%
D29*
%TO.C,L46*%
X284585183Y-110791665D03*
X284023273Y-109400889D03*
D30*
X279062839Y-111405035D03*
D29*
X279624749Y-112795811D03*
%TD*%
D31*
%TO.C,D36*%
X322922469Y-90772557D03*
X321686267Y-87712851D03*
%TD*%
D23*
%TO.C,C13*%
X251163000Y-93599000D03*
X253238000Y-93599000D03*
%TD*%
D31*
%TO.C,D10*%
X266187988Y-52056499D03*
X264951786Y-48996793D03*
%TD*%
D23*
%TO.C,C15*%
X257026500Y-111506000D03*
X259101500Y-111506000D03*
%TD*%
D29*
%TO.C,L16*%
X286848761Y-65540829D03*
X286286851Y-64150053D03*
D30*
X281326417Y-66154199D03*
D29*
X281888327Y-67544975D03*
%TD*%
%TO.C,L20*%
X246640345Y-67728226D03*
X246078435Y-66337450D03*
D30*
X241118001Y-68341596D03*
D29*
X241679911Y-69732372D03*
%TD*%
D33*
%TO.C,L6*%
X324423943Y-47797965D03*
X323960417Y-46371380D03*
D34*
X318872265Y-48024621D03*
D33*
X319335791Y-49451206D03*
%TD*%
D31*
%TO.C,D22*%
X273324251Y-69719354D03*
X272088049Y-66659648D03*
%TD*%
%TO.C,D14*%
X308649961Y-55446846D03*
X307413759Y-52387140D03*
%TD*%
D26*
%TO.C,L12*%
X351133069Y-61459214D03*
X350744840Y-60010326D03*
D27*
X345577137Y-61395008D03*
D26*
X345965366Y-62843896D03*
%TD*%
D38*
%TO.C,L50*%
X308888956Y-131347589D03*
X308375926Y-129938050D03*
D39*
X303348570Y-131767857D03*
D38*
X303861600Y-133177396D03*
%TD*%
D40*
%TO.C,D50*%
X312099251Y-125709591D03*
X310970585Y-122608605D03*
%TD*%
D29*
%TO.C,L28*%
X293985005Y-83203684D03*
X293423095Y-81812908D03*
D30*
X288462661Y-83817054D03*
D29*
X289024571Y-85207830D03*
%TD*%
D24*
%TO.C,D12*%
X354822530Y-56122467D03*
X353968430Y-52934911D03*
%TD*%
D29*
%TO.C,L44*%
X260912853Y-103053936D03*
X260350943Y-101663160D03*
D30*
X255390509Y-103667306D03*
D29*
X255952419Y-105058082D03*
%TD*%
D31*
%TO.C,D20*%
X249651921Y-61981625D03*
X248415719Y-58921919D03*
%TD*%
%TO.C,D44*%
X263924429Y-97307335D03*
X262688227Y-94247629D03*
%TD*%
%TO.C,D4*%
X301513698Y-37783991D03*
X300277496Y-34724285D03*
%TD*%
D29*
%TO.C,L4*%
X298502122Y-43530592D03*
X297940212Y-42139816D03*
D30*
X292979778Y-44143962D03*
D29*
X293541688Y-45534738D03*
%TD*%
D28*
%TO.C,D6*%
X327829046Y-42275439D03*
X326809290Y-39136953D03*
%TD*%
D29*
%TO.C,L40*%
X301121269Y-100866539D03*
X300559359Y-99475763D03*
D30*
X295598925Y-101479909D03*
D29*
X296160835Y-102870685D03*
%TD*%
D23*
%TO.C,C11*%
X242167500Y-74676000D03*
X244242500Y-74676000D03*
%TD*%
D29*
%TO.C,L32*%
X253776608Y-85391081D03*
X253214698Y-84000305D03*
D30*
X248254264Y-86004451D03*
D29*
X248816174Y-87395227D03*
%TD*%
D24*
%TO.C,D38*%
X364683534Y-92924248D03*
X363829434Y-89736692D03*
%TD*%
D31*
%TO.C,D28*%
X296996581Y-77457083D03*
X295760379Y-74397377D03*
%TD*%
D23*
%TO.C,C12*%
X249914500Y-91059000D03*
X251989500Y-91059000D03*
%TD*%
D31*
%TO.C,D8*%
X282724074Y-42131373D03*
X281487872Y-39071667D03*
%TD*%
D26*
%TO.C,L26*%
X356063571Y-79860104D03*
X355675342Y-78411216D03*
D27*
X350507639Y-79795898D03*
D26*
X350895868Y-81244786D03*
%TD*%
D31*
%TO.C,D24*%
X315786206Y-73109701D03*
X314550004Y-70049995D03*
%TD*%
%TO.C,D48*%
X271060692Y-114970191D03*
X269824490Y-111910485D03*
%TD*%
%TO.C,D16*%
X289860337Y-59794228D03*
X288624135Y-56734522D03*
%TD*%
D24*
%TO.C,D26*%
X359753032Y-74523357D03*
X358898932Y-71335801D03*
%TD*%
D23*
%TO.C,C10*%
X242146000Y-72136000D03*
X244221000Y-72136000D03*
%TD*%
D33*
%TO.C,L30*%
X336197491Y-84033218D03*
X335733965Y-82606633D03*
D34*
X330645813Y-84259874D03*
D33*
X331109339Y-85686459D03*
%TD*%
D29*
%TO.C,L14*%
X305638385Y-61193447D03*
X305076475Y-59802671D03*
D30*
X300116041Y-61806817D03*
D29*
X300677951Y-63197593D03*
%TD*%
%TO.C,L22*%
X270312675Y-75465955D03*
X269750765Y-74075179D03*
D30*
X264790331Y-76079325D03*
D29*
X265352241Y-77470101D03*
%TD*%
M02*
