%TF.GenerationSoftware,KiCad,Pcbnew,9.0.5*%
%TF.CreationDate,2025-10-09T16:26:15-06:00*%
%TF.ProjectId,ergo-kola (another copy),6572676f-2d6b-46f6-9c61-2028616e6f74,rev?*%
%TF.SameCoordinates,Original*%
%TF.FileFunction,Soldermask,Top*%
%TF.FilePolarity,Negative*%
%FSLAX46Y46*%
G04 Gerber Fmt 4.6, Leading zero omitted, Abs format (unit mm)*
G04 Created by KiCad (PCBNEW 9.0.5) date 2025-10-09 16:26:15*
%MOMM*%
%LPD*%
G01*
G04 APERTURE LIST*
G04 Aperture macros list*
%AMHorizOval*
0 Thick line with rounded ends*
0 $1 width*
0 $2 $3 position (X,Y) of the first rounded end (center of the circle)*
0 $4 $5 position (X,Y) of the second rounded end (center of the circle)*
0 Add line between two ends*
20,1,$1,$2,$3,$4,$5,0*
0 Add two circle primitives to create the rounded ends*
1,1,$1,$2,$3*
1,1,$1,$4,$5*%
%AMRotRect*
0 Rectangle, with rotation*
0 The origin of the aperture is its center*
0 $1 length*
0 $2 width*
0 $3 Rotation angle, in degrees counterclockwise*
0 Add horizontal line*
21,1,$1,$2,0,0,$3*%
G04 Aperture macros list end*
%ADD10C,1.750000*%
%ADD11C,3.000000*%
%ADD12C,4.000000*%
%ADD13C,1.600000*%
%ADD14HorizOval,1.800000X0.000000X0.000000X0.000000X0.000000X0*%
%ADD15HorizOval,1.500000X0.000000X0.000000X0.000000X0.000000X0*%
%ADD16HorizOval,1.700000X0.000000X0.000000X0.000000X0.000000X0*%
%ADD17RotRect,3.500000X1.700000X22.000000*%
%ADD18RotRect,1.700000X1.700000X22.000000*%
%ADD19RotRect,3.500000X1.700000X112.000000*%
G04 APERTURE END LIST*
D10*
%TO.C,SW30*%
X327014299Y-80865964D03*
D11*
X327437238Y-78057829D03*
D12*
X331845666Y-79296158D03*
D11*
X332691543Y-73679888D03*
D10*
X336677033Y-77726352D03*
%TD*%
%TO.C,SW38*%
X351989227Y-94617472D03*
D11*
X352558552Y-91835320D03*
D12*
X356896130Y-93302671D03*
D11*
X358034781Y-87738367D03*
D10*
X361803033Y-91987870D03*
%TD*%
D13*
%TO.C,J2*%
X239710022Y-134262772D03*
X237134569Y-130557770D03*
X233425833Y-132056196D03*
X230644282Y-133180016D03*
%TD*%
D10*
%TO.C,SW8*%
X270330739Y-45359023D03*
D11*
X270556762Y-42528226D03*
D12*
X275040833Y-43456022D03*
D11*
X275492878Y-37794427D03*
D10*
X279750927Y-41553021D03*
%TD*%
%TO.C,SW28*%
X284603246Y-80684733D03*
D11*
X284829269Y-77853936D03*
D12*
X289313340Y-78781732D03*
D11*
X289765385Y-73120137D03*
D10*
X294023434Y-76878731D03*
%TD*%
%TO.C,SW10*%
X253794653Y-55284149D03*
D11*
X254020677Y-52453352D03*
D12*
X258504747Y-53381148D03*
D11*
X258956791Y-47719553D03*
D10*
X263214841Y-51478147D03*
%TD*%
%TO.C,SW40*%
X291739510Y-98347588D03*
D11*
X291965533Y-95516791D03*
D12*
X296449604Y-96444587D03*
D11*
X296901649Y-90782992D03*
D10*
X301159698Y-94541586D03*
%TD*%
%TO.C,SW22*%
X260930916Y-72947004D03*
D11*
X261156940Y-70116207D03*
D12*
X265641010Y-71044003D03*
D11*
X266093054Y-65382408D03*
D10*
X270351104Y-69141002D03*
%TD*%
%TO.C,SW44*%
X251531094Y-100534985D03*
D11*
X251757118Y-97704188D03*
D12*
X256241188Y-98631984D03*
D11*
X256693233Y-92970389D03*
D10*
X260951282Y-96728983D03*
%TD*%
%TO.C,SW42*%
X332901072Y-98983581D03*
D11*
X333324011Y-96175446D03*
D12*
X337732439Y-97413775D03*
D11*
X338578316Y-91797505D03*
D10*
X342563806Y-95843969D03*
%TD*%
%TO.C,SW18*%
X321127526Y-62748327D03*
D11*
X321550464Y-59940193D03*
D12*
X325958892Y-61178522D03*
D11*
X326804769Y-55562252D03*
D10*
X330790258Y-59608717D03*
%TD*%
%TO.C,SW48*%
X258667357Y-118197841D03*
D11*
X258893381Y-115367044D03*
D12*
X263377451Y-116294840D03*
D11*
X263829496Y-110633245D03*
D10*
X268087545Y-114391839D03*
%TD*%
%TO.C,SW34*%
X268067179Y-90609859D03*
D11*
X268293202Y-87779062D03*
D12*
X272777273Y-88706858D03*
D11*
X273229318Y-83045263D03*
D10*
X277487367Y-86803857D03*
%TD*%
%TO.C,SW46*%
X275203424Y-108272714D03*
D11*
X275429447Y-105441917D03*
D12*
X279913518Y-106369713D03*
D11*
X280365563Y-100708118D03*
D10*
X284623612Y-104466712D03*
%TD*%
%TO.C,SW26*%
X347058725Y-76216581D03*
D11*
X347628050Y-73434429D03*
D12*
X351965628Y-74901780D03*
D11*
X353104280Y-69337476D03*
D10*
X356872531Y-73586979D03*
%TD*%
%TO.C,SW32*%
X244394849Y-82872130D03*
D11*
X244620873Y-80041333D03*
D12*
X249104943Y-80969129D03*
D11*
X249556988Y-75307534D03*
D10*
X253815037Y-79066128D03*
%TD*%
%TO.C,SW4*%
X289120363Y-41011641D03*
D11*
X289346387Y-38180844D03*
D12*
X293830457Y-39108640D03*
D11*
X294282501Y-33447045D03*
D10*
X298540551Y-37205639D03*
%TD*%
%TO.C,SW12*%
X342128223Y-57815691D03*
D11*
X342697548Y-55033539D03*
D12*
X347035126Y-56500890D03*
D11*
X348173777Y-50936586D03*
D10*
X351942029Y-55186089D03*
%TD*%
D14*
%TO.C,U2*%
X218226866Y-80272856D03*
D15*
X219640079Y-82969842D03*
X224136921Y-81153001D03*
D14*
X223280018Y-78231251D03*
D16*
X212462078Y-82461772D03*
D17*
X211627613Y-82798918D03*
D16*
X213413579Y-84816819D03*
D17*
X212579114Y-85153965D03*
D18*
X214365080Y-87171866D03*
D17*
X213530615Y-87509012D03*
D16*
X215316581Y-89526913D03*
D17*
X214482116Y-89864059D03*
D16*
X216268081Y-91881960D03*
D17*
X215433616Y-92219106D03*
D16*
X217219582Y-94237007D03*
D17*
X216385117Y-94574153D03*
D16*
X218171083Y-96592054D03*
D17*
X217336618Y-96929200D03*
D18*
X219122584Y-98947101D03*
D17*
X218288119Y-99284247D03*
D16*
X220074084Y-101302148D03*
D17*
X219239619Y-101639294D03*
D16*
X221025585Y-103657195D03*
D17*
X220191120Y-103994341D03*
D16*
X221977086Y-106012242D03*
D17*
X221142621Y-106349388D03*
D16*
X222928587Y-108367289D03*
D17*
X222094122Y-108704435D03*
D18*
X223880087Y-110722336D03*
D17*
X223045622Y-111059482D03*
D16*
X224831588Y-113077383D03*
D17*
X223997123Y-113414529D03*
D16*
X225783089Y-115432430D03*
D17*
X224948624Y-115769576D03*
D16*
X226734590Y-117787477D03*
D17*
X225900125Y-118124623D03*
D16*
X227686090Y-120142524D03*
D17*
X226851625Y-120479670D03*
D18*
X228637591Y-122497571D03*
D17*
X227803126Y-122834717D03*
D16*
X229589092Y-124852618D03*
D17*
X228754627Y-125189764D03*
D16*
X230540593Y-127207665D03*
D17*
X229706128Y-127544811D03*
D16*
X247025922Y-120547160D03*
D17*
X247860387Y-120210014D03*
D16*
X246074421Y-118192113D03*
D17*
X246908886Y-117854967D03*
D18*
X245122920Y-115837066D03*
D17*
X245957385Y-115499920D03*
D16*
X244171419Y-113482019D03*
D17*
X245005884Y-113144873D03*
D16*
X243219919Y-111126972D03*
D17*
X244054384Y-110789826D03*
D16*
X242268418Y-108771925D03*
D17*
X243102883Y-108434779D03*
D16*
X241316917Y-106416878D03*
D17*
X242151382Y-106079732D03*
D18*
X240365416Y-104061831D03*
D17*
X241199881Y-103724685D03*
D16*
X239413916Y-101706784D03*
D17*
X240248381Y-101369638D03*
D16*
X238462415Y-99351737D03*
D17*
X239296880Y-99014591D03*
D16*
X237510914Y-96996690D03*
D17*
X238345379Y-96659544D03*
D16*
X236559413Y-94641643D03*
D17*
X237393878Y-94304497D03*
D18*
X235607913Y-92286596D03*
D17*
X236442378Y-91949450D03*
D16*
X234656412Y-89931549D03*
D17*
X235490877Y-89594403D03*
D16*
X233704911Y-87576502D03*
D17*
X234539376Y-87239356D03*
D16*
X232753410Y-85221455D03*
D17*
X233587875Y-84884309D03*
D16*
X231801910Y-82866408D03*
D17*
X232636375Y-82529262D03*
D18*
X230850409Y-80511361D03*
D17*
X231684874Y-80174215D03*
D16*
X229898908Y-78156314D03*
D17*
X230733373Y-77819168D03*
D16*
X228947407Y-75801267D03*
D17*
X229781872Y-75464121D03*
D16*
X236342051Y-124615661D03*
D19*
X236679197Y-125450126D03*
D18*
X238697098Y-123664160D03*
D19*
X239034244Y-124498625D03*
D16*
X241052146Y-122712659D03*
D19*
X241389292Y-123547124D03*
%TD*%
D10*
%TO.C,SW50*%
X299600822Y-128502753D03*
D11*
X299925502Y-125681568D03*
D12*
X304374461Y-126765291D03*
D11*
X305023818Y-121122921D03*
D10*
X309148100Y-125027829D03*
%TD*%
%TO.C,SW52*%
X280962906Y-136485571D03*
D11*
X281628981Y-133724986D03*
D12*
X285912706Y-135342820D03*
D11*
X287244855Y-129821647D03*
D10*
X290862506Y-134200069D03*
%TD*%
%TO.C,SW36*%
X310529134Y-94000207D03*
D11*
X310755157Y-91169410D03*
D12*
X315239228Y-92097206D03*
D11*
X315691273Y-86435611D03*
D10*
X319949322Y-90194205D03*
%TD*%
%TO.C,SW2*%
X337197721Y-39414800D03*
D11*
X337767046Y-36632649D03*
D12*
X342104624Y-38100000D03*
D11*
X343243274Y-32535696D03*
D10*
X347011527Y-36785200D03*
%TD*%
%TO.C,SW20*%
X237258587Y-65209274D03*
D11*
X237484610Y-62378478D03*
D12*
X241968680Y-63306274D03*
D11*
X242420725Y-57644679D03*
D10*
X246678773Y-61403274D03*
%TD*%
%TO.C,SW14*%
X296256626Y-58674496D03*
D11*
X296482649Y-55843699D03*
D12*
X300966720Y-56771495D03*
D11*
X301418765Y-51109900D03*
D10*
X305676814Y-54868494D03*
%TD*%
%TO.C,SW24*%
X303392871Y-76337351D03*
D11*
X303618894Y-73506554D03*
D12*
X308102965Y-74434350D03*
D11*
X308555010Y-68772755D03*
D10*
X312813059Y-72531349D03*
%TD*%
%TO.C,SW16*%
X277467002Y-63021878D03*
D11*
X277693026Y-60191081D03*
D12*
X282177096Y-61118877D03*
D11*
X282629140Y-55457282D03*
D10*
X286887190Y-59215876D03*
%TD*%
%TO.C,SW6*%
X315240752Y-44630710D03*
D11*
X315663690Y-41822576D03*
D12*
X320072118Y-43060905D03*
D11*
X320917995Y-37444635D03*
D10*
X324903484Y-41491100D03*
%TD*%
M02*
