%TF.GenerationSoftware,KiCad,Pcbnew,9.0.5*%
%TF.CreationDate,2025-10-09T16:26:15-06:00*%
%TF.ProjectId,ergo-kola (another copy),6572676f-2d6b-46f6-9c61-2028616e6f74,rev?*%
%TF.SameCoordinates,Original*%
%TF.FileFunction,Legend,Bot*%
%TF.FilePolarity,Positive*%
%FSLAX46Y46*%
G04 Gerber Fmt 4.6, Leading zero omitted, Abs format (unit mm)*
G04 Created by KiCad (PCBNEW 9.0.5) date 2025-10-09 16:26:15*
%MOMM*%
%LPD*%
G01*
G04 APERTURE LIST*
%ADD10C,0.150000*%
%ADD11C,0.120000*%
%ADD12C,0.100000*%
G04 APERTURE END LIST*
D10*
X256907357Y-110624580D02*
X256954976Y-110672200D01*
X256954976Y-110672200D02*
X257097833Y-110719819D01*
X257097833Y-110719819D02*
X257193071Y-110719819D01*
X257193071Y-110719819D02*
X257335928Y-110672200D01*
X257335928Y-110672200D02*
X257431166Y-110576961D01*
X257431166Y-110576961D02*
X257478785Y-110481723D01*
X257478785Y-110481723D02*
X257526404Y-110291247D01*
X257526404Y-110291247D02*
X257526404Y-110148390D01*
X257526404Y-110148390D02*
X257478785Y-109957914D01*
X257478785Y-109957914D02*
X257431166Y-109862676D01*
X257431166Y-109862676D02*
X257335928Y-109767438D01*
X257335928Y-109767438D02*
X257193071Y-109719819D01*
X257193071Y-109719819D02*
X257097833Y-109719819D01*
X257097833Y-109719819D02*
X256954976Y-109767438D01*
X256954976Y-109767438D02*
X256907357Y-109815057D01*
X255954976Y-110719819D02*
X256526404Y-110719819D01*
X256240690Y-110719819D02*
X256240690Y-109719819D01*
X256240690Y-109719819D02*
X256335928Y-109862676D01*
X256335928Y-109862676D02*
X256431166Y-109957914D01*
X256431166Y-109957914D02*
X256526404Y-110005533D01*
X255097833Y-110053152D02*
X255097833Y-110719819D01*
X255335928Y-109672200D02*
X255574023Y-110386485D01*
X255574023Y-110386485D02*
X254954976Y-110386485D01*
X351148541Y-36440821D02*
X352114467Y-36182002D01*
X352114467Y-36182002D02*
X352052843Y-35952020D01*
X352052843Y-35952020D02*
X351969873Y-35826355D01*
X351969873Y-35826355D02*
X351853230Y-35759012D01*
X351853230Y-35759012D02*
X351748913Y-35737665D01*
X351748913Y-35737665D02*
X351552602Y-35740967D01*
X351552602Y-35740967D02*
X351414613Y-35777941D01*
X351414613Y-35777941D02*
X351242951Y-35873236D01*
X351242951Y-35873236D02*
X351163283Y-35943882D01*
X351163283Y-35943882D02*
X351095940Y-36060525D01*
X351095940Y-36060525D02*
X351086917Y-36210839D01*
X351086917Y-36210839D02*
X351148541Y-36440821D01*
X351775980Y-35286722D02*
X351809651Y-35228401D01*
X351809651Y-35228401D02*
X351830998Y-35124083D01*
X351830998Y-35124083D02*
X351769375Y-34894101D01*
X351769375Y-34894101D02*
X351698729Y-34814433D01*
X351698729Y-34814433D02*
X351640408Y-34780761D01*
X351640408Y-34780761D02*
X351536090Y-34759414D01*
X351536090Y-34759414D02*
X351444097Y-34784063D01*
X351444097Y-34784063D02*
X351318432Y-34867034D01*
X351318432Y-34867034D02*
X350914371Y-35566888D01*
X350914371Y-35566888D02*
X350754150Y-34968934D01*
X270287666Y-130093709D02*
X270348700Y-130122170D01*
X270348700Y-130122170D02*
X270499228Y-130118057D01*
X270499228Y-130118057D02*
X270588723Y-130085483D01*
X270588723Y-130085483D02*
X270706678Y-129991876D01*
X270706678Y-129991876D02*
X270763599Y-129869808D01*
X270763599Y-129869808D02*
X270775773Y-129764027D01*
X270775773Y-129764027D02*
X270755373Y-129568751D01*
X270755373Y-129568751D02*
X270706513Y-129434510D01*
X270706513Y-129434510D02*
X270596619Y-129271807D01*
X270596619Y-129271807D02*
X270519299Y-129198599D01*
X270519299Y-129198599D02*
X270397231Y-129141678D01*
X270397231Y-129141678D02*
X270246702Y-129145791D01*
X270246702Y-129145791D02*
X270157208Y-129178364D01*
X270157208Y-129178364D02*
X270039253Y-129271971D01*
X270039253Y-129271971D02*
X270010792Y-129333005D01*
X269425294Y-130508937D02*
X269962261Y-130313497D01*
X269693777Y-130411217D02*
X269351757Y-129471524D01*
X269351757Y-129471524D02*
X269490112Y-129573193D01*
X269490112Y-129573193D02*
X269612179Y-129630114D01*
X269612179Y-129630114D02*
X269717961Y-129642288D01*
X268770043Y-129683251D02*
X268143581Y-129911265D01*
X268143581Y-129911265D02*
X268888326Y-130704377D01*
X359276089Y-100446132D02*
X359598064Y-100359859D01*
X359598064Y-100359859D02*
X359416891Y-99683711D01*
X358933927Y-99813120D02*
X358515359Y-99925275D01*
X358515359Y-99925275D02*
X358809761Y-100122464D01*
X358809761Y-100122464D02*
X358713168Y-100148346D01*
X358713168Y-100148346D02*
X358657400Y-100197798D01*
X358657400Y-100197798D02*
X358633830Y-100238623D01*
X358633830Y-100238623D02*
X358618887Y-100311645D01*
X358618887Y-100311645D02*
X358662024Y-100472633D01*
X358662024Y-100472633D02*
X358711476Y-100528401D01*
X358711476Y-100528401D02*
X358752301Y-100551971D01*
X358752301Y-100551971D02*
X358825323Y-100566914D01*
X358825323Y-100566914D02*
X359018508Y-100515150D01*
X359018508Y-100515150D02*
X359074276Y-100465698D01*
X359074276Y-100465698D02*
X359097846Y-100424873D01*
X358206634Y-100318581D02*
X358262402Y-100269128D01*
X358262402Y-100269128D02*
X358285972Y-100228304D01*
X358285972Y-100228304D02*
X358300915Y-100155281D01*
X358300915Y-100155281D02*
X358292288Y-100123084D01*
X358292288Y-100123084D02*
X358242836Y-100067316D01*
X358242836Y-100067316D02*
X358202011Y-100043746D01*
X358202011Y-100043746D02*
X358128989Y-100028803D01*
X358128989Y-100028803D02*
X358000199Y-100063312D01*
X358000199Y-100063312D02*
X357944431Y-100112764D01*
X357944431Y-100112764D02*
X357920861Y-100153589D01*
X357920861Y-100153589D02*
X357905918Y-100226611D01*
X357905918Y-100226611D02*
X357914545Y-100258809D01*
X357914545Y-100258809D02*
X357963997Y-100314577D01*
X357963997Y-100314577D02*
X358004822Y-100338147D01*
X358004822Y-100338147D02*
X358077844Y-100353090D01*
X358077844Y-100353090D02*
X358206634Y-100318581D01*
X358206634Y-100318581D02*
X358279657Y-100333524D01*
X358279657Y-100333524D02*
X358320482Y-100357094D01*
X358320482Y-100357094D02*
X358369934Y-100412861D01*
X358369934Y-100412861D02*
X358404443Y-100541652D01*
X358404443Y-100541652D02*
X358389500Y-100614674D01*
X358389500Y-100614674D02*
X358365930Y-100655499D01*
X358365930Y-100655499D02*
X358310162Y-100704951D01*
X358310162Y-100704951D02*
X358181372Y-100739460D01*
X358181372Y-100739460D02*
X358108350Y-100724517D01*
X358108350Y-100724517D02*
X358067525Y-100700947D01*
X358067525Y-100700947D02*
X358018073Y-100645179D01*
X358018073Y-100645179D02*
X357983563Y-100516389D01*
X357983563Y-100516389D02*
X357998506Y-100443367D01*
X357998506Y-100443367D02*
X358022077Y-100402542D01*
X358022077Y-100402542D02*
X358077844Y-100353090D01*
X335050731Y-59501180D02*
X336001787Y-59192163D01*
X336001787Y-59192163D02*
X335928212Y-58965721D01*
X335928212Y-58965721D02*
X335838778Y-58844571D01*
X335838778Y-58844571D02*
X335718771Y-58783424D01*
X335718771Y-58783424D02*
X335613479Y-58767566D01*
X335613479Y-58767566D02*
X335417611Y-58781138D01*
X335417611Y-58781138D02*
X335281745Y-58825283D01*
X335281745Y-58825283D02*
X335115307Y-58929432D01*
X335115307Y-58929432D02*
X335039445Y-59004150D01*
X335039445Y-59004150D02*
X334978298Y-59124157D01*
X334978298Y-59124157D02*
X334977155Y-59274738D01*
X334977155Y-59274738D02*
X335050731Y-59501180D01*
X334579848Y-58051951D02*
X334756429Y-58595412D01*
X334668138Y-58323681D02*
X335619195Y-58014664D01*
X335619195Y-58014664D02*
X335512760Y-58149386D01*
X335512760Y-58149386D02*
X335451613Y-58269393D01*
X335451613Y-58269393D02*
X335435755Y-58374685D01*
X334946727Y-57331909D02*
X335021446Y-57407770D01*
X335021446Y-57407770D02*
X335081450Y-57438344D01*
X335081450Y-57438344D02*
X335186741Y-57454202D01*
X335186741Y-57454202D02*
X335232030Y-57439487D01*
X335232030Y-57439487D02*
X335307892Y-57364768D01*
X335307892Y-57364768D02*
X335338465Y-57304765D01*
X335338465Y-57304765D02*
X335354323Y-57199473D01*
X335354323Y-57199473D02*
X335295463Y-57018319D01*
X335295463Y-57018319D02*
X335220744Y-56942457D01*
X335220744Y-56942457D02*
X335160741Y-56911884D01*
X335160741Y-56911884D02*
X335055449Y-56896026D01*
X335055449Y-56896026D02*
X335010160Y-56910741D01*
X335010160Y-56910741D02*
X334934299Y-56985460D01*
X334934299Y-56985460D02*
X334903725Y-57045463D01*
X334903725Y-57045463D02*
X334887867Y-57150755D01*
X334887867Y-57150755D02*
X334946727Y-57331909D01*
X334946727Y-57331909D02*
X334930869Y-57437201D01*
X334930869Y-57437201D02*
X334900296Y-57497204D01*
X334900296Y-57497204D02*
X334824434Y-57571923D01*
X334824434Y-57571923D02*
X334643281Y-57630783D01*
X334643281Y-57630783D02*
X334537989Y-57614925D01*
X334537989Y-57614925D02*
X334477985Y-57584352D01*
X334477985Y-57584352D02*
X334403267Y-57508490D01*
X334403267Y-57508490D02*
X334344406Y-57327336D01*
X334344406Y-57327336D02*
X334360264Y-57222044D01*
X334360264Y-57222044D02*
X334390838Y-57162041D01*
X334390838Y-57162041D02*
X334466699Y-57087322D01*
X334466699Y-57087322D02*
X334647853Y-57028462D01*
X334647853Y-57028462D02*
X334753145Y-57044320D01*
X334753145Y-57044320D02*
X334813149Y-57074893D01*
X334813149Y-57074893D02*
X334887867Y-57150755D01*
X311335752Y-81234521D02*
X311644814Y-81109652D01*
X311644814Y-81109652D02*
X311382589Y-80460623D01*
X310913064Y-80722226D02*
X310869671Y-80703806D01*
X310869671Y-80703806D02*
X310795372Y-80697874D01*
X310795372Y-80697874D02*
X310640842Y-80760308D01*
X310640842Y-80760308D02*
X310591516Y-80816188D01*
X310591516Y-80816188D02*
X310573097Y-80859581D01*
X310573097Y-80859581D02*
X310567165Y-80933880D01*
X310567165Y-80933880D02*
X310592138Y-80995693D01*
X310592138Y-80995693D02*
X310660505Y-81075924D01*
X310660505Y-81075924D02*
X311181221Y-81296955D01*
X311181221Y-81296955D02*
X310779442Y-81459285D01*
X310048315Y-81251363D02*
X310223131Y-81684049D01*
X310102950Y-80941679D02*
X310444784Y-81342837D01*
X310444784Y-81342837D02*
X310043005Y-81505166D01*
X288866204Y-104062242D02*
X289793388Y-103687635D01*
X289793388Y-103687635D02*
X289704196Y-103466877D01*
X289704196Y-103466877D02*
X289606529Y-103352261D01*
X289606529Y-103352261D02*
X289482549Y-103299634D01*
X289482549Y-103299634D02*
X289376407Y-103291160D01*
X289376407Y-103291160D02*
X289181963Y-103318362D01*
X289181963Y-103318362D02*
X289049508Y-103371877D01*
X289049508Y-103371877D02*
X288890740Y-103487382D01*
X288890740Y-103487382D02*
X288820275Y-103567211D01*
X288820275Y-103567211D02*
X288767648Y-103691191D01*
X288767648Y-103691191D02*
X288777012Y-103841484D01*
X288777012Y-103841484D02*
X288866204Y-104062242D01*
X288949174Y-102487956D02*
X288331052Y-102737694D01*
X289391579Y-102566007D02*
X288818497Y-103054341D01*
X288818497Y-103054341D02*
X288586598Y-102480370D01*
X288901467Y-101480055D02*
X288972821Y-101656661D01*
X288972821Y-101656661D02*
X288964346Y-101762803D01*
X288964346Y-101762803D02*
X288938033Y-101824793D01*
X288938033Y-101824793D02*
X288841255Y-101966611D01*
X288841255Y-101966611D02*
X288682487Y-102082116D01*
X288682487Y-102082116D02*
X288329274Y-102224824D01*
X288329274Y-102224824D02*
X288223133Y-102216349D01*
X288223133Y-102216349D02*
X288161142Y-102190036D01*
X288161142Y-102190036D02*
X288081314Y-102119571D01*
X288081314Y-102119571D02*
X288009960Y-101942964D01*
X288009960Y-101942964D02*
X288018435Y-101836823D01*
X288018435Y-101836823D02*
X288044748Y-101774833D01*
X288044748Y-101774833D02*
X288115213Y-101695004D01*
X288115213Y-101695004D02*
X288335971Y-101605812D01*
X288335971Y-101605812D02*
X288442113Y-101614287D01*
X288442113Y-101614287D02*
X288504103Y-101640600D01*
X288504103Y-101640600D02*
X288583931Y-101711065D01*
X288583931Y-101711065D02*
X288655285Y-101887672D01*
X288655285Y-101887672D02*
X288646810Y-101993813D01*
X288646810Y-101993813D02*
X288620497Y-102055803D01*
X288620497Y-102055803D02*
X288550032Y-102135632D01*
X261737534Y-60181319D02*
X262046596Y-60056450D01*
X262046596Y-60056450D02*
X261784371Y-59407421D01*
X261181224Y-60406083D02*
X261552097Y-60256240D01*
X261366661Y-60331161D02*
X261104436Y-59682133D01*
X261104436Y-59682133D02*
X261203709Y-59749877D01*
X261203709Y-59749877D02*
X261290495Y-59786716D01*
X261290495Y-59786716D02*
X261364794Y-59792648D01*
X260517219Y-59919384D02*
X260455407Y-59944357D01*
X260455407Y-59944357D02*
X260406082Y-60000237D01*
X260406082Y-60000237D02*
X260387662Y-60043630D01*
X260387662Y-60043630D02*
X260381730Y-60117929D01*
X260381730Y-60117929D02*
X260400771Y-60254041D01*
X260400771Y-60254041D02*
X260463206Y-60408571D01*
X260463206Y-60408571D02*
X260544059Y-60519709D01*
X260544059Y-60519709D02*
X260599939Y-60569034D01*
X260599939Y-60569034D02*
X260643332Y-60587454D01*
X260643332Y-60587454D02*
X260717632Y-60593386D01*
X260717632Y-60593386D02*
X260779444Y-60568412D01*
X260779444Y-60568412D02*
X260828769Y-60512532D01*
X260828769Y-60512532D02*
X260847188Y-60469139D01*
X260847188Y-60469139D02*
X260853121Y-60394840D01*
X260853121Y-60394840D02*
X260834079Y-60258729D01*
X260834079Y-60258729D02*
X260771645Y-60104198D01*
X260771645Y-60104198D02*
X260690791Y-59993061D01*
X260690791Y-59993061D02*
X260634911Y-59943735D01*
X260634911Y-59943735D02*
X260591518Y-59925316D01*
X260591518Y-59925316D02*
X260517219Y-59919384D01*
X318472015Y-98897377D02*
X318781077Y-98772508D01*
X318781077Y-98772508D02*
X318518852Y-98123479D01*
X318055260Y-98310782D02*
X317653480Y-98473112D01*
X317653480Y-98473112D02*
X317969718Y-98632953D01*
X317969718Y-98632953D02*
X317877000Y-98670413D01*
X317877000Y-98670413D02*
X317827674Y-98726293D01*
X317827674Y-98726293D02*
X317809255Y-98769686D01*
X317809255Y-98769686D02*
X317803323Y-98843985D01*
X317803323Y-98843985D02*
X317865757Y-98998516D01*
X317865757Y-98998516D02*
X317921637Y-99047841D01*
X317921637Y-99047841D02*
X317965030Y-99066261D01*
X317965030Y-99066261D02*
X318039329Y-99072193D01*
X318039329Y-99072193D02*
X318224766Y-98997272D01*
X318224766Y-98997272D02*
X318274091Y-98941392D01*
X318274091Y-98941392D02*
X318292511Y-98897999D01*
X317097170Y-98697876D02*
X317220794Y-98647928D01*
X317220794Y-98647928D02*
X317295093Y-98653861D01*
X317295093Y-98653861D02*
X317338486Y-98672280D01*
X317338486Y-98672280D02*
X317437759Y-98740025D01*
X317437759Y-98740025D02*
X317518613Y-98851162D01*
X317518613Y-98851162D02*
X317618508Y-99098411D01*
X317618508Y-99098411D02*
X317612576Y-99172710D01*
X317612576Y-99172710D02*
X317594156Y-99216103D01*
X317594156Y-99216103D02*
X317544831Y-99271983D01*
X317544831Y-99271983D02*
X317421206Y-99321931D01*
X317421206Y-99321931D02*
X317346907Y-99315999D01*
X317346907Y-99315999D02*
X317303514Y-99297579D01*
X317303514Y-99297579D02*
X317247634Y-99248254D01*
X317247634Y-99248254D02*
X317185200Y-99093723D01*
X317185200Y-99093723D02*
X317191132Y-99019424D01*
X317191132Y-99019424D02*
X317209552Y-98976031D01*
X317209552Y-98976031D02*
X317258877Y-98920151D01*
X317258877Y-98920151D02*
X317382501Y-98870204D01*
X317382501Y-98870204D02*
X317456801Y-98876136D01*
X317456801Y-98876136D02*
X317500194Y-98894555D01*
X317500194Y-98894555D02*
X317556073Y-98943881D01*
X286392580Y-144264142D02*
X286440200Y-144216523D01*
X286440200Y-144216523D02*
X286487819Y-144073666D01*
X286487819Y-144073666D02*
X286487819Y-143978428D01*
X286487819Y-143978428D02*
X286440200Y-143835571D01*
X286440200Y-143835571D02*
X286344961Y-143740333D01*
X286344961Y-143740333D02*
X286249723Y-143692714D01*
X286249723Y-143692714D02*
X286059247Y-143645095D01*
X286059247Y-143645095D02*
X285916390Y-143645095D01*
X285916390Y-143645095D02*
X285725914Y-143692714D01*
X285725914Y-143692714D02*
X285630676Y-143740333D01*
X285630676Y-143740333D02*
X285535438Y-143835571D01*
X285535438Y-143835571D02*
X285487819Y-143978428D01*
X285487819Y-143978428D02*
X285487819Y-144073666D01*
X285487819Y-144073666D02*
X285535438Y-144216523D01*
X285535438Y-144216523D02*
X285583057Y-144264142D01*
X286487819Y-145216523D02*
X286487819Y-144645095D01*
X286487819Y-144930809D02*
X285487819Y-144930809D01*
X285487819Y-144930809D02*
X285630676Y-144835571D01*
X285630676Y-144835571D02*
X285725914Y-144740333D01*
X285725914Y-144740333D02*
X285773533Y-144645095D01*
X285916390Y-145787952D02*
X285868771Y-145692714D01*
X285868771Y-145692714D02*
X285821152Y-145645095D01*
X285821152Y-145645095D02*
X285725914Y-145597476D01*
X285725914Y-145597476D02*
X285678295Y-145597476D01*
X285678295Y-145597476D02*
X285583057Y-145645095D01*
X285583057Y-145645095D02*
X285535438Y-145692714D01*
X285535438Y-145692714D02*
X285487819Y-145787952D01*
X285487819Y-145787952D02*
X285487819Y-145978428D01*
X285487819Y-145978428D02*
X285535438Y-146073666D01*
X285535438Y-146073666D02*
X285583057Y-146121285D01*
X285583057Y-146121285D02*
X285678295Y-146168904D01*
X285678295Y-146168904D02*
X285725914Y-146168904D01*
X285725914Y-146168904D02*
X285821152Y-146121285D01*
X285821152Y-146121285D02*
X285868771Y-146073666D01*
X285868771Y-146073666D02*
X285916390Y-145978428D01*
X285916390Y-145978428D02*
X285916390Y-145787952D01*
X285916390Y-145787952D02*
X285964009Y-145692714D01*
X285964009Y-145692714D02*
X286011628Y-145645095D01*
X286011628Y-145645095D02*
X286106866Y-145597476D01*
X286106866Y-145597476D02*
X286297342Y-145597476D01*
X286297342Y-145597476D02*
X286392580Y-145645095D01*
X286392580Y-145645095D02*
X286440200Y-145692714D01*
X286440200Y-145692714D02*
X286487819Y-145787952D01*
X286487819Y-145787952D02*
X286487819Y-145978428D01*
X286487819Y-145978428D02*
X286440200Y-146073666D01*
X286440200Y-146073666D02*
X286392580Y-146121285D01*
X286392580Y-146121285D02*
X286297342Y-146168904D01*
X286297342Y-146168904D02*
X286106866Y-146168904D01*
X286106866Y-146168904D02*
X286011628Y-146121285D01*
X286011628Y-146121285D02*
X285964009Y-146073666D01*
X285964009Y-146073666D02*
X285916390Y-145978428D01*
X328709449Y-68187636D02*
X329026467Y-68084631D01*
X329026467Y-68084631D02*
X328810156Y-67418891D01*
X328138814Y-68373047D02*
X328519237Y-68249440D01*
X328329026Y-68311243D02*
X328112714Y-67645504D01*
X328112714Y-67645504D02*
X328207019Y-67720008D01*
X328207019Y-67720008D02*
X328291024Y-67762811D01*
X328291024Y-67762811D02*
X328364728Y-67773912D01*
X327634785Y-68116231D02*
X327687888Y-68063928D01*
X327687888Y-68063928D02*
X327709289Y-68021926D01*
X327709289Y-68021926D02*
X327720390Y-67948221D01*
X327720390Y-67948221D02*
X327710089Y-67916519D01*
X327710089Y-67916519D02*
X327657786Y-67863416D01*
X327657786Y-67863416D02*
X327615784Y-67842015D01*
X327615784Y-67842015D02*
X327542080Y-67830914D01*
X327542080Y-67830914D02*
X327415272Y-67872116D01*
X327415272Y-67872116D02*
X327362169Y-67924419D01*
X327362169Y-67924419D02*
X327340768Y-67966422D01*
X327340768Y-67966422D02*
X327329667Y-68040126D01*
X327329667Y-68040126D02*
X327339967Y-68071828D01*
X327339967Y-68071828D02*
X327392270Y-68124931D01*
X327392270Y-68124931D02*
X327434273Y-68146333D01*
X327434273Y-68146333D02*
X327507977Y-68157433D01*
X327507977Y-68157433D02*
X327634785Y-68116231D01*
X327634785Y-68116231D02*
X327708489Y-68127332D01*
X327708489Y-68127332D02*
X327750491Y-68148733D01*
X327750491Y-68148733D02*
X327802794Y-68201836D01*
X327802794Y-68201836D02*
X327843997Y-68328644D01*
X327843997Y-68328644D02*
X327832896Y-68402348D01*
X327832896Y-68402348D02*
X327811495Y-68444351D01*
X327811495Y-68444351D02*
X327758391Y-68496654D01*
X327758391Y-68496654D02*
X327631584Y-68537856D01*
X327631584Y-68537856D02*
X327557880Y-68526755D01*
X327557880Y-68526755D02*
X327515877Y-68505354D01*
X327515877Y-68505354D02*
X327463574Y-68452251D01*
X327463574Y-68452251D02*
X327422372Y-68325443D01*
X327422372Y-68325443D02*
X327433473Y-68251739D01*
X327433473Y-68251739D02*
X327454874Y-68209736D01*
X327454874Y-68209736D02*
X327507977Y-68157433D01*
X344162608Y-45329734D02*
X344484583Y-45243461D01*
X344484583Y-45243461D02*
X344303410Y-44567313D01*
X343805503Y-44769744D02*
X343764679Y-44746174D01*
X343764679Y-44746174D02*
X343691656Y-44731231D01*
X343691656Y-44731231D02*
X343530669Y-44774368D01*
X343530669Y-44774368D02*
X343474901Y-44823820D01*
X343474901Y-44823820D02*
X343451331Y-44864645D01*
X343451331Y-44864645D02*
X343436388Y-44937667D01*
X343436388Y-44937667D02*
X343453642Y-45002062D01*
X343453642Y-45002062D02*
X343511722Y-45090027D01*
X343511722Y-45090027D02*
X344001620Y-45372870D01*
X344001620Y-45372870D02*
X343583052Y-45485025D01*
X288041911Y-142564989D02*
X288366701Y-142490005D01*
X288366701Y-142490005D02*
X288209235Y-141807946D01*
X287332302Y-142010402D02*
X287657092Y-141935419D01*
X287657092Y-141935419D02*
X287764555Y-142252710D01*
X287764555Y-142252710D02*
X287724577Y-142227730D01*
X287724577Y-142227730D02*
X287652121Y-142210247D01*
X287652121Y-142210247D02*
X287489726Y-142247739D01*
X287489726Y-142247739D02*
X287432266Y-142295215D01*
X287432266Y-142295215D02*
X287407286Y-142335192D01*
X287407286Y-142335192D02*
X287389803Y-142407649D01*
X287389803Y-142407649D02*
X287427295Y-142570044D01*
X287427295Y-142570044D02*
X287474771Y-142627503D01*
X287474771Y-142627503D02*
X287514748Y-142652484D01*
X287514748Y-142652484D02*
X287587205Y-142669966D01*
X287587205Y-142669966D02*
X287749600Y-142632474D01*
X287749600Y-142632474D02*
X287807059Y-142584999D01*
X287807059Y-142584999D02*
X287832040Y-142545021D01*
X287054987Y-142142846D02*
X287015010Y-142117865D01*
X287015010Y-142117865D02*
X286942554Y-142100383D01*
X286942554Y-142100383D02*
X286780159Y-142137875D01*
X286780159Y-142137875D02*
X286722699Y-142185350D01*
X286722699Y-142185350D02*
X286697718Y-142225328D01*
X286697718Y-142225328D02*
X286680236Y-142297784D01*
X286680236Y-142297784D02*
X286695233Y-142362742D01*
X286695233Y-142362742D02*
X286750207Y-142452681D01*
X286750207Y-142452681D02*
X287229935Y-142752448D01*
X287229935Y-142752448D02*
X286807708Y-142849927D01*
X295116137Y-134464266D02*
X296090507Y-134239315D01*
X296090507Y-134239315D02*
X296036948Y-134007322D01*
X296036948Y-134007322D02*
X295958413Y-133878839D01*
X295958413Y-133878839D02*
X295844192Y-133807465D01*
X295844192Y-133807465D02*
X295740683Y-133782491D01*
X295740683Y-133782491D02*
X295544377Y-133778940D01*
X295544377Y-133778940D02*
X295405181Y-133811076D01*
X295405181Y-133811076D02*
X295230299Y-133900322D01*
X295230299Y-133900322D02*
X295148213Y-133968145D01*
X295148213Y-133968145D02*
X295076840Y-134082366D01*
X295076840Y-134082366D02*
X295062578Y-134232273D01*
X295062578Y-134232273D02*
X295116137Y-134464266D01*
X295758437Y-132800959D02*
X295865556Y-133264945D01*
X295865556Y-133264945D02*
X295412283Y-133418463D01*
X295412283Y-133418463D02*
X295447969Y-133361353D01*
X295447969Y-133361353D02*
X295472944Y-133257844D01*
X295472944Y-133257844D02*
X295419384Y-133025851D01*
X295419384Y-133025851D02*
X295351562Y-132943766D01*
X295351562Y-132943766D02*
X295294451Y-132908079D01*
X295294451Y-132908079D02*
X295190942Y-132883104D01*
X295190942Y-132883104D02*
X294958949Y-132936664D01*
X294958949Y-132936664D02*
X294876864Y-133004487D01*
X294876864Y-133004487D02*
X294841177Y-133061597D01*
X294841177Y-133061597D02*
X294816203Y-133165106D01*
X294816203Y-133165106D02*
X294869762Y-133397099D01*
X294869762Y-133397099D02*
X294937585Y-133479184D01*
X294937585Y-133479184D02*
X294994695Y-133514871D01*
X295569232Y-132404796D02*
X295604919Y-132347686D01*
X295604919Y-132347686D02*
X295629893Y-132244176D01*
X295629893Y-132244176D02*
X295576334Y-132012184D01*
X295576334Y-132012184D02*
X295508511Y-131930098D01*
X295508511Y-131930098D02*
X295451400Y-131894412D01*
X295451400Y-131894412D02*
X295347891Y-131869437D01*
X295347891Y-131869437D02*
X295255094Y-131890861D01*
X295255094Y-131890861D02*
X295126610Y-131969395D01*
X295126610Y-131969395D02*
X294698371Y-132654722D01*
X294698371Y-132654722D02*
X294559116Y-132051540D01*
X269017666Y-128442709D02*
X269078700Y-128471170D01*
X269078700Y-128471170D02*
X269229228Y-128467057D01*
X269229228Y-128467057D02*
X269318723Y-128434483D01*
X269318723Y-128434483D02*
X269436678Y-128340876D01*
X269436678Y-128340876D02*
X269493599Y-128218808D01*
X269493599Y-128218808D02*
X269505773Y-128113027D01*
X269505773Y-128113027D02*
X269485373Y-127917751D01*
X269485373Y-127917751D02*
X269436513Y-127783510D01*
X269436513Y-127783510D02*
X269326619Y-127620807D01*
X269326619Y-127620807D02*
X269249299Y-127547599D01*
X269249299Y-127547599D02*
X269127231Y-127490678D01*
X269127231Y-127490678D02*
X268976702Y-127494791D01*
X268976702Y-127494791D02*
X268887208Y-127527364D01*
X268887208Y-127527364D02*
X268769253Y-127620971D01*
X268769253Y-127620971D02*
X268740792Y-127682005D01*
X268155294Y-128857937D02*
X268692261Y-128662497D01*
X268423777Y-128760217D02*
X268081757Y-127820524D01*
X268081757Y-127820524D02*
X268220112Y-127922193D01*
X268220112Y-127922193D02*
X268342179Y-127979114D01*
X268342179Y-127979114D02*
X268447961Y-127991288D01*
X267007823Y-128211404D02*
X267186812Y-128146258D01*
X267186812Y-128146258D02*
X267292593Y-128158432D01*
X267292593Y-128158432D02*
X267353627Y-128186892D01*
X267353627Y-128186892D02*
X267491981Y-128288561D01*
X267491981Y-128288561D02*
X267601875Y-128451263D01*
X267601875Y-128451263D02*
X267732169Y-128809241D01*
X267732169Y-128809241D02*
X267719995Y-128915023D01*
X267719995Y-128915023D02*
X267691534Y-128976056D01*
X267691534Y-128976056D02*
X267618326Y-129053377D01*
X267618326Y-129053377D02*
X267439337Y-129118524D01*
X267439337Y-129118524D02*
X267333556Y-129106350D01*
X267333556Y-129106350D02*
X267272522Y-129077889D01*
X267272522Y-129077889D02*
X267195201Y-129004681D01*
X267195201Y-129004681D02*
X267113768Y-128780945D01*
X267113768Y-128780945D02*
X267125942Y-128675164D01*
X267125942Y-128675164D02*
X267154403Y-128614130D01*
X267154403Y-128614130D02*
X267227610Y-128536809D01*
X267227610Y-128536809D02*
X267406600Y-128471663D01*
X267406600Y-128471663D02*
X267512381Y-128483837D01*
X267512381Y-128483837D02*
X267573415Y-128512297D01*
X267573415Y-128512297D02*
X267650735Y-128585505D01*
X346824278Y-95736433D02*
X347775334Y-95427416D01*
X347775334Y-95427416D02*
X347701759Y-95200974D01*
X347701759Y-95200974D02*
X347612325Y-95079824D01*
X347612325Y-95079824D02*
X347492318Y-95018677D01*
X347492318Y-95018677D02*
X347387026Y-95002819D01*
X347387026Y-95002819D02*
X347191158Y-95016391D01*
X347191158Y-95016391D02*
X347055292Y-95060536D01*
X347055292Y-95060536D02*
X346888854Y-95164685D01*
X346888854Y-95164685D02*
X346812992Y-95239403D01*
X346812992Y-95239403D02*
X346751845Y-95359410D01*
X346751845Y-95359410D02*
X346750702Y-95509991D01*
X346750702Y-95509991D02*
X346824278Y-95736433D01*
X347016863Y-94171769D02*
X346382825Y-94377781D01*
X347452745Y-94280490D02*
X346846995Y-94727659D01*
X346846995Y-94727659D02*
X346655699Y-94138910D01*
X347096154Y-93645310D02*
X347126727Y-93585306D01*
X347126727Y-93585306D02*
X347142585Y-93480014D01*
X347142585Y-93480014D02*
X347069010Y-93253572D01*
X347069010Y-93253572D02*
X346994291Y-93177710D01*
X346994291Y-93177710D02*
X346934288Y-93147137D01*
X346934288Y-93147137D02*
X346828996Y-93131279D01*
X346828996Y-93131279D02*
X346738419Y-93160709D01*
X346738419Y-93160709D02*
X346617269Y-93250143D01*
X346617269Y-93250143D02*
X346250389Y-93970185D01*
X346250389Y-93970185D02*
X346059093Y-93381436D01*
X305402290Y-94137116D02*
X306329474Y-93762509D01*
X306329474Y-93762509D02*
X306240282Y-93541751D01*
X306240282Y-93541751D02*
X306142615Y-93427135D01*
X306142615Y-93427135D02*
X306018635Y-93374508D01*
X306018635Y-93374508D02*
X305912493Y-93366034D01*
X305912493Y-93366034D02*
X305718049Y-93393236D01*
X305718049Y-93393236D02*
X305585594Y-93446751D01*
X305585594Y-93446751D02*
X305426826Y-93562256D01*
X305426826Y-93562256D02*
X305356361Y-93642085D01*
X305356361Y-93642085D02*
X305303734Y-93766065D01*
X305303734Y-93766065D02*
X305313098Y-93916358D01*
X305313098Y-93916358D02*
X305402290Y-94137116D01*
X305485260Y-92562830D02*
X304867138Y-92812568D01*
X305927665Y-92640881D02*
X305354583Y-93129215D01*
X305354583Y-93129215D02*
X305122684Y-92555244D01*
X305526745Y-91775687D02*
X305491069Y-91687383D01*
X305491069Y-91687383D02*
X305411240Y-91616919D01*
X305411240Y-91616919D02*
X305349250Y-91590605D01*
X305349250Y-91590605D02*
X305243109Y-91582131D01*
X305243109Y-91582131D02*
X305048664Y-91609333D01*
X305048664Y-91609333D02*
X304827906Y-91698525D01*
X304827906Y-91698525D02*
X304669138Y-91814030D01*
X304669138Y-91814030D02*
X304598673Y-91893858D01*
X304598673Y-91893858D02*
X304572360Y-91955848D01*
X304572360Y-91955848D02*
X304563885Y-92061990D01*
X304563885Y-92061990D02*
X304599562Y-92150293D01*
X304599562Y-92150293D02*
X304679390Y-92220758D01*
X304679390Y-92220758D02*
X304741380Y-92247071D01*
X304741380Y-92247071D02*
X304847522Y-92255546D01*
X304847522Y-92255546D02*
X305041967Y-92228344D01*
X305041967Y-92228344D02*
X305262725Y-92139152D01*
X305262725Y-92139152D02*
X305421493Y-92023647D01*
X305421493Y-92023647D02*
X305491958Y-91943818D01*
X305491958Y-91943818D02*
X305518271Y-91881828D01*
X305518271Y-91881828D02*
X305526745Y-91775687D01*
X277964559Y-50381061D02*
X278273621Y-50256192D01*
X278273621Y-50256192D02*
X278011396Y-49607164D01*
X277505655Y-50135057D02*
X277554981Y-50079177D01*
X277554981Y-50079177D02*
X277573400Y-50035784D01*
X277573400Y-50035784D02*
X277579332Y-49961485D01*
X277579332Y-49961485D02*
X277566845Y-49930579D01*
X277566845Y-49930579D02*
X277510965Y-49881253D01*
X277510965Y-49881253D02*
X277467572Y-49862834D01*
X277467572Y-49862834D02*
X277393273Y-49856902D01*
X277393273Y-49856902D02*
X277269649Y-49906849D01*
X277269649Y-49906849D02*
X277220323Y-49962729D01*
X277220323Y-49962729D02*
X277201904Y-50006122D01*
X277201904Y-50006122D02*
X277195972Y-50080421D01*
X277195972Y-50080421D02*
X277208459Y-50111327D01*
X277208459Y-50111327D02*
X277264339Y-50160653D01*
X277264339Y-50160653D02*
X277307732Y-50179072D01*
X277307732Y-50179072D02*
X277382031Y-50185004D01*
X277382031Y-50185004D02*
X277505655Y-50135057D01*
X277505655Y-50135057D02*
X277579954Y-50140989D01*
X277579954Y-50140989D02*
X277623347Y-50159408D01*
X277623347Y-50159408D02*
X277679227Y-50208734D01*
X277679227Y-50208734D02*
X277729175Y-50332358D01*
X277729175Y-50332358D02*
X277723242Y-50406657D01*
X277723242Y-50406657D02*
X277704823Y-50450050D01*
X277704823Y-50450050D02*
X277655498Y-50505930D01*
X277655498Y-50505930D02*
X277531873Y-50555878D01*
X277531873Y-50555878D02*
X277457574Y-50549945D01*
X277457574Y-50549945D02*
X277414181Y-50531526D01*
X277414181Y-50531526D02*
X277358301Y-50482201D01*
X277358301Y-50482201D02*
X277308354Y-50358576D01*
X277308354Y-50358576D02*
X277314286Y-50284277D01*
X277314286Y-50284277D02*
X277332705Y-50240884D01*
X277332705Y-50240884D02*
X277382031Y-50185004D01*
X340937505Y-77618816D02*
X341888561Y-77309799D01*
X341888561Y-77309799D02*
X341814986Y-77083357D01*
X341814986Y-77083357D02*
X341725552Y-76962207D01*
X341725552Y-76962207D02*
X341605545Y-76901060D01*
X341605545Y-76901060D02*
X341500253Y-76885202D01*
X341500253Y-76885202D02*
X341304385Y-76898774D01*
X341304385Y-76898774D02*
X341168519Y-76942919D01*
X341168519Y-76942919D02*
X341002081Y-77047068D01*
X341002081Y-77047068D02*
X340926219Y-77121786D01*
X340926219Y-77121786D02*
X340865072Y-77241793D01*
X340865072Y-77241793D02*
X340863929Y-77392374D01*
X340863929Y-77392374D02*
X340937505Y-77618816D01*
X341608975Y-76449319D02*
X341417678Y-75860570D01*
X341417678Y-75860570D02*
X341158377Y-76295309D01*
X341158377Y-76295309D02*
X341114231Y-76159444D01*
X341114231Y-76159444D02*
X341039513Y-76083582D01*
X341039513Y-76083582D02*
X340979509Y-76053009D01*
X340979509Y-76053009D02*
X340874217Y-76037151D01*
X340874217Y-76037151D02*
X340647775Y-76110726D01*
X340647775Y-76110726D02*
X340571914Y-76185445D01*
X340571914Y-76185445D02*
X340541340Y-76245448D01*
X340541340Y-76245448D02*
X340525482Y-76350740D01*
X340525482Y-76350740D02*
X340613773Y-76622471D01*
X340613773Y-76622471D02*
X340688491Y-76698332D01*
X340688491Y-76698332D02*
X340748495Y-76728906D01*
X341226382Y-75271820D02*
X341196952Y-75181244D01*
X341196952Y-75181244D02*
X341122233Y-75105382D01*
X341122233Y-75105382D02*
X341062230Y-75074809D01*
X341062230Y-75074809D02*
X340956938Y-75058950D01*
X340956938Y-75058950D02*
X340761069Y-75072522D01*
X340761069Y-75072522D02*
X340534627Y-75146098D01*
X340534627Y-75146098D02*
X340368189Y-75250247D01*
X340368189Y-75250247D02*
X340292327Y-75324965D01*
X340292327Y-75324965D02*
X340261754Y-75384969D01*
X340261754Y-75384969D02*
X340245895Y-75490261D01*
X340245895Y-75490261D02*
X340275326Y-75580837D01*
X340275326Y-75580837D02*
X340350044Y-75656699D01*
X340350044Y-75656699D02*
X340410048Y-75687272D01*
X340410048Y-75687272D02*
X340515340Y-75703131D01*
X340515340Y-75703131D02*
X340711208Y-75689559D01*
X340711208Y-75689559D02*
X340937650Y-75615983D01*
X340937650Y-75615983D02*
X341104089Y-75511834D01*
X341104089Y-75511834D02*
X341179951Y-75437116D01*
X341179951Y-75437116D02*
X341210524Y-75377112D01*
X341210524Y-75377112D02*
X341226382Y-75271820D01*
X258057629Y-78661658D02*
X258984813Y-78287051D01*
X258984813Y-78287051D02*
X258895621Y-78066293D01*
X258895621Y-78066293D02*
X258797954Y-77951677D01*
X258797954Y-77951677D02*
X258673974Y-77899050D01*
X258673974Y-77899050D02*
X258567832Y-77890576D01*
X258567832Y-77890576D02*
X258373388Y-77917778D01*
X258373388Y-77917778D02*
X258240933Y-77971293D01*
X258240933Y-77971293D02*
X258082165Y-78086798D01*
X258082165Y-78086798D02*
X258011700Y-78166627D01*
X258011700Y-78166627D02*
X257959073Y-78290607D01*
X257959073Y-78290607D02*
X257968437Y-78440900D01*
X257968437Y-78440900D02*
X258057629Y-78661658D01*
X258645883Y-77448171D02*
X258413984Y-76874200D01*
X258413984Y-76874200D02*
X258185640Y-77325968D01*
X258185640Y-77325968D02*
X258132125Y-77193513D01*
X258132125Y-77193513D02*
X258052296Y-77123049D01*
X258052296Y-77123049D02*
X257990306Y-77096735D01*
X257990306Y-77096735D02*
X257884164Y-77088261D01*
X257884164Y-77088261D02*
X257663406Y-77177453D01*
X257663406Y-77177453D02*
X257592942Y-77257281D01*
X257592942Y-77257281D02*
X257566628Y-77319271D01*
X257566628Y-77319271D02*
X257558154Y-77425413D01*
X257558154Y-77425413D02*
X257665184Y-77690322D01*
X257665184Y-77690322D02*
X257745013Y-77760787D01*
X257745013Y-77760787D02*
X257807003Y-77787100D01*
X258182973Y-76556664D02*
X258209287Y-76494674D01*
X258209287Y-76494674D02*
X258217761Y-76388532D01*
X258217761Y-76388532D02*
X258128569Y-76167774D01*
X258128569Y-76167774D02*
X258048741Y-76097309D01*
X258048741Y-76097309D02*
X257986751Y-76070996D01*
X257986751Y-76070996D02*
X257880609Y-76062521D01*
X257880609Y-76062521D02*
X257792306Y-76098198D01*
X257792306Y-76098198D02*
X257677690Y-76195865D01*
X257677690Y-76195865D02*
X257361931Y-76939745D01*
X257361931Y-76939745D02*
X257130032Y-76365774D01*
X276010060Y-95507029D02*
X276319122Y-95382160D01*
X276319122Y-95382160D02*
X276056897Y-94733131D01*
X275593305Y-94920434D02*
X275191525Y-95082764D01*
X275191525Y-95082764D02*
X275507763Y-95242605D01*
X275507763Y-95242605D02*
X275415045Y-95280065D01*
X275415045Y-95280065D02*
X275365719Y-95335945D01*
X275365719Y-95335945D02*
X275347300Y-95379338D01*
X275347300Y-95379338D02*
X275341368Y-95453637D01*
X275341368Y-95453637D02*
X275403802Y-95608168D01*
X275403802Y-95608168D02*
X275459682Y-95657493D01*
X275459682Y-95657493D02*
X275503075Y-95675913D01*
X275503075Y-95675913D02*
X275577374Y-95681845D01*
X275577374Y-95681845D02*
X275762811Y-95606924D01*
X275762811Y-95606924D02*
X275812136Y-95551044D01*
X275812136Y-95551044D02*
X275830556Y-95507651D01*
X274722623Y-95523871D02*
X274897439Y-95956557D01*
X274777258Y-95214187D02*
X275119092Y-95615345D01*
X275119092Y-95615345D02*
X274717313Y-95777674D01*
X266610238Y-123095011D02*
X266919300Y-122970142D01*
X266919300Y-122970142D02*
X266657075Y-122321113D01*
X265940924Y-122862115D02*
X266115740Y-123294801D01*
X265995559Y-122552432D02*
X266337393Y-122953589D01*
X266337393Y-122953589D02*
X265935613Y-123115919D01*
X265533211Y-123098744D02*
X265582537Y-123042864D01*
X265582537Y-123042864D02*
X265600956Y-122999471D01*
X265600956Y-122999471D02*
X265606888Y-122925172D01*
X265606888Y-122925172D02*
X265594401Y-122894266D01*
X265594401Y-122894266D02*
X265538521Y-122844940D01*
X265538521Y-122844940D02*
X265495128Y-122826521D01*
X265495128Y-122826521D02*
X265420829Y-122820589D01*
X265420829Y-122820589D02*
X265297205Y-122870536D01*
X265297205Y-122870536D02*
X265247879Y-122926416D01*
X265247879Y-122926416D02*
X265229460Y-122969809D01*
X265229460Y-122969809D02*
X265223528Y-123044108D01*
X265223528Y-123044108D02*
X265236015Y-123075014D01*
X265236015Y-123075014D02*
X265291895Y-123124340D01*
X265291895Y-123124340D02*
X265335288Y-123142759D01*
X265335288Y-123142759D02*
X265409587Y-123148691D01*
X265409587Y-123148691D02*
X265533211Y-123098744D01*
X265533211Y-123098744D02*
X265607510Y-123104676D01*
X265607510Y-123104676D02*
X265650903Y-123123095D01*
X265650903Y-123123095D02*
X265706783Y-123172421D01*
X265706783Y-123172421D02*
X265756731Y-123296045D01*
X265756731Y-123296045D02*
X265750799Y-123370344D01*
X265750799Y-123370344D02*
X265732379Y-123413737D01*
X265732379Y-123413737D02*
X265683054Y-123469617D01*
X265683054Y-123469617D02*
X265559429Y-123519565D01*
X265559429Y-123519565D02*
X265485130Y-123513633D01*
X265485130Y-123513633D02*
X265441737Y-123495213D01*
X265441737Y-123495213D02*
X265385857Y-123445888D01*
X265385857Y-123445888D02*
X265335910Y-123322263D01*
X265335910Y-123322263D02*
X265341842Y-123247964D01*
X265341842Y-123247964D02*
X265360261Y-123204571D01*
X265360261Y-123204571D02*
X265409587Y-123148691D01*
X340482996Y-104422889D02*
X340800014Y-104319884D01*
X340800014Y-104319884D02*
X340583703Y-103654144D01*
X339831557Y-104143872D02*
X339975765Y-104587699D01*
X339907662Y-103838754D02*
X340220680Y-104262780D01*
X340220680Y-104262780D02*
X339808556Y-104396687D01*
X339463035Y-104088369D02*
X339421033Y-104066967D01*
X339421033Y-104066967D02*
X339347328Y-104055866D01*
X339347328Y-104055866D02*
X339188819Y-104107369D01*
X339188819Y-104107369D02*
X339135716Y-104159672D01*
X339135716Y-104159672D02*
X339114315Y-104201675D01*
X339114315Y-104201675D02*
X339103214Y-104275379D01*
X339103214Y-104275379D02*
X339123815Y-104338783D01*
X339123815Y-104338783D02*
X339186418Y-104423588D01*
X339186418Y-104423588D02*
X339690448Y-104680404D01*
X339690448Y-104680404D02*
X339278323Y-104814311D01*
X281729959Y-86399387D02*
X282657143Y-86024780D01*
X282657143Y-86024780D02*
X282567951Y-85804022D01*
X282567951Y-85804022D02*
X282470284Y-85689406D01*
X282470284Y-85689406D02*
X282346304Y-85636779D01*
X282346304Y-85636779D02*
X282240162Y-85628305D01*
X282240162Y-85628305D02*
X282045718Y-85655507D01*
X282045718Y-85655507D02*
X281913263Y-85709022D01*
X281913263Y-85709022D02*
X281754495Y-85824527D01*
X281754495Y-85824527D02*
X281684030Y-85904356D01*
X281684030Y-85904356D02*
X281631403Y-86028336D01*
X281631403Y-86028336D02*
X281640767Y-86178629D01*
X281640767Y-86178629D02*
X281729959Y-86399387D01*
X282318213Y-85185900D02*
X282086314Y-84611929D01*
X282086314Y-84611929D02*
X281857970Y-85063697D01*
X281857970Y-85063697D02*
X281804455Y-84931242D01*
X281804455Y-84931242D02*
X281724626Y-84860778D01*
X281724626Y-84860778D02*
X281662636Y-84834464D01*
X281662636Y-84834464D02*
X281556494Y-84825990D01*
X281556494Y-84825990D02*
X281335736Y-84915182D01*
X281335736Y-84915182D02*
X281265272Y-84995010D01*
X281265272Y-84995010D02*
X281238958Y-85057000D01*
X281238958Y-85057000D02*
X281230484Y-85163142D01*
X281230484Y-85163142D02*
X281337514Y-85428051D01*
X281337514Y-85428051D02*
X281417343Y-85498516D01*
X281417343Y-85498516D02*
X281479333Y-85524829D01*
X281456161Y-83942068D02*
X280838039Y-84191806D01*
X281898566Y-84020119D02*
X281325484Y-84508453D01*
X281325484Y-84508453D02*
X281093585Y-83934483D01*
X283146305Y-113169884D02*
X283455367Y-113045015D01*
X283455367Y-113045015D02*
X283193142Y-112395986D01*
X282476991Y-112936988D02*
X282651807Y-113369674D01*
X282531626Y-112627305D02*
X282873460Y-113028462D01*
X282873460Y-113028462D02*
X282471680Y-113190792D01*
X281771460Y-112970383D02*
X281895084Y-112920435D01*
X281895084Y-112920435D02*
X281969383Y-112926368D01*
X281969383Y-112926368D02*
X282012776Y-112944787D01*
X282012776Y-112944787D02*
X282112049Y-113012532D01*
X282112049Y-113012532D02*
X282192903Y-113123669D01*
X282192903Y-113123669D02*
X282292798Y-113370918D01*
X282292798Y-113370918D02*
X282286866Y-113445217D01*
X282286866Y-113445217D02*
X282268446Y-113488610D01*
X282268446Y-113488610D02*
X282219121Y-113544490D01*
X282219121Y-113544490D02*
X282095496Y-113594438D01*
X282095496Y-113594438D02*
X282021197Y-113588506D01*
X282021197Y-113588506D02*
X281977804Y-113570086D01*
X281977804Y-113570086D02*
X281921924Y-113520761D01*
X281921924Y-113520761D02*
X281859490Y-113366230D01*
X281859490Y-113366230D02*
X281865422Y-113291931D01*
X281865422Y-113291931D02*
X281883842Y-113248538D01*
X281883842Y-113248538D02*
X281933167Y-113192658D01*
X281933167Y-113192658D02*
X282056791Y-113142711D01*
X282056791Y-113142711D02*
X282131091Y-113148643D01*
X282131091Y-113148643D02*
X282174484Y-113167062D01*
X282174484Y-113167062D02*
X282230363Y-113216388D01*
X324191914Y-89789735D02*
X325119098Y-89415128D01*
X325119098Y-89415128D02*
X325029906Y-89194370D01*
X325029906Y-89194370D02*
X324932239Y-89079754D01*
X324932239Y-89079754D02*
X324808259Y-89027127D01*
X324808259Y-89027127D02*
X324702117Y-89018653D01*
X324702117Y-89018653D02*
X324507673Y-89045855D01*
X324507673Y-89045855D02*
X324375218Y-89099370D01*
X324375218Y-89099370D02*
X324216450Y-89214875D01*
X324216450Y-89214875D02*
X324145985Y-89294704D01*
X324145985Y-89294704D02*
X324093358Y-89418684D01*
X324093358Y-89418684D02*
X324102722Y-89568977D01*
X324102722Y-89568977D02*
X324191914Y-89789735D01*
X324780168Y-88576248D02*
X324548269Y-88002277D01*
X324548269Y-88002277D02*
X324319925Y-88454045D01*
X324319925Y-88454045D02*
X324266410Y-88321590D01*
X324266410Y-88321590D02*
X324186581Y-88251126D01*
X324186581Y-88251126D02*
X324124591Y-88224812D01*
X324124591Y-88224812D02*
X324018449Y-88216338D01*
X324018449Y-88216338D02*
X323797691Y-88305530D01*
X323797691Y-88305530D02*
X323727227Y-88385358D01*
X323727227Y-88385358D02*
X323700913Y-88447348D01*
X323700913Y-88447348D02*
X323692439Y-88553490D01*
X323692439Y-88553490D02*
X323799469Y-88818399D01*
X323799469Y-88818399D02*
X323879298Y-88888864D01*
X323879298Y-88888864D02*
X323941288Y-88915177D01*
X324227177Y-87207548D02*
X324298531Y-87384154D01*
X324298531Y-87384154D02*
X324290056Y-87490296D01*
X324290056Y-87490296D02*
X324263743Y-87552286D01*
X324263743Y-87552286D02*
X324166965Y-87694104D01*
X324166965Y-87694104D02*
X324008197Y-87809609D01*
X324008197Y-87809609D02*
X323654984Y-87952317D01*
X323654984Y-87952317D02*
X323548843Y-87943842D01*
X323548843Y-87943842D02*
X323486852Y-87917529D01*
X323486852Y-87917529D02*
X323407024Y-87847064D01*
X323407024Y-87847064D02*
X323335670Y-87670457D01*
X323335670Y-87670457D02*
X323344145Y-87564316D01*
X323344145Y-87564316D02*
X323370458Y-87502326D01*
X323370458Y-87502326D02*
X323440923Y-87422497D01*
X323440923Y-87422497D02*
X323661681Y-87333305D01*
X323661681Y-87333305D02*
X323767823Y-87341780D01*
X323767823Y-87341780D02*
X323829813Y-87368093D01*
X323829813Y-87368093D02*
X323909641Y-87438558D01*
X323909641Y-87438558D02*
X323980995Y-87615165D01*
X323980995Y-87615165D02*
X323972520Y-87721306D01*
X323972520Y-87721306D02*
X323946207Y-87783296D01*
X323946207Y-87783296D02*
X323875742Y-87863125D01*
X252843357Y-95638580D02*
X252890976Y-95686200D01*
X252890976Y-95686200D02*
X253033833Y-95733819D01*
X253033833Y-95733819D02*
X253129071Y-95733819D01*
X253129071Y-95733819D02*
X253271928Y-95686200D01*
X253271928Y-95686200D02*
X253367166Y-95590961D01*
X253367166Y-95590961D02*
X253414785Y-95495723D01*
X253414785Y-95495723D02*
X253462404Y-95305247D01*
X253462404Y-95305247D02*
X253462404Y-95162390D01*
X253462404Y-95162390D02*
X253414785Y-94971914D01*
X253414785Y-94971914D02*
X253367166Y-94876676D01*
X253367166Y-94876676D02*
X253271928Y-94781438D01*
X253271928Y-94781438D02*
X253129071Y-94733819D01*
X253129071Y-94733819D02*
X253033833Y-94733819D01*
X253033833Y-94733819D02*
X252890976Y-94781438D01*
X252890976Y-94781438D02*
X252843357Y-94829057D01*
X251890976Y-95733819D02*
X252462404Y-95733819D01*
X252176690Y-95733819D02*
X252176690Y-94733819D01*
X252176690Y-94733819D02*
X252271928Y-94876676D01*
X252271928Y-94876676D02*
X252367166Y-94971914D01*
X252367166Y-94971914D02*
X252462404Y-95019533D01*
X251557642Y-94733819D02*
X250938595Y-94733819D01*
X250938595Y-94733819D02*
X251271928Y-95114771D01*
X251271928Y-95114771D02*
X251129071Y-95114771D01*
X251129071Y-95114771D02*
X251033833Y-95162390D01*
X251033833Y-95162390D02*
X250986214Y-95210009D01*
X250986214Y-95210009D02*
X250938595Y-95305247D01*
X250938595Y-95305247D02*
X250938595Y-95543342D01*
X250938595Y-95543342D02*
X250986214Y-95638580D01*
X250986214Y-95638580D02*
X251033833Y-95686200D01*
X251033833Y-95686200D02*
X251129071Y-95733819D01*
X251129071Y-95733819D02*
X251414785Y-95733819D01*
X251414785Y-95733819D02*
X251510023Y-95686200D01*
X251510023Y-95686200D02*
X251557642Y-95638580D01*
X267457433Y-51073677D02*
X268384617Y-50699070D01*
X268384617Y-50699070D02*
X268295425Y-50478312D01*
X268295425Y-50478312D02*
X268197758Y-50363696D01*
X268197758Y-50363696D02*
X268073778Y-50311069D01*
X268073778Y-50311069D02*
X267967636Y-50302595D01*
X267967636Y-50302595D02*
X267773192Y-50329797D01*
X267773192Y-50329797D02*
X267640737Y-50383312D01*
X267640737Y-50383312D02*
X267481969Y-50498817D01*
X267481969Y-50498817D02*
X267411504Y-50578646D01*
X267411504Y-50578646D02*
X267358877Y-50702626D01*
X267358877Y-50702626D02*
X267368241Y-50852919D01*
X267368241Y-50852919D02*
X267457433Y-51073677D01*
X266886604Y-49660825D02*
X267100665Y-50190645D01*
X266993634Y-49925735D02*
X267920818Y-49551128D01*
X267920818Y-49551128D02*
X267824040Y-49692947D01*
X267824040Y-49692947D02*
X267771414Y-49816927D01*
X267771414Y-49816927D02*
X267762939Y-49923068D01*
X267581888Y-48712248D02*
X267546212Y-48623944D01*
X267546212Y-48623944D02*
X267466383Y-48553480D01*
X267466383Y-48553480D02*
X267404393Y-48527166D01*
X267404393Y-48527166D02*
X267298252Y-48518692D01*
X267298252Y-48518692D02*
X267103807Y-48545894D01*
X267103807Y-48545894D02*
X266883049Y-48635086D01*
X266883049Y-48635086D02*
X266724281Y-48750591D01*
X266724281Y-48750591D02*
X266653816Y-48830419D01*
X266653816Y-48830419D02*
X266627503Y-48892409D01*
X266627503Y-48892409D02*
X266619028Y-48998551D01*
X266619028Y-48998551D02*
X266654705Y-49086854D01*
X266654705Y-49086854D02*
X266734533Y-49157319D01*
X266734533Y-49157319D02*
X266796523Y-49183632D01*
X266796523Y-49183632D02*
X266902665Y-49192107D01*
X266902665Y-49192107D02*
X267097110Y-49164905D01*
X267097110Y-49164905D02*
X267317868Y-49075713D01*
X267317868Y-49075713D02*
X267476636Y-48960208D01*
X267476636Y-48960208D02*
X267547101Y-48880379D01*
X267547101Y-48880379D02*
X267573414Y-48818389D01*
X267573414Y-48818389D02*
X267581888Y-48712248D01*
X258706857Y-113545580D02*
X258754476Y-113593200D01*
X258754476Y-113593200D02*
X258897333Y-113640819D01*
X258897333Y-113640819D02*
X258992571Y-113640819D01*
X258992571Y-113640819D02*
X259135428Y-113593200D01*
X259135428Y-113593200D02*
X259230666Y-113497961D01*
X259230666Y-113497961D02*
X259278285Y-113402723D01*
X259278285Y-113402723D02*
X259325904Y-113212247D01*
X259325904Y-113212247D02*
X259325904Y-113069390D01*
X259325904Y-113069390D02*
X259278285Y-112878914D01*
X259278285Y-112878914D02*
X259230666Y-112783676D01*
X259230666Y-112783676D02*
X259135428Y-112688438D01*
X259135428Y-112688438D02*
X258992571Y-112640819D01*
X258992571Y-112640819D02*
X258897333Y-112640819D01*
X258897333Y-112640819D02*
X258754476Y-112688438D01*
X258754476Y-112688438D02*
X258706857Y-112736057D01*
X257754476Y-113640819D02*
X258325904Y-113640819D01*
X258040190Y-113640819D02*
X258040190Y-112640819D01*
X258040190Y-112640819D02*
X258135428Y-112783676D01*
X258135428Y-112783676D02*
X258230666Y-112878914D01*
X258230666Y-112878914D02*
X258325904Y-112926533D01*
X256849714Y-112640819D02*
X257325904Y-112640819D01*
X257325904Y-112640819D02*
X257373523Y-113117009D01*
X257373523Y-113117009D02*
X257325904Y-113069390D01*
X257325904Y-113069390D02*
X257230666Y-113021771D01*
X257230666Y-113021771D02*
X256992571Y-113021771D01*
X256992571Y-113021771D02*
X256897333Y-113069390D01*
X256897333Y-113069390D02*
X256849714Y-113117009D01*
X256849714Y-113117009D02*
X256802095Y-113212247D01*
X256802095Y-113212247D02*
X256802095Y-113450342D01*
X256802095Y-113450342D02*
X256849714Y-113545580D01*
X256849714Y-113545580D02*
X256897333Y-113593200D01*
X256897333Y-113593200D02*
X256992571Y-113640819D01*
X256992571Y-113640819D02*
X257230666Y-113640819D01*
X257230666Y-113640819D02*
X257325904Y-113593200D01*
X257325904Y-113593200D02*
X257373523Y-113545580D01*
X285409883Y-67919048D02*
X285718945Y-67794179D01*
X285718945Y-67794179D02*
X285456720Y-67145150D01*
X284853573Y-68143812D02*
X285224446Y-67993969D01*
X285039010Y-68068890D02*
X284776785Y-67419862D01*
X284776785Y-67419862D02*
X284876058Y-67487606D01*
X284876058Y-67487606D02*
X284962844Y-67524445D01*
X284962844Y-67524445D02*
X285037143Y-67530377D01*
X284035038Y-67719547D02*
X284158662Y-67669599D01*
X284158662Y-67669599D02*
X284232961Y-67675532D01*
X284232961Y-67675532D02*
X284276354Y-67693951D01*
X284276354Y-67693951D02*
X284375627Y-67761696D01*
X284375627Y-67761696D02*
X284456481Y-67872833D01*
X284456481Y-67872833D02*
X284556376Y-68120082D01*
X284556376Y-68120082D02*
X284550444Y-68194381D01*
X284550444Y-68194381D02*
X284532024Y-68237774D01*
X284532024Y-68237774D02*
X284482699Y-68293654D01*
X284482699Y-68293654D02*
X284359074Y-68343602D01*
X284359074Y-68343602D02*
X284284775Y-68337670D01*
X284284775Y-68337670D02*
X284241382Y-68319250D01*
X284241382Y-68319250D02*
X284185502Y-68269925D01*
X284185502Y-68269925D02*
X284123068Y-68115394D01*
X284123068Y-68115394D02*
X284129000Y-68041095D01*
X284129000Y-68041095D02*
X284147420Y-67997702D01*
X284147420Y-67997702D02*
X284196745Y-67941822D01*
X284196745Y-67941822D02*
X284320369Y-67891875D01*
X284320369Y-67891875D02*
X284394669Y-67897807D01*
X284394669Y-67897807D02*
X284438062Y-67916226D01*
X284438062Y-67916226D02*
X284493941Y-67965552D01*
X245201467Y-70106445D02*
X245510529Y-69981576D01*
X245510529Y-69981576D02*
X245248304Y-69332547D01*
X244778779Y-69594150D02*
X244735386Y-69575730D01*
X244735386Y-69575730D02*
X244661087Y-69569798D01*
X244661087Y-69569798D02*
X244506557Y-69632232D01*
X244506557Y-69632232D02*
X244457231Y-69688112D01*
X244457231Y-69688112D02*
X244438812Y-69731505D01*
X244438812Y-69731505D02*
X244432880Y-69805804D01*
X244432880Y-69805804D02*
X244457853Y-69867617D01*
X244457853Y-69867617D02*
X244526220Y-69947848D01*
X244526220Y-69947848D02*
X245046936Y-70168879D01*
X245046936Y-70168879D02*
X244645157Y-70331209D01*
X243981152Y-69844510D02*
X243919340Y-69869483D01*
X243919340Y-69869483D02*
X243870015Y-69925363D01*
X243870015Y-69925363D02*
X243851595Y-69968756D01*
X243851595Y-69968756D02*
X243845663Y-70043055D01*
X243845663Y-70043055D02*
X243864704Y-70179167D01*
X243864704Y-70179167D02*
X243927139Y-70333697D01*
X243927139Y-70333697D02*
X244007992Y-70444835D01*
X244007992Y-70444835D02*
X244063872Y-70494160D01*
X244063872Y-70494160D02*
X244107265Y-70512580D01*
X244107265Y-70512580D02*
X244181565Y-70518512D01*
X244181565Y-70518512D02*
X244243377Y-70493538D01*
X244243377Y-70493538D02*
X244292702Y-70437658D01*
X244292702Y-70437658D02*
X244311121Y-70394265D01*
X244311121Y-70394265D02*
X244317054Y-70319966D01*
X244317054Y-70319966D02*
X244298012Y-70183855D01*
X244298012Y-70183855D02*
X244235578Y-70029324D01*
X244235578Y-70029324D02*
X244154724Y-69918187D01*
X244154724Y-69918187D02*
X244098844Y-69868861D01*
X244098844Y-69868861D02*
X244055451Y-69850442D01*
X244055451Y-69850442D02*
X243981152Y-69844510D01*
X322505656Y-50173025D02*
X322822675Y-50070019D01*
X322822675Y-50070019D02*
X322606363Y-49404280D01*
X321782114Y-49672095D02*
X321908921Y-49630892D01*
X321908921Y-49630892D02*
X321982626Y-49641993D01*
X321982626Y-49641993D02*
X322024628Y-49663394D01*
X322024628Y-49663394D02*
X322118934Y-49737899D01*
X322118934Y-49737899D02*
X322191838Y-49854406D01*
X322191838Y-49854406D02*
X322274242Y-50108021D01*
X322274242Y-50108021D02*
X322263141Y-50181725D01*
X322263141Y-50181725D02*
X322241740Y-50223728D01*
X322241740Y-50223728D02*
X322188637Y-50276031D01*
X322188637Y-50276031D02*
X322061829Y-50317233D01*
X322061829Y-50317233D02*
X321988125Y-50306132D01*
X321988125Y-50306132D02*
X321946123Y-50284731D01*
X321946123Y-50284731D02*
X321893820Y-50231628D01*
X321893820Y-50231628D02*
X321842317Y-50073118D01*
X321842317Y-50073118D02*
X321853418Y-49999414D01*
X321853418Y-49999414D02*
X321874819Y-49957412D01*
X321874819Y-49957412D02*
X321927922Y-49905109D01*
X321927922Y-49905109D02*
X322054730Y-49863906D01*
X322054730Y-49863906D02*
X322128434Y-49875007D01*
X322128434Y-49875007D02*
X322170436Y-49896408D01*
X322170436Y-49896408D02*
X322222739Y-49949512D01*
X274593696Y-68736532D02*
X275520880Y-68361925D01*
X275520880Y-68361925D02*
X275431688Y-68141167D01*
X275431688Y-68141167D02*
X275334021Y-68026551D01*
X275334021Y-68026551D02*
X275210041Y-67973924D01*
X275210041Y-67973924D02*
X275103899Y-67965450D01*
X275103899Y-67965450D02*
X274909455Y-67992652D01*
X274909455Y-67992652D02*
X274777000Y-68046167D01*
X274777000Y-68046167D02*
X274618232Y-68161672D01*
X274618232Y-68161672D02*
X274547767Y-68241501D01*
X274547767Y-68241501D02*
X274495140Y-68365481D01*
X274495140Y-68365481D02*
X274504504Y-68515774D01*
X274504504Y-68515774D02*
X274593696Y-68736532D01*
X275075809Y-67514570D02*
X275102122Y-67452580D01*
X275102122Y-67452580D02*
X275110597Y-67346438D01*
X275110597Y-67346438D02*
X275021404Y-67125680D01*
X275021404Y-67125680D02*
X274941576Y-67055215D01*
X274941576Y-67055215D02*
X274879586Y-67028902D01*
X274879586Y-67028902D02*
X274773444Y-67020427D01*
X274773444Y-67020427D02*
X274685141Y-67056104D01*
X274685141Y-67056104D02*
X274570525Y-67153771D01*
X274570525Y-67153771D02*
X274254766Y-67897651D01*
X274254766Y-67897651D02*
X274022867Y-67323680D01*
X274719040Y-66631538D02*
X274745354Y-66569548D01*
X274745354Y-66569548D02*
X274753828Y-66463406D01*
X274753828Y-66463406D02*
X274664636Y-66242648D01*
X274664636Y-66242648D02*
X274584808Y-66172183D01*
X274584808Y-66172183D02*
X274522818Y-66145870D01*
X274522818Y-66145870D02*
X274416676Y-66137395D01*
X274416676Y-66137395D02*
X274328373Y-66173072D01*
X274328373Y-66173072D02*
X274213757Y-66270739D01*
X274213757Y-66270739D02*
X273897998Y-67014619D01*
X273897998Y-67014619D02*
X273666099Y-66440648D01*
X309919406Y-54464024D02*
X310846590Y-54089417D01*
X310846590Y-54089417D02*
X310757398Y-53868659D01*
X310757398Y-53868659D02*
X310659731Y-53754043D01*
X310659731Y-53754043D02*
X310535751Y-53701416D01*
X310535751Y-53701416D02*
X310429609Y-53692942D01*
X310429609Y-53692942D02*
X310235165Y-53720144D01*
X310235165Y-53720144D02*
X310102710Y-53773659D01*
X310102710Y-53773659D02*
X309943942Y-53889164D01*
X309943942Y-53889164D02*
X309873477Y-53968993D01*
X309873477Y-53968993D02*
X309820850Y-54092973D01*
X309820850Y-54092973D02*
X309830214Y-54243266D01*
X309830214Y-54243266D02*
X309919406Y-54464024D01*
X309348577Y-53051172D02*
X309562638Y-53580992D01*
X309455607Y-53316082D02*
X310382791Y-52941475D01*
X310382791Y-52941475D02*
X310286013Y-53083294D01*
X310286013Y-53083294D02*
X310233387Y-53207274D01*
X310233387Y-53207274D02*
X310224912Y-53313415D01*
X309645608Y-52006705D02*
X309027486Y-52256443D01*
X310088013Y-52084756D02*
X309514931Y-52573090D01*
X309514931Y-52573090D02*
X309283032Y-51999120D01*
X349415085Y-63644351D02*
X349737060Y-63558078D01*
X349737060Y-63558078D02*
X349555887Y-62881930D01*
X348835529Y-63799642D02*
X349221899Y-63696115D01*
X349028714Y-63747878D02*
X348847541Y-63071730D01*
X348847541Y-63071730D02*
X348937818Y-63151068D01*
X348937818Y-63151068D02*
X349019467Y-63198209D01*
X349019467Y-63198209D02*
X349092490Y-63213152D01*
X348414029Y-63256908D02*
X348373205Y-63233337D01*
X348373205Y-63233337D02*
X348300182Y-63218395D01*
X348300182Y-63218395D02*
X348139195Y-63261531D01*
X348139195Y-63261531D02*
X348083427Y-63310983D01*
X348083427Y-63310983D02*
X348059857Y-63351808D01*
X348059857Y-63351808D02*
X348044914Y-63424830D01*
X348044914Y-63424830D02*
X348062168Y-63489225D01*
X348062168Y-63489225D02*
X348120248Y-63577191D01*
X348120248Y-63577191D02*
X348610146Y-63860033D01*
X348610146Y-63860033D02*
X348191578Y-63972188D01*
X307367958Y-133674142D02*
X307681189Y-133560135D01*
X307681189Y-133560135D02*
X307441775Y-132902350D01*
X306596051Y-133210168D02*
X306909282Y-133096162D01*
X306909282Y-133096162D02*
X307054612Y-133397992D01*
X307054612Y-133397992D02*
X307011888Y-133378069D01*
X307011888Y-133378069D02*
X306937841Y-133369548D01*
X306937841Y-133369548D02*
X306781226Y-133426551D01*
X306781226Y-133426551D02*
X306729980Y-133480675D01*
X306729980Y-133480675D02*
X306710058Y-133523399D01*
X306710058Y-133523399D02*
X306701536Y-133597446D01*
X306701536Y-133597446D02*
X306758539Y-133754061D01*
X306758539Y-133754061D02*
X306812664Y-133805307D01*
X306812664Y-133805307D02*
X306855388Y-133825229D01*
X306855388Y-133825229D02*
X306929434Y-133833751D01*
X306929434Y-133833751D02*
X307086050Y-133776748D01*
X307086050Y-133776748D02*
X307137295Y-133722623D01*
X307137295Y-133722623D02*
X307157218Y-133679900D01*
X306157528Y-133369778D02*
X306094881Y-133392579D01*
X306094881Y-133392579D02*
X306043636Y-133446704D01*
X306043636Y-133446704D02*
X306023713Y-133489427D01*
X306023713Y-133489427D02*
X306015192Y-133563474D01*
X306015192Y-133563474D02*
X306029471Y-133700167D01*
X306029471Y-133700167D02*
X306086475Y-133856783D01*
X306086475Y-133856783D02*
X306163400Y-133970674D01*
X306163400Y-133970674D02*
X306217525Y-134021920D01*
X306217525Y-134021920D02*
X306260249Y-134041842D01*
X306260249Y-134041842D02*
X306334295Y-134050364D01*
X306334295Y-134050364D02*
X306396942Y-134027563D01*
X306396942Y-134027563D02*
X306448187Y-133973438D01*
X306448187Y-133973438D02*
X306468110Y-133930714D01*
X306468110Y-133930714D02*
X306476631Y-133856668D01*
X306476631Y-133856668D02*
X306462352Y-133719975D01*
X306462352Y-133719975D02*
X306405348Y-133563359D01*
X306405348Y-133563359D02*
X306328423Y-133449467D01*
X306328423Y-133449467D02*
X306274298Y-133398222D01*
X306274298Y-133398222D02*
X306231574Y-133378300D01*
X306231574Y-133378300D02*
X306157528Y-133369778D01*
X313402223Y-124771670D02*
X314341915Y-124429650D01*
X314341915Y-124429650D02*
X314260482Y-124205914D01*
X314260482Y-124205914D02*
X314166875Y-124087959D01*
X314166875Y-124087959D02*
X314044807Y-124031037D01*
X314044807Y-124031037D02*
X313939025Y-124018863D01*
X313939025Y-124018863D02*
X313743750Y-124039263D01*
X313743750Y-124039263D02*
X313609508Y-124088123D01*
X313609508Y-124088123D02*
X313446806Y-124198017D01*
X313446806Y-124198017D02*
X313373598Y-124275337D01*
X313373598Y-124275337D02*
X313316676Y-124397405D01*
X313316676Y-124397405D02*
X313320789Y-124547934D01*
X313320789Y-124547934D02*
X313402223Y-124771670D01*
X313837028Y-123042485D02*
X313999895Y-123489957D01*
X313999895Y-123489957D02*
X313568709Y-123697571D01*
X313568709Y-123697571D02*
X313597170Y-123636537D01*
X313597170Y-123636537D02*
X313609344Y-123530756D01*
X313609344Y-123530756D02*
X313527910Y-123307020D01*
X313527910Y-123307020D02*
X313450590Y-123233812D01*
X313450590Y-123233812D02*
X313389556Y-123205351D01*
X313389556Y-123205351D02*
X313283774Y-123193178D01*
X313283774Y-123193178D02*
X313060038Y-123274611D01*
X313060038Y-123274611D02*
X312986830Y-123351932D01*
X312986830Y-123351932D02*
X312958370Y-123412965D01*
X312958370Y-123412965D02*
X312946196Y-123518747D01*
X312946196Y-123518747D02*
X313027629Y-123742483D01*
X313027629Y-123742483D02*
X313104950Y-123815691D01*
X313104950Y-123815691D02*
X313165984Y-123844151D01*
X313609015Y-122416023D02*
X313576442Y-122326528D01*
X313576442Y-122326528D02*
X313499121Y-122253321D01*
X313499121Y-122253321D02*
X313438087Y-122224860D01*
X313438087Y-122224860D02*
X313332306Y-122212686D01*
X313332306Y-122212686D02*
X313137030Y-122233085D01*
X313137030Y-122233085D02*
X312913294Y-122314519D01*
X312913294Y-122314519D02*
X312750591Y-122424413D01*
X312750591Y-122424413D02*
X312677383Y-122501733D01*
X312677383Y-122501733D02*
X312648923Y-122562767D01*
X312648923Y-122562767D02*
X312636749Y-122668549D01*
X312636749Y-122668549D02*
X312669322Y-122758043D01*
X312669322Y-122758043D02*
X312746643Y-122831251D01*
X312746643Y-122831251D02*
X312807677Y-122859712D01*
X312807677Y-122859712D02*
X312913458Y-122871885D01*
X312913458Y-122871885D02*
X313108734Y-122851486D01*
X313108734Y-122851486D02*
X313332470Y-122770053D01*
X313332470Y-122770053D02*
X313495173Y-122660159D01*
X313495173Y-122660159D02*
X313568380Y-122582838D01*
X313568380Y-122582838D02*
X313596841Y-122521804D01*
X313596841Y-122521804D02*
X313609015Y-122416023D01*
X292546127Y-85581903D02*
X292855189Y-85457034D01*
X292855189Y-85457034D02*
X292592964Y-84808005D01*
X292123439Y-85069608D02*
X292080046Y-85051188D01*
X292080046Y-85051188D02*
X292005747Y-85045256D01*
X292005747Y-85045256D02*
X291851217Y-85107690D01*
X291851217Y-85107690D02*
X291801891Y-85163570D01*
X291801891Y-85163570D02*
X291783472Y-85206963D01*
X291783472Y-85206963D02*
X291777540Y-85281262D01*
X291777540Y-85281262D02*
X291802513Y-85343075D01*
X291802513Y-85343075D02*
X291870880Y-85423306D01*
X291870880Y-85423306D02*
X292391596Y-85644337D01*
X292391596Y-85644337D02*
X291989817Y-85806667D01*
X291469100Y-85585636D02*
X291518426Y-85529756D01*
X291518426Y-85529756D02*
X291536845Y-85486363D01*
X291536845Y-85486363D02*
X291542777Y-85412064D01*
X291542777Y-85412064D02*
X291530290Y-85381158D01*
X291530290Y-85381158D02*
X291474410Y-85331832D01*
X291474410Y-85331832D02*
X291431017Y-85313413D01*
X291431017Y-85313413D02*
X291356718Y-85307481D01*
X291356718Y-85307481D02*
X291233094Y-85357428D01*
X291233094Y-85357428D02*
X291183768Y-85413308D01*
X291183768Y-85413308D02*
X291165349Y-85456701D01*
X291165349Y-85456701D02*
X291159417Y-85531000D01*
X291159417Y-85531000D02*
X291171904Y-85561906D01*
X291171904Y-85561906D02*
X291227784Y-85611232D01*
X291227784Y-85611232D02*
X291271177Y-85629651D01*
X291271177Y-85629651D02*
X291345476Y-85635583D01*
X291345476Y-85635583D02*
X291469100Y-85585636D01*
X291469100Y-85585636D02*
X291543399Y-85591568D01*
X291543399Y-85591568D02*
X291586792Y-85609987D01*
X291586792Y-85609987D02*
X291642672Y-85659313D01*
X291642672Y-85659313D02*
X291692620Y-85782937D01*
X291692620Y-85782937D02*
X291686688Y-85857236D01*
X291686688Y-85857236D02*
X291668268Y-85900629D01*
X291668268Y-85900629D02*
X291618943Y-85956509D01*
X291618943Y-85956509D02*
X291495318Y-86006457D01*
X291495318Y-86006457D02*
X291421019Y-86000525D01*
X291421019Y-86000525D02*
X291377626Y-85982105D01*
X291377626Y-85982105D02*
X291321746Y-85932780D01*
X291321746Y-85932780D02*
X291271799Y-85809155D01*
X291271799Y-85809155D02*
X291277731Y-85734856D01*
X291277731Y-85734856D02*
X291296150Y-85691463D01*
X291296150Y-85691463D02*
X291345476Y-85635583D01*
X356202290Y-55301676D02*
X357168216Y-55042857D01*
X357168216Y-55042857D02*
X357106593Y-54812875D01*
X357106593Y-54812875D02*
X357023622Y-54687210D01*
X357023622Y-54687210D02*
X356906980Y-54619867D01*
X356906980Y-54619867D02*
X356802662Y-54598520D01*
X356802662Y-54598520D02*
X356606351Y-54601822D01*
X356606351Y-54601822D02*
X356468362Y-54638796D01*
X356468362Y-54638796D02*
X356296701Y-54734092D01*
X356296701Y-54734092D02*
X356217033Y-54804737D01*
X356217033Y-54804737D02*
X356149689Y-54921380D01*
X356149689Y-54921380D02*
X356140667Y-55071694D01*
X356140667Y-55071694D02*
X356202290Y-55301676D01*
X355807899Y-53829789D02*
X355955796Y-54381747D01*
X355881848Y-54105768D02*
X356847774Y-53846949D01*
X356847774Y-53846949D02*
X356734434Y-53975916D01*
X356734434Y-53975916D02*
X356667090Y-54092559D01*
X356667090Y-54092559D02*
X356645743Y-54196876D01*
X356583235Y-53227648D02*
X356616906Y-53169327D01*
X356616906Y-53169327D02*
X356638253Y-53065009D01*
X356638253Y-53065009D02*
X356576630Y-52835027D01*
X356576630Y-52835027D02*
X356505984Y-52755359D01*
X356505984Y-52755359D02*
X356447663Y-52721687D01*
X356447663Y-52721687D02*
X356343345Y-52700340D01*
X356343345Y-52700340D02*
X356251352Y-52724989D01*
X356251352Y-52724989D02*
X356125687Y-52807960D01*
X356125687Y-52807960D02*
X355721626Y-53507814D01*
X355721626Y-53507814D02*
X355561405Y-52909860D01*
X259473975Y-105432155D02*
X259783037Y-105307286D01*
X259783037Y-105307286D02*
X259520812Y-104658257D01*
X258804661Y-105199259D02*
X258979477Y-105631945D01*
X258859296Y-104889576D02*
X259201130Y-105290733D01*
X259201130Y-105290733D02*
X258799350Y-105453063D01*
X258186538Y-105448997D02*
X258361354Y-105881683D01*
X258241173Y-105139313D02*
X258583007Y-105540471D01*
X258583007Y-105540471D02*
X258181228Y-105702800D01*
X250921366Y-60998803D02*
X251848550Y-60624196D01*
X251848550Y-60624196D02*
X251759358Y-60403438D01*
X251759358Y-60403438D02*
X251661691Y-60288822D01*
X251661691Y-60288822D02*
X251537711Y-60236195D01*
X251537711Y-60236195D02*
X251431569Y-60227721D01*
X251431569Y-60227721D02*
X251237125Y-60254923D01*
X251237125Y-60254923D02*
X251104670Y-60308438D01*
X251104670Y-60308438D02*
X250945902Y-60423943D01*
X250945902Y-60423943D02*
X250875437Y-60503772D01*
X250875437Y-60503772D02*
X250822810Y-60627752D01*
X250822810Y-60627752D02*
X250832174Y-60778045D01*
X250832174Y-60778045D02*
X250921366Y-60998803D01*
X251403479Y-59776841D02*
X251429792Y-59714851D01*
X251429792Y-59714851D02*
X251438267Y-59608709D01*
X251438267Y-59608709D02*
X251349074Y-59387951D01*
X251349074Y-59387951D02*
X251269246Y-59317486D01*
X251269246Y-59317486D02*
X251207256Y-59291173D01*
X251207256Y-59291173D02*
X251101114Y-59282698D01*
X251101114Y-59282698D02*
X251012811Y-59318375D01*
X251012811Y-59318375D02*
X250898195Y-59416042D01*
X250898195Y-59416042D02*
X250582436Y-60159922D01*
X250582436Y-60159922D02*
X250350537Y-59585951D01*
X251045821Y-58637374D02*
X251010145Y-58549070D01*
X251010145Y-58549070D02*
X250930316Y-58478606D01*
X250930316Y-58478606D02*
X250868326Y-58452292D01*
X250868326Y-58452292D02*
X250762185Y-58443818D01*
X250762185Y-58443818D02*
X250567740Y-58471020D01*
X250567740Y-58471020D02*
X250346982Y-58560212D01*
X250346982Y-58560212D02*
X250188214Y-58675717D01*
X250188214Y-58675717D02*
X250117749Y-58755545D01*
X250117749Y-58755545D02*
X250091436Y-58817535D01*
X250091436Y-58817535D02*
X250082961Y-58923677D01*
X250082961Y-58923677D02*
X250118638Y-59011980D01*
X250118638Y-59011980D02*
X250198466Y-59082445D01*
X250198466Y-59082445D02*
X250260456Y-59108758D01*
X250260456Y-59108758D02*
X250366598Y-59117233D01*
X250366598Y-59117233D02*
X250561043Y-59090031D01*
X250561043Y-59090031D02*
X250781801Y-59000839D01*
X250781801Y-59000839D02*
X250940569Y-58885334D01*
X250940569Y-58885334D02*
X251011034Y-58805505D01*
X251011034Y-58805505D02*
X251037347Y-58743515D01*
X251037347Y-58743515D02*
X251045821Y-58637374D01*
X265193874Y-96324513D02*
X266121058Y-95949906D01*
X266121058Y-95949906D02*
X266031866Y-95729148D01*
X266031866Y-95729148D02*
X265934199Y-95614532D01*
X265934199Y-95614532D02*
X265810219Y-95561905D01*
X265810219Y-95561905D02*
X265704077Y-95553431D01*
X265704077Y-95553431D02*
X265509633Y-95580633D01*
X265509633Y-95580633D02*
X265377178Y-95634148D01*
X265377178Y-95634148D02*
X265218410Y-95749653D01*
X265218410Y-95749653D02*
X265147945Y-95829482D01*
X265147945Y-95829482D02*
X265095318Y-95953462D01*
X265095318Y-95953462D02*
X265104682Y-96103755D01*
X265104682Y-96103755D02*
X265193874Y-96324513D01*
X265276844Y-94750227D02*
X264658722Y-94999965D01*
X265719249Y-94828278D02*
X265146167Y-95316612D01*
X265146167Y-95316612D02*
X264914268Y-94742641D01*
X264920076Y-93867194D02*
X264301954Y-94116932D01*
X265362481Y-93945245D02*
X264789399Y-94433579D01*
X264789399Y-94433579D02*
X264557500Y-93859609D01*
X302604759Y-36359652D02*
X303531943Y-35985046D01*
X303531943Y-35985046D02*
X303442751Y-35764288D01*
X303442751Y-35764288D02*
X303345084Y-35649671D01*
X303345084Y-35649671D02*
X303221104Y-35597045D01*
X303221104Y-35597045D02*
X303114962Y-35588570D01*
X303114962Y-35588570D02*
X302920517Y-35615772D01*
X302920517Y-35615772D02*
X302788062Y-35669287D01*
X302788062Y-35669287D02*
X302629294Y-35784792D01*
X302629294Y-35784792D02*
X302558830Y-35864621D01*
X302558830Y-35864621D02*
X302506203Y-35988601D01*
X302506203Y-35988601D02*
X302515567Y-36138894D01*
X302515567Y-36138894D02*
X302604759Y-36359652D01*
X302687729Y-34785366D02*
X302069607Y-35035104D01*
X303130134Y-34863417D02*
X302557052Y-35351751D01*
X302557052Y-35351751D02*
X302325153Y-34777780D01*
X296754183Y-46033679D02*
X297063245Y-45908810D01*
X297063245Y-45908810D02*
X296801020Y-45259782D01*
X296084869Y-45800784D02*
X296259685Y-46233470D01*
X296139504Y-45491100D02*
X296481338Y-45892258D01*
X296481338Y-45892258D02*
X296079558Y-46054587D01*
X329016806Y-40930678D02*
X329967862Y-40621661D01*
X329967862Y-40621661D02*
X329894287Y-40395219D01*
X329894287Y-40395219D02*
X329804853Y-40274069D01*
X329804853Y-40274069D02*
X329684846Y-40212922D01*
X329684846Y-40212922D02*
X329579554Y-40197064D01*
X329579554Y-40197064D02*
X329383685Y-40210636D01*
X329383685Y-40210636D02*
X329247820Y-40254781D01*
X329247820Y-40254781D02*
X329081382Y-40358930D01*
X329081382Y-40358930D02*
X329005520Y-40433649D01*
X329005520Y-40433649D02*
X328944373Y-40553656D01*
X328944373Y-40553656D02*
X328943230Y-40704236D01*
X328943230Y-40704236D02*
X329016806Y-40930678D01*
X329526409Y-39263009D02*
X329585270Y-39444163D01*
X329585270Y-39444163D02*
X329569412Y-39549455D01*
X329569412Y-39549455D02*
X329538838Y-39609458D01*
X329538838Y-39609458D02*
X329432403Y-39744180D01*
X329432403Y-39744180D02*
X329265965Y-39848329D01*
X329265965Y-39848329D02*
X328903657Y-39966050D01*
X328903657Y-39966050D02*
X328798366Y-39950191D01*
X328798366Y-39950191D02*
X328738362Y-39919618D01*
X328738362Y-39919618D02*
X328663643Y-39843756D01*
X328663643Y-39843756D02*
X328604783Y-39662603D01*
X328604783Y-39662603D02*
X328620641Y-39557311D01*
X328620641Y-39557311D02*
X328651215Y-39497307D01*
X328651215Y-39497307D02*
X328727076Y-39422589D01*
X328727076Y-39422589D02*
X328953518Y-39349013D01*
X328953518Y-39349013D02*
X329058810Y-39364872D01*
X329058810Y-39364872D02*
X329118814Y-39395445D01*
X329118814Y-39395445D02*
X329193532Y-39471307D01*
X329193532Y-39471307D02*
X329252393Y-39652460D01*
X329252393Y-39652460D02*
X329236534Y-39757752D01*
X329236534Y-39757752D02*
X329205961Y-39817756D01*
X329205961Y-39817756D02*
X329130099Y-39892474D01*
X299682391Y-103244758D02*
X299991453Y-103119889D01*
X299991453Y-103119889D02*
X299729228Y-102470860D01*
X299013077Y-103011862D02*
X299187893Y-103444548D01*
X299067712Y-102702179D02*
X299409546Y-103103336D01*
X299409546Y-103103336D02*
X299007766Y-103265666D01*
X298462076Y-102982823D02*
X298400264Y-103007796D01*
X298400264Y-103007796D02*
X298350939Y-103063676D01*
X298350939Y-103063676D02*
X298332519Y-103107069D01*
X298332519Y-103107069D02*
X298326587Y-103181368D01*
X298326587Y-103181368D02*
X298345628Y-103317480D01*
X298345628Y-103317480D02*
X298408063Y-103472010D01*
X298408063Y-103472010D02*
X298488916Y-103583148D01*
X298488916Y-103583148D02*
X298544796Y-103632473D01*
X298544796Y-103632473D02*
X298588189Y-103650893D01*
X298588189Y-103650893D02*
X298662489Y-103656825D01*
X298662489Y-103656825D02*
X298724301Y-103631851D01*
X298724301Y-103631851D02*
X298773626Y-103575971D01*
X298773626Y-103575971D02*
X298792045Y-103532578D01*
X298792045Y-103532578D02*
X298797978Y-103458279D01*
X298797978Y-103458279D02*
X298778936Y-103322168D01*
X298778936Y-103322168D02*
X298716502Y-103167637D01*
X298716502Y-103167637D02*
X298635648Y-103056500D01*
X298635648Y-103056500D02*
X298579768Y-103007174D01*
X298579768Y-103007174D02*
X298536375Y-102988755D01*
X298536375Y-102988755D02*
X298462076Y-102982823D01*
X243847857Y-76715580D02*
X243895476Y-76763200D01*
X243895476Y-76763200D02*
X244038333Y-76810819D01*
X244038333Y-76810819D02*
X244133571Y-76810819D01*
X244133571Y-76810819D02*
X244276428Y-76763200D01*
X244276428Y-76763200D02*
X244371666Y-76667961D01*
X244371666Y-76667961D02*
X244419285Y-76572723D01*
X244419285Y-76572723D02*
X244466904Y-76382247D01*
X244466904Y-76382247D02*
X244466904Y-76239390D01*
X244466904Y-76239390D02*
X244419285Y-76048914D01*
X244419285Y-76048914D02*
X244371666Y-75953676D01*
X244371666Y-75953676D02*
X244276428Y-75858438D01*
X244276428Y-75858438D02*
X244133571Y-75810819D01*
X244133571Y-75810819D02*
X244038333Y-75810819D01*
X244038333Y-75810819D02*
X243895476Y-75858438D01*
X243895476Y-75858438D02*
X243847857Y-75906057D01*
X242895476Y-76810819D02*
X243466904Y-76810819D01*
X243181190Y-76810819D02*
X243181190Y-75810819D01*
X243181190Y-75810819D02*
X243276428Y-75953676D01*
X243276428Y-75953676D02*
X243371666Y-76048914D01*
X243371666Y-76048914D02*
X243466904Y-76096533D01*
X241943095Y-76810819D02*
X242514523Y-76810819D01*
X242228809Y-76810819D02*
X242228809Y-75810819D01*
X242228809Y-75810819D02*
X242324047Y-75953676D01*
X242324047Y-75953676D02*
X242419285Y-76048914D01*
X242419285Y-76048914D02*
X242514523Y-76096533D01*
X252337730Y-87769300D02*
X252646792Y-87644431D01*
X252646792Y-87644431D02*
X252384567Y-86995402D01*
X251920975Y-87182705D02*
X251519195Y-87345035D01*
X251519195Y-87345035D02*
X251835433Y-87504876D01*
X251835433Y-87504876D02*
X251742715Y-87542336D01*
X251742715Y-87542336D02*
X251693389Y-87598216D01*
X251693389Y-87598216D02*
X251674970Y-87641609D01*
X251674970Y-87641609D02*
X251669038Y-87715908D01*
X251669038Y-87715908D02*
X251731472Y-87870439D01*
X251731472Y-87870439D02*
X251787352Y-87919764D01*
X251787352Y-87919764D02*
X251830745Y-87938184D01*
X251830745Y-87938184D02*
X251905044Y-87944116D01*
X251905044Y-87944116D02*
X252090481Y-87869195D01*
X252090481Y-87869195D02*
X252139806Y-87813315D01*
X252139806Y-87813315D02*
X252158226Y-87769922D01*
X251296920Y-87506742D02*
X251253527Y-87488323D01*
X251253527Y-87488323D02*
X251179227Y-87482391D01*
X251179227Y-87482391D02*
X251024697Y-87544825D01*
X251024697Y-87544825D02*
X250975371Y-87600705D01*
X250975371Y-87600705D02*
X250956952Y-87644098D01*
X250956952Y-87644098D02*
X250951020Y-87718397D01*
X250951020Y-87718397D02*
X250975994Y-87780210D01*
X250975994Y-87780210D02*
X251044360Y-87860441D01*
X251044360Y-87860441D02*
X251565077Y-88081472D01*
X251565077Y-88081472D02*
X251163297Y-88243801D01*
X366063294Y-92103457D02*
X367029220Y-91844638D01*
X367029220Y-91844638D02*
X366967597Y-91614656D01*
X366967597Y-91614656D02*
X366884626Y-91488991D01*
X366884626Y-91488991D02*
X366767984Y-91421648D01*
X366767984Y-91421648D02*
X366663666Y-91400301D01*
X366663666Y-91400301D02*
X366467355Y-91403603D01*
X366467355Y-91403603D02*
X366329366Y-91440577D01*
X366329366Y-91440577D02*
X366157705Y-91535873D01*
X366157705Y-91535873D02*
X366078037Y-91606518D01*
X366078037Y-91606518D02*
X366010693Y-91723161D01*
X366010693Y-91723161D02*
X366001671Y-91873475D01*
X366001671Y-91873475D02*
X366063294Y-92103457D01*
X366795051Y-90970705D02*
X366634829Y-90372751D01*
X366634829Y-90372751D02*
X366353130Y-90793324D01*
X366353130Y-90793324D02*
X366316156Y-90655335D01*
X366316156Y-90655335D02*
X366245510Y-90575667D01*
X366245510Y-90575667D02*
X366187189Y-90541995D01*
X366187189Y-90541995D02*
X366082872Y-90520648D01*
X366082872Y-90520648D02*
X365852889Y-90582271D01*
X365852889Y-90582271D02*
X365773221Y-90652917D01*
X365773221Y-90652917D02*
X365739549Y-90711239D01*
X365739549Y-90711239D02*
X365718202Y-90815556D01*
X365718202Y-90815556D02*
X365792151Y-91091535D01*
X365792151Y-91091535D02*
X365862796Y-91171203D01*
X365862796Y-91171203D02*
X365921118Y-91204875D01*
X366072964Y-89931716D02*
X366143610Y-90011384D01*
X366143610Y-90011384D02*
X366201931Y-90045056D01*
X366201931Y-90045056D02*
X366306249Y-90066403D01*
X366306249Y-90066403D02*
X366352246Y-90054078D01*
X366352246Y-90054078D02*
X366431914Y-89983432D01*
X366431914Y-89983432D02*
X366465586Y-89925111D01*
X366465586Y-89925111D02*
X366486933Y-89820794D01*
X366486933Y-89820794D02*
X366437634Y-89636808D01*
X366437634Y-89636808D02*
X366366988Y-89557140D01*
X366366988Y-89557140D02*
X366308667Y-89523468D01*
X366308667Y-89523468D02*
X366204349Y-89502121D01*
X366204349Y-89502121D02*
X366158353Y-89514445D01*
X366158353Y-89514445D02*
X366078684Y-89585091D01*
X366078684Y-89585091D02*
X366045013Y-89643413D01*
X366045013Y-89643413D02*
X366023666Y-89747730D01*
X366023666Y-89747730D02*
X366072964Y-89931716D01*
X366072964Y-89931716D02*
X366051617Y-90036034D01*
X366051617Y-90036034D02*
X366017946Y-90094355D01*
X366017946Y-90094355D02*
X365938277Y-90165001D01*
X365938277Y-90165001D02*
X365754292Y-90214300D01*
X365754292Y-90214300D02*
X365649974Y-90192953D01*
X365649974Y-90192953D02*
X365591653Y-90159281D01*
X365591653Y-90159281D02*
X365521007Y-90079613D01*
X365521007Y-90079613D02*
X365471708Y-89895627D01*
X365471708Y-89895627D02*
X365493055Y-89791309D01*
X365493055Y-89791309D02*
X365526727Y-89732988D01*
X365526727Y-89732988D02*
X365606395Y-89662342D01*
X365606395Y-89662342D02*
X365790381Y-89613043D01*
X365790381Y-89613043D02*
X365894698Y-89634390D01*
X365894698Y-89634390D02*
X365953020Y-89668062D01*
X365953020Y-89668062D02*
X366023666Y-89747730D01*
X298266026Y-76474261D02*
X299193210Y-76099654D01*
X299193210Y-76099654D02*
X299104018Y-75878896D01*
X299104018Y-75878896D02*
X299006351Y-75764280D01*
X299006351Y-75764280D02*
X298882371Y-75711653D01*
X298882371Y-75711653D02*
X298776229Y-75703179D01*
X298776229Y-75703179D02*
X298581785Y-75730381D01*
X298581785Y-75730381D02*
X298449330Y-75783896D01*
X298449330Y-75783896D02*
X298290562Y-75899401D01*
X298290562Y-75899401D02*
X298220097Y-75979230D01*
X298220097Y-75979230D02*
X298167470Y-76103210D01*
X298167470Y-76103210D02*
X298176834Y-76253503D01*
X298176834Y-76253503D02*
X298266026Y-76474261D01*
X298748139Y-75252299D02*
X298774452Y-75190309D01*
X298774452Y-75190309D02*
X298782927Y-75084167D01*
X298782927Y-75084167D02*
X298693734Y-74863409D01*
X298693734Y-74863409D02*
X298613906Y-74792944D01*
X298613906Y-74792944D02*
X298551916Y-74766631D01*
X298551916Y-74766631D02*
X298445774Y-74758156D01*
X298445774Y-74758156D02*
X298357471Y-74793833D01*
X298357471Y-74793833D02*
X298242855Y-74891500D01*
X298242855Y-74891500D02*
X297927096Y-75635380D01*
X297927096Y-75635380D02*
X297695197Y-75061409D01*
X298010955Y-74317529D02*
X298090784Y-74387994D01*
X298090784Y-74387994D02*
X298152774Y-74414307D01*
X298152774Y-74414307D02*
X298258915Y-74422782D01*
X298258915Y-74422782D02*
X298303067Y-74404943D01*
X298303067Y-74404943D02*
X298373532Y-74325115D01*
X298373532Y-74325115D02*
X298399845Y-74263125D01*
X298399845Y-74263125D02*
X298408320Y-74156983D01*
X298408320Y-74156983D02*
X298336966Y-73980377D01*
X298336966Y-73980377D02*
X298257138Y-73909912D01*
X298257138Y-73909912D02*
X298195148Y-73883599D01*
X298195148Y-73883599D02*
X298089006Y-73875124D01*
X298089006Y-73875124D02*
X298044855Y-73892962D01*
X298044855Y-73892962D02*
X297974390Y-73972791D01*
X297974390Y-73972791D02*
X297948077Y-74034781D01*
X297948077Y-74034781D02*
X297939602Y-74140923D01*
X297939602Y-74140923D02*
X298010955Y-74317529D01*
X298010955Y-74317529D02*
X298002481Y-74423671D01*
X298002481Y-74423671D02*
X297976167Y-74485661D01*
X297976167Y-74485661D02*
X297905703Y-74565489D01*
X297905703Y-74565489D02*
X297729096Y-74636843D01*
X297729096Y-74636843D02*
X297622955Y-74628368D01*
X297622955Y-74628368D02*
X297560964Y-74602055D01*
X297560964Y-74602055D02*
X297481136Y-74531590D01*
X297481136Y-74531590D02*
X297409782Y-74354983D01*
X297409782Y-74354983D02*
X297418257Y-74248842D01*
X297418257Y-74248842D02*
X297444570Y-74186852D01*
X297444570Y-74186852D02*
X297515035Y-74107023D01*
X297515035Y-74107023D02*
X297691642Y-74035670D01*
X297691642Y-74035670D02*
X297797783Y-74044145D01*
X297797783Y-74044145D02*
X297859773Y-74070458D01*
X297859773Y-74070458D02*
X297939602Y-74140923D01*
X251594857Y-93098580D02*
X251642476Y-93146200D01*
X251642476Y-93146200D02*
X251785333Y-93193819D01*
X251785333Y-93193819D02*
X251880571Y-93193819D01*
X251880571Y-93193819D02*
X252023428Y-93146200D01*
X252023428Y-93146200D02*
X252118666Y-93050961D01*
X252118666Y-93050961D02*
X252166285Y-92955723D01*
X252166285Y-92955723D02*
X252213904Y-92765247D01*
X252213904Y-92765247D02*
X252213904Y-92622390D01*
X252213904Y-92622390D02*
X252166285Y-92431914D01*
X252166285Y-92431914D02*
X252118666Y-92336676D01*
X252118666Y-92336676D02*
X252023428Y-92241438D01*
X252023428Y-92241438D02*
X251880571Y-92193819D01*
X251880571Y-92193819D02*
X251785333Y-92193819D01*
X251785333Y-92193819D02*
X251642476Y-92241438D01*
X251642476Y-92241438D02*
X251594857Y-92289057D01*
X250642476Y-93193819D02*
X251213904Y-93193819D01*
X250928190Y-93193819D02*
X250928190Y-92193819D01*
X250928190Y-92193819D02*
X251023428Y-92336676D01*
X251023428Y-92336676D02*
X251118666Y-92431914D01*
X251118666Y-92431914D02*
X251213904Y-92479533D01*
X250261523Y-92289057D02*
X250213904Y-92241438D01*
X250213904Y-92241438D02*
X250118666Y-92193819D01*
X250118666Y-92193819D02*
X249880571Y-92193819D01*
X249880571Y-92193819D02*
X249785333Y-92241438D01*
X249785333Y-92241438D02*
X249737714Y-92289057D01*
X249737714Y-92289057D02*
X249690095Y-92384295D01*
X249690095Y-92384295D02*
X249690095Y-92479533D01*
X249690095Y-92479533D02*
X249737714Y-92622390D01*
X249737714Y-92622390D02*
X250309142Y-93193819D01*
X250309142Y-93193819D02*
X249690095Y-93193819D01*
X283815135Y-40707034D02*
X284742319Y-40332428D01*
X284742319Y-40332428D02*
X284653127Y-40111670D01*
X284653127Y-40111670D02*
X284555460Y-39997053D01*
X284555460Y-39997053D02*
X284431480Y-39944427D01*
X284431480Y-39944427D02*
X284325338Y-39935952D01*
X284325338Y-39935952D02*
X284130893Y-39963154D01*
X284130893Y-39963154D02*
X283998438Y-40016669D01*
X283998438Y-40016669D02*
X283839670Y-40132174D01*
X283839670Y-40132174D02*
X283769206Y-40212003D01*
X283769206Y-40212003D02*
X283716579Y-40335983D01*
X283716579Y-40335983D02*
X283725943Y-40486276D01*
X283725943Y-40486276D02*
X283815135Y-40707034D01*
X283916832Y-39433335D02*
X283996661Y-39503799D01*
X283996661Y-39503799D02*
X284058651Y-39530113D01*
X284058651Y-39530113D02*
X284164792Y-39538587D01*
X284164792Y-39538587D02*
X284208944Y-39520749D01*
X284208944Y-39520749D02*
X284279409Y-39440921D01*
X284279409Y-39440921D02*
X284305722Y-39378931D01*
X284305722Y-39378931D02*
X284314197Y-39272789D01*
X284314197Y-39272789D02*
X284242843Y-39096183D01*
X284242843Y-39096183D02*
X284163015Y-39025718D01*
X284163015Y-39025718D02*
X284101025Y-38999405D01*
X284101025Y-38999405D02*
X283994883Y-38990930D01*
X283994883Y-38990930D02*
X283950731Y-39008768D01*
X283950731Y-39008768D02*
X283880267Y-39088597D01*
X283880267Y-39088597D02*
X283853953Y-39150587D01*
X283853953Y-39150587D02*
X283845479Y-39256728D01*
X283845479Y-39256728D02*
X283916832Y-39433335D01*
X283916832Y-39433335D02*
X283908358Y-39539476D01*
X283908358Y-39539476D02*
X283882044Y-39601466D01*
X283882044Y-39601466D02*
X283811579Y-39681295D01*
X283811579Y-39681295D02*
X283634973Y-39752648D01*
X283634973Y-39752648D02*
X283528831Y-39744174D01*
X283528831Y-39744174D02*
X283466841Y-39717860D01*
X283466841Y-39717860D02*
X283387013Y-39647396D01*
X283387013Y-39647396D02*
X283315659Y-39470789D01*
X283315659Y-39470789D02*
X283324134Y-39364647D01*
X283324134Y-39364647D02*
X283350447Y-39302657D01*
X283350447Y-39302657D02*
X283420912Y-39222829D01*
X283420912Y-39222829D02*
X283597519Y-39151475D01*
X283597519Y-39151475D02*
X283703660Y-39159950D01*
X283703660Y-39159950D02*
X283765650Y-39186263D01*
X283765650Y-39186263D02*
X283845479Y-39256728D01*
X354345587Y-82045241D02*
X354667562Y-81958968D01*
X354667562Y-81958968D02*
X354486389Y-81282820D01*
X353988482Y-81485252D02*
X353947658Y-81461681D01*
X353947658Y-81461681D02*
X353874635Y-81446738D01*
X353874635Y-81446738D02*
X353713648Y-81489875D01*
X353713648Y-81489875D02*
X353657880Y-81539327D01*
X353657880Y-81539327D02*
X353634310Y-81580152D01*
X353634310Y-81580152D02*
X353619367Y-81653174D01*
X353619367Y-81653174D02*
X353636621Y-81717569D01*
X353636621Y-81717569D02*
X353694701Y-81805535D01*
X353694701Y-81805535D02*
X354184599Y-82088377D01*
X354184599Y-82088377D02*
X353766031Y-82200532D01*
X353005302Y-81679676D02*
X353134092Y-81645166D01*
X353134092Y-81645166D02*
X353207114Y-81660109D01*
X353207114Y-81660109D02*
X353247939Y-81683680D01*
X353247939Y-81683680D02*
X353338216Y-81763018D01*
X353338216Y-81763018D02*
X353404923Y-81883180D01*
X353404923Y-81883180D02*
X353473941Y-82140761D01*
X353473941Y-82140761D02*
X353458998Y-82213783D01*
X353458998Y-82213783D02*
X353435428Y-82254608D01*
X353435428Y-82254608D02*
X353379660Y-82304060D01*
X353379660Y-82304060D02*
X353250870Y-82338569D01*
X353250870Y-82338569D02*
X353177848Y-82323626D01*
X353177848Y-82323626D02*
X353137023Y-82300056D01*
X353137023Y-82300056D02*
X353087571Y-82244288D01*
X353087571Y-82244288D02*
X353044434Y-82083301D01*
X353044434Y-82083301D02*
X353059377Y-82010278D01*
X353059377Y-82010278D02*
X353082947Y-81969453D01*
X353082947Y-81969453D02*
X353138715Y-81920001D01*
X353138715Y-81920001D02*
X353267505Y-81885492D01*
X353267505Y-81885492D02*
X353340528Y-81900435D01*
X353340528Y-81900435D02*
X353381352Y-81924005D01*
X353381352Y-81924005D02*
X353430804Y-81979773D01*
X317055651Y-72126879D02*
X317982835Y-71752272D01*
X317982835Y-71752272D02*
X317893643Y-71531514D01*
X317893643Y-71531514D02*
X317795976Y-71416898D01*
X317795976Y-71416898D02*
X317671996Y-71364271D01*
X317671996Y-71364271D02*
X317565854Y-71355797D01*
X317565854Y-71355797D02*
X317371410Y-71382999D01*
X317371410Y-71382999D02*
X317238955Y-71436514D01*
X317238955Y-71436514D02*
X317080187Y-71552019D01*
X317080187Y-71552019D02*
X317009722Y-71631848D01*
X317009722Y-71631848D02*
X316957095Y-71755828D01*
X316957095Y-71755828D02*
X316966459Y-71906121D01*
X316966459Y-71906121D02*
X317055651Y-72126879D01*
X317537764Y-70904917D02*
X317564077Y-70842927D01*
X317564077Y-70842927D02*
X317572552Y-70736785D01*
X317572552Y-70736785D02*
X317483359Y-70516027D01*
X317483359Y-70516027D02*
X317403531Y-70445562D01*
X317403531Y-70445562D02*
X317341541Y-70419249D01*
X317341541Y-70419249D02*
X317235399Y-70410774D01*
X317235399Y-70410774D02*
X317147096Y-70446451D01*
X317147096Y-70446451D02*
X317032480Y-70544118D01*
X317032480Y-70544118D02*
X316716721Y-71287998D01*
X316716721Y-71287998D02*
X316484822Y-70714027D01*
X316781853Y-69669560D02*
X316163731Y-69919298D01*
X317224258Y-69747611D02*
X316651176Y-70235945D01*
X316651176Y-70235945D02*
X316419277Y-69661975D01*
X272330137Y-113987369D02*
X273257321Y-113612762D01*
X273257321Y-113612762D02*
X273168129Y-113392004D01*
X273168129Y-113392004D02*
X273070462Y-113277388D01*
X273070462Y-113277388D02*
X272946482Y-113224761D01*
X272946482Y-113224761D02*
X272840340Y-113216287D01*
X272840340Y-113216287D02*
X272645896Y-113243489D01*
X272645896Y-113243489D02*
X272513441Y-113297004D01*
X272513441Y-113297004D02*
X272354673Y-113412509D01*
X272354673Y-113412509D02*
X272284208Y-113492338D01*
X272284208Y-113492338D02*
X272231581Y-113616318D01*
X272231581Y-113616318D02*
X272240945Y-113766611D01*
X272240945Y-113766611D02*
X272330137Y-113987369D01*
X272413107Y-112413083D02*
X271794985Y-112662821D01*
X272855512Y-112491134D02*
X272282430Y-112979468D01*
X272282430Y-112979468D02*
X272050531Y-112405497D01*
X272075066Y-111830637D02*
X272154895Y-111901102D01*
X272154895Y-111901102D02*
X272216885Y-111927415D01*
X272216885Y-111927415D02*
X272323026Y-111935890D01*
X272323026Y-111935890D02*
X272367178Y-111918051D01*
X272367178Y-111918051D02*
X272437643Y-111838223D01*
X272437643Y-111838223D02*
X272463956Y-111776233D01*
X272463956Y-111776233D02*
X272472431Y-111670091D01*
X272472431Y-111670091D02*
X272401077Y-111493485D01*
X272401077Y-111493485D02*
X272321249Y-111423020D01*
X272321249Y-111423020D02*
X272259259Y-111396707D01*
X272259259Y-111396707D02*
X272153117Y-111388232D01*
X272153117Y-111388232D02*
X272108966Y-111406070D01*
X272108966Y-111406070D02*
X272038501Y-111485899D01*
X272038501Y-111485899D02*
X272012188Y-111547889D01*
X272012188Y-111547889D02*
X272003713Y-111654031D01*
X272003713Y-111654031D02*
X272075066Y-111830637D01*
X272075066Y-111830637D02*
X272066592Y-111936779D01*
X272066592Y-111936779D02*
X272040278Y-111998769D01*
X272040278Y-111998769D02*
X271969814Y-112078597D01*
X271969814Y-112078597D02*
X271793207Y-112149951D01*
X271793207Y-112149951D02*
X271687066Y-112141476D01*
X271687066Y-112141476D02*
X271625075Y-112115163D01*
X271625075Y-112115163D02*
X271545247Y-112044698D01*
X271545247Y-112044698D02*
X271473893Y-111868091D01*
X271473893Y-111868091D02*
X271482368Y-111761950D01*
X271482368Y-111761950D02*
X271508681Y-111699960D01*
X271508681Y-111699960D02*
X271579146Y-111620131D01*
X271579146Y-111620131D02*
X271755753Y-111548778D01*
X271755753Y-111548778D02*
X271861894Y-111557253D01*
X271861894Y-111557253D02*
X271923884Y-111583566D01*
X271923884Y-111583566D02*
X272003713Y-111654031D01*
X291129782Y-58811406D02*
X292056966Y-58436799D01*
X292056966Y-58436799D02*
X291967774Y-58216041D01*
X291967774Y-58216041D02*
X291870107Y-58101425D01*
X291870107Y-58101425D02*
X291746127Y-58048798D01*
X291746127Y-58048798D02*
X291639985Y-58040324D01*
X291639985Y-58040324D02*
X291445541Y-58067526D01*
X291445541Y-58067526D02*
X291313086Y-58121041D01*
X291313086Y-58121041D02*
X291154318Y-58236546D01*
X291154318Y-58236546D02*
X291083853Y-58316375D01*
X291083853Y-58316375D02*
X291031226Y-58440355D01*
X291031226Y-58440355D02*
X291040590Y-58590648D01*
X291040590Y-58590648D02*
X291129782Y-58811406D01*
X290558953Y-57398554D02*
X290773014Y-57928374D01*
X290665983Y-57663464D02*
X291593167Y-57288857D01*
X291593167Y-57288857D02*
X291496389Y-57430676D01*
X291496389Y-57430676D02*
X291443763Y-57554656D01*
X291443763Y-57554656D02*
X291435288Y-57660797D01*
X291165045Y-56229219D02*
X291236399Y-56405825D01*
X291236399Y-56405825D02*
X291227924Y-56511967D01*
X291227924Y-56511967D02*
X291201611Y-56573957D01*
X291201611Y-56573957D02*
X291104833Y-56715775D01*
X291104833Y-56715775D02*
X290946065Y-56831280D01*
X290946065Y-56831280D02*
X290592852Y-56973988D01*
X290592852Y-56973988D02*
X290486711Y-56965513D01*
X290486711Y-56965513D02*
X290424720Y-56939200D01*
X290424720Y-56939200D02*
X290344892Y-56868735D01*
X290344892Y-56868735D02*
X290273538Y-56692128D01*
X290273538Y-56692128D02*
X290282013Y-56585987D01*
X290282013Y-56585987D02*
X290308326Y-56523997D01*
X290308326Y-56523997D02*
X290378791Y-56444168D01*
X290378791Y-56444168D02*
X290599549Y-56354976D01*
X290599549Y-56354976D02*
X290705691Y-56363451D01*
X290705691Y-56363451D02*
X290767681Y-56389764D01*
X290767681Y-56389764D02*
X290847509Y-56460229D01*
X290847509Y-56460229D02*
X290918863Y-56636836D01*
X290918863Y-56636836D02*
X290910388Y-56742977D01*
X290910388Y-56742977D02*
X290884075Y-56804967D01*
X290884075Y-56804967D02*
X290813610Y-56884796D01*
X361132792Y-73702566D02*
X362098718Y-73443747D01*
X362098718Y-73443747D02*
X362037095Y-73213765D01*
X362037095Y-73213765D02*
X361954124Y-73088100D01*
X361954124Y-73088100D02*
X361837482Y-73020757D01*
X361837482Y-73020757D02*
X361733164Y-72999410D01*
X361733164Y-72999410D02*
X361536853Y-73002712D01*
X361536853Y-73002712D02*
X361398864Y-73039686D01*
X361398864Y-73039686D02*
X361227203Y-73134982D01*
X361227203Y-73134982D02*
X361147535Y-73205627D01*
X361147535Y-73205627D02*
X361080191Y-73322270D01*
X361080191Y-73322270D02*
X361071169Y-73472584D01*
X361071169Y-73472584D02*
X361132792Y-73702566D01*
X361760231Y-72548467D02*
X361793903Y-72490146D01*
X361793903Y-72490146D02*
X361815250Y-72385829D01*
X361815250Y-72385829D02*
X361753626Y-72155846D01*
X361753626Y-72155846D02*
X361682980Y-72076178D01*
X361682980Y-72076178D02*
X361624659Y-72042506D01*
X361624659Y-72042506D02*
X361520341Y-72021159D01*
X361520341Y-72021159D02*
X361428348Y-72045809D01*
X361428348Y-72045809D02*
X361302684Y-72128779D01*
X361302684Y-72128779D02*
X360898623Y-72828633D01*
X360898623Y-72828633D02*
X360738401Y-72230679D01*
X361482482Y-71143924D02*
X361531781Y-71327910D01*
X361531781Y-71327910D02*
X361510434Y-71432227D01*
X361510434Y-71432227D02*
X361476762Y-71490549D01*
X361476762Y-71490549D02*
X361363422Y-71619516D01*
X361363422Y-71619516D02*
X361191761Y-71714811D01*
X361191761Y-71714811D02*
X360823790Y-71813409D01*
X360823790Y-71813409D02*
X360719472Y-71792062D01*
X360719472Y-71792062D02*
X360661151Y-71758390D01*
X360661151Y-71758390D02*
X360590505Y-71678722D01*
X360590505Y-71678722D02*
X360541206Y-71494736D01*
X360541206Y-71494736D02*
X360562553Y-71390418D01*
X360562553Y-71390418D02*
X360596225Y-71332097D01*
X360596225Y-71332097D02*
X360675893Y-71261451D01*
X360675893Y-71261451D02*
X360905875Y-71199827D01*
X360905875Y-71199827D02*
X361010193Y-71221175D01*
X361010193Y-71221175D02*
X361068514Y-71254846D01*
X361068514Y-71254846D02*
X361139160Y-71334514D01*
X361139160Y-71334514D02*
X361188459Y-71518500D01*
X361188459Y-71518500D02*
X361167112Y-71622818D01*
X361167112Y-71622818D02*
X361133440Y-71681139D01*
X361133440Y-71681139D02*
X361053772Y-71751785D01*
X243826357Y-74175580D02*
X243873976Y-74223200D01*
X243873976Y-74223200D02*
X244016833Y-74270819D01*
X244016833Y-74270819D02*
X244112071Y-74270819D01*
X244112071Y-74270819D02*
X244254928Y-74223200D01*
X244254928Y-74223200D02*
X244350166Y-74127961D01*
X244350166Y-74127961D02*
X244397785Y-74032723D01*
X244397785Y-74032723D02*
X244445404Y-73842247D01*
X244445404Y-73842247D02*
X244445404Y-73699390D01*
X244445404Y-73699390D02*
X244397785Y-73508914D01*
X244397785Y-73508914D02*
X244350166Y-73413676D01*
X244350166Y-73413676D02*
X244254928Y-73318438D01*
X244254928Y-73318438D02*
X244112071Y-73270819D01*
X244112071Y-73270819D02*
X244016833Y-73270819D01*
X244016833Y-73270819D02*
X243873976Y-73318438D01*
X243873976Y-73318438D02*
X243826357Y-73366057D01*
X242873976Y-74270819D02*
X243445404Y-74270819D01*
X243159690Y-74270819D02*
X243159690Y-73270819D01*
X243159690Y-73270819D02*
X243254928Y-73413676D01*
X243254928Y-73413676D02*
X243350166Y-73508914D01*
X243350166Y-73508914D02*
X243445404Y-73556533D01*
X242254928Y-73270819D02*
X242159690Y-73270819D01*
X242159690Y-73270819D02*
X242064452Y-73318438D01*
X242064452Y-73318438D02*
X242016833Y-73366057D01*
X242016833Y-73366057D02*
X241969214Y-73461295D01*
X241969214Y-73461295D02*
X241921595Y-73651771D01*
X241921595Y-73651771D02*
X241921595Y-73889866D01*
X241921595Y-73889866D02*
X241969214Y-74080342D01*
X241969214Y-74080342D02*
X242016833Y-74175580D01*
X242016833Y-74175580D02*
X242064452Y-74223200D01*
X242064452Y-74223200D02*
X242159690Y-74270819D01*
X242159690Y-74270819D02*
X242254928Y-74270819D01*
X242254928Y-74270819D02*
X242350166Y-74223200D01*
X242350166Y-74223200D02*
X242397785Y-74175580D01*
X242397785Y-74175580D02*
X242445404Y-74080342D01*
X242445404Y-74080342D02*
X242493023Y-73889866D01*
X242493023Y-73889866D02*
X242493023Y-73651771D01*
X242493023Y-73651771D02*
X242445404Y-73461295D01*
X242445404Y-73461295D02*
X242397785Y-73366057D01*
X242397785Y-73366057D02*
X242350166Y-73318438D01*
X242350166Y-73318438D02*
X242254928Y-73270819D01*
X334596223Y-86305272D02*
X334913241Y-86202267D01*
X334913241Y-86202267D02*
X334696930Y-85536527D01*
X334221401Y-85691036D02*
X333809276Y-85824943D01*
X333809276Y-85824943D02*
X334113594Y-86006454D01*
X334113594Y-86006454D02*
X334018489Y-86037356D01*
X334018489Y-86037356D02*
X333965385Y-86089659D01*
X333965385Y-86089659D02*
X333943984Y-86131661D01*
X333943984Y-86131661D02*
X333932883Y-86205366D01*
X333932883Y-86205366D02*
X333984386Y-86363875D01*
X333984386Y-86363875D02*
X334036689Y-86416978D01*
X334036689Y-86416978D02*
X334078692Y-86438380D01*
X334078692Y-86438380D02*
X334152396Y-86449480D01*
X334152396Y-86449480D02*
X334342607Y-86387677D01*
X334342607Y-86387677D02*
X334395710Y-86335374D01*
X334395710Y-86335374D02*
X334417112Y-86293372D01*
X333397152Y-85958851D02*
X333333748Y-85979452D01*
X333333748Y-85979452D02*
X333280645Y-86031755D01*
X333280645Y-86031755D02*
X333259243Y-86073757D01*
X333259243Y-86073757D02*
X333248143Y-86147462D01*
X333248143Y-86147462D02*
X333257643Y-86284570D01*
X333257643Y-86284570D02*
X333309146Y-86443079D01*
X333309146Y-86443079D02*
X333382050Y-86559586D01*
X333382050Y-86559586D02*
X333434353Y-86612689D01*
X333434353Y-86612689D02*
X333476355Y-86634091D01*
X333476355Y-86634091D02*
X333550060Y-86645191D01*
X333550060Y-86645191D02*
X333613464Y-86624590D01*
X333613464Y-86624590D02*
X333666567Y-86572287D01*
X333666567Y-86572287D02*
X333687968Y-86530285D01*
X333687968Y-86530285D02*
X333699069Y-86456580D01*
X333699069Y-86456580D02*
X333689568Y-86319472D01*
X333689568Y-86319472D02*
X333638066Y-86160963D01*
X333638066Y-86160963D02*
X333565161Y-86044456D01*
X333565161Y-86044456D02*
X333512858Y-85991353D01*
X333512858Y-85991353D02*
X333470856Y-85969951D01*
X333470856Y-85969951D02*
X333397152Y-85958851D01*
X304199507Y-63571666D02*
X304508569Y-63446797D01*
X304508569Y-63446797D02*
X304246344Y-62797768D01*
X303643197Y-63796430D02*
X304014070Y-63646587D01*
X303828634Y-63721508D02*
X303566409Y-63072480D01*
X303566409Y-63072480D02*
X303665682Y-63140224D01*
X303665682Y-63140224D02*
X303752468Y-63177063D01*
X303752468Y-63177063D02*
X303826767Y-63182995D01*
X302912070Y-63588508D02*
X303086886Y-64021194D01*
X302966705Y-63278824D02*
X303308539Y-63679982D01*
X303308539Y-63679982D02*
X302906760Y-63842311D01*
X268873797Y-77844174D02*
X269182859Y-77719305D01*
X269182859Y-77719305D02*
X268920634Y-77070276D01*
X268451109Y-77331879D02*
X268407716Y-77313459D01*
X268407716Y-77313459D02*
X268333417Y-77307527D01*
X268333417Y-77307527D02*
X268178887Y-77369961D01*
X268178887Y-77369961D02*
X268129561Y-77425841D01*
X268129561Y-77425841D02*
X268111142Y-77469234D01*
X268111142Y-77469234D02*
X268105210Y-77543533D01*
X268105210Y-77543533D02*
X268130183Y-77605346D01*
X268130183Y-77605346D02*
X268198550Y-77685577D01*
X268198550Y-77685577D02*
X268719266Y-77906608D01*
X268719266Y-77906608D02*
X268317487Y-78068938D01*
X267832987Y-77581616D02*
X267789594Y-77563197D01*
X267789594Y-77563197D02*
X267715294Y-77557265D01*
X267715294Y-77557265D02*
X267560764Y-77619699D01*
X267560764Y-77619699D02*
X267511438Y-77675579D01*
X267511438Y-77675579D02*
X267493019Y-77718972D01*
X267493019Y-77718972D02*
X267487087Y-77793271D01*
X267487087Y-77793271D02*
X267512061Y-77855084D01*
X267512061Y-77855084D02*
X267580427Y-77935315D01*
X267580427Y-77935315D02*
X268101144Y-78156346D01*
X268101144Y-78156346D02*
X267699364Y-78318675D01*
D11*
%TO.C,C14*%
X256525752Y-107850000D02*
X256003248Y-107850001D01*
X256525752Y-109319999D02*
X256003248Y-109320000D01*
%TO.C,D2*%
X348072001Y-34792840D02*
X349109865Y-38666203D01*
X349109865Y-38666203D02*
X351041717Y-38148565D01*
X350003852Y-34275202D02*
X351041717Y-38148565D01*
%TO.C,C17*%
X268980112Y-127616972D02*
X268489119Y-127795679D01*
X269482881Y-128998321D02*
X268991888Y-129177028D01*
D12*
%TO.C,L38*%
X355728724Y-97445998D02*
X355149168Y-97601290D01*
X355573432Y-96866442D01*
X355728724Y-97445998D01*
G36*
X355728724Y-97445998D02*
G01*
X355149168Y-97601290D01*
X355573432Y-96866442D01*
X355728724Y-97445998D01*
G37*
D11*
X361438835Y-99206086D02*
X360975191Y-99330319D01*
X361121602Y-98949446D01*
X361438835Y-99206086D01*
G36*
X361438835Y-99206086D02*
G01*
X360975191Y-99330319D01*
X361121602Y-98949446D01*
X361438835Y-99206086D01*
G37*
%TO.C,D18*%
X331745006Y-57563586D02*
X332984167Y-61377323D01*
X332984167Y-61377323D02*
X334886278Y-60759290D01*
X333647119Y-56945552D02*
X334886278Y-60759290D01*
D12*
%TO.C,L24*%
X307449204Y-78689064D02*
X306892894Y-78913828D01*
X307224440Y-78132754D01*
X307449204Y-78689064D01*
G36*
X307449204Y-78689064D02*
G01*
X306892894Y-78913828D01*
X307224440Y-78132754D01*
X307449204Y-78689064D01*
G37*
D11*
X313331254Y-79740145D02*
X312886206Y-79919956D01*
X312985109Y-79524080D01*
X313331254Y-79740145D01*
G36*
X313331254Y-79740145D02*
G01*
X312886206Y-79919956D01*
X312985109Y-79524080D01*
X313331254Y-79740145D01*
G37*
%TO.C,D46*%
X285433373Y-102359964D02*
X286935546Y-106077971D01*
X286935546Y-106077971D02*
X288789913Y-105328758D01*
X287287741Y-101610751D02*
X288789913Y-105328758D01*
D12*
%TO.C,L10*%
X257850986Y-57635862D02*
X257294676Y-57860626D01*
X257626222Y-57079552D01*
X257850986Y-57635862D01*
G36*
X257850986Y-57635862D02*
G01*
X257294676Y-57860626D01*
X257626222Y-57079552D01*
X257850986Y-57635862D01*
G37*
D11*
X263733036Y-58686943D02*
X263287988Y-58866754D01*
X263386891Y-58470878D01*
X263733036Y-58686943D01*
G36*
X263733036Y-58686943D02*
G01*
X263287988Y-58866754D01*
X263386891Y-58470878D01*
X263733036Y-58686943D01*
G37*
D12*
%TO.C,L36*%
X314585467Y-96351920D02*
X314029157Y-96576684D01*
X314360703Y-95795610D01*
X314585467Y-96351920D01*
G36*
X314585467Y-96351920D02*
G01*
X314029157Y-96576684D01*
X314360703Y-95795610D01*
X314585467Y-96351920D01*
G37*
D11*
X320467517Y-97403001D02*
X320022469Y-97582812D01*
X320121372Y-97186936D01*
X320467517Y-97403001D01*
G36*
X320467517Y-97403001D02*
G01*
X320022469Y-97582812D01*
X320121372Y-97186936D01*
X320467517Y-97403001D01*
G37*
%TO.C,C18*%
X283618000Y-144645748D02*
X283618000Y-145168252D01*
X285088000Y-144645748D02*
X285088000Y-145168252D01*
D12*
%TO.C,L18*%
X325009929Y-65377269D02*
X324439296Y-65562678D01*
X324824520Y-64806634D01*
X325009929Y-65377269D01*
G36*
X325009929Y-65377269D02*
G01*
X324439296Y-65562678D01*
X324824520Y-64806634D01*
X325009929Y-65377269D01*
G37*
D11*
X330804332Y-66836100D02*
X330347825Y-66984428D01*
X330474102Y-66596416D01*
X330804332Y-66836100D01*
G36*
X330804332Y-66836100D02*
G01*
X330347825Y-66984428D01*
X330474102Y-66596416D01*
X330804332Y-66836100D01*
G37*
D12*
%TO.C,L2*%
X340937218Y-42243327D02*
X340357662Y-42398619D01*
X340781926Y-41663771D01*
X340937218Y-42243327D01*
G36*
X340937218Y-42243327D02*
G01*
X340357662Y-42398619D01*
X340781926Y-41663771D01*
X340937218Y-42243327D01*
G37*
D11*
X346647329Y-44003415D02*
X346183685Y-44127648D01*
X346330096Y-43746775D01*
X346647329Y-44003415D01*
G36*
X346647329Y-44003415D02*
G01*
X346183685Y-44127648D01*
X346330096Y-43746775D01*
X346647329Y-44003415D01*
G37*
D12*
%TO.C,L52*%
X284601410Y-139442881D02*
X284016788Y-139577852D01*
X284466440Y-138858259D01*
X284601410Y-139442881D01*
G36*
X284601410Y-139442881D02*
G01*
X284016788Y-139577852D01*
X284466440Y-138858259D01*
X284601410Y-139442881D01*
G37*
D11*
X290246617Y-141401177D02*
X289778921Y-141509153D01*
X289938535Y-141133623D01*
X290246617Y-141401177D01*
G36*
X290246617Y-141401177D02*
G01*
X289778921Y-141509153D01*
X289938535Y-141133623D01*
X290246617Y-141401177D01*
G37*
%TO.C,D52*%
X291991866Y-132245933D02*
X292893919Y-136153157D01*
X292893919Y-136153157D02*
X294842660Y-135703257D01*
X293940605Y-131796032D02*
X294842660Y-135703257D01*
%TO.C,C16*%
X267710112Y-125965972D02*
X267219119Y-126144679D01*
X268212881Y-127347321D02*
X267721888Y-127526028D01*
%TO.C,D42*%
X343518553Y-93798839D02*
X344757714Y-97612576D01*
X344757714Y-97612576D02*
X346659825Y-96994543D01*
X345420666Y-93180805D02*
X346659825Y-96994543D01*
%TO.C,D40*%
X301969459Y-92434838D02*
X303471632Y-96152845D01*
X303471632Y-96152845D02*
X305325999Y-95403632D01*
X303823827Y-91685625D02*
X305325999Y-95403632D01*
D12*
%TO.C,L8*%
X274387072Y-47710736D02*
X273830762Y-47935500D01*
X274162308Y-47154426D01*
X274387072Y-47710736D01*
G36*
X274387072Y-47710736D02*
G01*
X273830762Y-47935500D01*
X274162308Y-47154426D01*
X274387072Y-47710736D01*
G37*
D11*
X280269122Y-48761817D02*
X279824074Y-48941628D01*
X279922977Y-48545752D01*
X280269122Y-48761817D01*
G36*
X280269122Y-48761817D02*
G01*
X279824074Y-48941628D01*
X279922977Y-48545752D01*
X280269122Y-48761817D01*
G37*
%TO.C,D30*%
X337631780Y-75681222D02*
X338870941Y-79494959D01*
X338870941Y-79494959D02*
X340773052Y-78876926D01*
X339533893Y-75063188D02*
X340773052Y-78876926D01*
%TO.C,D32*%
X254624797Y-76959380D02*
X256126972Y-80677387D01*
X256126972Y-80677387D02*
X257981337Y-79928175D01*
X256479165Y-76210166D02*
X257981337Y-79928175D01*
D12*
%TO.C,L34*%
X272123512Y-92961572D02*
X271567202Y-93186336D01*
X271898748Y-92405262D01*
X272123512Y-92961572D01*
G36*
X272123512Y-92961572D02*
G01*
X271567202Y-93186336D01*
X271898748Y-92405262D01*
X272123512Y-92961572D01*
G37*
D11*
X278005562Y-94012653D02*
X277560514Y-94192464D01*
X277659417Y-93796588D01*
X278005562Y-94012653D01*
G36*
X278005562Y-94012653D02*
G01*
X277560514Y-94192464D01*
X277659417Y-93796588D01*
X278005562Y-94012653D01*
G37*
D12*
%TO.C,L48*%
X262723689Y-120549554D02*
X262167380Y-120774318D01*
X262498926Y-119993244D01*
X262723689Y-120549554D01*
G36*
X262723689Y-120549554D02*
G01*
X262167380Y-120774318D01*
X262498926Y-119993244D01*
X262723689Y-120549554D01*
G37*
D11*
X268605740Y-121600635D02*
X268160692Y-121780446D01*
X268259595Y-121384570D01*
X268605740Y-121600635D01*
G36*
X268605740Y-121600635D02*
G01*
X268160692Y-121780446D01*
X268259595Y-121384570D01*
X268605740Y-121600635D01*
G37*
D12*
%TO.C,L42*%
X336783476Y-101612522D02*
X336212843Y-101797931D01*
X336598067Y-101041887D01*
X336783476Y-101612522D01*
G36*
X336783476Y-101612522D02*
G01*
X336212843Y-101797931D01*
X336598067Y-101041887D01*
X336783476Y-101612522D01*
G37*
D11*
X342577879Y-103071353D02*
X342121372Y-103219681D01*
X342247649Y-102831669D01*
X342577879Y-103071353D01*
G36*
X342577879Y-103071353D02*
G01*
X342121372Y-103219681D01*
X342247649Y-102831669D01*
X342577879Y-103071353D01*
G37*
%TO.C,D34*%
X278297128Y-84697109D02*
X279799301Y-88415116D01*
X279799301Y-88415116D02*
X281653668Y-87665903D01*
X280151496Y-83947896D02*
X281653668Y-87665903D01*
D12*
%TO.C,L46*%
X279259757Y-110624427D02*
X278703447Y-110849191D01*
X279034993Y-110068117D01*
X279259757Y-110624427D01*
G36*
X279259757Y-110624427D02*
G01*
X278703447Y-110849191D01*
X279034993Y-110068117D01*
X279259757Y-110624427D01*
G37*
D11*
X285141807Y-111675508D02*
X284696759Y-111855319D01*
X284795662Y-111459443D01*
X285141807Y-111675508D01*
G36*
X285141807Y-111675508D02*
G01*
X284696759Y-111855319D01*
X284795662Y-111459443D01*
X285141807Y-111675508D01*
G37*
%TO.C,D36*%
X320759083Y-88087457D02*
X322261256Y-91805464D01*
X322261256Y-91805464D02*
X324115623Y-91056251D01*
X322613451Y-87338244D02*
X324115623Y-91056251D01*
%TO.C,C13*%
X252461752Y-92864000D02*
X251939248Y-92864000D01*
X252461752Y-94334000D02*
X251939248Y-94334000D01*
%TO.C,D10*%
X264024602Y-49371399D02*
X265526775Y-53089406D01*
X265526775Y-53089406D02*
X267381142Y-52340193D01*
X265878970Y-48622186D02*
X267381142Y-52340193D01*
%TO.C,C15*%
X258325252Y-110771000D02*
X257802748Y-110771000D01*
X258325252Y-112241000D02*
X257802748Y-112241000D01*
D12*
%TO.C,L16*%
X281523335Y-65373591D02*
X280967025Y-65598355D01*
X281298571Y-64817281D01*
X281523335Y-65373591D01*
G36*
X281523335Y-65373591D02*
G01*
X280967025Y-65598355D01*
X281298571Y-64817281D01*
X281523335Y-65373591D01*
G37*
D11*
X287405385Y-66424672D02*
X286960337Y-66604483D01*
X287059240Y-66208607D01*
X287405385Y-66424672D01*
G36*
X287405385Y-66424672D02*
G01*
X286960337Y-66604483D01*
X287059240Y-66208607D01*
X287405385Y-66424672D01*
G37*
D12*
%TO.C,L20*%
X241314918Y-67560988D02*
X240758609Y-67785752D01*
X241090155Y-67004678D01*
X241314918Y-67560988D01*
G36*
X241314918Y-67560988D02*
G01*
X240758609Y-67785752D01*
X241090155Y-67004678D01*
X241314918Y-67560988D01*
G37*
D11*
X247196969Y-68612069D02*
X246751921Y-68791880D01*
X246850824Y-68396004D01*
X247196969Y-68612069D01*
G36*
X247196969Y-68612069D02*
G01*
X246751921Y-68791880D01*
X246850824Y-68396004D01*
X247196969Y-68612069D01*
G37*
D12*
%TO.C,L6*%
X319123155Y-47259652D02*
X318552522Y-47445061D01*
X318937746Y-46689017D01*
X319123155Y-47259652D01*
G36*
X319123155Y-47259652D02*
G01*
X318552522Y-47445061D01*
X318937746Y-46689017D01*
X319123155Y-47259652D01*
G37*
D11*
X324917558Y-48718483D02*
X324461051Y-48866811D01*
X324587328Y-48478799D01*
X324917558Y-48718483D01*
G36*
X324917558Y-48718483D02*
G01*
X324461051Y-48866811D01*
X324587328Y-48478799D01*
X324917558Y-48718483D01*
G37*
%TO.C,D22*%
X271160865Y-67034254D02*
X272663038Y-70752261D01*
X272663038Y-70752261D02*
X274517405Y-70003048D01*
X273015233Y-66285041D02*
X274517405Y-70003048D01*
%TO.C,D14*%
X306486575Y-52761746D02*
X307988748Y-56479753D01*
X307988748Y-56479753D02*
X309843115Y-55730540D01*
X308340943Y-52012533D02*
X309843115Y-55730540D01*
D12*
%TO.C,L12*%
X345867720Y-60644217D02*
X345288164Y-60799509D01*
X345712428Y-60064661D01*
X345867720Y-60644217D01*
G36*
X345867720Y-60644217D02*
G01*
X345288164Y-60799509D01*
X345712428Y-60064661D01*
X345867720Y-60644217D01*
G37*
D11*
X351577831Y-62404305D02*
X351114187Y-62528538D01*
X351260598Y-62147665D01*
X351577831Y-62404305D01*
G36*
X351577831Y-62404305D02*
G01*
X351114187Y-62528538D01*
X351260598Y-62147665D01*
X351577831Y-62404305D01*
G37*
D12*
%TO.C,L50*%
X303572610Y-130994596D02*
X303008795Y-131199810D01*
X303367399Y-130430782D01*
X303572610Y-130994596D01*
G36*
X303572610Y-130994596D02*
G01*
X303008795Y-131199810D01*
X303367399Y-130430782D01*
X303572610Y-130994596D01*
G37*
D11*
X309414396Y-132250319D02*
X308963343Y-132414489D01*
X309076003Y-132022305D01*
X309414396Y-132250319D01*
G36*
X309414396Y-132250319D02*
G01*
X308963343Y-132414489D01*
X309076003Y-132022305D01*
X309414396Y-132250319D01*
G37*
%TO.C,D50*%
X310030891Y-122950626D02*
X311402394Y-126718792D01*
X311402394Y-126718792D02*
X313281778Y-126034752D01*
X311910276Y-122266584D02*
X313281778Y-126034752D01*
D12*
%TO.C,L28*%
X288659579Y-83036446D02*
X288103269Y-83261210D01*
X288434815Y-82480136D01*
X288659579Y-83036446D01*
G36*
X288659579Y-83036446D02*
G01*
X288103269Y-83261210D01*
X288434815Y-82480136D01*
X288659579Y-83036446D01*
G37*
D11*
X294541629Y-84087527D02*
X294096581Y-84267338D01*
X294195484Y-83871462D01*
X294541629Y-84087527D01*
G36*
X294541629Y-84087527D02*
G01*
X294096581Y-84267338D01*
X294195484Y-83871462D01*
X294541629Y-84087527D01*
G37*
%TO.C,D12*%
X353002503Y-53193730D02*
X354040367Y-57067093D01*
X354040367Y-57067093D02*
X355972219Y-56549455D01*
X354934354Y-52676092D02*
X355972219Y-56549455D01*
D12*
%TO.C,L44*%
X255587426Y-102886698D02*
X255031117Y-103111462D01*
X255362663Y-102330388D01*
X255587426Y-102886698D01*
G36*
X255587426Y-102886698D02*
G01*
X255031117Y-103111462D01*
X255362663Y-102330388D01*
X255587426Y-102886698D01*
G37*
D11*
X261469477Y-103937779D02*
X261024429Y-104117590D01*
X261123332Y-103721714D01*
X261469477Y-103937779D01*
G36*
X261469477Y-103937779D02*
G01*
X261024429Y-104117590D01*
X261123332Y-103721714D01*
X261469477Y-103937779D01*
G37*
%TO.C,D20*%
X247488534Y-59296525D02*
X248990709Y-63014532D01*
X248990709Y-63014532D02*
X250845074Y-62265320D01*
X249342902Y-58547311D02*
X250845074Y-62265320D01*
%TO.C,D44*%
X261761042Y-94622235D02*
X263263217Y-98340242D01*
X263263217Y-98340242D02*
X265117582Y-97591030D01*
X263615410Y-93873021D02*
X265117582Y-97591030D01*
%TO.C,D4*%
X299350312Y-35098891D02*
X300852485Y-38816898D01*
X300852485Y-38816898D02*
X302706852Y-38067685D01*
X301204680Y-34349678D02*
X302706852Y-38067685D01*
D12*
%TO.C,L4*%
X293176696Y-43363354D02*
X292620386Y-43588118D01*
X292951932Y-42807044D01*
X293176696Y-43363354D01*
G36*
X293176696Y-43363354D02*
G01*
X292620386Y-43588118D01*
X292951932Y-42807044D01*
X293176696Y-43363354D01*
G37*
D11*
X299058746Y-44414435D02*
X298613698Y-44594246D01*
X298712601Y-44198370D01*
X299058746Y-44414435D01*
G36*
X299058746Y-44414435D02*
G01*
X298613698Y-44594246D01*
X298712601Y-44198370D01*
X299058746Y-44414435D01*
G37*
%TO.C,D6*%
X325858232Y-39445969D02*
X327097393Y-43259706D01*
X327097393Y-43259706D02*
X328999504Y-42641673D01*
X327760345Y-38827935D02*
X328999504Y-42641673D01*
D12*
%TO.C,L40*%
X295795843Y-100699301D02*
X295239533Y-100924065D01*
X295571079Y-100142991D01*
X295795843Y-100699301D01*
G36*
X295795843Y-100699301D02*
G01*
X295239533Y-100924065D01*
X295571079Y-100142991D01*
X295795843Y-100699301D01*
G37*
D11*
X301677893Y-101750382D02*
X301232845Y-101930193D01*
X301331748Y-101534317D01*
X301677893Y-101750382D01*
G36*
X301677893Y-101750382D02*
G01*
X301232845Y-101930193D01*
X301331748Y-101534317D01*
X301677893Y-101750382D01*
G37*
%TO.C,C11*%
X243466252Y-73941000D02*
X242943748Y-73941000D01*
X243466252Y-75411000D02*
X242943748Y-75411000D01*
D12*
%TO.C,L32*%
X248451181Y-85223843D02*
X247894872Y-85448607D01*
X248226418Y-84667533D01*
X248451181Y-85223843D01*
G36*
X248451181Y-85223843D02*
G01*
X247894872Y-85448607D01*
X248226418Y-84667533D01*
X248451181Y-85223843D01*
G37*
D11*
X254333232Y-86274924D02*
X253888184Y-86454735D01*
X253987087Y-86058859D01*
X254333232Y-86274924D01*
G36*
X254333232Y-86274924D02*
G01*
X253888184Y-86454735D01*
X253987087Y-86058859D01*
X254333232Y-86274924D01*
G37*
%TO.C,D38*%
X362863507Y-89995511D02*
X363901371Y-93868874D01*
X363901371Y-93868874D02*
X365833223Y-93351236D01*
X364795358Y-89477873D02*
X365833223Y-93351236D01*
%TO.C,D28*%
X294833195Y-74771983D02*
X296335368Y-78489990D01*
X296335368Y-78489990D02*
X298189735Y-77740777D01*
X296687563Y-74022770D02*
X298189735Y-77740777D01*
%TO.C,C12*%
X251213252Y-90324000D02*
X250690748Y-90324000D01*
X251213252Y-91794000D02*
X250690748Y-91794000D01*
%TO.C,D8*%
X280560688Y-39446273D02*
X282062861Y-43164280D01*
X282062861Y-43164280D02*
X283917228Y-42415067D01*
X282415056Y-38697060D02*
X283917228Y-42415067D01*
D12*
%TO.C,L26*%
X350798222Y-79045107D02*
X350218666Y-79200399D01*
X350642930Y-78465551D01*
X350798222Y-79045107D01*
G36*
X350798222Y-79045107D02*
G01*
X350218666Y-79200399D01*
X350642930Y-78465551D01*
X350798222Y-79045107D01*
G37*
D11*
X356508333Y-80805195D02*
X356044689Y-80929428D01*
X356191100Y-80548555D01*
X356508333Y-80805195D01*
G36*
X356508333Y-80805195D02*
G01*
X356044689Y-80929428D01*
X356191100Y-80548555D01*
X356508333Y-80805195D01*
G37*
%TO.C,D24*%
X313622820Y-70424601D02*
X315124993Y-74142608D01*
X315124993Y-74142608D02*
X316979360Y-73393395D01*
X315477188Y-69675388D02*
X316979360Y-73393395D01*
%TO.C,D48*%
X268897305Y-112285091D02*
X270399480Y-116003098D01*
X270399480Y-116003098D02*
X272253845Y-115253886D01*
X270751673Y-111535877D02*
X272253845Y-115253886D01*
%TO.C,D16*%
X287696951Y-57109128D02*
X289199124Y-60827135D01*
X289199124Y-60827135D02*
X291053491Y-60077922D01*
X289551319Y-56359915D02*
X291053491Y-60077922D01*
%TO.C,D26*%
X357933005Y-71594620D02*
X358970869Y-75467983D01*
X358970869Y-75467983D02*
X360902721Y-74950345D01*
X359864856Y-71076982D02*
X360902721Y-74950345D01*
%TO.C,C10*%
X243444752Y-71401000D02*
X242922248Y-71401000D01*
X243444752Y-72871000D02*
X242922248Y-72871000D01*
D12*
%TO.C,L30*%
X330896703Y-83494905D02*
X330326070Y-83680314D01*
X330711294Y-82924270D01*
X330896703Y-83494905D01*
G36*
X330896703Y-83494905D02*
G01*
X330326070Y-83680314D01*
X330711294Y-82924270D01*
X330896703Y-83494905D01*
G37*
D11*
X336691106Y-84953736D02*
X336234599Y-85102064D01*
X336360876Y-84714052D01*
X336691106Y-84953736D01*
G36*
X336691106Y-84953736D02*
G01*
X336234599Y-85102064D01*
X336360876Y-84714052D01*
X336691106Y-84953736D01*
G37*
D12*
%TO.C,L14*%
X300312959Y-61026209D02*
X299756649Y-61250973D01*
X300088195Y-60469899D01*
X300312959Y-61026209D01*
G36*
X300312959Y-61026209D02*
G01*
X299756649Y-61250973D01*
X300088195Y-60469899D01*
X300312959Y-61026209D01*
G37*
D11*
X306195009Y-62077290D02*
X305749961Y-62257101D01*
X305848864Y-61861225D01*
X306195009Y-62077290D01*
G36*
X306195009Y-62077290D02*
G01*
X305749961Y-62257101D01*
X305848864Y-61861225D01*
X306195009Y-62077290D01*
G37*
D12*
%TO.C,L22*%
X264987249Y-75298717D02*
X264430939Y-75523481D01*
X264762485Y-74742407D01*
X264987249Y-75298717D01*
G36*
X264987249Y-75298717D02*
G01*
X264430939Y-75523481D01*
X264762485Y-74742407D01*
X264987249Y-75298717D01*
G37*
D11*
X270869299Y-76349798D02*
X270424251Y-76529609D01*
X270523154Y-76133733D01*
X270869299Y-76349798D01*
G36*
X270869299Y-76349798D02*
G01*
X270424251Y-76529609D01*
X270523154Y-76133733D01*
X270869299Y-76349798D01*
G37*
%TD*%
M02*
