M48
; DRILL file {KiCad 9.0.5} date 2025-10-09T16:26:11-0600
; FORMAT={-:-/ absolute / inch / decimal}
; #@! TF.CreationDate,2025-10-09T16:26:11-06:00
; #@! TF.GenerationSoftware,Kicad,Pcbnew,9.0.5
; #@! TF.FileFunction,Plated,1,2,PTH
FMAT,2
INCH
; #@! TA.AperFunction,Plated,PTH,ViaDrill
T1C0.0118
; #@! TA.AperFunction,Plated,PTH,ComponentDrill
T2C0.0276
; #@! TA.AperFunction,Plated,PTH,ComponentDrill
T3C0.0402
%
G90
G05
T1
X8.52Y-4.06
X8.615Y-3.395
X8.66Y-4.33
X8.765Y-4.59
X8.86Y-4.16
X8.875Y-4.32
X8.89Y-4.0
X8.91Y-4.24
X8.915Y-3.89
X8.955Y-3.8
X8.956Y-8.2096
X8.995Y-3.31
X9.015Y-4.65
X9.115Y-2.77
X9.33Y-2.655
X9.345Y-3.305
X9.375Y-2.76
X9.425Y-2.7
X9.445Y-3.355
X9.515Y-3.345
X9.54Y-3.085
X9.6881Y-2.6117
X9.7102Y-2.6665
X9.735Y-3.63
X9.74Y-3.49
X9.7959Y-3.4408
X9.8288Y-2.4402
X9.93Y-4.05
X9.9691Y-3.3071
X9.97Y-3.57
X9.98Y-4.245
X9.9912Y-3.3619
X10.075Y-4.015
X10.0769Y-4.1361
X10.1098Y-3.1356
X10.166Y-2.3546
X10.205Y-4.245
X10.23Y-4.765
X10.25Y-4.0025
X10.2652Y-2.4281
X10.27Y-4.27
X10.2722Y-4.0572
X10.3392Y-2.221
X10.3578Y-4.8315
X10.3613Y-2.2757
X10.3907Y-3.831
X10.4469Y-3.05
X10.4798Y-2.0495
X10.531Y-4.6979
X10.545Y-3.125
X10.5531Y-4.7526
X10.62Y-5.15
X10.6201Y-2.9163
X10.6422Y-2.9711
X10.6717Y-4.5264
X10.7279Y-3.7454
X10.7608Y-2.7449
X10.78Y-5.185
X10.817Y-1.9639
X10.8271Y-3.8189
X10.9011Y-3.6117
X10.915Y-5.45
X10.9162Y-2.0374
X10.9232Y-3.6665
X10.9902Y-1.8302
X11.0088Y-4.4408
X11.0123Y-1.885
X11.0418Y-3.4402
X11.098Y-2.6593
X11.1081Y-4.5143
X11.1309Y-1.6587
X11.182Y-4.3071
X11.1972Y-2.7327
X11.2056Y-5.5766
X11.2711Y-2.5256
X11.2933Y-2.5803
X11.3227Y-4.1356
X11.3789Y-3.3546
X11.4118Y-2.3541
X11.4781Y-3.4281
X11.5521Y-3.221
X11.5568Y-1.7927
X11.5633Y-5.3243
X11.5742Y-3.2757
X11.656Y-1.8662
X11.6599Y-4.05
X11.6928Y-3.0495
X11.7299Y-1.659
X11.7521Y-1.7138
X11.833Y-3.9164
X11.8377Y-2.4881
X11.8706Y-1.4876
X11.9369Y-2.5616
X11.9737Y-3.7449
X12.0109Y-2.3544
X12.033Y-2.4092
X12.1187Y-3.1835
X12.1516Y-2.1829
X12.2179Y-3.257
X12.2874Y-4.9492
X12.2918Y-3.0498
X12.314Y-3.1046
X12.3996Y-3.8789
X12.4325Y-2.8783
X12.5723Y-1.9469
X12.5728Y-3.7452
X12.6661Y-2.0271
X12.7135Y-3.5737
X12.7543Y-1.8256
X12.7726Y-1.8818
X12.804Y-2.6602
X12.8979Y-2.7404
X12.9067Y-1.6644
X12.9861Y-2.5389
X13.0044Y-2.5951
X13.0358Y-3.3735
X13.1297Y-3.4537
X13.1384Y-2.3777
X13.2179Y-3.2522
X13.2361Y-3.3084
X13.2676Y-4.0868
X13.3702Y-3.091
X13.4266Y-1.7497
X13.4496Y-3.9655
X13.5161Y-1.8348
X13.6019Y-3.8043
X13.6147Y-1.6382
X13.6207Y-2.4742
X13.7102Y-2.5592
X13.7753Y-1.4851
X13.8089Y-2.3626
X13.8148Y-3.1986
X13.9043Y-3.2837
X13.9694Y-2.2095
X14.003Y-3.0871
X14.0089Y-3.9231
X14.1635Y-2.934
X14.1971Y-3.8115
X14.3576Y-3.6584
T3
X8.3646Y-3.2465
X8.4021Y-3.3392
X8.4396Y-3.432
X8.477Y-3.5247
X8.5145Y-3.6174
X8.552Y-3.7101
X8.5894Y-3.8028
X8.6269Y-3.8956
X8.6643Y-3.9883
X8.7018Y-4.081
X8.7393Y-4.1737
X8.7767Y-4.2664
X8.8142Y-4.3591
X8.8516Y-4.4519
X8.8891Y-4.5446
X8.9266Y-4.6373
X8.964Y-4.73
X9.0015Y-4.8227
X9.0137Y-2.9843
X9.0389Y-4.9155
X9.0511Y-3.077
X9.0764Y-5.0082
X9.0886Y-3.1697
X9.1261Y-3.2625
X9.1635Y-3.3552
X9.201Y-3.4479
X9.2384Y-3.5406
X9.2759Y-3.6333
X9.3048Y-4.9061
X9.3134Y-3.726
X9.3508Y-3.8188
X9.3883Y-3.9115
X9.3975Y-4.8687
X9.4257Y-4.0042
X9.4632Y-4.0969
X9.4902Y-4.8312
X9.5007Y-4.1896
X9.5381Y-4.2824
X9.5756Y-4.3751
X9.613Y-4.4678
X9.6505Y-4.5605
X9.688Y-4.6532
X9.7254Y-4.746
T2
G00X9.0659Y-5.2492
M15
G01X9.0951Y-5.2374
M16
G05
G00X9.1754Y-5.205
M15
G01X9.2046Y-5.1932
M16
G05
G00X9.3214Y-5.146
M15
G01X9.3506Y-5.1342
M16
G05
G00X9.4228Y-5.2918
M15
G01X9.452Y-5.28
M16
G05
M30
