%TF.GenerationSoftware,KiCad,Pcbnew,9.0.5*%
%TF.CreationDate,2025-10-09T16:26:15-06:00*%
%TF.ProjectId,ergo-kola (another copy),6572676f-2d6b-46f6-9c61-2028616e6f74,rev?*%
%TF.SameCoordinates,Original*%
%TF.FileFunction,Legend,Top*%
%TF.FilePolarity,Positive*%
%FSLAX46Y46*%
G04 Gerber Fmt 4.6, Leading zero omitted, Abs format (unit mm)*
G04 Created by KiCad (PCBNEW 9.0.5) date 2025-10-09 16:26:15*
%MOMM*%
%LPD*%
G01*
G04 APERTURE LIST*
%ADD10C,0.150000*%
%ADD11C,0.120000*%
G04 APERTURE END LIST*
D10*
X327573678Y-72004074D02*
X327724258Y-72005217D01*
X327724258Y-72005217D02*
X327950700Y-71931642D01*
X327950700Y-71931642D02*
X328026562Y-71856923D01*
X328026562Y-71856923D02*
X328057135Y-71796920D01*
X328057135Y-71796920D02*
X328072993Y-71691628D01*
X328072993Y-71691628D02*
X328043563Y-71601051D01*
X328043563Y-71601051D02*
X327968845Y-71525189D01*
X327968845Y-71525189D02*
X327908841Y-71494616D01*
X327908841Y-71494616D02*
X327803549Y-71478758D01*
X327803549Y-71478758D02*
X327607680Y-71492330D01*
X327607680Y-71492330D02*
X327502389Y-71476472D01*
X327502389Y-71476472D02*
X327442385Y-71445898D01*
X327442385Y-71445898D02*
X327367666Y-71370037D01*
X327367666Y-71370037D02*
X327338236Y-71279460D01*
X327338236Y-71279460D02*
X327354095Y-71174168D01*
X327354095Y-71174168D02*
X327384668Y-71114164D01*
X327384668Y-71114164D02*
X327460530Y-71039446D01*
X327460530Y-71039446D02*
X327686972Y-70965870D01*
X327686972Y-70965870D02*
X327837552Y-70967013D01*
X328139856Y-70818719D02*
X328675315Y-71696200D01*
X328675315Y-71696200D02*
X328635742Y-70958014D01*
X328635742Y-70958014D02*
X329037622Y-71578480D01*
X329037622Y-71578480D02*
X328955047Y-70553848D01*
X329226777Y-70465557D02*
X329815527Y-70274261D01*
X329815527Y-70274261D02*
X329616228Y-70739574D01*
X329616228Y-70739574D02*
X329752094Y-70695429D01*
X329752094Y-70695429D02*
X329857386Y-70711287D01*
X329857386Y-70711287D02*
X329917389Y-70741860D01*
X329917389Y-70741860D02*
X329992108Y-70817722D01*
X329992108Y-70817722D02*
X330065683Y-71044164D01*
X330065683Y-71044164D02*
X330049825Y-71149456D01*
X330049825Y-71149456D02*
X330019252Y-71209459D01*
X330019252Y-71209459D02*
X329943390Y-71284178D01*
X329943390Y-71284178D02*
X329671659Y-71372468D01*
X329671659Y-71372468D02*
X329566368Y-71356610D01*
X329566368Y-71356610D02*
X329506364Y-71326037D01*
X330404276Y-70082965D02*
X330494853Y-70053534D01*
X330494853Y-70053534D02*
X330600145Y-70069393D01*
X330600145Y-70069393D02*
X330660148Y-70099966D01*
X330660148Y-70099966D02*
X330734867Y-70175828D01*
X330734867Y-70175828D02*
X330839015Y-70342266D01*
X330839015Y-70342266D02*
X330912591Y-70568708D01*
X330912591Y-70568708D02*
X330926163Y-70764577D01*
X330926163Y-70764577D02*
X330910305Y-70869869D01*
X330910305Y-70869869D02*
X330879731Y-70929872D01*
X330879731Y-70929872D02*
X330803870Y-71004591D01*
X330803870Y-71004591D02*
X330713293Y-71034021D01*
X330713293Y-71034021D02*
X330608001Y-71018163D01*
X330608001Y-71018163D02*
X330547997Y-70987590D01*
X330547997Y-70987590D02*
X330473279Y-70911728D01*
X330473279Y-70911728D02*
X330369130Y-70745289D01*
X330369130Y-70745289D02*
X330295555Y-70518847D01*
X330295555Y-70518847D02*
X330281983Y-70322979D01*
X330281983Y-70322979D02*
X330297841Y-70217687D01*
X330297841Y-70217687D02*
X330328414Y-70157683D01*
X330328414Y-70157683D02*
X330404276Y-70082965D01*
X353011635Y-85797003D02*
X353161949Y-85806025D01*
X353161949Y-85806025D02*
X353391931Y-85744401D01*
X353391931Y-85744401D02*
X353471600Y-85673756D01*
X353471600Y-85673756D02*
X353505271Y-85615434D01*
X353505271Y-85615434D02*
X353526618Y-85511117D01*
X353526618Y-85511117D02*
X353501969Y-85419124D01*
X353501969Y-85419124D02*
X353431323Y-85339456D01*
X353431323Y-85339456D02*
X353373002Y-85305784D01*
X353373002Y-85305784D02*
X353268684Y-85284437D01*
X353268684Y-85284437D02*
X353072374Y-85287739D01*
X353072374Y-85287739D02*
X352968056Y-85266392D01*
X352968056Y-85266392D02*
X352909735Y-85232720D01*
X352909735Y-85232720D02*
X352839089Y-85153052D01*
X352839089Y-85153052D02*
X352814439Y-85061059D01*
X352814439Y-85061059D02*
X352835786Y-84956742D01*
X352835786Y-84956742D02*
X352869458Y-84898420D01*
X352869458Y-84898420D02*
X352949126Y-84827774D01*
X352949126Y-84827774D02*
X353179109Y-84766151D01*
X353179109Y-84766151D02*
X353329423Y-84775173D01*
X353639073Y-84642904D02*
X354127875Y-85547206D01*
X354127875Y-85547206D02*
X354126990Y-84807960D01*
X354126990Y-84807960D02*
X354495847Y-85448608D01*
X354495847Y-85448608D02*
X354467010Y-84421059D01*
X354742989Y-84347111D02*
X355340943Y-84186889D01*
X355340943Y-84186889D02*
X355117565Y-84641134D01*
X355117565Y-84641134D02*
X355255554Y-84604160D01*
X355255554Y-84604160D02*
X355359872Y-84625507D01*
X355359872Y-84625507D02*
X355418193Y-84659179D01*
X355418193Y-84659179D02*
X355488839Y-84738847D01*
X355488839Y-84738847D02*
X355550463Y-84968829D01*
X355550463Y-84968829D02*
X355529116Y-85073147D01*
X355529116Y-85073147D02*
X355495444Y-85131468D01*
X355495444Y-85131468D02*
X355415776Y-85202114D01*
X355415776Y-85202114D02*
X355139797Y-85276062D01*
X355139797Y-85276062D02*
X355035479Y-85254715D01*
X355035479Y-85254715D02*
X354977158Y-85221043D01*
X356003823Y-84452961D02*
X355899505Y-84431614D01*
X355899505Y-84431614D02*
X355841184Y-84397942D01*
X355841184Y-84397942D02*
X355770538Y-84318274D01*
X355770538Y-84318274D02*
X355758213Y-84272277D01*
X355758213Y-84272277D02*
X355779560Y-84167960D01*
X355779560Y-84167960D02*
X355813232Y-84109639D01*
X355813232Y-84109639D02*
X355892900Y-84038993D01*
X355892900Y-84038993D02*
X356076886Y-83989694D01*
X356076886Y-83989694D02*
X356181204Y-84011041D01*
X356181204Y-84011041D02*
X356239525Y-84044713D01*
X356239525Y-84044713D02*
X356310171Y-84124381D01*
X356310171Y-84124381D02*
X356322496Y-84170377D01*
X356322496Y-84170377D02*
X356301149Y-84274695D01*
X356301149Y-84274695D02*
X356267477Y-84333016D01*
X356267477Y-84333016D02*
X356187809Y-84403662D01*
X356187809Y-84403662D02*
X356003823Y-84452961D01*
X356003823Y-84452961D02*
X355924155Y-84523607D01*
X355924155Y-84523607D02*
X355890483Y-84581928D01*
X355890483Y-84581928D02*
X355869136Y-84686246D01*
X355869136Y-84686246D02*
X355918435Y-84870231D01*
X355918435Y-84870231D02*
X355989080Y-84949900D01*
X355989080Y-84949900D02*
X356047402Y-84983571D01*
X356047402Y-84983571D02*
X356151719Y-85004918D01*
X356151719Y-85004918D02*
X356335705Y-84955620D01*
X356335705Y-84955620D02*
X356415373Y-84884974D01*
X356415373Y-84884974D02*
X356449045Y-84826653D01*
X356449045Y-84826653D02*
X356470392Y-84722335D01*
X356470392Y-84722335D02*
X356421093Y-84538349D01*
X356421093Y-84538349D02*
X356350447Y-84458681D01*
X356350447Y-84458681D02*
X356292126Y-84425009D01*
X356292126Y-84425009D02*
X356187809Y-84403662D01*
X231961937Y-128533921D02*
X232229513Y-129196196D01*
X232229513Y-129196196D02*
X232238876Y-129346489D01*
X232238876Y-129346489D02*
X232186250Y-129470469D01*
X232186250Y-129470469D02*
X232071634Y-129568136D01*
X232071634Y-129568136D02*
X231983330Y-129603813D01*
X232394978Y-128461679D02*
X232421291Y-128399689D01*
X232421291Y-128399689D02*
X232491756Y-128319860D01*
X232491756Y-128319860D02*
X232712514Y-128230668D01*
X232712514Y-128230668D02*
X232818656Y-128239143D01*
X232818656Y-128239143D02*
X232880646Y-128265456D01*
X232880646Y-128265456D02*
X232960474Y-128335921D01*
X232960474Y-128335921D02*
X232996151Y-128424224D01*
X232996151Y-128424224D02*
X233005515Y-128574518D01*
X233005515Y-128574518D02*
X232689756Y-129318398D01*
X232689756Y-129318398D02*
X233263727Y-129086499D01*
X270712097Y-36301316D02*
X270862390Y-36291952D01*
X270862390Y-36291952D02*
X271083148Y-36202760D01*
X271083148Y-36202760D02*
X271153613Y-36122932D01*
X271153613Y-36122932D02*
X271179926Y-36060942D01*
X271179926Y-36060942D02*
X271188401Y-35954800D01*
X271188401Y-35954800D02*
X271152724Y-35866497D01*
X271152724Y-35866497D02*
X271072896Y-35796032D01*
X271072896Y-35796032D02*
X271010905Y-35769719D01*
X271010905Y-35769719D02*
X270904764Y-35761244D01*
X270904764Y-35761244D02*
X270710319Y-35788446D01*
X270710319Y-35788446D02*
X270604177Y-35779971D01*
X270604177Y-35779971D02*
X270542187Y-35753658D01*
X270542187Y-35753658D02*
X270462359Y-35683193D01*
X270462359Y-35683193D02*
X270426682Y-35594890D01*
X270426682Y-35594890D02*
X270435157Y-35488749D01*
X270435157Y-35488749D02*
X270461470Y-35426759D01*
X270461470Y-35426759D02*
X270531935Y-35346930D01*
X270531935Y-35346930D02*
X270752693Y-35257738D01*
X270752693Y-35257738D02*
X270902986Y-35248374D01*
X271194209Y-35079354D02*
X271789574Y-35917346D01*
X271789574Y-35917346D02*
X271698604Y-35183718D01*
X271698604Y-35183718D02*
X272142787Y-35774639D01*
X272142787Y-35774639D02*
X271988938Y-34758263D01*
X272635151Y-34959405D02*
X272529010Y-34950930D01*
X272529010Y-34950930D02*
X272467020Y-34924617D01*
X272467020Y-34924617D02*
X272387191Y-34854152D01*
X272387191Y-34854152D02*
X272369353Y-34810000D01*
X272369353Y-34810000D02*
X272377828Y-34703859D01*
X272377828Y-34703859D02*
X272404141Y-34641869D01*
X272404141Y-34641869D02*
X272474606Y-34562040D01*
X272474606Y-34562040D02*
X272651212Y-34490687D01*
X272651212Y-34490687D02*
X272757354Y-34499161D01*
X272757354Y-34499161D02*
X272819344Y-34525475D01*
X272819344Y-34525475D02*
X272899172Y-34595939D01*
X272899172Y-34595939D02*
X272917011Y-34640091D01*
X272917011Y-34640091D02*
X272908536Y-34746233D01*
X272908536Y-34746233D02*
X272882223Y-34808223D01*
X272882223Y-34808223D02*
X272811758Y-34888051D01*
X272811758Y-34888051D02*
X272635151Y-34959405D01*
X272635151Y-34959405D02*
X272564687Y-35039233D01*
X272564687Y-35039233D02*
X272538373Y-35101223D01*
X272538373Y-35101223D02*
X272529899Y-35207365D01*
X272529899Y-35207365D02*
X272601252Y-35383971D01*
X272601252Y-35383971D02*
X272681081Y-35454436D01*
X272681081Y-35454436D02*
X272743071Y-35480749D01*
X272743071Y-35480749D02*
X272849212Y-35489224D01*
X272849212Y-35489224D02*
X273025819Y-35417870D01*
X273025819Y-35417870D02*
X273096284Y-35338042D01*
X273096284Y-35338042D02*
X273122597Y-35276052D01*
X273122597Y-35276052D02*
X273131072Y-35169910D01*
X273131072Y-35169910D02*
X273059718Y-34993304D01*
X273059718Y-34993304D02*
X272979890Y-34922839D01*
X272979890Y-34922839D02*
X272917900Y-34896526D01*
X272917900Y-34896526D02*
X272811758Y-34888051D01*
X284543088Y-71805410D02*
X284693381Y-71796047D01*
X284693381Y-71796047D02*
X284914139Y-71706855D01*
X284914139Y-71706855D02*
X284984604Y-71627026D01*
X284984604Y-71627026D02*
X285010917Y-71565036D01*
X285010917Y-71565036D02*
X285019392Y-71458895D01*
X285019392Y-71458895D02*
X284983715Y-71370591D01*
X284983715Y-71370591D02*
X284903887Y-71300127D01*
X284903887Y-71300127D02*
X284841897Y-71273813D01*
X284841897Y-71273813D02*
X284735755Y-71265339D01*
X284735755Y-71265339D02*
X284541310Y-71292541D01*
X284541310Y-71292541D02*
X284435169Y-71284066D01*
X284435169Y-71284066D02*
X284373179Y-71257753D01*
X284373179Y-71257753D02*
X284293350Y-71187288D01*
X284293350Y-71187288D02*
X284257673Y-71098985D01*
X284257673Y-71098985D02*
X284266148Y-70992843D01*
X284266148Y-70992843D02*
X284292461Y-70930853D01*
X284292461Y-70930853D02*
X284362926Y-70851024D01*
X284362926Y-70851024D02*
X284583684Y-70761832D01*
X284583684Y-70761832D02*
X284733978Y-70752469D01*
X285025201Y-70583448D02*
X285620565Y-71421440D01*
X285620565Y-71421440D02*
X285529595Y-70687812D01*
X285529595Y-70687812D02*
X285973778Y-71278733D01*
X285973778Y-71278733D02*
X285819930Y-70262357D01*
X286164668Y-70225791D02*
X286190981Y-70163801D01*
X286190981Y-70163801D02*
X286261446Y-70083973D01*
X286261446Y-70083973D02*
X286482204Y-69994781D01*
X286482204Y-69994781D02*
X286588345Y-70003256D01*
X286588345Y-70003256D02*
X286650335Y-70029569D01*
X286650335Y-70029569D02*
X286730164Y-70100034D01*
X286730164Y-70100034D02*
X286765841Y-70188337D01*
X286765841Y-70188337D02*
X286775204Y-70338630D01*
X286775204Y-70338630D02*
X286459446Y-71082510D01*
X286459446Y-71082510D02*
X287033417Y-70850611D01*
X287349175Y-70106731D02*
X287243033Y-70098256D01*
X287243033Y-70098256D02*
X287181043Y-70071943D01*
X287181043Y-70071943D02*
X287101215Y-70001478D01*
X287101215Y-70001478D02*
X287083377Y-69957326D01*
X287083377Y-69957326D02*
X287091851Y-69851185D01*
X287091851Y-69851185D02*
X287118165Y-69789195D01*
X287118165Y-69789195D02*
X287188629Y-69709366D01*
X287188629Y-69709366D02*
X287365236Y-69638013D01*
X287365236Y-69638013D02*
X287471378Y-69646487D01*
X287471378Y-69646487D02*
X287533368Y-69672801D01*
X287533368Y-69672801D02*
X287613196Y-69743265D01*
X287613196Y-69743265D02*
X287631034Y-69787417D01*
X287631034Y-69787417D02*
X287622560Y-69893559D01*
X287622560Y-69893559D02*
X287596246Y-69955549D01*
X287596246Y-69955549D02*
X287525782Y-70035377D01*
X287525782Y-70035377D02*
X287349175Y-70106731D01*
X287349175Y-70106731D02*
X287278710Y-70186559D01*
X287278710Y-70186559D02*
X287252397Y-70248549D01*
X287252397Y-70248549D02*
X287243922Y-70354691D01*
X287243922Y-70354691D02*
X287315276Y-70531297D01*
X287315276Y-70531297D02*
X287395104Y-70601762D01*
X287395104Y-70601762D02*
X287457094Y-70628075D01*
X287457094Y-70628075D02*
X287563236Y-70636550D01*
X287563236Y-70636550D02*
X287739842Y-70565196D01*
X287739842Y-70565196D02*
X287810307Y-70485368D01*
X287810307Y-70485368D02*
X287836620Y-70423378D01*
X287836620Y-70423378D02*
X287845095Y-70317236D01*
X287845095Y-70317236D02*
X287773742Y-70140630D01*
X287773742Y-70140630D02*
X287693913Y-70070165D01*
X287693913Y-70070165D02*
X287631923Y-70043852D01*
X287631923Y-70043852D02*
X287525782Y-70035377D01*
X253734494Y-46404826D02*
X253884787Y-46395463D01*
X253884787Y-46395463D02*
X254105545Y-46306271D01*
X254105545Y-46306271D02*
X254176010Y-46226442D01*
X254176010Y-46226442D02*
X254202323Y-46164452D01*
X254202323Y-46164452D02*
X254210798Y-46058311D01*
X254210798Y-46058311D02*
X254175121Y-45970007D01*
X254175121Y-45970007D02*
X254095293Y-45899543D01*
X254095293Y-45899543D02*
X254033303Y-45873229D01*
X254033303Y-45873229D02*
X253927161Y-45864755D01*
X253927161Y-45864755D02*
X253732716Y-45891957D01*
X253732716Y-45891957D02*
X253626575Y-45883482D01*
X253626575Y-45883482D02*
X253564585Y-45857169D01*
X253564585Y-45857169D02*
X253484756Y-45786704D01*
X253484756Y-45786704D02*
X253449079Y-45698401D01*
X253449079Y-45698401D02*
X253457554Y-45592259D01*
X253457554Y-45592259D02*
X253483867Y-45530269D01*
X253483867Y-45530269D02*
X253554332Y-45450440D01*
X253554332Y-45450440D02*
X253775090Y-45361248D01*
X253775090Y-45361248D02*
X253925384Y-45351885D01*
X254216607Y-45182864D02*
X254811971Y-46020856D01*
X254811971Y-46020856D02*
X254721001Y-45287228D01*
X254721001Y-45287228D02*
X255165184Y-45878149D01*
X255165184Y-45878149D02*
X255011336Y-44861773D01*
X256224823Y-45450027D02*
X255695003Y-45664088D01*
X255959913Y-45557058D02*
X255585306Y-44629874D01*
X255585306Y-44629874D02*
X255550518Y-44798005D01*
X255550518Y-44798005D02*
X255497892Y-44921985D01*
X255497892Y-44921985D02*
X255427427Y-45001814D01*
X256424187Y-44290944D02*
X256512490Y-44255267D01*
X256512490Y-44255267D02*
X256618632Y-44263742D01*
X256618632Y-44263742D02*
X256680622Y-44290055D01*
X256680622Y-44290055D02*
X256760450Y-44360520D01*
X256760450Y-44360520D02*
X256875956Y-44519288D01*
X256875956Y-44519288D02*
X256965148Y-44740046D01*
X256965148Y-44740046D02*
X256992350Y-44934491D01*
X256992350Y-44934491D02*
X256983875Y-45040632D01*
X256983875Y-45040632D02*
X256957562Y-45102622D01*
X256957562Y-45102622D02*
X256887097Y-45182451D01*
X256887097Y-45182451D02*
X256798794Y-45218128D01*
X256798794Y-45218128D02*
X256692652Y-45209653D01*
X256692652Y-45209653D02*
X256630662Y-45183340D01*
X256630662Y-45183340D02*
X256550834Y-45112875D01*
X256550834Y-45112875D02*
X256435328Y-44954107D01*
X256435328Y-44954107D02*
X256346136Y-44733349D01*
X256346136Y-44733349D02*
X256318934Y-44538904D01*
X256318934Y-44538904D02*
X256327409Y-44432762D01*
X256327409Y-44432762D02*
X256353722Y-44370772D01*
X256353722Y-44370772D02*
X256424187Y-44290944D01*
X291679352Y-89468265D02*
X291829645Y-89458902D01*
X291829645Y-89458902D02*
X292050403Y-89369710D01*
X292050403Y-89369710D02*
X292120868Y-89289881D01*
X292120868Y-89289881D02*
X292147181Y-89227891D01*
X292147181Y-89227891D02*
X292155656Y-89121750D01*
X292155656Y-89121750D02*
X292119979Y-89033446D01*
X292119979Y-89033446D02*
X292040151Y-88962982D01*
X292040151Y-88962982D02*
X291978161Y-88936668D01*
X291978161Y-88936668D02*
X291872019Y-88928194D01*
X291872019Y-88928194D02*
X291677574Y-88955396D01*
X291677574Y-88955396D02*
X291571433Y-88946921D01*
X291571433Y-88946921D02*
X291509443Y-88920608D01*
X291509443Y-88920608D02*
X291429614Y-88850143D01*
X291429614Y-88850143D02*
X291393937Y-88761840D01*
X291393937Y-88761840D02*
X291402412Y-88655698D01*
X291402412Y-88655698D02*
X291428725Y-88593708D01*
X291428725Y-88593708D02*
X291499190Y-88513879D01*
X291499190Y-88513879D02*
X291719948Y-88424687D01*
X291719948Y-88424687D02*
X291870242Y-88415324D01*
X292161465Y-88246303D02*
X292756829Y-89084295D01*
X292756829Y-89084295D02*
X292665859Y-88350667D01*
X292665859Y-88350667D02*
X293110042Y-88941588D01*
X293110042Y-88941588D02*
X292956194Y-87925212D01*
X293831640Y-87931020D02*
X294081377Y-88549143D01*
X293468174Y-87666999D02*
X293514992Y-88418466D01*
X293514992Y-88418466D02*
X294088963Y-88186566D01*
X294369045Y-87354383D02*
X294457348Y-87318706D01*
X294457348Y-87318706D02*
X294563490Y-87327181D01*
X294563490Y-87327181D02*
X294625480Y-87353494D01*
X294625480Y-87353494D02*
X294705308Y-87423959D01*
X294705308Y-87423959D02*
X294820814Y-87582727D01*
X294820814Y-87582727D02*
X294910006Y-87803485D01*
X294910006Y-87803485D02*
X294937208Y-87997930D01*
X294937208Y-87997930D02*
X294928733Y-88104071D01*
X294928733Y-88104071D02*
X294902420Y-88166061D01*
X294902420Y-88166061D02*
X294831955Y-88245890D01*
X294831955Y-88245890D02*
X294743652Y-88281567D01*
X294743652Y-88281567D02*
X294637510Y-88273092D01*
X294637510Y-88273092D02*
X294575520Y-88246779D01*
X294575520Y-88246779D02*
X294495692Y-88176314D01*
X294495692Y-88176314D02*
X294380186Y-88017546D01*
X294380186Y-88017546D02*
X294290994Y-87796788D01*
X294290994Y-87796788D02*
X294263792Y-87602343D01*
X294263792Y-87602343D02*
X294272267Y-87496201D01*
X294272267Y-87496201D02*
X294298580Y-87434211D01*
X294298580Y-87434211D02*
X294369045Y-87354383D01*
X260870757Y-64067681D02*
X261021050Y-64058318D01*
X261021050Y-64058318D02*
X261241808Y-63969126D01*
X261241808Y-63969126D02*
X261312273Y-63889297D01*
X261312273Y-63889297D02*
X261338586Y-63827307D01*
X261338586Y-63827307D02*
X261347061Y-63721166D01*
X261347061Y-63721166D02*
X261311384Y-63632862D01*
X261311384Y-63632862D02*
X261231556Y-63562398D01*
X261231556Y-63562398D02*
X261169566Y-63536084D01*
X261169566Y-63536084D02*
X261063424Y-63527610D01*
X261063424Y-63527610D02*
X260868979Y-63554812D01*
X260868979Y-63554812D02*
X260762838Y-63546337D01*
X260762838Y-63546337D02*
X260700848Y-63520024D01*
X260700848Y-63520024D02*
X260621019Y-63449559D01*
X260621019Y-63449559D02*
X260585342Y-63361256D01*
X260585342Y-63361256D02*
X260593817Y-63255114D01*
X260593817Y-63255114D02*
X260620130Y-63193124D01*
X260620130Y-63193124D02*
X260690595Y-63113295D01*
X260690595Y-63113295D02*
X260911353Y-63024103D01*
X260911353Y-63024103D02*
X261061647Y-63014740D01*
X261352870Y-62845719D02*
X261948234Y-63683711D01*
X261948234Y-63683711D02*
X261857264Y-62950083D01*
X261857264Y-62950083D02*
X262301447Y-63541004D01*
X262301447Y-63541004D02*
X262147599Y-62524628D01*
X262492337Y-62488062D02*
X262518650Y-62426072D01*
X262518650Y-62426072D02*
X262589115Y-62346244D01*
X262589115Y-62346244D02*
X262809873Y-62257052D01*
X262809873Y-62257052D02*
X262916014Y-62265527D01*
X262916014Y-62265527D02*
X262978004Y-62291840D01*
X262978004Y-62291840D02*
X263057833Y-62362305D01*
X263057833Y-62362305D02*
X263093510Y-62450608D01*
X263093510Y-62450608D02*
X263102873Y-62600901D01*
X263102873Y-62600901D02*
X262787115Y-63344781D01*
X262787115Y-63344781D02*
X263361086Y-63112882D01*
X263375369Y-62131294D02*
X263401682Y-62069304D01*
X263401682Y-62069304D02*
X263472147Y-61989476D01*
X263472147Y-61989476D02*
X263692905Y-61900284D01*
X263692905Y-61900284D02*
X263799047Y-61908758D01*
X263799047Y-61908758D02*
X263861037Y-61935072D01*
X263861037Y-61935072D02*
X263940865Y-62005536D01*
X263940865Y-62005536D02*
X263976542Y-62093840D01*
X263976542Y-62093840D02*
X263985905Y-62244133D01*
X263985905Y-62244133D02*
X263670147Y-62988013D01*
X263670147Y-62988013D02*
X264244118Y-62756114D01*
X251470936Y-91655662D02*
X251621229Y-91646299D01*
X251621229Y-91646299D02*
X251841987Y-91557107D01*
X251841987Y-91557107D02*
X251912452Y-91477278D01*
X251912452Y-91477278D02*
X251938765Y-91415288D01*
X251938765Y-91415288D02*
X251947240Y-91309147D01*
X251947240Y-91309147D02*
X251911563Y-91220843D01*
X251911563Y-91220843D02*
X251831735Y-91150379D01*
X251831735Y-91150379D02*
X251769745Y-91124065D01*
X251769745Y-91124065D02*
X251663603Y-91115591D01*
X251663603Y-91115591D02*
X251469158Y-91142793D01*
X251469158Y-91142793D02*
X251363017Y-91134318D01*
X251363017Y-91134318D02*
X251301027Y-91108005D01*
X251301027Y-91108005D02*
X251221198Y-91037540D01*
X251221198Y-91037540D02*
X251185521Y-90949237D01*
X251185521Y-90949237D02*
X251193996Y-90843095D01*
X251193996Y-90843095D02*
X251220309Y-90781105D01*
X251220309Y-90781105D02*
X251290774Y-90701276D01*
X251290774Y-90701276D02*
X251511532Y-90612084D01*
X251511532Y-90612084D02*
X251661826Y-90602721D01*
X251953049Y-90433700D02*
X252548413Y-91271692D01*
X252548413Y-91271692D02*
X252457443Y-90538064D01*
X252457443Y-90538064D02*
X252901626Y-91128985D01*
X252901626Y-91128985D02*
X252747778Y-90112609D01*
X253623224Y-90118417D02*
X253872961Y-90736540D01*
X253259758Y-89854396D02*
X253306576Y-90605863D01*
X253306576Y-90605863D02*
X253880547Y-90373963D01*
X254506256Y-89761649D02*
X254755994Y-90379772D01*
X254142791Y-89497628D02*
X254189609Y-90249094D01*
X254189609Y-90249094D02*
X254763580Y-90017195D01*
X333460451Y-90121691D02*
X333611031Y-90122834D01*
X333611031Y-90122834D02*
X333837473Y-90049259D01*
X333837473Y-90049259D02*
X333913335Y-89974540D01*
X333913335Y-89974540D02*
X333943908Y-89914537D01*
X333943908Y-89914537D02*
X333959766Y-89809245D01*
X333959766Y-89809245D02*
X333930336Y-89718668D01*
X333930336Y-89718668D02*
X333855618Y-89642806D01*
X333855618Y-89642806D02*
X333795614Y-89612233D01*
X333795614Y-89612233D02*
X333690322Y-89596375D01*
X333690322Y-89596375D02*
X333494453Y-89609947D01*
X333494453Y-89609947D02*
X333389162Y-89594089D01*
X333389162Y-89594089D02*
X333329158Y-89563515D01*
X333329158Y-89563515D02*
X333254439Y-89487654D01*
X333254439Y-89487654D02*
X333225009Y-89397077D01*
X333225009Y-89397077D02*
X333240868Y-89291785D01*
X333240868Y-89291785D02*
X333271441Y-89231781D01*
X333271441Y-89231781D02*
X333347303Y-89157063D01*
X333347303Y-89157063D02*
X333573745Y-89083487D01*
X333573745Y-89083487D02*
X333724325Y-89084630D01*
X334026629Y-88936336D02*
X334562088Y-89813817D01*
X334562088Y-89813817D02*
X334522515Y-89075631D01*
X334522515Y-89075631D02*
X334924395Y-89696097D01*
X334924395Y-89696097D02*
X334841820Y-88671465D01*
X335714728Y-88738327D02*
X335920740Y-89372365D01*
X335370566Y-88449595D02*
X335364850Y-89202497D01*
X335364850Y-89202497D02*
X335953599Y-89011201D01*
X336094037Y-88364734D02*
X336124610Y-88304730D01*
X336124610Y-88304730D02*
X336200472Y-88230012D01*
X336200472Y-88230012D02*
X336426914Y-88156436D01*
X336426914Y-88156436D02*
X336532206Y-88172295D01*
X336532206Y-88172295D02*
X336592209Y-88202868D01*
X336592209Y-88202868D02*
X336666928Y-88278730D01*
X336666928Y-88278730D02*
X336696358Y-88369306D01*
X336696358Y-88369306D02*
X336695215Y-88519887D01*
X336695215Y-88519887D02*
X336328335Y-89239929D01*
X336328335Y-89239929D02*
X336917085Y-89048633D01*
X321686903Y-53886438D02*
X321837483Y-53887581D01*
X321837483Y-53887581D02*
X322063925Y-53814006D01*
X322063925Y-53814006D02*
X322139787Y-53739287D01*
X322139787Y-53739287D02*
X322170360Y-53679284D01*
X322170360Y-53679284D02*
X322186218Y-53573992D01*
X322186218Y-53573992D02*
X322156788Y-53483415D01*
X322156788Y-53483415D02*
X322082070Y-53407553D01*
X322082070Y-53407553D02*
X322022066Y-53376980D01*
X322022066Y-53376980D02*
X321916774Y-53361122D01*
X321916774Y-53361122D02*
X321720905Y-53374694D01*
X321720905Y-53374694D02*
X321615614Y-53358836D01*
X321615614Y-53358836D02*
X321555610Y-53328262D01*
X321555610Y-53328262D02*
X321480891Y-53252401D01*
X321480891Y-53252401D02*
X321451461Y-53161824D01*
X321451461Y-53161824D02*
X321467320Y-53056532D01*
X321467320Y-53056532D02*
X321497893Y-52996528D01*
X321497893Y-52996528D02*
X321573755Y-52921810D01*
X321573755Y-52921810D02*
X321800197Y-52848234D01*
X321800197Y-52848234D02*
X321950777Y-52849377D01*
X322253081Y-52701083D02*
X322788540Y-53578564D01*
X322788540Y-53578564D02*
X322748967Y-52840378D01*
X322748967Y-52840378D02*
X323150847Y-53460844D01*
X323150847Y-53460844D02*
X323068272Y-52436212D01*
X324237769Y-53107681D02*
X323694308Y-53284263D01*
X323966038Y-53195972D02*
X323657021Y-52244915D01*
X323657021Y-52244915D02*
X323610590Y-52410211D01*
X323610590Y-52410211D02*
X323549443Y-52530218D01*
X323549443Y-52530218D02*
X323473581Y-52604936D01*
X324604648Y-52387639D02*
X324499356Y-52371781D01*
X324499356Y-52371781D02*
X324439353Y-52341208D01*
X324439353Y-52341208D02*
X324364634Y-52265346D01*
X324364634Y-52265346D02*
X324349919Y-52220058D01*
X324349919Y-52220058D02*
X324365777Y-52114766D01*
X324365777Y-52114766D02*
X324396351Y-52054762D01*
X324396351Y-52054762D02*
X324472212Y-51980044D01*
X324472212Y-51980044D02*
X324653366Y-51921183D01*
X324653366Y-51921183D02*
X324758658Y-51937042D01*
X324758658Y-51937042D02*
X324818661Y-51967615D01*
X324818661Y-51967615D02*
X324893380Y-52043477D01*
X324893380Y-52043477D02*
X324908095Y-52088765D01*
X324908095Y-52088765D02*
X324892237Y-52194057D01*
X324892237Y-52194057D02*
X324861664Y-52254060D01*
X324861664Y-52254060D02*
X324785802Y-52328779D01*
X324785802Y-52328779D02*
X324604648Y-52387639D01*
X324604648Y-52387639D02*
X324528787Y-52462358D01*
X324528787Y-52462358D02*
X324498213Y-52522362D01*
X324498213Y-52522362D02*
X324482355Y-52627653D01*
X324482355Y-52627653D02*
X324541215Y-52808807D01*
X324541215Y-52808807D02*
X324615934Y-52884669D01*
X324615934Y-52884669D02*
X324675938Y-52915242D01*
X324675938Y-52915242D02*
X324781229Y-52931100D01*
X324781229Y-52931100D02*
X324962383Y-52872240D01*
X324962383Y-52872240D02*
X325038245Y-52797521D01*
X325038245Y-52797521D02*
X325068818Y-52737518D01*
X325068818Y-52737518D02*
X325084676Y-52632226D01*
X325084676Y-52632226D02*
X325025816Y-52451072D01*
X325025816Y-52451072D02*
X324951097Y-52375211D01*
X324951097Y-52375211D02*
X324891094Y-52344637D01*
X324891094Y-52344637D02*
X324785802Y-52328779D01*
X258607199Y-109318518D02*
X258757492Y-109309155D01*
X258757492Y-109309155D02*
X258978250Y-109219963D01*
X258978250Y-109219963D02*
X259048715Y-109140134D01*
X259048715Y-109140134D02*
X259075028Y-109078144D01*
X259075028Y-109078144D02*
X259083503Y-108972003D01*
X259083503Y-108972003D02*
X259047826Y-108883699D01*
X259047826Y-108883699D02*
X258967998Y-108813235D01*
X258967998Y-108813235D02*
X258906008Y-108786921D01*
X258906008Y-108786921D02*
X258799866Y-108778447D01*
X258799866Y-108778447D02*
X258605421Y-108805649D01*
X258605421Y-108805649D02*
X258499280Y-108797174D01*
X258499280Y-108797174D02*
X258437290Y-108770861D01*
X258437290Y-108770861D02*
X258357461Y-108700396D01*
X258357461Y-108700396D02*
X258321784Y-108612093D01*
X258321784Y-108612093D02*
X258330259Y-108505951D01*
X258330259Y-108505951D02*
X258356572Y-108443961D01*
X258356572Y-108443961D02*
X258427037Y-108364132D01*
X258427037Y-108364132D02*
X258647795Y-108274940D01*
X258647795Y-108274940D02*
X258798089Y-108265577D01*
X259089312Y-108096556D02*
X259684676Y-108934548D01*
X259684676Y-108934548D02*
X259593706Y-108200920D01*
X259593706Y-108200920D02*
X260037889Y-108791841D01*
X260037889Y-108791841D02*
X259884041Y-107775465D01*
X260759487Y-107781273D02*
X261009224Y-108399396D01*
X260396021Y-107517252D02*
X260442839Y-108268719D01*
X260442839Y-108268719D02*
X261016810Y-108036819D01*
X261413286Y-107619839D02*
X261307144Y-107611364D01*
X261307144Y-107611364D02*
X261245154Y-107585051D01*
X261245154Y-107585051D02*
X261165326Y-107514586D01*
X261165326Y-107514586D02*
X261147488Y-107470434D01*
X261147488Y-107470434D02*
X261155962Y-107364293D01*
X261155962Y-107364293D02*
X261182276Y-107302303D01*
X261182276Y-107302303D02*
X261252740Y-107222474D01*
X261252740Y-107222474D02*
X261429347Y-107151121D01*
X261429347Y-107151121D02*
X261535489Y-107159595D01*
X261535489Y-107159595D02*
X261597479Y-107185909D01*
X261597479Y-107185909D02*
X261677307Y-107256373D01*
X261677307Y-107256373D02*
X261695145Y-107300525D01*
X261695145Y-107300525D02*
X261686671Y-107406667D01*
X261686671Y-107406667D02*
X261660357Y-107468657D01*
X261660357Y-107468657D02*
X261589893Y-107548485D01*
X261589893Y-107548485D02*
X261413286Y-107619839D01*
X261413286Y-107619839D02*
X261342821Y-107699667D01*
X261342821Y-107699667D02*
X261316508Y-107761657D01*
X261316508Y-107761657D02*
X261308033Y-107867799D01*
X261308033Y-107867799D02*
X261379387Y-108044405D01*
X261379387Y-108044405D02*
X261459215Y-108114870D01*
X261459215Y-108114870D02*
X261521205Y-108141183D01*
X261521205Y-108141183D02*
X261627347Y-108149658D01*
X261627347Y-108149658D02*
X261803953Y-108078304D01*
X261803953Y-108078304D02*
X261874418Y-107998476D01*
X261874418Y-107998476D02*
X261900731Y-107936486D01*
X261900731Y-107936486D02*
X261909206Y-107830344D01*
X261909206Y-107830344D02*
X261837853Y-107653738D01*
X261837853Y-107653738D02*
X261758024Y-107583273D01*
X261758024Y-107583273D02*
X261696034Y-107556960D01*
X261696034Y-107556960D02*
X261589893Y-107548485D01*
X268007021Y-81730536D02*
X268157314Y-81721173D01*
X268157314Y-81721173D02*
X268378072Y-81631981D01*
X268378072Y-81631981D02*
X268448537Y-81552152D01*
X268448537Y-81552152D02*
X268474850Y-81490162D01*
X268474850Y-81490162D02*
X268483325Y-81384021D01*
X268483325Y-81384021D02*
X268447648Y-81295717D01*
X268447648Y-81295717D02*
X268367820Y-81225253D01*
X268367820Y-81225253D02*
X268305830Y-81198939D01*
X268305830Y-81198939D02*
X268199688Y-81190465D01*
X268199688Y-81190465D02*
X268005243Y-81217667D01*
X268005243Y-81217667D02*
X267899102Y-81209192D01*
X267899102Y-81209192D02*
X267837112Y-81182879D01*
X267837112Y-81182879D02*
X267757283Y-81112414D01*
X267757283Y-81112414D02*
X267721606Y-81024111D01*
X267721606Y-81024111D02*
X267730081Y-80917969D01*
X267730081Y-80917969D02*
X267756394Y-80855979D01*
X267756394Y-80855979D02*
X267826859Y-80776150D01*
X267826859Y-80776150D02*
X268047617Y-80686958D01*
X268047617Y-80686958D02*
X268197911Y-80677595D01*
X268489134Y-80508574D02*
X269084498Y-81346566D01*
X269084498Y-81346566D02*
X268993528Y-80612938D01*
X268993528Y-80612938D02*
X269437711Y-81203859D01*
X269437711Y-81203859D02*
X269283863Y-80187483D01*
X269548772Y-80080453D02*
X270122743Y-79848553D01*
X270122743Y-79848553D02*
X269956389Y-80326635D01*
X269956389Y-80326635D02*
X270088844Y-80273120D01*
X270088844Y-80273120D02*
X270194986Y-80281595D01*
X270194986Y-80281595D02*
X270256976Y-80307908D01*
X270256976Y-80307908D02*
X270336804Y-80378373D01*
X270336804Y-80378373D02*
X270425996Y-80599131D01*
X270425996Y-80599131D02*
X270417521Y-80705272D01*
X270417521Y-80705272D02*
X270391208Y-80767262D01*
X270391208Y-80767262D02*
X270320743Y-80847091D01*
X270320743Y-80847091D02*
X270055834Y-80954121D01*
X270055834Y-80954121D02*
X269949692Y-80945646D01*
X269949692Y-80945646D02*
X269887702Y-80919333D01*
X271042341Y-79836523D02*
X271292079Y-80454646D01*
X270678876Y-79572502D02*
X270725694Y-80323968D01*
X270725694Y-80323968D02*
X271299665Y-80092069D01*
X275143266Y-99393391D02*
X275293559Y-99384028D01*
X275293559Y-99384028D02*
X275514317Y-99294836D01*
X275514317Y-99294836D02*
X275584782Y-99215007D01*
X275584782Y-99215007D02*
X275611095Y-99153017D01*
X275611095Y-99153017D02*
X275619570Y-99046876D01*
X275619570Y-99046876D02*
X275583893Y-98958572D01*
X275583893Y-98958572D02*
X275504065Y-98888108D01*
X275504065Y-98888108D02*
X275442075Y-98861794D01*
X275442075Y-98861794D02*
X275335933Y-98853320D01*
X275335933Y-98853320D02*
X275141488Y-98880522D01*
X275141488Y-98880522D02*
X275035347Y-98872047D01*
X275035347Y-98872047D02*
X274973357Y-98845734D01*
X274973357Y-98845734D02*
X274893528Y-98775269D01*
X274893528Y-98775269D02*
X274857851Y-98686966D01*
X274857851Y-98686966D02*
X274866326Y-98580824D01*
X274866326Y-98580824D02*
X274892639Y-98518834D01*
X274892639Y-98518834D02*
X274963104Y-98439005D01*
X274963104Y-98439005D02*
X275183862Y-98349813D01*
X275183862Y-98349813D02*
X275334156Y-98340450D01*
X275625379Y-98171429D02*
X276220743Y-99009421D01*
X276220743Y-99009421D02*
X276129773Y-98275793D01*
X276129773Y-98275793D02*
X276573956Y-98866714D01*
X276573956Y-98866714D02*
X276420108Y-97850338D01*
X277295554Y-97856146D02*
X277545291Y-98474269D01*
X276932088Y-97592125D02*
X276978906Y-98343592D01*
X276978906Y-98343592D02*
X277552877Y-98111692D01*
X278053717Y-97190317D02*
X277877111Y-97261670D01*
X277877111Y-97261670D02*
X277806646Y-97341499D01*
X277806646Y-97341499D02*
X277780333Y-97403489D01*
X277780333Y-97403489D02*
X277745545Y-97571621D01*
X277745545Y-97571621D02*
X277772747Y-97766065D01*
X277772747Y-97766065D02*
X277915454Y-98119278D01*
X277915454Y-98119278D02*
X277995282Y-98189743D01*
X277995282Y-98189743D02*
X278057272Y-98216056D01*
X278057272Y-98216056D02*
X278163414Y-98224531D01*
X278163414Y-98224531D02*
X278340020Y-98153177D01*
X278340020Y-98153177D02*
X278410485Y-98073349D01*
X278410485Y-98073349D02*
X278436798Y-98011359D01*
X278436798Y-98011359D02*
X278445273Y-97905217D01*
X278445273Y-97905217D02*
X278356081Y-97684459D01*
X278356081Y-97684459D02*
X278276253Y-97613995D01*
X278276253Y-97613995D02*
X278214263Y-97587681D01*
X278214263Y-97587681D02*
X278108121Y-97579207D01*
X278108121Y-97579207D02*
X277931515Y-97650560D01*
X277931515Y-97650560D02*
X277861050Y-97730389D01*
X277861050Y-97730389D02*
X277834737Y-97792379D01*
X277834737Y-97792379D02*
X277826262Y-97898520D01*
X348081133Y-67396112D02*
X348231447Y-67405134D01*
X348231447Y-67405134D02*
X348461429Y-67343510D01*
X348461429Y-67343510D02*
X348541098Y-67272865D01*
X348541098Y-67272865D02*
X348574769Y-67214543D01*
X348574769Y-67214543D02*
X348596116Y-67110226D01*
X348596116Y-67110226D02*
X348571467Y-67018233D01*
X348571467Y-67018233D02*
X348500821Y-66938565D01*
X348500821Y-66938565D02*
X348442500Y-66904893D01*
X348442500Y-66904893D02*
X348338182Y-66883546D01*
X348338182Y-66883546D02*
X348141872Y-66886848D01*
X348141872Y-66886848D02*
X348037554Y-66865501D01*
X348037554Y-66865501D02*
X347979233Y-66831829D01*
X347979233Y-66831829D02*
X347908587Y-66752161D01*
X347908587Y-66752161D02*
X347883937Y-66660168D01*
X347883937Y-66660168D02*
X347905284Y-66555851D01*
X347905284Y-66555851D02*
X347938956Y-66497529D01*
X347938956Y-66497529D02*
X348018624Y-66426883D01*
X348018624Y-66426883D02*
X348248607Y-66365260D01*
X348248607Y-66365260D02*
X348398921Y-66374282D01*
X348708571Y-66242013D02*
X349197373Y-67146315D01*
X349197373Y-67146315D02*
X349196488Y-66407069D01*
X349196488Y-66407069D02*
X349565345Y-67047717D01*
X349565345Y-67047717D02*
X349536508Y-66020168D01*
X349883132Y-66025888D02*
X349916804Y-65967567D01*
X349916804Y-65967567D02*
X349996472Y-65896921D01*
X349996472Y-65896921D02*
X350226455Y-65835297D01*
X350226455Y-65835297D02*
X350330772Y-65856644D01*
X350330772Y-65856644D02*
X350389094Y-65890316D01*
X350389094Y-65890316D02*
X350459739Y-65969984D01*
X350459739Y-65969984D02*
X350484389Y-66061977D01*
X350484389Y-66061977D02*
X350475367Y-66212291D01*
X350475367Y-66212291D02*
X350071306Y-66912145D01*
X350071306Y-66912145D02*
X350669260Y-66751924D01*
X351238377Y-65564153D02*
X351054391Y-65613452D01*
X351054391Y-65613452D02*
X350974723Y-65684098D01*
X350974723Y-65684098D02*
X350941051Y-65742419D01*
X350941051Y-65742419D02*
X350886032Y-65905058D01*
X350886032Y-65905058D02*
X350889335Y-66101369D01*
X350889335Y-66101369D02*
X350987933Y-66469340D01*
X350987933Y-66469340D02*
X351058578Y-66549009D01*
X351058578Y-66549009D02*
X351116900Y-66582680D01*
X351116900Y-66582680D02*
X351221217Y-66604027D01*
X351221217Y-66604027D02*
X351405203Y-66554729D01*
X351405203Y-66554729D02*
X351484871Y-66484083D01*
X351484871Y-66484083D02*
X351518543Y-66425762D01*
X351518543Y-66425762D02*
X351539890Y-66321444D01*
X351539890Y-66321444D02*
X351478267Y-66091462D01*
X351478267Y-66091462D02*
X351407621Y-66011793D01*
X351407621Y-66011793D02*
X351349300Y-65978122D01*
X351349300Y-65978122D02*
X351244982Y-65956775D01*
X351244982Y-65956775D02*
X351060996Y-66006073D01*
X351060996Y-66006073D02*
X350981328Y-66076719D01*
X350981328Y-66076719D02*
X350947656Y-66135040D01*
X350947656Y-66135040D02*
X350926309Y-66239358D01*
X244334691Y-73992807D02*
X244484984Y-73983444D01*
X244484984Y-73983444D02*
X244705742Y-73894252D01*
X244705742Y-73894252D02*
X244776207Y-73814423D01*
X244776207Y-73814423D02*
X244802520Y-73752433D01*
X244802520Y-73752433D02*
X244810995Y-73646292D01*
X244810995Y-73646292D02*
X244775318Y-73557988D01*
X244775318Y-73557988D02*
X244695490Y-73487524D01*
X244695490Y-73487524D02*
X244633500Y-73461210D01*
X244633500Y-73461210D02*
X244527358Y-73452736D01*
X244527358Y-73452736D02*
X244332913Y-73479938D01*
X244332913Y-73479938D02*
X244226772Y-73471463D01*
X244226772Y-73471463D02*
X244164782Y-73445150D01*
X244164782Y-73445150D02*
X244084953Y-73374685D01*
X244084953Y-73374685D02*
X244049276Y-73286382D01*
X244049276Y-73286382D02*
X244057751Y-73180240D01*
X244057751Y-73180240D02*
X244084064Y-73118250D01*
X244084064Y-73118250D02*
X244154529Y-73038421D01*
X244154529Y-73038421D02*
X244375287Y-72949229D01*
X244375287Y-72949229D02*
X244525581Y-72939866D01*
X244816804Y-72770845D02*
X245412168Y-73608837D01*
X245412168Y-73608837D02*
X245321198Y-72875209D01*
X245321198Y-72875209D02*
X245765381Y-73466130D01*
X245765381Y-73466130D02*
X245611533Y-72449754D01*
X245876442Y-72342724D02*
X246450413Y-72110824D01*
X246450413Y-72110824D02*
X246284059Y-72588906D01*
X246284059Y-72588906D02*
X246416514Y-72535391D01*
X246416514Y-72535391D02*
X246522656Y-72543866D01*
X246522656Y-72543866D02*
X246584646Y-72570179D01*
X246584646Y-72570179D02*
X246664474Y-72640644D01*
X246664474Y-72640644D02*
X246753666Y-72861402D01*
X246753666Y-72861402D02*
X246745191Y-72967543D01*
X246745191Y-72967543D02*
X246718878Y-73029533D01*
X246718878Y-73029533D02*
X246648413Y-73109362D01*
X246648413Y-73109362D02*
X246383504Y-73216392D01*
X246383504Y-73216392D02*
X246277362Y-73207917D01*
X246277362Y-73207917D02*
X246215372Y-73181604D01*
X246839303Y-72056420D02*
X246865616Y-71994430D01*
X246865616Y-71994430D02*
X246936081Y-71914602D01*
X246936081Y-71914602D02*
X247156839Y-71825410D01*
X247156839Y-71825410D02*
X247262981Y-71833884D01*
X247262981Y-71833884D02*
X247324971Y-71860198D01*
X247324971Y-71860198D02*
X247404799Y-71930662D01*
X247404799Y-71930662D02*
X247440476Y-72018966D01*
X247440476Y-72018966D02*
X247449839Y-72169259D01*
X247449839Y-72169259D02*
X247134081Y-72913139D01*
X247134081Y-72913139D02*
X247708052Y-72681240D01*
X289501721Y-31953934D02*
X289652014Y-31944570D01*
X289652014Y-31944570D02*
X289872772Y-31855378D01*
X289872772Y-31855378D02*
X289943237Y-31775550D01*
X289943237Y-31775550D02*
X289969550Y-31713560D01*
X289969550Y-31713560D02*
X289978025Y-31607418D01*
X289978025Y-31607418D02*
X289942348Y-31519115D01*
X289942348Y-31519115D02*
X289862520Y-31448650D01*
X289862520Y-31448650D02*
X289800529Y-31422337D01*
X289800529Y-31422337D02*
X289694388Y-31413862D01*
X289694388Y-31413862D02*
X289499943Y-31441064D01*
X289499943Y-31441064D02*
X289393801Y-31432589D01*
X289393801Y-31432589D02*
X289331811Y-31406276D01*
X289331811Y-31406276D02*
X289251983Y-31335811D01*
X289251983Y-31335811D02*
X289216306Y-31247508D01*
X289216306Y-31247508D02*
X289224781Y-31141367D01*
X289224781Y-31141367D02*
X289251094Y-31079377D01*
X289251094Y-31079377D02*
X289321559Y-30999548D01*
X289321559Y-30999548D02*
X289542317Y-30910356D01*
X289542317Y-30910356D02*
X289692610Y-30900992D01*
X289983833Y-30731972D02*
X290579198Y-31569964D01*
X290579198Y-31569964D02*
X290488228Y-30836336D01*
X290488228Y-30836336D02*
X290932411Y-31427257D01*
X290932411Y-31427257D02*
X290778562Y-30410881D01*
X291654008Y-30416689D02*
X291903746Y-31034812D01*
X291290543Y-30152668D02*
X291337361Y-30904134D01*
X291337361Y-30904134D02*
X291911332Y-30672235D01*
X343150630Y-48995222D02*
X343300944Y-49004244D01*
X343300944Y-49004244D02*
X343530926Y-48942620D01*
X343530926Y-48942620D02*
X343610595Y-48871975D01*
X343610595Y-48871975D02*
X343644266Y-48813653D01*
X343644266Y-48813653D02*
X343665613Y-48709336D01*
X343665613Y-48709336D02*
X343640964Y-48617343D01*
X343640964Y-48617343D02*
X343570318Y-48537675D01*
X343570318Y-48537675D02*
X343511997Y-48504003D01*
X343511997Y-48504003D02*
X343407679Y-48482656D01*
X343407679Y-48482656D02*
X343211369Y-48485958D01*
X343211369Y-48485958D02*
X343107051Y-48464611D01*
X343107051Y-48464611D02*
X343048730Y-48430939D01*
X343048730Y-48430939D02*
X342978084Y-48351271D01*
X342978084Y-48351271D02*
X342953434Y-48259278D01*
X342953434Y-48259278D02*
X342974781Y-48154961D01*
X342974781Y-48154961D02*
X343008453Y-48096639D01*
X343008453Y-48096639D02*
X343088121Y-48025993D01*
X343088121Y-48025993D02*
X343318104Y-47964370D01*
X343318104Y-47964370D02*
X343468418Y-47973392D01*
X343778068Y-47841123D02*
X344266870Y-48745425D01*
X344266870Y-48745425D02*
X344265985Y-48006179D01*
X344265985Y-48006179D02*
X344634842Y-48646827D01*
X344634842Y-48646827D02*
X344606005Y-47619278D01*
X345738757Y-48351034D02*
X345186799Y-48498931D01*
X345462778Y-48424982D02*
X345203959Y-47459057D01*
X345203959Y-47459057D02*
X345148940Y-47621695D01*
X345148940Y-47621695D02*
X345081597Y-47738338D01*
X345081597Y-47738338D02*
X345001928Y-47808984D01*
X345872559Y-47378503D02*
X345906231Y-47320182D01*
X345906231Y-47320182D02*
X345985899Y-47249536D01*
X345985899Y-47249536D02*
X346215881Y-47187913D01*
X346215881Y-47187913D02*
X346320199Y-47209260D01*
X346320199Y-47209260D02*
X346378520Y-47242932D01*
X346378520Y-47242932D02*
X346449166Y-47322600D01*
X346449166Y-47322600D02*
X346473815Y-47414593D01*
X346473815Y-47414593D02*
X346464793Y-47564907D01*
X346464793Y-47564907D02*
X346060732Y-48264761D01*
X346060732Y-48264761D02*
X346658686Y-48104540D01*
X228833345Y-101284397D02*
X229136598Y-102034974D01*
X229136598Y-102034974D02*
X229216427Y-102105439D01*
X229216427Y-102105439D02*
X229278417Y-102131752D01*
X229278417Y-102131752D02*
X229384558Y-102140227D01*
X229384558Y-102140227D02*
X229561165Y-102068874D01*
X229561165Y-102068874D02*
X229631630Y-101989045D01*
X229631630Y-101989045D02*
X229657943Y-101927055D01*
X229657943Y-101927055D02*
X229666418Y-101820914D01*
X229666418Y-101820914D02*
X229363165Y-101070336D01*
X229796206Y-100998094D02*
X229822519Y-100936104D01*
X229822519Y-100936104D02*
X229892984Y-100856275D01*
X229892984Y-100856275D02*
X230113742Y-100767083D01*
X230113742Y-100767083D02*
X230219884Y-100775558D01*
X230219884Y-100775558D02*
X230281874Y-100801871D01*
X230281874Y-100801871D02*
X230361702Y-100872336D01*
X230361702Y-100872336D02*
X230397379Y-100960639D01*
X230397379Y-100960639D02*
X230406743Y-101110933D01*
X230406743Y-101110933D02*
X230090984Y-101854813D01*
X230090984Y-101854813D02*
X230664955Y-101622913D01*
X218712180Y-110201863D02*
X218647343Y-110257112D01*
X218647343Y-110257112D02*
X218602688Y-110362312D01*
X218602688Y-110362312D02*
X218593100Y-110482398D01*
X218593100Y-110482398D02*
X218633464Y-110582302D01*
X218633464Y-110582302D02*
X218688713Y-110647138D01*
X218688713Y-110647138D02*
X218814095Y-110741745D01*
X218814095Y-110741745D02*
X218919296Y-110786400D01*
X218919296Y-110786400D02*
X219074448Y-110810873D01*
X219074448Y-110810873D02*
X219159467Y-110805576D01*
X219159467Y-110805576D02*
X219259370Y-110765213D01*
X219259370Y-110765213D02*
X219339092Y-110674897D01*
X219339092Y-110674897D02*
X219368862Y-110604764D01*
X219368862Y-110604764D02*
X219378450Y-110484678D01*
X219378450Y-110484678D02*
X219358269Y-110434726D01*
X219358269Y-110434726D02*
X219112801Y-110330531D01*
X219112801Y-110330531D02*
X219053261Y-110470799D01*
X219562367Y-110148894D02*
X218825963Y-109836310D01*
X218825963Y-109836310D02*
X218945043Y-109555775D01*
X218945043Y-109555775D02*
X219009880Y-109500526D01*
X219009880Y-109500526D02*
X219059832Y-109480344D01*
X219059832Y-109480344D02*
X219144851Y-109475047D01*
X219144851Y-109475047D02*
X219250051Y-109519702D01*
X219250051Y-109519702D02*
X219305300Y-109584539D01*
X219305300Y-109584539D02*
X219325482Y-109634491D01*
X219325482Y-109634491D02*
X219330779Y-109719510D01*
X219330779Y-109719510D02*
X219211699Y-110000044D01*
X219889837Y-109377424D02*
X219949377Y-109237156D01*
X219949377Y-109237156D02*
X219944080Y-109152138D01*
X219944080Y-109152138D02*
X219923898Y-109102186D01*
X219923898Y-109102186D02*
X219848468Y-108987397D01*
X219848468Y-108987397D02*
X219723085Y-108892790D01*
X219723085Y-108892790D02*
X219442551Y-108773710D01*
X219442551Y-108773710D02*
X219357532Y-108779007D01*
X219357532Y-108779007D02*
X219307580Y-108799189D01*
X219307580Y-108799189D02*
X219242743Y-108854438D01*
X219242743Y-108854438D02*
X219183203Y-108994705D01*
X219183203Y-108994705D02*
X219188500Y-109079724D01*
X219188500Y-109079724D02*
X219208682Y-109129676D01*
X219208682Y-109129676D02*
X219263931Y-109194512D01*
X219263931Y-109194512D02*
X219439265Y-109268937D01*
X219439265Y-109268937D02*
X219524284Y-109263641D01*
X219524284Y-109263641D02*
X219574235Y-109243459D01*
X219574235Y-109243459D02*
X219639072Y-109188210D01*
X219639072Y-109188210D02*
X219698612Y-109047943D01*
X219698612Y-109047943D02*
X219693315Y-108962924D01*
X219693315Y-108962924D02*
X219673134Y-108912972D01*
X219673134Y-108912972D02*
X219617885Y-108848135D01*
X215857678Y-103136722D02*
X215792841Y-103191971D01*
X215792841Y-103191971D02*
X215748186Y-103297171D01*
X215748186Y-103297171D02*
X215738598Y-103417257D01*
X215738598Y-103417257D02*
X215778962Y-103517161D01*
X215778962Y-103517161D02*
X215834211Y-103581997D01*
X215834211Y-103581997D02*
X215959593Y-103676604D01*
X215959593Y-103676604D02*
X216064794Y-103721259D01*
X216064794Y-103721259D02*
X216219946Y-103745732D01*
X216219946Y-103745732D02*
X216304965Y-103740435D01*
X216304965Y-103740435D02*
X216404868Y-103700072D01*
X216404868Y-103700072D02*
X216484590Y-103609756D01*
X216484590Y-103609756D02*
X216514360Y-103539623D01*
X216514360Y-103539623D02*
X216523948Y-103419537D01*
X216523948Y-103419537D02*
X216503767Y-103369585D01*
X216503767Y-103369585D02*
X216258299Y-103265390D01*
X216258299Y-103265390D02*
X216198759Y-103405658D01*
X216707865Y-103083753D02*
X215971461Y-102771169D01*
X215971461Y-102771169D02*
X216090541Y-102490634D01*
X216090541Y-102490634D02*
X216155378Y-102435385D01*
X216155378Y-102435385D02*
X216205330Y-102415203D01*
X216205330Y-102415203D02*
X216290349Y-102409906D01*
X216290349Y-102409906D02*
X216395549Y-102454561D01*
X216395549Y-102454561D02*
X216450798Y-102519398D01*
X216450798Y-102519398D02*
X216470980Y-102569350D01*
X216470980Y-102569350D02*
X216476277Y-102654369D01*
X216476277Y-102654369D02*
X216357197Y-102934903D01*
X216418011Y-101719163D02*
X216358471Y-101859430D01*
X216358471Y-101859430D02*
X216363768Y-101944449D01*
X216363768Y-101944449D02*
X216383950Y-101994401D01*
X216383950Y-101994401D02*
X216459380Y-102109190D01*
X216459380Y-102109190D02*
X216584763Y-102203796D01*
X216584763Y-102203796D02*
X216865298Y-102322876D01*
X216865298Y-102322876D02*
X216950316Y-102317580D01*
X216950316Y-102317580D02*
X217000268Y-102297398D01*
X217000268Y-102297398D02*
X217065105Y-102242149D01*
X217065105Y-102242149D02*
X217124645Y-102101882D01*
X217124645Y-102101882D02*
X217119348Y-102016863D01*
X217119348Y-102016863D02*
X217099166Y-101966911D01*
X217099166Y-101966911D02*
X217043918Y-101902074D01*
X217043918Y-101902074D02*
X216868583Y-101827649D01*
X216868583Y-101827649D02*
X216783565Y-101832946D01*
X216783565Y-101832946D02*
X216733613Y-101853128D01*
X216733613Y-101853128D02*
X216668776Y-101908377D01*
X216668776Y-101908377D02*
X216609236Y-102048644D01*
X216609236Y-102048644D02*
X216614533Y-102133663D01*
X216614533Y-102133663D02*
X216634715Y-102183615D01*
X216634715Y-102183615D02*
X216689963Y-102248451D01*
X225939831Y-129488058D02*
X225874994Y-129543307D01*
X225874994Y-129543307D02*
X225830339Y-129648507D01*
X225830339Y-129648507D02*
X225820751Y-129768593D01*
X225820751Y-129768593D02*
X225861115Y-129868497D01*
X225861115Y-129868497D02*
X225916363Y-129933333D01*
X225916363Y-129933333D02*
X226041746Y-130027940D01*
X226041746Y-130027940D02*
X226146946Y-130072595D01*
X226146946Y-130072595D02*
X226302099Y-130097068D01*
X226302099Y-130097068D02*
X226387118Y-130091772D01*
X226387118Y-130091772D02*
X226487021Y-130051408D01*
X226487021Y-130051408D02*
X226566743Y-129961092D01*
X226566743Y-129961092D02*
X226596513Y-129890959D01*
X226596513Y-129890959D02*
X226606101Y-129770873D01*
X226606101Y-129770873D02*
X226585919Y-129720921D01*
X226585919Y-129720921D02*
X226340451Y-129616726D01*
X226340451Y-129616726D02*
X226280911Y-129756994D01*
X226790018Y-129435090D02*
X226053614Y-129122505D01*
X226053614Y-129122505D02*
X226172694Y-128841970D01*
X226172694Y-128841970D02*
X226237531Y-128786721D01*
X226237531Y-128786721D02*
X226287483Y-128766539D01*
X226287483Y-128766539D02*
X226372501Y-128761242D01*
X226372501Y-128761242D02*
X226477702Y-128805897D01*
X226477702Y-128805897D02*
X226532951Y-128870734D01*
X226532951Y-128870734D02*
X226553133Y-128920686D01*
X226553133Y-128920686D02*
X226558429Y-129005705D01*
X226558429Y-129005705D02*
X226439349Y-129286240D01*
X227266338Y-128312950D02*
X227087718Y-128733752D01*
X227177028Y-128523351D02*
X226440624Y-128210766D01*
X226440624Y-128210766D02*
X226516055Y-128325555D01*
X226516055Y-128325555D02*
X226556418Y-128425459D01*
X226556418Y-128425459D02*
X226561715Y-128510478D01*
X226812749Y-127334095D02*
X226663899Y-127684763D01*
X226663899Y-127684763D02*
X226999683Y-127868680D01*
X226999683Y-127868680D02*
X226979501Y-127818728D01*
X226979501Y-127818728D02*
X226974204Y-127733710D01*
X226974204Y-127733710D02*
X227048629Y-127558375D01*
X227048629Y-127558375D02*
X227113466Y-127503127D01*
X227113466Y-127503127D02*
X227163417Y-127482945D01*
X227163417Y-127482945D02*
X227248436Y-127477648D01*
X227248436Y-127477648D02*
X227423770Y-127552073D01*
X227423770Y-127552073D02*
X227479019Y-127616910D01*
X227479019Y-127616910D02*
X227499201Y-127666862D01*
X227499201Y-127666862D02*
X227504498Y-127751880D01*
X227504498Y-127751880D02*
X227430073Y-127927215D01*
X227430073Y-127927215D02*
X227365236Y-127982463D01*
X227365236Y-127982463D02*
X227315284Y-128002645D01*
X235707720Y-84524898D02*
X235901225Y-84069029D01*
X235901225Y-84069029D02*
X236077565Y-84433577D01*
X236077565Y-84433577D02*
X236122220Y-84328376D01*
X236122220Y-84328376D02*
X236187057Y-84273127D01*
X236187057Y-84273127D02*
X236237009Y-84252946D01*
X236237009Y-84252946D02*
X236322027Y-84247649D01*
X236322027Y-84247649D02*
X236497362Y-84322074D01*
X236497362Y-84322074D02*
X236552610Y-84386911D01*
X236552610Y-84386911D02*
X236572792Y-84436862D01*
X236572792Y-84436862D02*
X236578089Y-84521881D01*
X236578089Y-84521881D02*
X236488779Y-84732282D01*
X236488779Y-84732282D02*
X236423942Y-84787531D01*
X236423942Y-84787531D02*
X236373990Y-84807713D01*
X235990535Y-83858627D02*
X236831134Y-83925744D01*
X236831134Y-83925744D02*
X236198925Y-83367692D01*
X236273350Y-83192358D02*
X236466855Y-82736488D01*
X236466855Y-82736488D02*
X236643195Y-83101036D01*
X236643195Y-83101036D02*
X236687850Y-82995836D01*
X236687850Y-82995836D02*
X236752687Y-82940587D01*
X236752687Y-82940587D02*
X236802638Y-82920405D01*
X236802638Y-82920405D02*
X236887657Y-82915108D01*
X236887657Y-82915108D02*
X237062991Y-82989533D01*
X237062991Y-82989533D02*
X237118240Y-83054370D01*
X237118240Y-83054370D02*
X237138422Y-83104322D01*
X237138422Y-83104322D02*
X237143719Y-83189341D01*
X237143719Y-83189341D02*
X237054409Y-83399742D01*
X237054409Y-83399742D02*
X236989572Y-83454991D01*
X236989572Y-83454991D02*
X236939620Y-83475172D01*
X247292245Y-112642688D02*
X247227408Y-112697937D01*
X247227408Y-112697937D02*
X247182753Y-112803137D01*
X247182753Y-112803137D02*
X247173165Y-112923223D01*
X247173165Y-112923223D02*
X247213529Y-113023127D01*
X247213529Y-113023127D02*
X247268777Y-113087963D01*
X247268777Y-113087963D02*
X247394160Y-113182570D01*
X247394160Y-113182570D02*
X247499360Y-113227225D01*
X247499360Y-113227225D02*
X247654513Y-113251698D01*
X247654513Y-113251698D02*
X247739532Y-113246402D01*
X247739532Y-113246402D02*
X247839435Y-113206038D01*
X247839435Y-113206038D02*
X247919157Y-113115722D01*
X247919157Y-113115722D02*
X247948927Y-113045589D01*
X247948927Y-113045589D02*
X247958515Y-112925503D01*
X247958515Y-112925503D02*
X247938333Y-112875551D01*
X247938333Y-112875551D02*
X247692865Y-112771356D01*
X247692865Y-112771356D02*
X247633325Y-112911624D01*
X248142432Y-112589720D02*
X247406028Y-112277135D01*
X247406028Y-112277135D02*
X247525108Y-111996600D01*
X247525108Y-111996600D02*
X247589945Y-111941351D01*
X247589945Y-111941351D02*
X247639897Y-111921169D01*
X247639897Y-111921169D02*
X247724915Y-111915872D01*
X247724915Y-111915872D02*
X247830116Y-111960527D01*
X247830116Y-111960527D02*
X247885365Y-112025364D01*
X247885365Y-112025364D02*
X247905547Y-112075316D01*
X247905547Y-112075316D02*
X247910843Y-112160335D01*
X247910843Y-112160335D02*
X247791763Y-112440870D01*
X248618752Y-111467580D02*
X248440132Y-111888382D01*
X248529442Y-111677981D02*
X247793038Y-111365396D01*
X247793038Y-111365396D02*
X247868469Y-111480185D01*
X247868469Y-111480185D02*
X247908832Y-111580089D01*
X247908832Y-111580089D02*
X247914129Y-111665108D01*
X248376570Y-110868158D02*
X248311733Y-110923407D01*
X248311733Y-110923407D02*
X248261781Y-110943588D01*
X248261781Y-110943588D02*
X248176762Y-110948885D01*
X248176762Y-110948885D02*
X248141695Y-110934000D01*
X248141695Y-110934000D02*
X248086447Y-110869163D01*
X248086447Y-110869163D02*
X248066265Y-110819212D01*
X248066265Y-110819212D02*
X248060968Y-110734193D01*
X248060968Y-110734193D02*
X248120508Y-110593926D01*
X248120508Y-110593926D02*
X248185345Y-110538677D01*
X248185345Y-110538677D02*
X248235297Y-110518495D01*
X248235297Y-110518495D02*
X248320315Y-110513198D01*
X248320315Y-110513198D02*
X248355382Y-110528083D01*
X248355382Y-110528083D02*
X248410631Y-110592920D01*
X248410631Y-110592920D02*
X248430813Y-110642872D01*
X248430813Y-110642872D02*
X248436110Y-110727890D01*
X248436110Y-110727890D02*
X248376570Y-110868158D01*
X248376570Y-110868158D02*
X248381867Y-110953177D01*
X248381867Y-110953177D02*
X248402048Y-111003128D01*
X248402048Y-111003128D02*
X248457297Y-111067965D01*
X248457297Y-111067965D02*
X248597565Y-111127505D01*
X248597565Y-111127505D02*
X248682583Y-111122208D01*
X248682583Y-111122208D02*
X248732535Y-111102027D01*
X248732535Y-111102027D02*
X248797372Y-111046778D01*
X248797372Y-111046778D02*
X248856912Y-110906510D01*
X248856912Y-110906510D02*
X248851615Y-110821492D01*
X248851615Y-110821492D02*
X248831433Y-110771540D01*
X248831433Y-110771540D02*
X248776184Y-110706703D01*
X248776184Y-110706703D02*
X248635917Y-110647163D01*
X248635917Y-110647163D02*
X248550898Y-110652460D01*
X248550898Y-110652460D02*
X248500946Y-110672642D01*
X248500946Y-110672642D02*
X248436110Y-110727890D01*
X246340744Y-110287641D02*
X246275907Y-110342890D01*
X246275907Y-110342890D02*
X246231252Y-110448090D01*
X246231252Y-110448090D02*
X246221664Y-110568176D01*
X246221664Y-110568176D02*
X246262028Y-110668080D01*
X246262028Y-110668080D02*
X246317276Y-110732916D01*
X246317276Y-110732916D02*
X246442659Y-110827523D01*
X246442659Y-110827523D02*
X246547859Y-110872178D01*
X246547859Y-110872178D02*
X246703012Y-110896651D01*
X246703012Y-110896651D02*
X246788031Y-110891355D01*
X246788031Y-110891355D02*
X246887934Y-110850991D01*
X246887934Y-110850991D02*
X246967656Y-110760675D01*
X246967656Y-110760675D02*
X246997426Y-110690542D01*
X246997426Y-110690542D02*
X247007014Y-110570456D01*
X247007014Y-110570456D02*
X246986832Y-110520504D01*
X246986832Y-110520504D02*
X246741364Y-110416309D01*
X246741364Y-110416309D02*
X246681824Y-110556577D01*
X247190931Y-110234673D02*
X246454527Y-109922088D01*
X246454527Y-109922088D02*
X246573607Y-109641553D01*
X246573607Y-109641553D02*
X246638444Y-109586304D01*
X246638444Y-109586304D02*
X246688396Y-109566122D01*
X246688396Y-109566122D02*
X246773414Y-109560825D01*
X246773414Y-109560825D02*
X246878615Y-109605480D01*
X246878615Y-109605480D02*
X246933864Y-109670317D01*
X246933864Y-109670317D02*
X246954046Y-109720269D01*
X246954046Y-109720269D02*
X246959342Y-109805288D01*
X246959342Y-109805288D02*
X246840262Y-110085823D01*
X247667251Y-109112533D02*
X247488631Y-109533335D01*
X247577941Y-109322934D02*
X246841537Y-109010349D01*
X246841537Y-109010349D02*
X246916968Y-109125138D01*
X246916968Y-109125138D02*
X246957331Y-109225042D01*
X246957331Y-109225042D02*
X246962628Y-109310061D01*
X247816101Y-108761865D02*
X247875641Y-108621597D01*
X247875641Y-108621597D02*
X247870344Y-108536578D01*
X247870344Y-108536578D02*
X247850162Y-108486627D01*
X247850162Y-108486627D02*
X247774732Y-108371838D01*
X247774732Y-108371838D02*
X247649349Y-108277231D01*
X247649349Y-108277231D02*
X247368814Y-108158151D01*
X247368814Y-108158151D02*
X247283796Y-108163448D01*
X247283796Y-108163448D02*
X247233844Y-108183630D01*
X247233844Y-108183630D02*
X247169007Y-108238879D01*
X247169007Y-108238879D02*
X247109467Y-108379146D01*
X247109467Y-108379146D02*
X247114764Y-108464165D01*
X247114764Y-108464165D02*
X247134946Y-108514116D01*
X247134946Y-108514116D02*
X247190194Y-108578953D01*
X247190194Y-108578953D02*
X247365529Y-108653378D01*
X247365529Y-108653378D02*
X247450547Y-108648081D01*
X247450547Y-108648081D02*
X247500499Y-108627900D01*
X247500499Y-108627900D02*
X247565336Y-108572651D01*
X247565336Y-108572651D02*
X247624876Y-108432383D01*
X247624876Y-108432383D02*
X247619579Y-108347365D01*
X247619579Y-108347365D02*
X247599397Y-108297413D01*
X247599397Y-108297413D02*
X247544149Y-108232576D01*
X244441489Y-105586819D02*
X244376652Y-105642068D01*
X244376652Y-105642068D02*
X244331997Y-105747268D01*
X244331997Y-105747268D02*
X244322409Y-105867354D01*
X244322409Y-105867354D02*
X244362773Y-105967258D01*
X244362773Y-105967258D02*
X244418021Y-106032094D01*
X244418021Y-106032094D02*
X244543404Y-106126701D01*
X244543404Y-106126701D02*
X244648604Y-106171356D01*
X244648604Y-106171356D02*
X244803757Y-106195829D01*
X244803757Y-106195829D02*
X244888776Y-106190533D01*
X244888776Y-106190533D02*
X244988679Y-106150169D01*
X244988679Y-106150169D02*
X245068401Y-106059853D01*
X245068401Y-106059853D02*
X245098171Y-105989720D01*
X245098171Y-105989720D02*
X245107759Y-105869634D01*
X245107759Y-105869634D02*
X245087577Y-105819682D01*
X245087577Y-105819682D02*
X244842109Y-105715487D01*
X244842109Y-105715487D02*
X244782569Y-105855755D01*
X245291676Y-105533851D02*
X244555272Y-105221266D01*
X244555272Y-105221266D02*
X244674352Y-104940731D01*
X244674352Y-104940731D02*
X244739189Y-104885482D01*
X244739189Y-104885482D02*
X244789141Y-104865300D01*
X244789141Y-104865300D02*
X244874159Y-104860003D01*
X244874159Y-104860003D02*
X244979360Y-104904658D01*
X244979360Y-104904658D02*
X245034609Y-104969495D01*
X245034609Y-104969495D02*
X245054791Y-105019447D01*
X245054791Y-105019447D02*
X245060087Y-105104466D01*
X245060087Y-105104466D02*
X244941007Y-105385001D01*
X244923106Y-104549699D02*
X244902924Y-104499747D01*
X244902924Y-104499747D02*
X244897627Y-104414728D01*
X244897627Y-104414728D02*
X244972052Y-104239394D01*
X244972052Y-104239394D02*
X245036889Y-104184145D01*
X245036889Y-104184145D02*
X245086841Y-104163963D01*
X245086841Y-104163963D02*
X245171859Y-104158666D01*
X245171859Y-104158666D02*
X245241993Y-104188436D01*
X245241993Y-104188436D02*
X245332309Y-104268158D01*
X245332309Y-104268158D02*
X245574491Y-104867580D01*
X245574491Y-104867580D02*
X245767996Y-104411711D01*
X246065696Y-103710374D02*
X245887076Y-104131176D01*
X245976386Y-103920775D02*
X245239982Y-103608190D01*
X245239982Y-103608190D02*
X245315413Y-103722979D01*
X245315413Y-103722979D02*
X245355776Y-103822883D01*
X245355776Y-103822883D02*
X245361073Y-103907901D01*
X211007454Y-91398948D02*
X210942617Y-91454197D01*
X210942617Y-91454197D02*
X210897962Y-91559397D01*
X210897962Y-91559397D02*
X210888374Y-91679483D01*
X210888374Y-91679483D02*
X210928738Y-91779387D01*
X210928738Y-91779387D02*
X210983987Y-91844223D01*
X210983987Y-91844223D02*
X211109369Y-91938830D01*
X211109369Y-91938830D02*
X211214570Y-91983485D01*
X211214570Y-91983485D02*
X211369722Y-92007958D01*
X211369722Y-92007958D02*
X211454741Y-92002661D01*
X211454741Y-92002661D02*
X211554644Y-91962298D01*
X211554644Y-91962298D02*
X211634366Y-91871982D01*
X211634366Y-91871982D02*
X211664136Y-91801849D01*
X211664136Y-91801849D02*
X211673724Y-91681763D01*
X211673724Y-91681763D02*
X211653543Y-91631811D01*
X211653543Y-91631811D02*
X211408075Y-91527616D01*
X211408075Y-91527616D02*
X211348535Y-91667884D01*
X211857641Y-91345979D02*
X211121237Y-91033395D01*
X211121237Y-91033395D02*
X211240317Y-90752860D01*
X211240317Y-90752860D02*
X211305154Y-90697611D01*
X211305154Y-90697611D02*
X211355106Y-90677429D01*
X211355106Y-90677429D02*
X211440125Y-90672132D01*
X211440125Y-90672132D02*
X211545325Y-90716787D01*
X211545325Y-90716787D02*
X211600574Y-90781624D01*
X211600574Y-90781624D02*
X211620756Y-90831576D01*
X211620756Y-90831576D02*
X211626053Y-90916595D01*
X211626053Y-90916595D02*
X211506973Y-91197129D01*
X211489071Y-90361827D02*
X211468889Y-90311876D01*
X211468889Y-90311876D02*
X211463592Y-90226857D01*
X211463592Y-90226857D02*
X211538017Y-90051523D01*
X211538017Y-90051523D02*
X211602854Y-89996274D01*
X211602854Y-89996274D02*
X211652806Y-89976092D01*
X211652806Y-89976092D02*
X211737825Y-89970795D01*
X211737825Y-89970795D02*
X211807958Y-90000565D01*
X211807958Y-90000565D02*
X211898274Y-90080287D01*
X211898274Y-90080287D02*
X212140456Y-90679709D01*
X212140456Y-90679709D02*
X212333961Y-90223840D01*
X220230827Y-115357776D02*
X220165990Y-115413025D01*
X220165990Y-115413025D02*
X220121335Y-115518225D01*
X220121335Y-115518225D02*
X220111747Y-115638311D01*
X220111747Y-115638311D02*
X220152111Y-115738215D01*
X220152111Y-115738215D02*
X220207359Y-115803051D01*
X220207359Y-115803051D02*
X220332742Y-115897658D01*
X220332742Y-115897658D02*
X220437942Y-115942313D01*
X220437942Y-115942313D02*
X220593095Y-115966786D01*
X220593095Y-115966786D02*
X220678114Y-115961490D01*
X220678114Y-115961490D02*
X220778017Y-115921126D01*
X220778017Y-115921126D02*
X220857739Y-115830810D01*
X220857739Y-115830810D02*
X220887509Y-115760677D01*
X220887509Y-115760677D02*
X220897097Y-115640591D01*
X220897097Y-115640591D02*
X220876915Y-115590639D01*
X220876915Y-115590639D02*
X220631447Y-115486444D01*
X220631447Y-115486444D02*
X220571907Y-115626712D01*
X221081014Y-115304808D02*
X220344610Y-114992223D01*
X220344610Y-114992223D02*
X220463690Y-114711688D01*
X220463690Y-114711688D02*
X220528527Y-114656439D01*
X220528527Y-114656439D02*
X220578479Y-114636257D01*
X220578479Y-114636257D02*
X220663497Y-114630960D01*
X220663497Y-114630960D02*
X220768698Y-114675615D01*
X220768698Y-114675615D02*
X220823947Y-114740452D01*
X220823947Y-114740452D02*
X220844129Y-114790404D01*
X220844129Y-114790404D02*
X220849425Y-114875423D01*
X220849425Y-114875423D02*
X220730345Y-115155958D01*
X221557334Y-114182668D02*
X221378714Y-114603470D01*
X221468024Y-114393069D02*
X220731620Y-114080484D01*
X220731620Y-114080484D02*
X220807051Y-114195273D01*
X220807051Y-114195273D02*
X220847414Y-114295177D01*
X220847414Y-114295177D02*
X220852711Y-114380196D01*
X221014435Y-113414214D02*
X221044205Y-113344080D01*
X221044205Y-113344080D02*
X221109042Y-113288832D01*
X221109042Y-113288832D02*
X221158994Y-113268650D01*
X221158994Y-113268650D02*
X221244012Y-113263353D01*
X221244012Y-113263353D02*
X221399165Y-113287826D01*
X221399165Y-113287826D02*
X221574499Y-113362251D01*
X221574499Y-113362251D02*
X221699881Y-113456858D01*
X221699881Y-113456858D02*
X221755130Y-113521695D01*
X221755130Y-113521695D02*
X221775312Y-113571647D01*
X221775312Y-113571647D02*
X221780609Y-113656665D01*
X221780609Y-113656665D02*
X221750839Y-113726799D01*
X221750839Y-113726799D02*
X221686002Y-113782048D01*
X221686002Y-113782048D02*
X221636050Y-113802230D01*
X221636050Y-113802230D02*
X221551031Y-113807526D01*
X221551031Y-113807526D02*
X221395879Y-113783053D01*
X221395879Y-113783053D02*
X221220545Y-113708628D01*
X221220545Y-113708628D02*
X221095162Y-113614021D01*
X221095162Y-113614021D02*
X221039914Y-113549185D01*
X221039914Y-113549185D02*
X221019732Y-113499233D01*
X221019732Y-113499233D02*
X221014435Y-113414214D01*
X213954676Y-98426628D02*
X213889839Y-98481877D01*
X213889839Y-98481877D02*
X213845184Y-98587077D01*
X213845184Y-98587077D02*
X213835596Y-98707163D01*
X213835596Y-98707163D02*
X213875960Y-98807067D01*
X213875960Y-98807067D02*
X213931209Y-98871903D01*
X213931209Y-98871903D02*
X214056591Y-98966510D01*
X214056591Y-98966510D02*
X214161792Y-99011165D01*
X214161792Y-99011165D02*
X214316944Y-99035638D01*
X214316944Y-99035638D02*
X214401963Y-99030341D01*
X214401963Y-99030341D02*
X214501866Y-98989978D01*
X214501866Y-98989978D02*
X214581588Y-98899662D01*
X214581588Y-98899662D02*
X214611358Y-98829529D01*
X214611358Y-98829529D02*
X214620946Y-98709443D01*
X214620946Y-98709443D02*
X214600765Y-98659491D01*
X214600765Y-98659491D02*
X214355297Y-98555296D01*
X214355297Y-98555296D02*
X214295757Y-98695564D01*
X214804863Y-98373659D02*
X214068459Y-98061075D01*
X214068459Y-98061075D02*
X214187539Y-97780540D01*
X214187539Y-97780540D02*
X214252376Y-97725291D01*
X214252376Y-97725291D02*
X214302328Y-97705109D01*
X214302328Y-97705109D02*
X214387347Y-97699812D01*
X214387347Y-97699812D02*
X214492547Y-97744467D01*
X214492547Y-97744467D02*
X214547796Y-97809304D01*
X214547796Y-97809304D02*
X214567978Y-97859256D01*
X214567978Y-97859256D02*
X214573275Y-97944275D01*
X214573275Y-97944275D02*
X214454195Y-98224809D01*
X214529894Y-96974002D02*
X214381044Y-97324671D01*
X214381044Y-97324671D02*
X214716828Y-97508587D01*
X214716828Y-97508587D02*
X214696646Y-97458636D01*
X214696646Y-97458636D02*
X214691349Y-97373617D01*
X214691349Y-97373617D02*
X214765774Y-97198283D01*
X214765774Y-97198283D02*
X214830611Y-97143034D01*
X214830611Y-97143034D02*
X214880563Y-97122852D01*
X214880563Y-97122852D02*
X214965581Y-97117555D01*
X214965581Y-97117555D02*
X215140916Y-97191980D01*
X215140916Y-97191980D02*
X215196164Y-97256817D01*
X215196164Y-97256817D02*
X215216346Y-97306769D01*
X215216346Y-97306769D02*
X215221643Y-97391788D01*
X215221643Y-97391788D02*
X215147218Y-97567122D01*
X215147218Y-97567122D02*
X215082381Y-97622371D01*
X215082381Y-97622371D02*
X215032429Y-97642552D01*
X250146747Y-119707829D02*
X250081910Y-119763078D01*
X250081910Y-119763078D02*
X250037255Y-119868278D01*
X250037255Y-119868278D02*
X250027667Y-119988364D01*
X250027667Y-119988364D02*
X250068031Y-120088268D01*
X250068031Y-120088268D02*
X250123279Y-120153104D01*
X250123279Y-120153104D02*
X250248662Y-120247711D01*
X250248662Y-120247711D02*
X250353862Y-120292366D01*
X250353862Y-120292366D02*
X250509015Y-120316839D01*
X250509015Y-120316839D02*
X250594034Y-120311543D01*
X250594034Y-120311543D02*
X250693937Y-120271179D01*
X250693937Y-120271179D02*
X250773659Y-120180863D01*
X250773659Y-120180863D02*
X250803429Y-120110730D01*
X250803429Y-120110730D02*
X250813017Y-119990644D01*
X250813017Y-119990644D02*
X250792835Y-119940692D01*
X250792835Y-119940692D02*
X250547367Y-119836497D01*
X250547367Y-119836497D02*
X250487827Y-119976765D01*
X250996934Y-119654861D02*
X250260530Y-119342276D01*
X250260530Y-119342276D02*
X250379610Y-119061741D01*
X250379610Y-119061741D02*
X250444447Y-119006492D01*
X250444447Y-119006492D02*
X250494399Y-118986310D01*
X250494399Y-118986310D02*
X250579417Y-118981013D01*
X250579417Y-118981013D02*
X250684618Y-119025668D01*
X250684618Y-119025668D02*
X250739867Y-119090505D01*
X250739867Y-119090505D02*
X250760049Y-119140457D01*
X250760049Y-119140457D02*
X250765345Y-119225476D01*
X250765345Y-119225476D02*
X250646265Y-119506011D01*
X251473254Y-118532721D02*
X251294634Y-118953523D01*
X251383944Y-118743122D02*
X250647540Y-118430537D01*
X250647540Y-118430537D02*
X250722971Y-118545326D01*
X250722971Y-118545326D02*
X250763334Y-118645230D01*
X250763334Y-118645230D02*
X250768631Y-118730249D01*
X251004780Y-117588933D02*
X250945240Y-117729200D01*
X250945240Y-117729200D02*
X250950537Y-117814219D01*
X250950537Y-117814219D02*
X250970719Y-117864171D01*
X250970719Y-117864171D02*
X251046149Y-117978959D01*
X251046149Y-117978959D02*
X251171532Y-118073566D01*
X251171532Y-118073566D02*
X251452067Y-118192646D01*
X251452067Y-118192646D02*
X251537085Y-118187349D01*
X251537085Y-118187349D02*
X251587037Y-118167168D01*
X251587037Y-118167168D02*
X251651874Y-118111919D01*
X251651874Y-118111919D02*
X251711414Y-117971651D01*
X251711414Y-117971651D02*
X251706117Y-117886633D01*
X251706117Y-117886633D02*
X251685935Y-117836681D01*
X251685935Y-117836681D02*
X251630686Y-117771844D01*
X251630686Y-117771844D02*
X251455352Y-117697419D01*
X251455352Y-117697419D02*
X251370333Y-117702716D01*
X251370333Y-117702716D02*
X251320382Y-117722898D01*
X251320382Y-117722898D02*
X251255545Y-117778146D01*
X251255545Y-117778146D02*
X251196005Y-117918414D01*
X251196005Y-117918414D02*
X251201302Y-118003433D01*
X251201302Y-118003433D02*
X251221484Y-118053384D01*
X251221484Y-118053384D02*
X251276732Y-118118221D01*
X210133788Y-89041507D02*
X210068951Y-89096755D01*
X210068951Y-89096755D02*
X210024296Y-89201956D01*
X210024296Y-89201956D02*
X210014708Y-89322041D01*
X210014708Y-89322041D02*
X210055072Y-89421945D01*
X210055072Y-89421945D02*
X210110321Y-89486782D01*
X210110321Y-89486782D02*
X210235703Y-89581389D01*
X210235703Y-89581389D02*
X210340904Y-89626044D01*
X210340904Y-89626044D02*
X210496056Y-89650517D01*
X210496056Y-89650517D02*
X210581075Y-89645220D01*
X210581075Y-89645220D02*
X210680979Y-89604856D01*
X210680979Y-89604856D02*
X210760700Y-89514541D01*
X210760700Y-89514541D02*
X210790470Y-89444407D01*
X210790470Y-89444407D02*
X210800058Y-89324322D01*
X210800058Y-89324322D02*
X210779877Y-89274370D01*
X210779877Y-89274370D02*
X210534409Y-89170175D01*
X210534409Y-89170175D02*
X210474869Y-89310442D01*
X210983975Y-88988538D02*
X210247571Y-88675953D01*
X210247571Y-88675953D02*
X211162595Y-88567736D01*
X211162595Y-88567736D02*
X210426191Y-88255151D01*
X211311445Y-88217068D02*
X210575041Y-87904483D01*
X210575041Y-87904483D02*
X210649466Y-87729148D01*
X210649466Y-87729148D02*
X210729188Y-87638833D01*
X210729188Y-87638833D02*
X210829092Y-87598469D01*
X210829092Y-87598469D02*
X210914110Y-87593172D01*
X210914110Y-87593172D02*
X211069263Y-87617645D01*
X211069263Y-87617645D02*
X211174463Y-87662300D01*
X211174463Y-87662300D02*
X211299846Y-87756907D01*
X211299846Y-87756907D02*
X211355094Y-87821744D01*
X211355094Y-87821744D02*
X211395458Y-87921648D01*
X211395458Y-87921648D02*
X211385870Y-88041733D01*
X211385870Y-88041733D02*
X211311445Y-88217068D01*
X214891292Y-100816742D02*
X214826455Y-100871990D01*
X214826455Y-100871990D02*
X214781800Y-100977191D01*
X214781800Y-100977191D02*
X214772212Y-101097276D01*
X214772212Y-101097276D02*
X214812576Y-101197180D01*
X214812576Y-101197180D02*
X214867825Y-101262017D01*
X214867825Y-101262017D02*
X214993207Y-101356624D01*
X214993207Y-101356624D02*
X215098408Y-101401279D01*
X215098408Y-101401279D02*
X215253560Y-101425752D01*
X215253560Y-101425752D02*
X215338579Y-101420455D01*
X215338579Y-101420455D02*
X215438483Y-101380091D01*
X215438483Y-101380091D02*
X215518204Y-101289776D01*
X215518204Y-101289776D02*
X215547974Y-101219642D01*
X215547974Y-101219642D02*
X215557562Y-101099557D01*
X215557562Y-101099557D02*
X215537381Y-101049605D01*
X215537381Y-101049605D02*
X215291913Y-100945410D01*
X215291913Y-100945410D02*
X215232373Y-101085677D01*
X215741479Y-100763773D02*
X215005075Y-100451188D01*
X215005075Y-100451188D02*
X215920099Y-100342971D01*
X215920099Y-100342971D02*
X215183695Y-100030386D01*
X216068949Y-99992303D02*
X215332545Y-99679718D01*
X215332545Y-99679718D02*
X215406970Y-99504383D01*
X215406970Y-99504383D02*
X215486692Y-99414068D01*
X215486692Y-99414068D02*
X215586596Y-99373704D01*
X215586596Y-99373704D02*
X215671614Y-99368407D01*
X215671614Y-99368407D02*
X215826767Y-99392880D01*
X215826767Y-99392880D02*
X215931967Y-99437535D01*
X215931967Y-99437535D02*
X216057350Y-99532142D01*
X216057350Y-99532142D02*
X216112598Y-99596979D01*
X216112598Y-99596979D02*
X216152962Y-99696883D01*
X216152962Y-99696883D02*
X216143374Y-99816968D01*
X216143374Y-99816968D02*
X216068949Y-99992303D01*
X232034084Y-75263397D02*
X232874683Y-75330514D01*
X232874683Y-75330514D02*
X232242474Y-74772461D01*
X232801532Y-74430376D02*
X232881254Y-74340060D01*
X232881254Y-74340060D02*
X232931206Y-74319878D01*
X232931206Y-74319878D02*
X233016225Y-74314581D01*
X233016225Y-74314581D02*
X233121425Y-74359236D01*
X233121425Y-74359236D02*
X233176674Y-74424073D01*
X233176674Y-74424073D02*
X233196856Y-74474025D01*
X233196856Y-74474025D02*
X233202153Y-74559044D01*
X233202153Y-74559044D02*
X233083073Y-74839579D01*
X233083073Y-74839579D02*
X232346669Y-74526994D01*
X232346669Y-74526994D02*
X232450864Y-74281526D01*
X232450864Y-74281526D02*
X232515700Y-74226277D01*
X232515700Y-74226277D02*
X232565652Y-74206095D01*
X232565652Y-74206095D02*
X232650671Y-74200798D01*
X232650671Y-74200798D02*
X232720805Y-74230568D01*
X232720805Y-74230568D02*
X232776053Y-74295405D01*
X232776053Y-74295405D02*
X232796235Y-74345357D01*
X232796235Y-74345357D02*
X232801532Y-74430376D01*
X232801532Y-74430376D02*
X232697337Y-74675844D01*
X232659254Y-73790590D02*
X233255390Y-74043635D01*
X233255390Y-74043635D02*
X233340409Y-74038338D01*
X233340409Y-74038338D02*
X233390361Y-74018156D01*
X233390361Y-74018156D02*
X233455197Y-73962907D01*
X233455197Y-73962907D02*
X233514737Y-73822640D01*
X233514737Y-73822640D02*
X233509441Y-73737621D01*
X233509441Y-73737621D02*
X233489259Y-73687669D01*
X233489259Y-73687669D02*
X233434010Y-73622832D01*
X233434010Y-73622832D02*
X232837874Y-73369788D01*
X233673175Y-73351886D02*
X233752897Y-73261570D01*
X233752897Y-73261570D02*
X233827322Y-73086236D01*
X233827322Y-73086236D02*
X233822025Y-73001218D01*
X233822025Y-73001218D02*
X233801844Y-72951266D01*
X233801844Y-72951266D02*
X233746595Y-72886429D01*
X233746595Y-72886429D02*
X233676461Y-72856659D01*
X233676461Y-72856659D02*
X233591442Y-72861956D01*
X233591442Y-72861956D02*
X233541491Y-72882138D01*
X233541491Y-72882138D02*
X233476654Y-72937386D01*
X233476654Y-72937386D02*
X233382047Y-73062769D01*
X233382047Y-73062769D02*
X233317210Y-73118017D01*
X233317210Y-73118017D02*
X233267258Y-73138199D01*
X233267258Y-73138199D02*
X233182239Y-73143496D01*
X233182239Y-73143496D02*
X233112106Y-73113726D01*
X233112106Y-73113726D02*
X233056857Y-73048889D01*
X233056857Y-73048889D02*
X233036675Y-72998937D01*
X233036675Y-72998937D02*
X233031378Y-72913919D01*
X233031378Y-72913919D02*
X233105803Y-72738584D01*
X233105803Y-72738584D02*
X233185525Y-72648269D01*
X232956301Y-77633141D02*
X233796900Y-77700258D01*
X233796900Y-77700258D02*
X233164691Y-77142205D01*
X233955338Y-77229504D02*
X234035060Y-77139189D01*
X234035060Y-77139189D02*
X234109485Y-76963855D01*
X234109485Y-76963855D02*
X234104188Y-76878836D01*
X234104188Y-76878836D02*
X234084006Y-76828884D01*
X234084006Y-76828884D02*
X234028758Y-76764047D01*
X234028758Y-76764047D02*
X233958624Y-76734277D01*
X233958624Y-76734277D02*
X233873605Y-76739574D01*
X233873605Y-76739574D02*
X233823653Y-76759756D01*
X233823653Y-76759756D02*
X233758816Y-76815005D01*
X233758816Y-76815005D02*
X233664210Y-76940387D01*
X233664210Y-76940387D02*
X233599373Y-76995636D01*
X233599373Y-76995636D02*
X233549421Y-77015818D01*
X233549421Y-77015818D02*
X233464402Y-77021114D01*
X233464402Y-77021114D02*
X233394269Y-76991344D01*
X233394269Y-76991344D02*
X233339020Y-76926508D01*
X233339020Y-76926508D02*
X233318838Y-76876556D01*
X233318838Y-76876556D02*
X233313541Y-76791537D01*
X233313541Y-76791537D02*
X233387966Y-76616203D01*
X233387966Y-76616203D02*
X233467688Y-76525887D01*
X234011861Y-76218868D02*
X234362530Y-76367718D01*
X233521931Y-76300601D02*
X234011861Y-76218868D01*
X234011861Y-76218868D02*
X233730321Y-75809665D01*
X234520968Y-75896964D02*
X234600690Y-75806649D01*
X234600690Y-75806649D02*
X234675115Y-75631314D01*
X234675115Y-75631314D02*
X234669818Y-75546296D01*
X234669818Y-75546296D02*
X234649636Y-75496344D01*
X234649636Y-75496344D02*
X234594387Y-75431507D01*
X234594387Y-75431507D02*
X234524254Y-75401737D01*
X234524254Y-75401737D02*
X234439235Y-75407034D01*
X234439235Y-75407034D02*
X234389283Y-75427216D01*
X234389283Y-75427216D02*
X234324446Y-75482464D01*
X234324446Y-75482464D02*
X234229839Y-75607847D01*
X234229839Y-75607847D02*
X234165003Y-75663095D01*
X234165003Y-75663095D02*
X234115051Y-75683277D01*
X234115051Y-75683277D02*
X234030032Y-75688574D01*
X234030032Y-75688574D02*
X233959898Y-75658804D01*
X233959898Y-75658804D02*
X233904650Y-75593967D01*
X233904650Y-75593967D02*
X233884468Y-75544015D01*
X233884468Y-75544015D02*
X233879171Y-75458997D01*
X233879171Y-75458997D02*
X233953596Y-75283662D01*
X233953596Y-75283662D02*
X234033318Y-75193347D01*
X237682087Y-88856713D02*
X237617250Y-88911962D01*
X237617250Y-88911962D02*
X237572595Y-89017162D01*
X237572595Y-89017162D02*
X237563007Y-89137248D01*
X237563007Y-89137248D02*
X237603371Y-89237152D01*
X237603371Y-89237152D02*
X237658619Y-89301988D01*
X237658619Y-89301988D02*
X237784002Y-89396595D01*
X237784002Y-89396595D02*
X237889202Y-89441250D01*
X237889202Y-89441250D02*
X238044355Y-89465723D01*
X238044355Y-89465723D02*
X238129374Y-89460427D01*
X238129374Y-89460427D02*
X238229277Y-89420063D01*
X238229277Y-89420063D02*
X238308999Y-89329747D01*
X238308999Y-89329747D02*
X238338769Y-89259614D01*
X238338769Y-89259614D02*
X238348357Y-89139528D01*
X238348357Y-89139528D02*
X238328175Y-89089576D01*
X238328175Y-89089576D02*
X238082707Y-88985381D01*
X238082707Y-88985381D02*
X238023167Y-89125649D01*
X238532274Y-88803745D02*
X237795870Y-88491160D01*
X237795870Y-88491160D02*
X237914950Y-88210625D01*
X237914950Y-88210625D02*
X237979787Y-88155376D01*
X237979787Y-88155376D02*
X238029739Y-88135194D01*
X238029739Y-88135194D02*
X238114757Y-88129897D01*
X238114757Y-88129897D02*
X238219958Y-88174552D01*
X238219958Y-88174552D02*
X238275207Y-88239389D01*
X238275207Y-88239389D02*
X238295389Y-88289341D01*
X238295389Y-88289341D02*
X238300685Y-88374360D01*
X238300685Y-88374360D02*
X238181605Y-88654895D01*
X238163704Y-87819593D02*
X238143522Y-87769641D01*
X238143522Y-87769641D02*
X238138225Y-87684622D01*
X238138225Y-87684622D02*
X238212650Y-87509288D01*
X238212650Y-87509288D02*
X238277487Y-87454039D01*
X238277487Y-87454039D02*
X238327439Y-87433857D01*
X238327439Y-87433857D02*
X238412457Y-87428560D01*
X238412457Y-87428560D02*
X238482591Y-87458330D01*
X238482591Y-87458330D02*
X238572907Y-87538052D01*
X238572907Y-87538052D02*
X238815089Y-88137474D01*
X238815089Y-88137474D02*
X239008594Y-87681605D01*
X238766412Y-87082183D02*
X238701575Y-87137432D01*
X238701575Y-87137432D02*
X238651623Y-87157613D01*
X238651623Y-87157613D02*
X238566604Y-87162910D01*
X238566604Y-87162910D02*
X238531537Y-87148025D01*
X238531537Y-87148025D02*
X238476289Y-87083188D01*
X238476289Y-87083188D02*
X238456107Y-87033237D01*
X238456107Y-87033237D02*
X238450810Y-86948218D01*
X238450810Y-86948218D02*
X238510350Y-86807951D01*
X238510350Y-86807951D02*
X238575187Y-86752702D01*
X238575187Y-86752702D02*
X238625139Y-86732520D01*
X238625139Y-86732520D02*
X238710157Y-86727223D01*
X238710157Y-86727223D02*
X238745224Y-86742108D01*
X238745224Y-86742108D02*
X238800473Y-86806945D01*
X238800473Y-86806945D02*
X238820655Y-86856897D01*
X238820655Y-86856897D02*
X238825952Y-86941915D01*
X238825952Y-86941915D02*
X238766412Y-87082183D01*
X238766412Y-87082183D02*
X238771709Y-87167202D01*
X238771709Y-87167202D02*
X238791890Y-87217153D01*
X238791890Y-87217153D02*
X238847139Y-87281990D01*
X238847139Y-87281990D02*
X238987407Y-87341530D01*
X238987407Y-87341530D02*
X239072425Y-87336233D01*
X239072425Y-87336233D02*
X239122377Y-87316052D01*
X239122377Y-87316052D02*
X239187214Y-87260803D01*
X239187214Y-87260803D02*
X239246754Y-87120535D01*
X239246754Y-87120535D02*
X239241457Y-87035517D01*
X239241457Y-87035517D02*
X239221275Y-86985565D01*
X239221275Y-86985565D02*
X239166026Y-86920728D01*
X239166026Y-86920728D02*
X239025759Y-86861188D01*
X239025759Y-86861188D02*
X238940740Y-86866485D01*
X238940740Y-86866485D02*
X238890788Y-86886667D01*
X238890788Y-86886667D02*
X238825952Y-86941915D01*
X242534741Y-100867453D02*
X242469904Y-100922702D01*
X242469904Y-100922702D02*
X242425249Y-101027902D01*
X242425249Y-101027902D02*
X242415661Y-101147988D01*
X242415661Y-101147988D02*
X242456025Y-101247892D01*
X242456025Y-101247892D02*
X242511273Y-101312728D01*
X242511273Y-101312728D02*
X242636656Y-101407335D01*
X242636656Y-101407335D02*
X242741856Y-101451990D01*
X242741856Y-101451990D02*
X242897009Y-101476463D01*
X242897009Y-101476463D02*
X242982028Y-101471167D01*
X242982028Y-101471167D02*
X243081931Y-101430803D01*
X243081931Y-101430803D02*
X243161653Y-101340487D01*
X243161653Y-101340487D02*
X243191423Y-101270354D01*
X243191423Y-101270354D02*
X243201011Y-101150268D01*
X243201011Y-101150268D02*
X243180829Y-101100316D01*
X243180829Y-101100316D02*
X242935361Y-100996121D01*
X242935361Y-100996121D02*
X242875821Y-101136389D01*
X243384928Y-100814485D02*
X242648524Y-100501900D01*
X242648524Y-100501900D02*
X242767604Y-100221365D01*
X242767604Y-100221365D02*
X242832441Y-100166116D01*
X242832441Y-100166116D02*
X242882393Y-100145934D01*
X242882393Y-100145934D02*
X242967411Y-100140637D01*
X242967411Y-100140637D02*
X243072612Y-100185292D01*
X243072612Y-100185292D02*
X243127861Y-100250129D01*
X243127861Y-100250129D02*
X243148043Y-100300081D01*
X243148043Y-100300081D02*
X243153339Y-100385100D01*
X243153339Y-100385100D02*
X243034259Y-100665635D01*
X243016358Y-99830333D02*
X242996176Y-99780381D01*
X242996176Y-99780381D02*
X242990879Y-99695362D01*
X242990879Y-99695362D02*
X243065304Y-99520028D01*
X243065304Y-99520028D02*
X243130141Y-99464779D01*
X243130141Y-99464779D02*
X243180093Y-99444597D01*
X243180093Y-99444597D02*
X243265111Y-99439300D01*
X243265111Y-99439300D02*
X243335245Y-99469070D01*
X243335245Y-99469070D02*
X243425561Y-99548792D01*
X243425561Y-99548792D02*
X243667743Y-100148214D01*
X243667743Y-100148214D02*
X243861248Y-99692345D01*
X243314058Y-99128995D02*
X243293876Y-99079043D01*
X243293876Y-99079043D02*
X243288579Y-98994025D01*
X243288579Y-98994025D02*
X243363004Y-98818691D01*
X243363004Y-98818691D02*
X243427841Y-98763442D01*
X243427841Y-98763442D02*
X243477793Y-98743260D01*
X243477793Y-98743260D02*
X243562811Y-98737963D01*
X243562811Y-98737963D02*
X243632945Y-98767733D01*
X243632945Y-98767733D02*
X243723261Y-98847455D01*
X243723261Y-98847455D02*
X243965443Y-99446877D01*
X243965443Y-99446877D02*
X244158948Y-98991008D01*
X240631740Y-96157359D02*
X240566903Y-96212608D01*
X240566903Y-96212608D02*
X240522248Y-96317808D01*
X240522248Y-96317808D02*
X240512660Y-96437894D01*
X240512660Y-96437894D02*
X240553024Y-96537798D01*
X240553024Y-96537798D02*
X240608272Y-96602634D01*
X240608272Y-96602634D02*
X240733655Y-96697241D01*
X240733655Y-96697241D02*
X240838855Y-96741896D01*
X240838855Y-96741896D02*
X240994008Y-96766369D01*
X240994008Y-96766369D02*
X241079027Y-96761073D01*
X241079027Y-96761073D02*
X241178930Y-96720709D01*
X241178930Y-96720709D02*
X241258652Y-96630393D01*
X241258652Y-96630393D02*
X241288422Y-96560260D01*
X241288422Y-96560260D02*
X241298010Y-96440174D01*
X241298010Y-96440174D02*
X241277828Y-96390222D01*
X241277828Y-96390222D02*
X241032360Y-96286027D01*
X241032360Y-96286027D02*
X240972820Y-96426295D01*
X241481927Y-96104391D02*
X240745523Y-95791806D01*
X240745523Y-95791806D02*
X240864603Y-95511271D01*
X240864603Y-95511271D02*
X240929440Y-95456022D01*
X240929440Y-95456022D02*
X240979392Y-95435840D01*
X240979392Y-95435840D02*
X241064410Y-95430543D01*
X241064410Y-95430543D02*
X241169611Y-95475198D01*
X241169611Y-95475198D02*
X241224860Y-95540035D01*
X241224860Y-95540035D02*
X241245042Y-95589987D01*
X241245042Y-95589987D02*
X241250338Y-95675006D01*
X241250338Y-95675006D02*
X241131258Y-95955541D01*
X241113357Y-95120239D02*
X241093175Y-95070287D01*
X241093175Y-95070287D02*
X241087878Y-94985268D01*
X241087878Y-94985268D02*
X241162303Y-94809934D01*
X241162303Y-94809934D02*
X241227140Y-94754685D01*
X241227140Y-94754685D02*
X241277092Y-94734503D01*
X241277092Y-94734503D02*
X241362110Y-94729206D01*
X241362110Y-94729206D02*
X241432244Y-94758976D01*
X241432244Y-94758976D02*
X241522560Y-94838698D01*
X241522560Y-94838698D02*
X241764742Y-95438120D01*
X241764742Y-95438120D02*
X241958247Y-94982251D01*
X241489773Y-94038463D02*
X241430233Y-94178730D01*
X241430233Y-94178730D02*
X241435530Y-94263749D01*
X241435530Y-94263749D02*
X241455712Y-94313701D01*
X241455712Y-94313701D02*
X241531142Y-94428489D01*
X241531142Y-94428489D02*
X241656525Y-94523096D01*
X241656525Y-94523096D02*
X241937060Y-94642176D01*
X241937060Y-94642176D02*
X242022078Y-94636879D01*
X242022078Y-94636879D02*
X242072030Y-94616698D01*
X242072030Y-94616698D02*
X242136867Y-94561449D01*
X242136867Y-94561449D02*
X242196407Y-94421181D01*
X242196407Y-94421181D02*
X242191110Y-94336163D01*
X242191110Y-94336163D02*
X242170928Y-94286211D01*
X242170928Y-94286211D02*
X242115679Y-94221374D01*
X242115679Y-94221374D02*
X241940345Y-94146949D01*
X241940345Y-94146949D02*
X241855326Y-94152246D01*
X241855326Y-94152246D02*
X241805375Y-94172428D01*
X241805375Y-94172428D02*
X241740538Y-94227676D01*
X241740538Y-94227676D02*
X241680998Y-94367944D01*
X241680998Y-94367944D02*
X241686295Y-94452963D01*
X241686295Y-94452963D02*
X241706477Y-94502914D01*
X241706477Y-94502914D02*
X241761725Y-94567751D01*
X234789043Y-82164911D02*
X234982548Y-81709042D01*
X234982548Y-81709042D02*
X235158888Y-82073590D01*
X235158888Y-82073590D02*
X235203543Y-81968389D01*
X235203543Y-81968389D02*
X235268380Y-81913140D01*
X235268380Y-81913140D02*
X235318331Y-81892959D01*
X235318331Y-81892959D02*
X235403350Y-81887662D01*
X235403350Y-81887662D02*
X235578684Y-81962087D01*
X235578684Y-81962087D02*
X235633933Y-82026924D01*
X235633933Y-82026924D02*
X235654115Y-82076875D01*
X235654115Y-82076875D02*
X235659412Y-82161894D01*
X235659412Y-82161894D02*
X235570102Y-82372295D01*
X235570102Y-82372295D02*
X235505265Y-82427544D01*
X235505265Y-82427544D02*
X235455313Y-82447726D01*
X235071858Y-81498640D02*
X235912457Y-81565757D01*
X235912457Y-81565757D02*
X235280248Y-81007705D01*
X235354673Y-80832371D02*
X235548178Y-80376501D01*
X235548178Y-80376501D02*
X235724518Y-80741049D01*
X235724518Y-80741049D02*
X235769173Y-80635849D01*
X235769173Y-80635849D02*
X235834009Y-80580600D01*
X235834009Y-80580600D02*
X235883961Y-80560418D01*
X235883961Y-80560418D02*
X235968980Y-80555121D01*
X235968980Y-80555121D02*
X236144314Y-80629546D01*
X236144314Y-80629546D02*
X236199563Y-80694383D01*
X236199563Y-80694383D02*
X236219745Y-80744335D01*
X236219745Y-80744335D02*
X236225042Y-80829354D01*
X236225042Y-80829354D02*
X236135732Y-81039755D01*
X236135732Y-81039755D02*
X236070895Y-81095004D01*
X236070895Y-81095004D02*
X236020943Y-81115185D01*
X236414255Y-80578589D02*
X236652415Y-80017519D01*
X236270971Y-79648680D02*
X236375166Y-79403212D01*
X236805557Y-79461746D02*
X236656707Y-79812415D01*
X236656707Y-79812415D02*
X235920303Y-79499830D01*
X235920303Y-79499830D02*
X236069153Y-79149161D01*
X236939522Y-79146144D02*
X236203118Y-78833559D01*
X236203118Y-78833559D02*
X237118142Y-78725342D01*
X237118142Y-78725342D02*
X236381738Y-78412757D01*
X209100708Y-86679582D02*
X209035871Y-86734831D01*
X209035871Y-86734831D02*
X208991216Y-86840031D01*
X208991216Y-86840031D02*
X208981628Y-86960117D01*
X208981628Y-86960117D02*
X209021992Y-87060021D01*
X209021992Y-87060021D02*
X209077241Y-87124857D01*
X209077241Y-87124857D02*
X209202623Y-87219464D01*
X209202623Y-87219464D02*
X209307824Y-87264119D01*
X209307824Y-87264119D02*
X209462976Y-87288592D01*
X209462976Y-87288592D02*
X209547995Y-87283295D01*
X209547995Y-87283295D02*
X209647898Y-87242932D01*
X209647898Y-87242932D02*
X209727620Y-87152616D01*
X209727620Y-87152616D02*
X209757390Y-87082483D01*
X209757390Y-87082483D02*
X209766978Y-86962397D01*
X209766978Y-86962397D02*
X209746797Y-86912445D01*
X209746797Y-86912445D02*
X209501329Y-86808250D01*
X209501329Y-86808250D02*
X209441789Y-86948518D01*
X209950895Y-86626613D02*
X209214491Y-86314029D01*
X209214491Y-86314029D02*
X209333571Y-86033494D01*
X209333571Y-86033494D02*
X209398408Y-85978245D01*
X209398408Y-85978245D02*
X209448360Y-85958063D01*
X209448360Y-85958063D02*
X209533379Y-85952766D01*
X209533379Y-85952766D02*
X209638579Y-85997421D01*
X209638579Y-85997421D02*
X209693828Y-86062258D01*
X209693828Y-86062258D02*
X209714010Y-86112210D01*
X209714010Y-86112210D02*
X209719307Y-86197229D01*
X209719307Y-86197229D02*
X209600227Y-86477763D01*
X210427215Y-85504474D02*
X210248595Y-85925276D01*
X210337905Y-85714875D02*
X209601501Y-85402290D01*
X209601501Y-85402290D02*
X209676932Y-85517079D01*
X209676932Y-85517079D02*
X209717295Y-85616983D01*
X209717295Y-85616983D02*
X209722592Y-85702001D01*
X223085329Y-122422917D02*
X223020492Y-122478166D01*
X223020492Y-122478166D02*
X222975837Y-122583366D01*
X222975837Y-122583366D02*
X222966249Y-122703452D01*
X222966249Y-122703452D02*
X223006613Y-122803356D01*
X223006613Y-122803356D02*
X223061861Y-122868192D01*
X223061861Y-122868192D02*
X223187244Y-122962799D01*
X223187244Y-122962799D02*
X223292444Y-123007454D01*
X223292444Y-123007454D02*
X223447597Y-123031927D01*
X223447597Y-123031927D02*
X223532616Y-123026631D01*
X223532616Y-123026631D02*
X223632519Y-122986267D01*
X223632519Y-122986267D02*
X223712241Y-122895951D01*
X223712241Y-122895951D02*
X223742011Y-122825818D01*
X223742011Y-122825818D02*
X223751599Y-122705732D01*
X223751599Y-122705732D02*
X223731417Y-122655780D01*
X223731417Y-122655780D02*
X223485949Y-122551585D01*
X223485949Y-122551585D02*
X223426409Y-122691853D01*
X223935516Y-122369949D02*
X223199112Y-122057364D01*
X223199112Y-122057364D02*
X223318192Y-121776829D01*
X223318192Y-121776829D02*
X223383029Y-121721580D01*
X223383029Y-121721580D02*
X223432981Y-121701398D01*
X223432981Y-121701398D02*
X223517999Y-121696101D01*
X223517999Y-121696101D02*
X223623200Y-121740756D01*
X223623200Y-121740756D02*
X223678449Y-121805593D01*
X223678449Y-121805593D02*
X223698631Y-121855545D01*
X223698631Y-121855545D02*
X223703927Y-121940564D01*
X223703927Y-121940564D02*
X223584847Y-122221099D01*
X224411836Y-121247809D02*
X224233216Y-121668611D01*
X224322526Y-121458210D02*
X223586122Y-121145625D01*
X223586122Y-121145625D02*
X223661553Y-121260414D01*
X223661553Y-121260414D02*
X223701916Y-121360318D01*
X223701916Y-121360318D02*
X223707213Y-121445337D01*
X223779627Y-120689756D02*
X223973132Y-120233887D01*
X223973132Y-120233887D02*
X224149472Y-120598435D01*
X224149472Y-120598435D02*
X224194127Y-120493234D01*
X224194127Y-120493234D02*
X224258964Y-120437986D01*
X224258964Y-120437986D02*
X224308915Y-120417804D01*
X224308915Y-120417804D02*
X224393934Y-120412507D01*
X224393934Y-120412507D02*
X224569268Y-120486932D01*
X224569268Y-120486932D02*
X224624517Y-120551769D01*
X224624517Y-120551769D02*
X224644699Y-120601721D01*
X224644699Y-120601721D02*
X224649996Y-120686739D01*
X224649996Y-120686739D02*
X224560686Y-120897141D01*
X224560686Y-120897141D02*
X224495849Y-120952389D01*
X224495849Y-120952389D02*
X224445897Y-120972571D01*
X232717430Y-128910393D02*
X232837665Y-128902902D01*
X232837665Y-128902902D02*
X233014272Y-128831549D01*
X233014272Y-128831549D02*
X233070643Y-128767686D01*
X233070643Y-128767686D02*
X233091694Y-128718094D01*
X233091694Y-128718094D02*
X233098474Y-128633181D01*
X233098474Y-128633181D02*
X233069932Y-128562538D01*
X233069932Y-128562538D02*
X233006070Y-128506166D01*
X233006070Y-128506166D02*
X232956478Y-128485116D01*
X232956478Y-128485116D02*
X232871564Y-128478336D01*
X232871564Y-128478336D02*
X232716008Y-128500097D01*
X232716008Y-128500097D02*
X232631095Y-128493318D01*
X232631095Y-128493318D02*
X232581503Y-128472267D01*
X232581503Y-128472267D02*
X232517640Y-128415895D01*
X232517640Y-128415895D02*
X232489099Y-128345253D01*
X232489099Y-128345253D02*
X232495879Y-128260339D01*
X232495879Y-128260339D02*
X232516929Y-128210747D01*
X232516929Y-128210747D02*
X232573301Y-128146884D01*
X232573301Y-128146884D02*
X232749908Y-128075531D01*
X232749908Y-128075531D02*
X232870142Y-128068040D01*
X233103121Y-127932823D02*
X233579412Y-128603217D01*
X233579412Y-128603217D02*
X233506637Y-128016315D01*
X233506637Y-128016315D02*
X233861983Y-128489051D01*
X233861983Y-128489051D02*
X233738904Y-127675950D01*
X234716474Y-128061640D02*
X234695423Y-128111232D01*
X234695423Y-128111232D02*
X234603730Y-128189366D01*
X234603730Y-128189366D02*
X234533087Y-128217907D01*
X234533087Y-128217907D02*
X234412853Y-128225398D01*
X234412853Y-128225398D02*
X234313669Y-128183297D01*
X234313669Y-128183297D02*
X234249806Y-128126925D01*
X234249806Y-128126925D02*
X234157402Y-127999911D01*
X234157402Y-127999911D02*
X234114590Y-127893947D01*
X234114590Y-127893947D02*
X234092828Y-127738391D01*
X234092828Y-127738391D02*
X234099608Y-127653478D01*
X234099608Y-127653478D02*
X234141709Y-127554294D01*
X234141709Y-127554294D02*
X234233402Y-127476160D01*
X234233402Y-127476160D02*
X234304045Y-127447619D01*
X234304045Y-127447619D02*
X234424279Y-127440128D01*
X234424279Y-127440128D02*
X234473871Y-127461178D01*
X235416120Y-127861139D02*
X235062907Y-128003846D01*
X235062907Y-128003846D02*
X234763222Y-127262099D01*
X235663369Y-127761244D02*
X235363683Y-127019497D01*
X236087224Y-127589995D02*
X235598084Y-127294576D01*
X235787539Y-126848248D02*
X235534932Y-127443352D01*
X249195246Y-117352782D02*
X249130409Y-117408031D01*
X249130409Y-117408031D02*
X249085754Y-117513231D01*
X249085754Y-117513231D02*
X249076166Y-117633317D01*
X249076166Y-117633317D02*
X249116530Y-117733221D01*
X249116530Y-117733221D02*
X249171778Y-117798057D01*
X249171778Y-117798057D02*
X249297161Y-117892664D01*
X249297161Y-117892664D02*
X249402361Y-117937319D01*
X249402361Y-117937319D02*
X249557514Y-117961792D01*
X249557514Y-117961792D02*
X249642533Y-117956496D01*
X249642533Y-117956496D02*
X249742436Y-117916132D01*
X249742436Y-117916132D02*
X249822158Y-117825816D01*
X249822158Y-117825816D02*
X249851928Y-117755683D01*
X249851928Y-117755683D02*
X249861516Y-117635597D01*
X249861516Y-117635597D02*
X249841334Y-117585645D01*
X249841334Y-117585645D02*
X249595866Y-117481450D01*
X249595866Y-117481450D02*
X249536326Y-117621718D01*
X250045433Y-117299814D02*
X249309029Y-116987229D01*
X249309029Y-116987229D02*
X249428109Y-116706694D01*
X249428109Y-116706694D02*
X249492946Y-116651445D01*
X249492946Y-116651445D02*
X249542898Y-116631263D01*
X249542898Y-116631263D02*
X249627916Y-116625966D01*
X249627916Y-116625966D02*
X249733117Y-116670621D01*
X249733117Y-116670621D02*
X249788366Y-116735458D01*
X249788366Y-116735458D02*
X249808548Y-116785410D01*
X249808548Y-116785410D02*
X249813844Y-116870429D01*
X249813844Y-116870429D02*
X249694764Y-117150964D01*
X250521753Y-116177674D02*
X250343133Y-116598476D01*
X250432443Y-116388075D02*
X249696039Y-116075490D01*
X249696039Y-116075490D02*
X249771470Y-116190279D01*
X249771470Y-116190279D02*
X249811833Y-116290183D01*
X249811833Y-116290183D02*
X249817130Y-116375202D01*
X249889544Y-115619621D02*
X250097934Y-115128685D01*
X250097934Y-115128685D02*
X250700373Y-115756872D01*
X212051675Y-93716534D02*
X211986838Y-93771783D01*
X211986838Y-93771783D02*
X211942183Y-93876983D01*
X211942183Y-93876983D02*
X211932595Y-93997069D01*
X211932595Y-93997069D02*
X211972959Y-94096973D01*
X211972959Y-94096973D02*
X212028208Y-94161809D01*
X212028208Y-94161809D02*
X212153590Y-94256416D01*
X212153590Y-94256416D02*
X212258791Y-94301071D01*
X212258791Y-94301071D02*
X212413943Y-94325544D01*
X212413943Y-94325544D02*
X212498962Y-94320247D01*
X212498962Y-94320247D02*
X212598865Y-94279884D01*
X212598865Y-94279884D02*
X212678587Y-94189568D01*
X212678587Y-94189568D02*
X212708357Y-94119435D01*
X212708357Y-94119435D02*
X212717945Y-93999349D01*
X212717945Y-93999349D02*
X212697764Y-93949397D01*
X212697764Y-93949397D02*
X212452296Y-93845202D01*
X212452296Y-93845202D02*
X212392756Y-93985470D01*
X212901862Y-93663565D02*
X212165458Y-93350981D01*
X212165458Y-93350981D02*
X212284538Y-93070446D01*
X212284538Y-93070446D02*
X212349375Y-93015197D01*
X212349375Y-93015197D02*
X212399327Y-92995015D01*
X212399327Y-92995015D02*
X212484346Y-92989718D01*
X212484346Y-92989718D02*
X212589546Y-93034373D01*
X212589546Y-93034373D02*
X212644795Y-93099210D01*
X212644795Y-93099210D02*
X212664977Y-93149162D01*
X212664977Y-93149162D02*
X212670274Y-93234181D01*
X212670274Y-93234181D02*
X212551194Y-93514715D01*
X212448273Y-92684710D02*
X212641778Y-92228841D01*
X212641778Y-92228841D02*
X212818118Y-92593389D01*
X212818118Y-92593389D02*
X212862773Y-92488189D01*
X212862773Y-92488189D02*
X212927610Y-92432940D01*
X212927610Y-92432940D02*
X212977562Y-92412758D01*
X212977562Y-92412758D02*
X213062580Y-92407461D01*
X213062580Y-92407461D02*
X213237915Y-92481886D01*
X213237915Y-92481886D02*
X213293163Y-92546723D01*
X213293163Y-92546723D02*
X213313345Y-92596675D01*
X213313345Y-92596675D02*
X213318642Y-92681694D01*
X213318642Y-92681694D02*
X213229332Y-92892095D01*
X213229332Y-92892095D02*
X213164495Y-92947343D01*
X213164495Y-92947343D02*
X213114543Y-92967525D01*
X217760679Y-107846816D02*
X217695842Y-107902065D01*
X217695842Y-107902065D02*
X217651187Y-108007265D01*
X217651187Y-108007265D02*
X217641599Y-108127351D01*
X217641599Y-108127351D02*
X217681963Y-108227255D01*
X217681963Y-108227255D02*
X217737212Y-108292091D01*
X217737212Y-108292091D02*
X217862594Y-108386698D01*
X217862594Y-108386698D02*
X217967795Y-108431353D01*
X217967795Y-108431353D02*
X218122947Y-108455826D01*
X218122947Y-108455826D02*
X218207966Y-108450529D01*
X218207966Y-108450529D02*
X218307869Y-108410166D01*
X218307869Y-108410166D02*
X218387591Y-108319850D01*
X218387591Y-108319850D02*
X218417361Y-108249717D01*
X218417361Y-108249717D02*
X218426949Y-108129631D01*
X218426949Y-108129631D02*
X218406768Y-108079679D01*
X218406768Y-108079679D02*
X218161300Y-107975484D01*
X218161300Y-107975484D02*
X218101760Y-108115752D01*
X218610866Y-107793847D02*
X217874462Y-107481263D01*
X217874462Y-107481263D02*
X217993542Y-107200728D01*
X217993542Y-107200728D02*
X218058379Y-107145479D01*
X218058379Y-107145479D02*
X218108331Y-107125297D01*
X218108331Y-107125297D02*
X218193350Y-107120000D01*
X218193350Y-107120000D02*
X218298550Y-107164655D01*
X218298550Y-107164655D02*
X218353799Y-107229492D01*
X218353799Y-107229492D02*
X218373981Y-107279444D01*
X218373981Y-107279444D02*
X218379278Y-107364463D01*
X218379278Y-107364463D02*
X218260198Y-107644997D01*
X218547304Y-106773623D02*
X218482467Y-106828872D01*
X218482467Y-106828872D02*
X218432515Y-106849054D01*
X218432515Y-106849054D02*
X218347496Y-106854350D01*
X218347496Y-106854350D02*
X218312430Y-106839465D01*
X218312430Y-106839465D02*
X218257181Y-106774629D01*
X218257181Y-106774629D02*
X218236999Y-106724677D01*
X218236999Y-106724677D02*
X218231702Y-106639658D01*
X218231702Y-106639658D02*
X218291242Y-106499391D01*
X218291242Y-106499391D02*
X218356079Y-106444142D01*
X218356079Y-106444142D02*
X218406031Y-106423960D01*
X218406031Y-106423960D02*
X218491050Y-106418663D01*
X218491050Y-106418663D02*
X218526116Y-106433548D01*
X218526116Y-106433548D02*
X218581365Y-106498385D01*
X218581365Y-106498385D02*
X218601547Y-106548337D01*
X218601547Y-106548337D02*
X218606844Y-106633356D01*
X218606844Y-106633356D02*
X218547304Y-106773623D01*
X218547304Y-106773623D02*
X218552601Y-106858642D01*
X218552601Y-106858642D02*
X218572783Y-106908594D01*
X218572783Y-106908594D02*
X218628031Y-106973430D01*
X218628031Y-106973430D02*
X218768299Y-107032970D01*
X218768299Y-107032970D02*
X218853317Y-107027674D01*
X218853317Y-107027674D02*
X218903269Y-107007492D01*
X218903269Y-107007492D02*
X218968106Y-106952243D01*
X218968106Y-106952243D02*
X219027646Y-106811976D01*
X219027646Y-106811976D02*
X219022349Y-106726957D01*
X219022349Y-106726957D02*
X219002167Y-106677005D01*
X219002167Y-106677005D02*
X218946919Y-106612168D01*
X218946919Y-106612168D02*
X218806651Y-106552628D01*
X218806651Y-106552628D02*
X218721633Y-106557925D01*
X218721633Y-106557925D02*
X218671681Y-106578107D01*
X218671681Y-106578107D02*
X218606844Y-106633356D01*
X208245672Y-84296346D02*
X208180835Y-84351595D01*
X208180835Y-84351595D02*
X208136180Y-84456795D01*
X208136180Y-84456795D02*
X208126592Y-84576881D01*
X208126592Y-84576881D02*
X208166956Y-84676785D01*
X208166956Y-84676785D02*
X208222205Y-84741621D01*
X208222205Y-84741621D02*
X208347587Y-84836228D01*
X208347587Y-84836228D02*
X208452788Y-84880883D01*
X208452788Y-84880883D02*
X208607940Y-84905356D01*
X208607940Y-84905356D02*
X208692959Y-84900059D01*
X208692959Y-84900059D02*
X208792862Y-84859696D01*
X208792862Y-84859696D02*
X208872584Y-84769380D01*
X208872584Y-84769380D02*
X208902354Y-84699247D01*
X208902354Y-84699247D02*
X208911942Y-84579161D01*
X208911942Y-84579161D02*
X208891761Y-84529209D01*
X208891761Y-84529209D02*
X208646293Y-84425014D01*
X208646293Y-84425014D02*
X208586753Y-84565282D01*
X209095859Y-84243377D02*
X208359455Y-83930793D01*
X208359455Y-83930793D02*
X208478535Y-83650258D01*
X208478535Y-83650258D02*
X208543372Y-83595009D01*
X208543372Y-83595009D02*
X208593324Y-83574827D01*
X208593324Y-83574827D02*
X208678343Y-83569530D01*
X208678343Y-83569530D02*
X208783543Y-83614185D01*
X208783543Y-83614185D02*
X208838792Y-83679022D01*
X208838792Y-83679022D02*
X208858974Y-83728974D01*
X208858974Y-83728974D02*
X208864271Y-83813993D01*
X208864271Y-83813993D02*
X208745191Y-84094527D01*
X208731580Y-83054121D02*
X208761350Y-82983988D01*
X208761350Y-82983988D02*
X208826187Y-82928739D01*
X208826187Y-82928739D02*
X208876139Y-82908557D01*
X208876139Y-82908557D02*
X208961158Y-82903260D01*
X208961158Y-82903260D02*
X209116310Y-82927733D01*
X209116310Y-82927733D02*
X209291644Y-83002158D01*
X209291644Y-83002158D02*
X209417027Y-83096765D01*
X209417027Y-83096765D02*
X209472275Y-83161602D01*
X209472275Y-83161602D02*
X209492457Y-83211554D01*
X209492457Y-83211554D02*
X209497754Y-83296572D01*
X209497754Y-83296572D02*
X209467984Y-83366706D01*
X209467984Y-83366706D02*
X209403147Y-83421955D01*
X209403147Y-83421955D02*
X209353195Y-83442137D01*
X209353195Y-83442137D02*
X209268177Y-83447434D01*
X209268177Y-83447434D02*
X209113024Y-83422960D01*
X209113024Y-83422960D02*
X208937690Y-83348535D01*
X208937690Y-83348535D02*
X208812308Y-83253929D01*
X208812308Y-83253929D02*
X208757059Y-83189092D01*
X208757059Y-83189092D02*
X208736877Y-83139140D01*
X208736877Y-83139140D02*
X208731580Y-83054121D01*
X243300572Y-124634526D02*
X243420806Y-124627035D01*
X243420806Y-124627035D02*
X243597413Y-124555681D01*
X243597413Y-124555681D02*
X243653785Y-124491819D01*
X243653785Y-124491819D02*
X243674835Y-124442227D01*
X243674835Y-124442227D02*
X243681615Y-124357313D01*
X243681615Y-124357313D02*
X243653073Y-124286671D01*
X243653073Y-124286671D02*
X243589211Y-124230299D01*
X243589211Y-124230299D02*
X243539619Y-124209248D01*
X243539619Y-124209248D02*
X243454705Y-124202468D01*
X243454705Y-124202468D02*
X243299149Y-124224230D01*
X243299149Y-124224230D02*
X243214236Y-124217450D01*
X243214236Y-124217450D02*
X243164644Y-124196400D01*
X243164644Y-124196400D02*
X243100781Y-124140028D01*
X243100781Y-124140028D02*
X243072240Y-124069385D01*
X243072240Y-124069385D02*
X243079020Y-123984472D01*
X243079020Y-123984472D02*
X243100070Y-123934880D01*
X243100070Y-123934880D02*
X243156442Y-123871017D01*
X243156442Y-123871017D02*
X243333049Y-123799664D01*
X243333049Y-123799664D02*
X243453283Y-123792173D01*
X243686262Y-123656956D02*
X244162554Y-124327350D01*
X244162554Y-124327350D02*
X244089778Y-123740447D01*
X244089778Y-123740447D02*
X244445124Y-124213184D01*
X244445124Y-124213184D02*
X244322045Y-123400083D01*
X244904301Y-124027664D02*
X244604616Y-123285917D01*
X244604616Y-123285917D02*
X244781222Y-123214563D01*
X244781222Y-123214563D02*
X244901457Y-123207073D01*
X244901457Y-123207073D02*
X245000641Y-123249174D01*
X245000641Y-123249174D02*
X245064503Y-123305546D01*
X245064503Y-123305546D02*
X245156908Y-123432560D01*
X245156908Y-123432560D02*
X245199720Y-123538524D01*
X245199720Y-123538524D02*
X245221481Y-123694080D01*
X245221481Y-123694080D02*
X245214702Y-123778993D01*
X245214702Y-123778993D02*
X245172600Y-123878177D01*
X245172600Y-123878177D02*
X245080907Y-123956311D01*
X245080907Y-123956311D02*
X244904301Y-124027664D01*
X245646048Y-123727979D02*
X245346363Y-122986232D01*
X245840860Y-122786442D02*
X245982146Y-122729359D01*
X245982146Y-122729359D02*
X246067059Y-122736139D01*
X246067059Y-122736139D02*
X246166243Y-122778240D01*
X246166243Y-122778240D02*
X246258647Y-122905254D01*
X246258647Y-122905254D02*
X246358542Y-123152503D01*
X246358542Y-123152503D02*
X246380304Y-123308059D01*
X246380304Y-123308059D02*
X246338203Y-123407243D01*
X246338203Y-123407243D02*
X246281831Y-123471106D01*
X246281831Y-123471106D02*
X246140546Y-123528189D01*
X246140546Y-123528189D02*
X246055632Y-123521409D01*
X246055632Y-123521409D02*
X245956448Y-123479308D01*
X245956448Y-123479308D02*
X245864044Y-123352294D01*
X245864044Y-123352294D02*
X245764149Y-123105044D01*
X245764149Y-123105044D02*
X245742387Y-122949489D01*
X245742387Y-122949489D02*
X245784489Y-122850305D01*
X245784489Y-122850305D02*
X245840860Y-122786442D01*
X243384702Y-103002048D02*
X243319865Y-103057296D01*
X243319865Y-103057296D02*
X243275210Y-103162497D01*
X243275210Y-103162497D02*
X243265622Y-103282582D01*
X243265622Y-103282582D02*
X243305986Y-103382486D01*
X243305986Y-103382486D02*
X243361235Y-103447323D01*
X243361235Y-103447323D02*
X243486617Y-103541930D01*
X243486617Y-103541930D02*
X243591818Y-103586585D01*
X243591818Y-103586585D02*
X243746970Y-103611058D01*
X243746970Y-103611058D02*
X243831989Y-103605761D01*
X243831989Y-103605761D02*
X243931893Y-103565397D01*
X243931893Y-103565397D02*
X244011614Y-103475082D01*
X244011614Y-103475082D02*
X244041384Y-103404948D01*
X244041384Y-103404948D02*
X244050972Y-103284863D01*
X244050972Y-103284863D02*
X244030791Y-103234911D01*
X244030791Y-103234911D02*
X243785323Y-103130716D01*
X243785323Y-103130716D02*
X243725783Y-103270983D01*
X244234889Y-102949079D02*
X243498485Y-102636494D01*
X243498485Y-102636494D02*
X244413509Y-102528277D01*
X244413509Y-102528277D02*
X243677105Y-102215692D01*
X244562359Y-102177609D02*
X243825955Y-101865024D01*
X243825955Y-101865024D02*
X243900380Y-101689689D01*
X243900380Y-101689689D02*
X243980102Y-101599374D01*
X243980102Y-101599374D02*
X244080006Y-101559010D01*
X244080006Y-101559010D02*
X244165024Y-101553713D01*
X244165024Y-101553713D02*
X244320177Y-101578186D01*
X244320177Y-101578186D02*
X244425377Y-101622841D01*
X244425377Y-101622841D02*
X244550760Y-101717448D01*
X244550760Y-101717448D02*
X244606008Y-101782285D01*
X244606008Y-101782285D02*
X244646372Y-101882189D01*
X244646372Y-101882189D02*
X244636784Y-102002274D01*
X244636784Y-102002274D02*
X244562359Y-102177609D01*
X245389243Y-107932594D02*
X245324406Y-107987843D01*
X245324406Y-107987843D02*
X245279751Y-108093043D01*
X245279751Y-108093043D02*
X245270163Y-108213129D01*
X245270163Y-108213129D02*
X245310527Y-108313033D01*
X245310527Y-108313033D02*
X245365775Y-108377869D01*
X245365775Y-108377869D02*
X245491158Y-108472476D01*
X245491158Y-108472476D02*
X245596358Y-108517131D01*
X245596358Y-108517131D02*
X245751511Y-108541604D01*
X245751511Y-108541604D02*
X245836530Y-108536308D01*
X245836530Y-108536308D02*
X245936433Y-108495944D01*
X245936433Y-108495944D02*
X246016155Y-108405628D01*
X246016155Y-108405628D02*
X246045925Y-108335495D01*
X246045925Y-108335495D02*
X246055513Y-108215409D01*
X246055513Y-108215409D02*
X246035331Y-108165457D01*
X246035331Y-108165457D02*
X245789863Y-108061262D01*
X245789863Y-108061262D02*
X245730323Y-108201530D01*
X246239430Y-107879626D02*
X245503026Y-107567041D01*
X245503026Y-107567041D02*
X245622106Y-107286506D01*
X245622106Y-107286506D02*
X245686943Y-107231257D01*
X245686943Y-107231257D02*
X245736895Y-107211075D01*
X245736895Y-107211075D02*
X245821913Y-107205778D01*
X245821913Y-107205778D02*
X245927114Y-107250433D01*
X245927114Y-107250433D02*
X245982363Y-107315270D01*
X245982363Y-107315270D02*
X246002545Y-107365222D01*
X246002545Y-107365222D02*
X246007841Y-107450241D01*
X246007841Y-107450241D02*
X245888761Y-107730776D01*
X245870860Y-106895474D02*
X245850678Y-106845522D01*
X245850678Y-106845522D02*
X245845381Y-106760503D01*
X245845381Y-106760503D02*
X245919806Y-106585169D01*
X245919806Y-106585169D02*
X245984643Y-106529920D01*
X245984643Y-106529920D02*
X246034595Y-106509738D01*
X246034595Y-106509738D02*
X246119613Y-106504441D01*
X246119613Y-106504441D02*
X246189747Y-106534211D01*
X246189747Y-106534211D02*
X246280063Y-106613933D01*
X246280063Y-106613933D02*
X246522245Y-107213355D01*
X246522245Y-107213355D02*
X246715750Y-106757486D01*
X246172851Y-105989032D02*
X246202621Y-105918898D01*
X246202621Y-105918898D02*
X246267458Y-105863650D01*
X246267458Y-105863650D02*
X246317410Y-105843468D01*
X246317410Y-105843468D02*
X246402428Y-105838171D01*
X246402428Y-105838171D02*
X246557581Y-105862644D01*
X246557581Y-105862644D02*
X246732915Y-105937069D01*
X246732915Y-105937069D02*
X246858297Y-106031676D01*
X246858297Y-106031676D02*
X246913546Y-106096513D01*
X246913546Y-106096513D02*
X246933728Y-106146465D01*
X246933728Y-106146465D02*
X246939025Y-106231483D01*
X246939025Y-106231483D02*
X246909255Y-106301617D01*
X246909255Y-106301617D02*
X246844418Y-106356866D01*
X246844418Y-106356866D02*
X246794466Y-106377048D01*
X246794466Y-106377048D02*
X246709447Y-106382344D01*
X246709447Y-106382344D02*
X246554295Y-106357871D01*
X246554295Y-106357871D02*
X246378961Y-106283446D01*
X246378961Y-106283446D02*
X246253578Y-106188839D01*
X246253578Y-106188839D02*
X246198330Y-106124003D01*
X246198330Y-106124003D02*
X246178148Y-106074051D01*
X246178148Y-106074051D02*
X246172851Y-105989032D01*
X242375917Y-98497200D02*
X241921053Y-98593818D01*
X242197297Y-98918002D02*
X241460893Y-98605417D01*
X241460893Y-98605417D02*
X241579973Y-98324882D01*
X241579973Y-98324882D02*
X241644810Y-98269633D01*
X241644810Y-98269633D02*
X241694762Y-98249451D01*
X241694762Y-98249451D02*
X241779780Y-98244155D01*
X241779780Y-98244155D02*
X241884981Y-98288810D01*
X241884981Y-98288810D02*
X241940229Y-98353646D01*
X241940229Y-98353646D02*
X241960411Y-98403598D01*
X241960411Y-98403598D02*
X241965708Y-98488617D01*
X241965708Y-98488617D02*
X241846628Y-98769152D01*
X241773478Y-97869013D02*
X242369614Y-98122058D01*
X242369614Y-98122058D02*
X242454633Y-98116761D01*
X242454633Y-98116761D02*
X242504585Y-98096579D01*
X242504585Y-98096579D02*
X242569422Y-98041330D01*
X242569422Y-98041330D02*
X242628962Y-97901063D01*
X242628962Y-97901063D02*
X242623665Y-97816044D01*
X242623665Y-97816044D02*
X242603483Y-97766092D01*
X242603483Y-97766092D02*
X242548234Y-97701256D01*
X242548234Y-97701256D02*
X241952098Y-97448211D01*
X242837351Y-97410127D02*
X242100948Y-97097542D01*
X242100948Y-97097542D02*
X243015971Y-96989325D01*
X243015971Y-96989325D02*
X242279568Y-96676740D01*
X237093365Y-87247239D02*
X237242215Y-86896570D01*
X237273996Y-87406682D02*
X236641787Y-86848630D01*
X236641787Y-86848630D02*
X237482386Y-86915747D01*
X237586581Y-86670279D02*
X236850177Y-86357694D01*
X236850177Y-86357694D02*
X236924602Y-86182360D01*
X236924602Y-86182360D02*
X237004324Y-86092044D01*
X237004324Y-86092044D02*
X237104228Y-86051680D01*
X237104228Y-86051680D02*
X237189247Y-86046384D01*
X237189247Y-86046384D02*
X237344399Y-86070857D01*
X237344399Y-86070857D02*
X237449599Y-86115512D01*
X237449599Y-86115512D02*
X237574982Y-86210118D01*
X237574982Y-86210118D02*
X237630231Y-86274955D01*
X237630231Y-86274955D02*
X237670594Y-86374859D01*
X237670594Y-86374859D02*
X237661006Y-86494945D01*
X237661006Y-86494945D02*
X237586581Y-86670279D01*
X238007652Y-85483303D02*
X238027834Y-85533255D01*
X238027834Y-85533255D02*
X238018246Y-85653340D01*
X238018246Y-85653340D02*
X237988476Y-85723474D01*
X237988476Y-85723474D02*
X237908754Y-85813789D01*
X237908754Y-85813789D02*
X237808851Y-85854153D01*
X237808851Y-85854153D02*
X237723832Y-85859450D01*
X237723832Y-85859450D02*
X237568679Y-85834977D01*
X237568679Y-85834977D02*
X237463479Y-85790322D01*
X237463479Y-85790322D02*
X237338096Y-85695715D01*
X237338096Y-85695715D02*
X237282848Y-85630878D01*
X237282848Y-85630878D02*
X237242484Y-85530974D01*
X237242484Y-85530974D02*
X237252072Y-85410889D01*
X237252072Y-85410889D02*
X237281842Y-85340755D01*
X237281842Y-85340755D02*
X237361564Y-85250440D01*
X237361564Y-85250440D02*
X237411516Y-85230258D01*
X238207460Y-85402575D02*
X238445620Y-84841506D01*
X237668852Y-84429017D02*
X238509451Y-84496134D01*
X238509451Y-84496134D02*
X237877242Y-83938081D01*
X238896461Y-83584396D02*
X238441597Y-83681014D01*
X238717841Y-84005198D02*
X237981437Y-83692613D01*
X237981437Y-83692613D02*
X238100517Y-83412078D01*
X238100517Y-83412078D02*
X238165354Y-83356830D01*
X238165354Y-83356830D02*
X238215306Y-83336648D01*
X238215306Y-83336648D02*
X238300324Y-83331351D01*
X238300324Y-83331351D02*
X238405525Y-83376006D01*
X238405525Y-83376006D02*
X238460774Y-83440843D01*
X238460774Y-83440843D02*
X238480955Y-83490795D01*
X238480955Y-83490795D02*
X238486252Y-83575813D01*
X238486252Y-83575813D02*
X238367172Y-83856348D01*
X238644690Y-83105059D02*
X238748885Y-82859591D01*
X239179276Y-82918126D02*
X239030426Y-83268794D01*
X239030426Y-83268794D02*
X238294022Y-82956209D01*
X238294022Y-82956209D02*
X238442872Y-82605541D01*
X239031700Y-82193321D02*
X238927505Y-82438789D01*
X239313241Y-82602524D02*
X238576837Y-82289939D01*
X238576837Y-82289939D02*
X238725687Y-81939270D01*
X233869695Y-79451578D02*
X233804858Y-79506826D01*
X233804858Y-79506826D02*
X233760203Y-79612027D01*
X233760203Y-79612027D02*
X233750615Y-79732112D01*
X233750615Y-79732112D02*
X233790979Y-79832016D01*
X233790979Y-79832016D02*
X233846228Y-79896853D01*
X233846228Y-79896853D02*
X233971610Y-79991460D01*
X233971610Y-79991460D02*
X234076811Y-80036115D01*
X234076811Y-80036115D02*
X234231963Y-80060588D01*
X234231963Y-80060588D02*
X234316982Y-80055291D01*
X234316982Y-80055291D02*
X234416886Y-80014927D01*
X234416886Y-80014927D02*
X234496607Y-79924612D01*
X234496607Y-79924612D02*
X234526377Y-79854478D01*
X234526377Y-79854478D02*
X234535965Y-79734393D01*
X234535965Y-79734393D02*
X234515784Y-79684441D01*
X234515784Y-79684441D02*
X234270316Y-79580246D01*
X234270316Y-79580246D02*
X234210776Y-79720513D01*
X234719882Y-79398609D02*
X233983478Y-79086024D01*
X233983478Y-79086024D02*
X234898502Y-78977807D01*
X234898502Y-78977807D02*
X234162098Y-78665222D01*
X235047352Y-78627139D02*
X234310948Y-78314554D01*
X234310948Y-78314554D02*
X234385373Y-78139219D01*
X234385373Y-78139219D02*
X234465095Y-78048904D01*
X234465095Y-78048904D02*
X234564999Y-78008540D01*
X234564999Y-78008540D02*
X234650017Y-78003243D01*
X234650017Y-78003243D02*
X234805170Y-78027716D01*
X234805170Y-78027716D02*
X234910370Y-78072371D01*
X234910370Y-78072371D02*
X235035753Y-78166978D01*
X235035753Y-78166978D02*
X235091001Y-78231815D01*
X235091001Y-78231815D02*
X235131365Y-78331719D01*
X235131365Y-78331719D02*
X235121777Y-78451804D01*
X235121777Y-78451804D02*
X235047352Y-78627139D01*
X221046958Y-117767515D02*
X220982121Y-117822764D01*
X220982121Y-117822764D02*
X220937466Y-117927964D01*
X220937466Y-117927964D02*
X220927878Y-118048050D01*
X220927878Y-118048050D02*
X220968242Y-118147954D01*
X220968242Y-118147954D02*
X221023490Y-118212790D01*
X221023490Y-118212790D02*
X221148873Y-118307397D01*
X221148873Y-118307397D02*
X221254073Y-118352052D01*
X221254073Y-118352052D02*
X221409226Y-118376525D01*
X221409226Y-118376525D02*
X221494245Y-118371229D01*
X221494245Y-118371229D02*
X221594148Y-118330865D01*
X221594148Y-118330865D02*
X221673870Y-118240549D01*
X221673870Y-118240549D02*
X221703640Y-118170416D01*
X221703640Y-118170416D02*
X221713228Y-118050330D01*
X221713228Y-118050330D02*
X221693046Y-118000378D01*
X221693046Y-118000378D02*
X221447578Y-117896183D01*
X221447578Y-117896183D02*
X221388038Y-118036451D01*
X221897145Y-117714547D02*
X221160741Y-117401962D01*
X221160741Y-117401962D02*
X221279821Y-117121427D01*
X221279821Y-117121427D02*
X221344658Y-117066178D01*
X221344658Y-117066178D02*
X221394610Y-117045996D01*
X221394610Y-117045996D02*
X221479628Y-117040699D01*
X221479628Y-117040699D02*
X221584829Y-117085354D01*
X221584829Y-117085354D02*
X221640078Y-117150191D01*
X221640078Y-117150191D02*
X221660260Y-117200143D01*
X221660260Y-117200143D02*
X221665556Y-117285162D01*
X221665556Y-117285162D02*
X221546476Y-117565697D01*
X222373465Y-116592407D02*
X222194845Y-117013209D01*
X222284155Y-116802808D02*
X221547751Y-116490223D01*
X221547751Y-116490223D02*
X221623182Y-116605012D01*
X221623182Y-116605012D02*
X221663545Y-116704916D01*
X221663545Y-116704916D02*
X221668842Y-116789935D01*
X222671165Y-115891070D02*
X222492545Y-116311872D01*
X222581855Y-116101471D02*
X221845451Y-115788886D01*
X221845451Y-115788886D02*
X221920882Y-115903675D01*
X221920882Y-115903675D02*
X221961245Y-116003579D01*
X221961245Y-116003579D02*
X221966542Y-116088597D01*
X221998459Y-120122562D02*
X221933622Y-120177811D01*
X221933622Y-120177811D02*
X221888967Y-120283011D01*
X221888967Y-120283011D02*
X221879379Y-120403097D01*
X221879379Y-120403097D02*
X221919743Y-120503001D01*
X221919743Y-120503001D02*
X221974991Y-120567837D01*
X221974991Y-120567837D02*
X222100374Y-120662444D01*
X222100374Y-120662444D02*
X222205574Y-120707099D01*
X222205574Y-120707099D02*
X222360727Y-120731572D01*
X222360727Y-120731572D02*
X222445746Y-120726276D01*
X222445746Y-120726276D02*
X222545649Y-120685912D01*
X222545649Y-120685912D02*
X222625371Y-120595596D01*
X222625371Y-120595596D02*
X222655141Y-120525463D01*
X222655141Y-120525463D02*
X222664729Y-120405377D01*
X222664729Y-120405377D02*
X222644547Y-120355425D01*
X222644547Y-120355425D02*
X222399079Y-120251230D01*
X222399079Y-120251230D02*
X222339539Y-120391498D01*
X222848646Y-120069594D02*
X222112242Y-119757009D01*
X222112242Y-119757009D02*
X222231322Y-119476474D01*
X222231322Y-119476474D02*
X222296159Y-119421225D01*
X222296159Y-119421225D02*
X222346111Y-119401043D01*
X222346111Y-119401043D02*
X222431129Y-119395746D01*
X222431129Y-119395746D02*
X222536330Y-119440401D01*
X222536330Y-119440401D02*
X222591579Y-119505238D01*
X222591579Y-119505238D02*
X222611761Y-119555190D01*
X222611761Y-119555190D02*
X222617057Y-119640209D01*
X222617057Y-119640209D02*
X222497977Y-119920744D01*
X223324966Y-118947454D02*
X223146346Y-119368256D01*
X223235656Y-119157855D02*
X222499252Y-118845270D01*
X222499252Y-118845270D02*
X222574683Y-118960059D01*
X222574683Y-118960059D02*
X222615046Y-119059963D01*
X222615046Y-119059963D02*
X222620343Y-119144982D01*
X222777776Y-118384104D02*
X222757594Y-118334152D01*
X222757594Y-118334152D02*
X222752297Y-118249134D01*
X222752297Y-118249134D02*
X222826722Y-118073800D01*
X222826722Y-118073800D02*
X222891559Y-118018551D01*
X222891559Y-118018551D02*
X222941511Y-117998369D01*
X222941511Y-117998369D02*
X223026529Y-117993072D01*
X223026529Y-117993072D02*
X223096663Y-118022842D01*
X223096663Y-118022842D02*
X223186979Y-118102564D01*
X223186979Y-118102564D02*
X223429161Y-118701986D01*
X223429161Y-118701986D02*
X223622666Y-118246117D01*
X219648796Y-112591977D02*
X219583959Y-112647225D01*
X219583959Y-112647225D02*
X219539304Y-112752426D01*
X219539304Y-112752426D02*
X219529716Y-112872511D01*
X219529716Y-112872511D02*
X219570080Y-112972415D01*
X219570080Y-112972415D02*
X219625329Y-113037252D01*
X219625329Y-113037252D02*
X219750711Y-113131859D01*
X219750711Y-113131859D02*
X219855912Y-113176514D01*
X219855912Y-113176514D02*
X220011064Y-113200987D01*
X220011064Y-113200987D02*
X220096083Y-113195690D01*
X220096083Y-113195690D02*
X220195987Y-113155326D01*
X220195987Y-113155326D02*
X220275708Y-113065011D01*
X220275708Y-113065011D02*
X220305478Y-112994877D01*
X220305478Y-112994877D02*
X220315066Y-112874792D01*
X220315066Y-112874792D02*
X220294885Y-112824840D01*
X220294885Y-112824840D02*
X220049417Y-112720645D01*
X220049417Y-112720645D02*
X219989877Y-112860912D01*
X220498983Y-112539008D02*
X219762579Y-112226423D01*
X219762579Y-112226423D02*
X220677603Y-112118206D01*
X220677603Y-112118206D02*
X219941199Y-111805621D01*
X220826453Y-111767538D02*
X220090049Y-111454953D01*
X220090049Y-111454953D02*
X220164474Y-111279618D01*
X220164474Y-111279618D02*
X220244196Y-111189303D01*
X220244196Y-111189303D02*
X220344100Y-111148939D01*
X220344100Y-111148939D02*
X220429118Y-111143642D01*
X220429118Y-111143642D02*
X220584271Y-111168115D01*
X220584271Y-111168115D02*
X220689471Y-111212770D01*
X220689471Y-111212770D02*
X220814854Y-111307377D01*
X220814854Y-111307377D02*
X220870102Y-111372214D01*
X220870102Y-111372214D02*
X220910466Y-111472118D01*
X220910466Y-111472118D02*
X220900878Y-111592203D01*
X220900878Y-111592203D02*
X220826453Y-111767538D01*
X239041054Y-92076456D02*
X239189904Y-91725788D01*
X239221686Y-92235900D02*
X238589477Y-91677847D01*
X238589477Y-91677847D02*
X239430075Y-91744964D01*
X238996668Y-90816061D02*
X238931831Y-90871310D01*
X238931831Y-90871310D02*
X238887176Y-90976510D01*
X238887176Y-90976510D02*
X238877588Y-91096596D01*
X238877588Y-91096596D02*
X238917952Y-91196500D01*
X238917952Y-91196500D02*
X238973201Y-91261336D01*
X238973201Y-91261336D02*
X239098583Y-91355943D01*
X239098583Y-91355943D02*
X239203784Y-91400598D01*
X239203784Y-91400598D02*
X239358936Y-91425071D01*
X239358936Y-91425071D02*
X239443955Y-91419775D01*
X239443955Y-91419775D02*
X239543858Y-91379411D01*
X239543858Y-91379411D02*
X239623580Y-91289095D01*
X239623580Y-91289095D02*
X239653350Y-91218962D01*
X239653350Y-91218962D02*
X239662938Y-91098876D01*
X239662938Y-91098876D02*
X239642757Y-91048924D01*
X239642757Y-91048924D02*
X239397289Y-90944729D01*
X239397289Y-90944729D02*
X239337749Y-91084997D01*
X239846855Y-90763093D02*
X239110451Y-90450508D01*
X239110451Y-90450508D02*
X240025475Y-90342290D01*
X240025475Y-90342290D02*
X239289071Y-90029705D01*
X240174325Y-89991622D02*
X239437921Y-89679037D01*
X239437921Y-89679037D02*
X239512346Y-89503703D01*
X239512346Y-89503703D02*
X239592068Y-89413387D01*
X239592068Y-89413387D02*
X239691972Y-89373024D01*
X239691972Y-89373024D02*
X239776990Y-89367727D01*
X239776990Y-89367727D02*
X239932143Y-89392200D01*
X239932143Y-89392200D02*
X240037343Y-89436855D01*
X240037343Y-89436855D02*
X240162726Y-89531462D01*
X240162726Y-89531462D02*
X240217974Y-89596299D01*
X240217974Y-89596299D02*
X240258338Y-89696202D01*
X240258338Y-89696202D02*
X240248750Y-89816288D01*
X240248750Y-89816288D02*
X240174325Y-89991622D01*
X216890658Y-105426493D02*
X216825821Y-105481742D01*
X216825821Y-105481742D02*
X216781166Y-105586942D01*
X216781166Y-105586942D02*
X216771578Y-105707028D01*
X216771578Y-105707028D02*
X216811942Y-105806932D01*
X216811942Y-105806932D02*
X216867191Y-105871768D01*
X216867191Y-105871768D02*
X216992573Y-105966375D01*
X216992573Y-105966375D02*
X217097774Y-106011030D01*
X217097774Y-106011030D02*
X217252926Y-106035503D01*
X217252926Y-106035503D02*
X217337945Y-106030206D01*
X217337945Y-106030206D02*
X217437848Y-105989843D01*
X217437848Y-105989843D02*
X217517570Y-105899527D01*
X217517570Y-105899527D02*
X217547340Y-105829394D01*
X217547340Y-105829394D02*
X217556928Y-105709308D01*
X217556928Y-105709308D02*
X217536747Y-105659356D01*
X217536747Y-105659356D02*
X217291279Y-105555161D01*
X217291279Y-105555161D02*
X217231739Y-105695429D01*
X217740845Y-105373524D02*
X217004441Y-105060940D01*
X217004441Y-105060940D02*
X217123521Y-104780405D01*
X217123521Y-104780405D02*
X217188358Y-104725156D01*
X217188358Y-104725156D02*
X217238310Y-104704974D01*
X217238310Y-104704974D02*
X217323329Y-104699677D01*
X217323329Y-104699677D02*
X217428529Y-104744332D01*
X217428529Y-104744332D02*
X217483778Y-104809169D01*
X217483778Y-104809169D02*
X217503960Y-104859121D01*
X217503960Y-104859121D02*
X217509257Y-104944140D01*
X217509257Y-104944140D02*
X217390177Y-105224674D01*
X217287256Y-104394669D02*
X217495646Y-103903733D01*
X217495646Y-103903733D02*
X218098085Y-104531920D01*
X248142206Y-114777283D02*
X248077369Y-114832531D01*
X248077369Y-114832531D02*
X248032714Y-114937732D01*
X248032714Y-114937732D02*
X248023126Y-115057817D01*
X248023126Y-115057817D02*
X248063490Y-115157721D01*
X248063490Y-115157721D02*
X248118739Y-115222558D01*
X248118739Y-115222558D02*
X248244121Y-115317165D01*
X248244121Y-115317165D02*
X248349322Y-115361820D01*
X248349322Y-115361820D02*
X248504474Y-115386293D01*
X248504474Y-115386293D02*
X248589493Y-115380996D01*
X248589493Y-115380996D02*
X248689397Y-115340632D01*
X248689397Y-115340632D02*
X248769118Y-115250317D01*
X248769118Y-115250317D02*
X248798888Y-115180183D01*
X248798888Y-115180183D02*
X248808476Y-115060098D01*
X248808476Y-115060098D02*
X248788295Y-115010146D01*
X248788295Y-115010146D02*
X248542827Y-114905951D01*
X248542827Y-114905951D02*
X248483287Y-115046218D01*
X248992393Y-114724314D02*
X248255989Y-114411729D01*
X248255989Y-114411729D02*
X249171013Y-114303512D01*
X249171013Y-114303512D02*
X248434609Y-113990927D01*
X249319863Y-113952844D02*
X248583459Y-113640259D01*
X248583459Y-113640259D02*
X248657884Y-113464924D01*
X248657884Y-113464924D02*
X248737606Y-113374609D01*
X248737606Y-113374609D02*
X248837510Y-113334245D01*
X248837510Y-113334245D02*
X248922528Y-113328948D01*
X248922528Y-113328948D02*
X249077681Y-113353421D01*
X249077681Y-113353421D02*
X249182881Y-113398076D01*
X249182881Y-113398076D02*
X249308264Y-113492683D01*
X249308264Y-113492683D02*
X249363512Y-113557520D01*
X249363512Y-113557520D02*
X249403876Y-113657424D01*
X249403876Y-113657424D02*
X249394288Y-113777509D01*
X249394288Y-113777509D02*
X249319863Y-113952844D01*
X224406299Y-124367212D02*
X224341462Y-124422460D01*
X224341462Y-124422460D02*
X224296807Y-124527661D01*
X224296807Y-124527661D02*
X224287219Y-124647746D01*
X224287219Y-124647746D02*
X224327583Y-124747650D01*
X224327583Y-124747650D02*
X224382832Y-124812487D01*
X224382832Y-124812487D02*
X224508214Y-124907094D01*
X224508214Y-124907094D02*
X224613415Y-124951749D01*
X224613415Y-124951749D02*
X224768567Y-124976222D01*
X224768567Y-124976222D02*
X224853586Y-124970925D01*
X224853586Y-124970925D02*
X224953490Y-124930561D01*
X224953490Y-124930561D02*
X225033211Y-124840246D01*
X225033211Y-124840246D02*
X225062981Y-124770112D01*
X225062981Y-124770112D02*
X225072569Y-124650027D01*
X225072569Y-124650027D02*
X225052388Y-124600075D01*
X225052388Y-124600075D02*
X224806920Y-124495880D01*
X224806920Y-124495880D02*
X224747380Y-124636147D01*
X225256486Y-124314243D02*
X224520082Y-124001658D01*
X224520082Y-124001658D02*
X225435106Y-123893441D01*
X225435106Y-123893441D02*
X224698702Y-123580856D01*
X225583956Y-123542773D02*
X224847552Y-123230188D01*
X224847552Y-123230188D02*
X224921977Y-123054853D01*
X224921977Y-123054853D02*
X225001699Y-122964538D01*
X225001699Y-122964538D02*
X225101603Y-122924174D01*
X225101603Y-122924174D02*
X225186621Y-122918877D01*
X225186621Y-122918877D02*
X225341774Y-122943350D01*
X225341774Y-122943350D02*
X225446974Y-122988005D01*
X225446974Y-122988005D02*
X225572357Y-123082612D01*
X225572357Y-123082612D02*
X225627605Y-123147449D01*
X225627605Y-123147449D02*
X225667969Y-123247353D01*
X225667969Y-123247353D02*
X225658381Y-123367438D01*
X225658381Y-123367438D02*
X225583956Y-123542773D01*
X224945680Y-127150243D02*
X224880843Y-127205492D01*
X224880843Y-127205492D02*
X224836188Y-127310692D01*
X224836188Y-127310692D02*
X224826600Y-127430778D01*
X224826600Y-127430778D02*
X224866964Y-127530682D01*
X224866964Y-127530682D02*
X224922212Y-127595518D01*
X224922212Y-127595518D02*
X225047595Y-127690125D01*
X225047595Y-127690125D02*
X225152795Y-127734780D01*
X225152795Y-127734780D02*
X225307948Y-127759253D01*
X225307948Y-127759253D02*
X225392967Y-127753957D01*
X225392967Y-127753957D02*
X225492870Y-127713593D01*
X225492870Y-127713593D02*
X225572592Y-127623277D01*
X225572592Y-127623277D02*
X225602362Y-127553144D01*
X225602362Y-127553144D02*
X225611950Y-127433058D01*
X225611950Y-127433058D02*
X225591768Y-127383106D01*
X225591768Y-127383106D02*
X225346300Y-127278911D01*
X225346300Y-127278911D02*
X225286760Y-127419179D01*
X225795867Y-127097275D02*
X225059463Y-126784690D01*
X225059463Y-126784690D02*
X225178543Y-126504155D01*
X225178543Y-126504155D02*
X225243380Y-126448906D01*
X225243380Y-126448906D02*
X225293332Y-126428724D01*
X225293332Y-126428724D02*
X225378350Y-126423427D01*
X225378350Y-126423427D02*
X225483551Y-126468082D01*
X225483551Y-126468082D02*
X225538800Y-126532919D01*
X225538800Y-126532919D02*
X225558982Y-126582871D01*
X225558982Y-126582871D02*
X225564278Y-126667890D01*
X225564278Y-126667890D02*
X225445198Y-126948425D01*
X226272187Y-125975135D02*
X226093567Y-126395937D01*
X226182877Y-126185536D02*
X225446473Y-125872951D01*
X225446473Y-125872951D02*
X225521904Y-125987740D01*
X225521904Y-125987740D02*
X225562267Y-126087644D01*
X225562267Y-126087644D02*
X225567564Y-126172663D01*
X226049181Y-125135542D02*
X226540117Y-125343932D01*
X225694221Y-125191796D02*
X226145799Y-125590405D01*
X226145799Y-125590405D02*
X226339304Y-125134536D01*
X239683985Y-93811584D02*
X239619148Y-93866833D01*
X239619148Y-93866833D02*
X239574493Y-93972033D01*
X239574493Y-93972033D02*
X239564905Y-94092119D01*
X239564905Y-94092119D02*
X239605269Y-94192023D01*
X239605269Y-94192023D02*
X239660517Y-94256859D01*
X239660517Y-94256859D02*
X239785900Y-94351466D01*
X239785900Y-94351466D02*
X239891100Y-94396121D01*
X239891100Y-94396121D02*
X240046253Y-94420594D01*
X240046253Y-94420594D02*
X240131272Y-94415298D01*
X240131272Y-94415298D02*
X240231175Y-94374934D01*
X240231175Y-94374934D02*
X240310897Y-94284618D01*
X240310897Y-94284618D02*
X240340667Y-94214485D01*
X240340667Y-94214485D02*
X240350255Y-94094399D01*
X240350255Y-94094399D02*
X240330073Y-94044447D01*
X240330073Y-94044447D02*
X240084605Y-93940252D01*
X240084605Y-93940252D02*
X240025065Y-94080520D01*
X240534172Y-93758616D02*
X239797768Y-93446031D01*
X239797768Y-93446031D02*
X239916848Y-93165496D01*
X239916848Y-93165496D02*
X239981685Y-93110247D01*
X239981685Y-93110247D02*
X240031637Y-93090065D01*
X240031637Y-93090065D02*
X240116655Y-93084768D01*
X240116655Y-93084768D02*
X240221856Y-93129423D01*
X240221856Y-93129423D02*
X240277105Y-93194260D01*
X240277105Y-93194260D02*
X240297287Y-93244212D01*
X240297287Y-93244212D02*
X240302583Y-93329231D01*
X240302583Y-93329231D02*
X240183503Y-93609766D01*
X240165602Y-92774464D02*
X240145420Y-92724512D01*
X240145420Y-92724512D02*
X240140123Y-92639493D01*
X240140123Y-92639493D02*
X240214548Y-92464159D01*
X240214548Y-92464159D02*
X240279385Y-92408910D01*
X240279385Y-92408910D02*
X240329337Y-92388728D01*
X240329337Y-92388728D02*
X240414355Y-92383431D01*
X240414355Y-92383431D02*
X240484489Y-92413201D01*
X240484489Y-92413201D02*
X240574805Y-92492923D01*
X240574805Y-92492923D02*
X240816987Y-93092345D01*
X240816987Y-93092345D02*
X241010492Y-92636476D01*
X240378283Y-92078423D02*
X240586673Y-91587487D01*
X240586673Y-91587487D02*
X241189112Y-92215674D01*
X213003175Y-96071581D02*
X212938338Y-96126830D01*
X212938338Y-96126830D02*
X212893683Y-96232030D01*
X212893683Y-96232030D02*
X212884095Y-96352116D01*
X212884095Y-96352116D02*
X212924459Y-96452020D01*
X212924459Y-96452020D02*
X212979708Y-96516856D01*
X212979708Y-96516856D02*
X213105090Y-96611463D01*
X213105090Y-96611463D02*
X213210291Y-96656118D01*
X213210291Y-96656118D02*
X213365443Y-96680591D01*
X213365443Y-96680591D02*
X213450462Y-96675294D01*
X213450462Y-96675294D02*
X213550365Y-96634931D01*
X213550365Y-96634931D02*
X213630087Y-96544615D01*
X213630087Y-96544615D02*
X213659857Y-96474482D01*
X213659857Y-96474482D02*
X213669445Y-96354396D01*
X213669445Y-96354396D02*
X213649264Y-96304444D01*
X213649264Y-96304444D02*
X213403796Y-96200249D01*
X213403796Y-96200249D02*
X213344256Y-96340517D01*
X213853362Y-96018612D02*
X213116958Y-95706028D01*
X213116958Y-95706028D02*
X213236038Y-95425493D01*
X213236038Y-95425493D02*
X213300875Y-95370244D01*
X213300875Y-95370244D02*
X213350827Y-95350062D01*
X213350827Y-95350062D02*
X213435846Y-95344765D01*
X213435846Y-95344765D02*
X213541046Y-95389420D01*
X213541046Y-95389420D02*
X213596295Y-95454257D01*
X213596295Y-95454257D02*
X213616477Y-95504209D01*
X213616477Y-95504209D02*
X213621774Y-95589228D01*
X213621774Y-95589228D02*
X213502694Y-95869762D01*
X213808976Y-94758217D02*
X214299912Y-94966607D01*
X213454016Y-94814471D02*
X213905594Y-95213080D01*
X213905594Y-95213080D02*
X214099099Y-94757211D01*
X299850585Y-119626740D02*
X300001113Y-119622627D01*
X300001113Y-119622627D02*
X300224850Y-119541194D01*
X300224850Y-119541194D02*
X300298058Y-119463873D01*
X300298058Y-119463873D02*
X300326518Y-119402839D01*
X300326518Y-119402839D02*
X300338692Y-119297058D01*
X300338692Y-119297058D02*
X300306119Y-119207564D01*
X300306119Y-119207564D02*
X300228798Y-119134356D01*
X300228798Y-119134356D02*
X300167764Y-119105895D01*
X300167764Y-119105895D02*
X300061983Y-119093721D01*
X300061983Y-119093721D02*
X299866707Y-119114121D01*
X299866707Y-119114121D02*
X299760926Y-119101947D01*
X299760926Y-119101947D02*
X299699892Y-119073486D01*
X299699892Y-119073486D02*
X299622572Y-119000278D01*
X299622572Y-119000278D02*
X299589998Y-118910784D01*
X299589998Y-118910784D02*
X299602172Y-118805002D01*
X299602172Y-118805002D02*
X299630633Y-118743968D01*
X299630633Y-118743968D02*
X299703841Y-118666648D01*
X299703841Y-118666648D02*
X299927577Y-118585215D01*
X299927577Y-118585215D02*
X300078105Y-118581102D01*
X300375050Y-118422348D02*
X300940806Y-119280607D01*
X300940806Y-119280607D02*
X300875495Y-118544251D01*
X300875495Y-118544251D02*
X301298784Y-119150314D01*
X301298784Y-119150314D02*
X301180500Y-118129188D01*
X301985951Y-117836028D02*
X301538478Y-117998894D01*
X301538478Y-117998894D02*
X301656598Y-118462654D01*
X301656598Y-118462654D02*
X301685058Y-118401620D01*
X301685058Y-118401620D02*
X301758266Y-118324299D01*
X301758266Y-118324299D02*
X301982003Y-118242866D01*
X301982003Y-118242866D02*
X302087784Y-118255040D01*
X302087784Y-118255040D02*
X302148818Y-118283500D01*
X302148818Y-118283500D02*
X302226138Y-118356708D01*
X302226138Y-118356708D02*
X302307572Y-118580444D01*
X302307572Y-118580444D02*
X302295398Y-118686226D01*
X302295398Y-118686226D02*
X302266937Y-118747260D01*
X302266937Y-118747260D02*
X302193729Y-118824580D01*
X302193729Y-118824580D02*
X301969993Y-118906014D01*
X301969993Y-118906014D02*
X301864212Y-118893840D01*
X301864212Y-118893840D02*
X301803178Y-118865379D01*
X302612413Y-117608014D02*
X302701907Y-117575441D01*
X302701907Y-117575441D02*
X302807689Y-117587615D01*
X302807689Y-117587615D02*
X302868723Y-117616075D01*
X302868723Y-117616075D02*
X302946043Y-117689283D01*
X302946043Y-117689283D02*
X303055937Y-117851986D01*
X303055937Y-117851986D02*
X303137371Y-118075722D01*
X303137371Y-118075722D02*
X303157770Y-118270998D01*
X303157770Y-118270998D02*
X303145596Y-118376779D01*
X303145596Y-118376779D02*
X303117135Y-118437813D01*
X303117135Y-118437813D02*
X303043928Y-118515133D01*
X303043928Y-118515133D02*
X302954433Y-118547707D01*
X302954433Y-118547707D02*
X302848652Y-118535533D01*
X302848652Y-118535533D02*
X302787618Y-118507072D01*
X302787618Y-118507072D02*
X302710297Y-118433864D01*
X302710297Y-118433864D02*
X302600403Y-118271162D01*
X302600403Y-118271162D02*
X302518970Y-118047426D01*
X302518970Y-118047426D02*
X302498571Y-117852150D01*
X302498571Y-117852150D02*
X302510744Y-117746369D01*
X302510744Y-117746369D02*
X302539205Y-117685335D01*
X302539205Y-117685335D02*
X302612413Y-117608014D01*
X282292521Y-127706156D02*
X282442428Y-127720419D01*
X282442428Y-127720419D02*
X282674421Y-127666859D01*
X282674421Y-127666859D02*
X282756506Y-127599037D01*
X282756506Y-127599037D02*
X282792193Y-127541926D01*
X282792193Y-127541926D02*
X282817168Y-127438417D01*
X282817168Y-127438417D02*
X282795744Y-127345620D01*
X282795744Y-127345620D02*
X282727921Y-127263535D01*
X282727921Y-127263535D02*
X282670811Y-127227848D01*
X282670811Y-127227848D02*
X282567302Y-127202873D01*
X282567302Y-127202873D02*
X282370995Y-127199323D01*
X282370995Y-127199323D02*
X282267486Y-127174348D01*
X282267486Y-127174348D02*
X282210376Y-127138661D01*
X282210376Y-127138661D02*
X282142553Y-127056576D01*
X282142553Y-127056576D02*
X282121129Y-126963779D01*
X282121129Y-126963779D02*
X282146104Y-126860270D01*
X282146104Y-126860270D02*
X282181791Y-126803159D01*
X282181791Y-126803159D02*
X282263876Y-126735337D01*
X282263876Y-126735337D02*
X282495869Y-126681777D01*
X282495869Y-126681777D02*
X282645776Y-126696040D01*
X282959855Y-126574658D02*
X283416799Y-127495468D01*
X283416799Y-127495468D02*
X283441714Y-126756641D01*
X283441714Y-126756641D02*
X283787987Y-127409772D01*
X283787987Y-127409772D02*
X283795029Y-126381842D01*
X284630203Y-126189027D02*
X284166217Y-126296147D01*
X284166217Y-126296147D02*
X284226938Y-126770845D01*
X284226938Y-126770845D02*
X284262625Y-126713734D01*
X284262625Y-126713734D02*
X284344710Y-126645912D01*
X284344710Y-126645912D02*
X284576703Y-126592352D01*
X284576703Y-126592352D02*
X284680212Y-126617326D01*
X284680212Y-126617326D02*
X284737323Y-126653013D01*
X284737323Y-126653013D02*
X284805145Y-126735098D01*
X284805145Y-126735098D02*
X284858705Y-126967091D01*
X284858705Y-126967091D02*
X284833730Y-127070600D01*
X284833730Y-127070600D02*
X284798044Y-127127711D01*
X284798044Y-127127711D02*
X284715958Y-127195533D01*
X284715958Y-127195533D02*
X284483966Y-127249093D01*
X284483966Y-127249093D02*
X284380456Y-127224118D01*
X284380456Y-127224118D02*
X284323346Y-127188432D01*
X285069214Y-126185417D02*
X285104901Y-126128306D01*
X285104901Y-126128306D02*
X285186986Y-126060484D01*
X285186986Y-126060484D02*
X285418979Y-126006924D01*
X285418979Y-126006924D02*
X285522488Y-126031899D01*
X285522488Y-126031899D02*
X285579599Y-126067585D01*
X285579599Y-126067585D02*
X285647421Y-126149671D01*
X285647421Y-126149671D02*
X285668845Y-126242468D01*
X285668845Y-126242468D02*
X285654582Y-126392375D01*
X285654582Y-126392375D02*
X285226343Y-127077702D01*
X285226343Y-127077702D02*
X285829524Y-126938446D01*
X310468976Y-85120884D02*
X310619269Y-85111521D01*
X310619269Y-85111521D02*
X310840027Y-85022329D01*
X310840027Y-85022329D02*
X310910492Y-84942500D01*
X310910492Y-84942500D02*
X310936805Y-84880510D01*
X310936805Y-84880510D02*
X310945280Y-84774369D01*
X310945280Y-84774369D02*
X310909603Y-84686065D01*
X310909603Y-84686065D02*
X310829775Y-84615601D01*
X310829775Y-84615601D02*
X310767785Y-84589287D01*
X310767785Y-84589287D02*
X310661643Y-84580813D01*
X310661643Y-84580813D02*
X310467198Y-84608015D01*
X310467198Y-84608015D02*
X310361057Y-84599540D01*
X310361057Y-84599540D02*
X310299067Y-84573227D01*
X310299067Y-84573227D02*
X310219238Y-84502762D01*
X310219238Y-84502762D02*
X310183561Y-84414459D01*
X310183561Y-84414459D02*
X310192036Y-84308317D01*
X310192036Y-84308317D02*
X310218349Y-84246327D01*
X310218349Y-84246327D02*
X310288814Y-84166498D01*
X310288814Y-84166498D02*
X310509572Y-84077306D01*
X310509572Y-84077306D02*
X310659866Y-84067943D01*
X310951089Y-83898922D02*
X311546453Y-84736914D01*
X311546453Y-84736914D02*
X311455483Y-84003286D01*
X311455483Y-84003286D02*
X311899666Y-84594207D01*
X311899666Y-84594207D02*
X311745818Y-83577831D01*
X312010727Y-83470801D02*
X312584698Y-83238901D01*
X312584698Y-83238901D02*
X312418344Y-83716983D01*
X312418344Y-83716983D02*
X312550799Y-83663468D01*
X312550799Y-83663468D02*
X312656941Y-83671943D01*
X312656941Y-83671943D02*
X312718931Y-83698256D01*
X312718931Y-83698256D02*
X312798759Y-83768721D01*
X312798759Y-83768721D02*
X312887951Y-83989479D01*
X312887951Y-83989479D02*
X312879476Y-84095620D01*
X312879476Y-84095620D02*
X312853163Y-84157610D01*
X312853163Y-84157610D02*
X312782698Y-84237439D01*
X312782698Y-84237439D02*
X312517789Y-84344469D01*
X312517789Y-84344469D02*
X312411647Y-84335994D01*
X312411647Y-84335994D02*
X312349657Y-84309681D01*
X313379427Y-82917810D02*
X313202821Y-82989163D01*
X313202821Y-82989163D02*
X313132356Y-83068992D01*
X313132356Y-83068992D02*
X313106043Y-83130982D01*
X313106043Y-83130982D02*
X313071255Y-83299114D01*
X313071255Y-83299114D02*
X313098457Y-83493558D01*
X313098457Y-83493558D02*
X313241164Y-83846771D01*
X313241164Y-83846771D02*
X313320992Y-83917236D01*
X313320992Y-83917236D02*
X313382982Y-83943549D01*
X313382982Y-83943549D02*
X313489124Y-83952024D01*
X313489124Y-83952024D02*
X313665730Y-83880670D01*
X313665730Y-83880670D02*
X313736195Y-83800842D01*
X313736195Y-83800842D02*
X313762508Y-83738852D01*
X313762508Y-83738852D02*
X313770983Y-83632710D01*
X313770983Y-83632710D02*
X313681791Y-83411952D01*
X313681791Y-83411952D02*
X313601963Y-83341488D01*
X313601963Y-83341488D02*
X313539973Y-83315174D01*
X313539973Y-83315174D02*
X313433831Y-83306700D01*
X313433831Y-83306700D02*
X313257225Y-83378053D01*
X313257225Y-83378053D02*
X313186760Y-83457882D01*
X313186760Y-83457882D02*
X313160447Y-83519872D01*
X313160447Y-83519872D02*
X313151972Y-83626013D01*
X338680093Y-30471084D02*
X338830407Y-30480107D01*
X338830407Y-30480107D02*
X339060389Y-30418483D01*
X339060389Y-30418483D02*
X339140058Y-30347837D01*
X339140058Y-30347837D02*
X339173729Y-30289516D01*
X339173729Y-30289516D02*
X339195076Y-30185198D01*
X339195076Y-30185198D02*
X339170427Y-30093205D01*
X339170427Y-30093205D02*
X339099781Y-30013537D01*
X339099781Y-30013537D02*
X339041460Y-29979866D01*
X339041460Y-29979866D02*
X338937142Y-29958518D01*
X338937142Y-29958518D02*
X338740832Y-29961821D01*
X338740832Y-29961821D02*
X338636514Y-29940474D01*
X338636514Y-29940474D02*
X338578193Y-29906802D01*
X338578193Y-29906802D02*
X338507547Y-29827134D01*
X338507547Y-29827134D02*
X338482898Y-29735141D01*
X338482898Y-29735141D02*
X338504245Y-29630823D01*
X338504245Y-29630823D02*
X338537916Y-29572502D01*
X338537916Y-29572502D02*
X338617585Y-29501856D01*
X338617585Y-29501856D02*
X338847567Y-29440233D01*
X338847567Y-29440233D02*
X338997881Y-29449255D01*
X339307532Y-29316985D02*
X339796333Y-30221288D01*
X339796333Y-30221288D02*
X339795448Y-29482042D01*
X339795448Y-29482042D02*
X340164305Y-30122690D01*
X340164305Y-30122690D02*
X340135468Y-29095141D01*
X340482093Y-29100861D02*
X340515764Y-29042539D01*
X340515764Y-29042539D02*
X340595433Y-28971893D01*
X340595433Y-28971893D02*
X340825415Y-28910270D01*
X340825415Y-28910270D02*
X340929733Y-28931617D01*
X340929733Y-28931617D02*
X340988054Y-28965289D01*
X340988054Y-28965289D02*
X341058700Y-29044957D01*
X341058700Y-29044957D02*
X341083349Y-29136950D01*
X341083349Y-29136950D02*
X341074327Y-29287264D01*
X341074327Y-29287264D02*
X340670266Y-29987118D01*
X340670266Y-29987118D02*
X341268220Y-29826897D01*
X237198427Y-56329952D02*
X237348720Y-56320589D01*
X237348720Y-56320589D02*
X237569478Y-56231397D01*
X237569478Y-56231397D02*
X237639943Y-56151568D01*
X237639943Y-56151568D02*
X237666256Y-56089578D01*
X237666256Y-56089578D02*
X237674731Y-55983437D01*
X237674731Y-55983437D02*
X237639054Y-55895133D01*
X237639054Y-55895133D02*
X237559226Y-55824669D01*
X237559226Y-55824669D02*
X237497236Y-55798355D01*
X237497236Y-55798355D02*
X237391094Y-55789881D01*
X237391094Y-55789881D02*
X237196649Y-55817083D01*
X237196649Y-55817083D02*
X237090508Y-55808608D01*
X237090508Y-55808608D02*
X237028518Y-55782295D01*
X237028518Y-55782295D02*
X236948689Y-55711830D01*
X236948689Y-55711830D02*
X236913012Y-55623527D01*
X236913012Y-55623527D02*
X236921487Y-55517385D01*
X236921487Y-55517385D02*
X236947800Y-55455395D01*
X236947800Y-55455395D02*
X237018265Y-55375566D01*
X237018265Y-55375566D02*
X237239023Y-55286374D01*
X237239023Y-55286374D02*
X237389317Y-55277011D01*
X237680540Y-55107990D02*
X238275904Y-55945982D01*
X238275904Y-55945982D02*
X238184934Y-55212354D01*
X238184934Y-55212354D02*
X238629117Y-55803275D01*
X238629117Y-55803275D02*
X238475269Y-54786899D01*
X238820007Y-54750333D02*
X238846320Y-54688343D01*
X238846320Y-54688343D02*
X238916785Y-54608515D01*
X238916785Y-54608515D02*
X239137543Y-54519323D01*
X239137543Y-54519323D02*
X239243684Y-54527798D01*
X239243684Y-54527798D02*
X239305674Y-54554111D01*
X239305674Y-54554111D02*
X239385503Y-54624576D01*
X239385503Y-54624576D02*
X239421180Y-54712879D01*
X239421180Y-54712879D02*
X239430543Y-54863172D01*
X239430543Y-54863172D02*
X239114785Y-55607052D01*
X239114785Y-55607052D02*
X239688756Y-55375153D01*
X239888120Y-54216070D02*
X239976423Y-54180393D01*
X239976423Y-54180393D02*
X240082565Y-54188868D01*
X240082565Y-54188868D02*
X240144555Y-54215181D01*
X240144555Y-54215181D02*
X240224383Y-54285646D01*
X240224383Y-54285646D02*
X240339889Y-54444414D01*
X240339889Y-54444414D02*
X240429081Y-54665172D01*
X240429081Y-54665172D02*
X240456283Y-54859617D01*
X240456283Y-54859617D02*
X240447808Y-54965758D01*
X240447808Y-54965758D02*
X240421495Y-55027748D01*
X240421495Y-55027748D02*
X240351030Y-55107577D01*
X240351030Y-55107577D02*
X240262727Y-55143254D01*
X240262727Y-55143254D02*
X240156585Y-55134779D01*
X240156585Y-55134779D02*
X240094595Y-55108466D01*
X240094595Y-55108466D02*
X240014767Y-55038001D01*
X240014767Y-55038001D02*
X239899261Y-54879233D01*
X239899261Y-54879233D02*
X239810069Y-54658475D01*
X239810069Y-54658475D02*
X239782867Y-54464030D01*
X239782867Y-54464030D02*
X239791342Y-54357888D01*
X239791342Y-54357888D02*
X239817655Y-54295898D01*
X239817655Y-54295898D02*
X239888120Y-54216070D01*
X296196467Y-49795173D02*
X296346760Y-49785810D01*
X296346760Y-49785810D02*
X296567518Y-49696618D01*
X296567518Y-49696618D02*
X296637983Y-49616789D01*
X296637983Y-49616789D02*
X296664296Y-49554799D01*
X296664296Y-49554799D02*
X296672771Y-49448658D01*
X296672771Y-49448658D02*
X296637094Y-49360354D01*
X296637094Y-49360354D02*
X296557266Y-49289890D01*
X296557266Y-49289890D02*
X296495276Y-49263576D01*
X296495276Y-49263576D02*
X296389134Y-49255102D01*
X296389134Y-49255102D02*
X296194689Y-49282304D01*
X296194689Y-49282304D02*
X296088548Y-49273829D01*
X296088548Y-49273829D02*
X296026558Y-49247516D01*
X296026558Y-49247516D02*
X295946729Y-49177051D01*
X295946729Y-49177051D02*
X295911052Y-49088748D01*
X295911052Y-49088748D02*
X295919527Y-48982606D01*
X295919527Y-48982606D02*
X295945840Y-48920616D01*
X295945840Y-48920616D02*
X296016305Y-48840787D01*
X296016305Y-48840787D02*
X296237063Y-48751595D01*
X296237063Y-48751595D02*
X296387357Y-48742232D01*
X296678580Y-48573211D02*
X297273944Y-49411203D01*
X297273944Y-49411203D02*
X297182974Y-48677575D01*
X297182974Y-48677575D02*
X297627157Y-49268496D01*
X297627157Y-49268496D02*
X297473309Y-48252120D01*
X298686796Y-48840374D02*
X298156976Y-49054435D01*
X298421886Y-48947405D02*
X298047279Y-48020221D01*
X298047279Y-48020221D02*
X298012491Y-48188352D01*
X298012491Y-48188352D02*
X297959865Y-48312332D01*
X297959865Y-48312332D02*
X297889400Y-48392161D01*
X299231787Y-47901160D02*
X299481525Y-48519283D01*
X298868322Y-47637139D02*
X298915140Y-48388605D01*
X298915140Y-48388605D02*
X299489111Y-48156706D01*
X303332712Y-67458028D02*
X303483005Y-67448665D01*
X303483005Y-67448665D02*
X303703763Y-67359473D01*
X303703763Y-67359473D02*
X303774228Y-67279644D01*
X303774228Y-67279644D02*
X303800541Y-67217654D01*
X303800541Y-67217654D02*
X303809016Y-67111513D01*
X303809016Y-67111513D02*
X303773339Y-67023209D01*
X303773339Y-67023209D02*
X303693511Y-66952745D01*
X303693511Y-66952745D02*
X303631521Y-66926431D01*
X303631521Y-66926431D02*
X303525379Y-66917957D01*
X303525379Y-66917957D02*
X303330934Y-66945159D01*
X303330934Y-66945159D02*
X303224793Y-66936684D01*
X303224793Y-66936684D02*
X303162803Y-66910371D01*
X303162803Y-66910371D02*
X303082974Y-66839906D01*
X303082974Y-66839906D02*
X303047297Y-66751603D01*
X303047297Y-66751603D02*
X303055772Y-66645461D01*
X303055772Y-66645461D02*
X303082085Y-66583471D01*
X303082085Y-66583471D02*
X303152550Y-66503642D01*
X303152550Y-66503642D02*
X303373308Y-66414450D01*
X303373308Y-66414450D02*
X303523602Y-66405087D01*
X303814825Y-66236066D02*
X304410189Y-67074058D01*
X304410189Y-67074058D02*
X304319219Y-66340430D01*
X304319219Y-66340430D02*
X304763402Y-66931351D01*
X304763402Y-66931351D02*
X304609554Y-65914975D01*
X304954292Y-65878409D02*
X304980605Y-65816419D01*
X304980605Y-65816419D02*
X305051070Y-65736591D01*
X305051070Y-65736591D02*
X305271828Y-65647399D01*
X305271828Y-65647399D02*
X305377969Y-65655874D01*
X305377969Y-65655874D02*
X305439959Y-65682187D01*
X305439959Y-65682187D02*
X305519788Y-65752652D01*
X305519788Y-65752652D02*
X305555465Y-65840955D01*
X305555465Y-65840955D02*
X305564828Y-65991248D01*
X305564828Y-65991248D02*
X305249070Y-66735128D01*
X305249070Y-66735128D02*
X305823041Y-66503229D01*
X306368032Y-65564015D02*
X306617770Y-66182138D01*
X306004567Y-65299994D02*
X306051385Y-66051460D01*
X306051385Y-66051460D02*
X306625356Y-65819561D01*
X277406843Y-54142555D02*
X277557136Y-54133192D01*
X277557136Y-54133192D02*
X277777894Y-54044000D01*
X277777894Y-54044000D02*
X277848359Y-53964171D01*
X277848359Y-53964171D02*
X277874672Y-53902181D01*
X277874672Y-53902181D02*
X277883147Y-53796040D01*
X277883147Y-53796040D02*
X277847470Y-53707736D01*
X277847470Y-53707736D02*
X277767642Y-53637272D01*
X277767642Y-53637272D02*
X277705652Y-53610958D01*
X277705652Y-53610958D02*
X277599510Y-53602484D01*
X277599510Y-53602484D02*
X277405065Y-53629686D01*
X277405065Y-53629686D02*
X277298924Y-53621211D01*
X277298924Y-53621211D02*
X277236934Y-53594898D01*
X277236934Y-53594898D02*
X277157105Y-53524433D01*
X277157105Y-53524433D02*
X277121428Y-53436130D01*
X277121428Y-53436130D02*
X277129903Y-53329988D01*
X277129903Y-53329988D02*
X277156216Y-53267998D01*
X277156216Y-53267998D02*
X277226681Y-53188169D01*
X277226681Y-53188169D02*
X277447439Y-53098977D01*
X277447439Y-53098977D02*
X277597733Y-53089614D01*
X277888956Y-52920593D02*
X278484320Y-53758585D01*
X278484320Y-53758585D02*
X278393350Y-53024957D01*
X278393350Y-53024957D02*
X278837533Y-53615878D01*
X278837533Y-53615878D02*
X278683685Y-52599502D01*
X279897172Y-53187756D02*
X279367352Y-53401817D01*
X279632262Y-53294787D02*
X279257655Y-52367603D01*
X279257655Y-52367603D02*
X279222867Y-52535734D01*
X279222867Y-52535734D02*
X279170241Y-52659714D01*
X279170241Y-52659714D02*
X279099776Y-52739543D01*
X280317294Y-51939481D02*
X280140688Y-52010834D01*
X280140688Y-52010834D02*
X280070223Y-52090663D01*
X280070223Y-52090663D02*
X280043910Y-52152653D01*
X280043910Y-52152653D02*
X280009122Y-52320785D01*
X280009122Y-52320785D02*
X280036324Y-52515229D01*
X280036324Y-52515229D02*
X280179031Y-52868442D01*
X280179031Y-52868442D02*
X280258859Y-52938907D01*
X280258859Y-52938907D02*
X280320849Y-52965220D01*
X280320849Y-52965220D02*
X280426991Y-52973695D01*
X280426991Y-52973695D02*
X280603597Y-52902341D01*
X280603597Y-52902341D02*
X280674062Y-52822513D01*
X280674062Y-52822513D02*
X280700375Y-52760523D01*
X280700375Y-52760523D02*
X280708850Y-52654381D01*
X280708850Y-52654381D02*
X280619658Y-52433623D01*
X280619658Y-52433623D02*
X280539830Y-52363159D01*
X280539830Y-52363159D02*
X280477840Y-52336845D01*
X280477840Y-52336845D02*
X280371698Y-52328371D01*
X280371698Y-52328371D02*
X280195092Y-52399724D01*
X280195092Y-52399724D02*
X280124627Y-52479553D01*
X280124627Y-52479553D02*
X280098314Y-52541543D01*
X280098314Y-52541543D02*
X280089839Y-52647684D01*
X316253013Y-35621670D02*
X316403594Y-35622813D01*
X316403594Y-35622813D02*
X316630036Y-35549238D01*
X316630036Y-35549238D02*
X316705897Y-35474519D01*
X316705897Y-35474519D02*
X316736471Y-35414516D01*
X316736471Y-35414516D02*
X316752329Y-35309224D01*
X316752329Y-35309224D02*
X316722899Y-35218647D01*
X316722899Y-35218647D02*
X316648180Y-35142785D01*
X316648180Y-35142785D02*
X316588177Y-35112212D01*
X316588177Y-35112212D02*
X316482885Y-35096354D01*
X316482885Y-35096354D02*
X316287016Y-35109926D01*
X316287016Y-35109926D02*
X316181724Y-35094068D01*
X316181724Y-35094068D02*
X316121721Y-35063494D01*
X316121721Y-35063494D02*
X316047002Y-34987633D01*
X316047002Y-34987633D02*
X316017572Y-34897056D01*
X316017572Y-34897056D02*
X316033430Y-34791764D01*
X316033430Y-34791764D02*
X316064003Y-34731760D01*
X316064003Y-34731760D02*
X316139865Y-34657042D01*
X316139865Y-34657042D02*
X316366307Y-34583466D01*
X316366307Y-34583466D02*
X316516887Y-34584609D01*
X316819191Y-34436315D02*
X317354650Y-35313796D01*
X317354650Y-35313796D02*
X317315077Y-34575610D01*
X317315077Y-34575610D02*
X317716957Y-35196076D01*
X317716957Y-35196076D02*
X317634383Y-34171444D01*
X318404285Y-33921287D02*
X318223132Y-33980147D01*
X318223132Y-33980147D02*
X318147270Y-34054866D01*
X318147270Y-34054866D02*
X318116697Y-34114869D01*
X318116697Y-34114869D02*
X318070265Y-34280165D01*
X318070265Y-34280165D02*
X318083837Y-34476034D01*
X318083837Y-34476034D02*
X318201558Y-34838341D01*
X318201558Y-34838341D02*
X318276276Y-34914203D01*
X318276276Y-34914203D02*
X318336280Y-34944776D01*
X318336280Y-34944776D02*
X318441572Y-34960634D01*
X318441572Y-34960634D02*
X318622725Y-34901774D01*
X318622725Y-34901774D02*
X318698587Y-34827055D01*
X318698587Y-34827055D02*
X318729160Y-34767052D01*
X318729160Y-34767052D02*
X318745019Y-34661760D01*
X318745019Y-34661760D02*
X318671443Y-34435318D01*
X318671443Y-34435318D02*
X318596725Y-34359456D01*
X318596725Y-34359456D02*
X318536721Y-34328883D01*
X318536721Y-34328883D02*
X318431429Y-34313024D01*
X318431429Y-34313024D02*
X318250276Y-34371885D01*
X318250276Y-34371885D02*
X318174414Y-34446603D01*
X318174414Y-34446603D02*
X318143841Y-34506607D01*
X318143841Y-34506607D02*
X318127982Y-34611899D01*
D11*
%TO.C,SW30*%
X323025151Y-74801881D02*
X327351389Y-88116673D01*
X323025151Y-74801881D02*
X336339943Y-70475643D01*
X336339943Y-70475643D02*
X340666181Y-83790435D01*
X340666181Y-83790435D02*
X327351389Y-88116673D01*
%TO.C,SW38*%
X348322916Y-88352924D02*
X351946383Y-101875885D01*
X348322916Y-88352924D02*
X361845877Y-84729457D01*
X361845877Y-84729457D02*
X365469344Y-98252418D01*
X365469344Y-98252418D02*
X351946383Y-101875885D01*
%TO.C,J2*%
X225756903Y-134831085D02*
X227611271Y-134081872D01*
X225869285Y-135109240D02*
X225756903Y-134831085D01*
X225869285Y-135109240D02*
X227629936Y-139467004D01*
X227311585Y-133340125D02*
X239364976Y-128470239D01*
X227611271Y-134081872D02*
X227311585Y-133340125D01*
X227629936Y-139467004D02*
X229484304Y-138717791D01*
X229484304Y-138717791D02*
X229783989Y-139459538D01*
X229783989Y-139459538D02*
X241837379Y-134589652D01*
X239364976Y-128470239D02*
X241837379Y-134589652D01*
%TO.C,SW8*%
X265928299Y-39587980D02*
X271172791Y-52568556D01*
X265928299Y-39587980D02*
X278908875Y-34343488D01*
X278908875Y-34343488D02*
X284153367Y-47324064D01*
X284153367Y-47324064D02*
X271172791Y-52568556D01*
%TO.C,SW28*%
X280200807Y-74913691D02*
X285445299Y-87894265D01*
X280200807Y-74913691D02*
X293181381Y-69669199D01*
X293181381Y-69669199D02*
X298425873Y-82649773D01*
X298425873Y-82649773D02*
X285445299Y-87894265D01*
%TO.C,SW10*%
X249392214Y-49513107D02*
X254636706Y-62493681D01*
X249392214Y-49513107D02*
X262372788Y-44268615D01*
X262372788Y-44268615D02*
X267617280Y-57249189D01*
X267617280Y-57249189D02*
X254636706Y-62493681D01*
%TO.C,SW40*%
X287337071Y-92576546D02*
X292581563Y-105557120D01*
X287337071Y-92576546D02*
X300317645Y-87332054D01*
X300317645Y-87332054D02*
X305562137Y-100312628D01*
X305562137Y-100312628D02*
X292581563Y-105557120D01*
%TO.C,SW22*%
X256528477Y-67175962D02*
X261772969Y-80156536D01*
X256528477Y-67175962D02*
X269509051Y-61931470D01*
X269509051Y-61931470D02*
X274753543Y-74912044D01*
X274753543Y-74912044D02*
X261772969Y-80156536D01*
%TO.C,SW44*%
X247128655Y-94763943D02*
X252373147Y-107744517D01*
X247128655Y-94763943D02*
X260109229Y-89519451D01*
X260109229Y-89519451D02*
X265353721Y-102500025D01*
X265353721Y-102500025D02*
X252373147Y-107744517D01*
%TO.C,SW42*%
X328911924Y-92919498D02*
X333238162Y-106234290D01*
X328911924Y-92919498D02*
X342226716Y-88593260D01*
X342226716Y-88593260D02*
X346552954Y-101908052D01*
X346552954Y-101908052D02*
X333238162Y-106234290D01*
%TO.C,SW18*%
X317138377Y-56684245D02*
X321464615Y-69999037D01*
X317138377Y-56684245D02*
X330453169Y-52358007D01*
X330453169Y-52358007D02*
X334779407Y-65672799D01*
X334779407Y-65672799D02*
X321464615Y-69999037D01*
%TO.C,SW48*%
X254264918Y-112426799D02*
X259509410Y-125407373D01*
X254264918Y-112426799D02*
X267245492Y-107182307D01*
X267245492Y-107182307D02*
X272489984Y-120162881D01*
X272489984Y-120162881D02*
X259509410Y-125407373D01*
%TO.C,SW34*%
X263664740Y-84838817D02*
X268909232Y-97819391D01*
X263664740Y-84838817D02*
X276645314Y-79594325D01*
X276645314Y-79594325D02*
X281889806Y-92574899D01*
X281889806Y-92574899D02*
X268909232Y-97819391D01*
%TO.C,SW46*%
X270800985Y-102501672D02*
X276045477Y-115482246D01*
X270800985Y-102501672D02*
X283781559Y-97257180D01*
X283781559Y-97257180D02*
X289026051Y-110237754D01*
X289026051Y-110237754D02*
X276045477Y-115482246D01*
%TO.C,SW26*%
X343392414Y-69952033D02*
X347015881Y-83474994D01*
X343392414Y-69952033D02*
X356915375Y-66328566D01*
X356915375Y-66328566D02*
X360538842Y-79851527D01*
X360538842Y-79851527D02*
X347015881Y-83474994D01*
%TO.C,SW32*%
X239992410Y-77101088D02*
X245236902Y-90081662D01*
X239992410Y-77101088D02*
X252972984Y-71856596D01*
X252972984Y-71856596D02*
X258217476Y-84837170D01*
X258217476Y-84837170D02*
X245236902Y-90081662D01*
%TO.C,SW4*%
X284717924Y-35240599D02*
X289962416Y-48221173D01*
X284717924Y-35240599D02*
X297698498Y-29996107D01*
X297698498Y-29996107D02*
X302942990Y-42976681D01*
X302942990Y-42976681D02*
X289962416Y-48221173D01*
%TO.C,SW12*%
X338461912Y-51551143D02*
X342085379Y-65074104D01*
X338461912Y-51551143D02*
X351984873Y-47927676D01*
X351984873Y-47927676D02*
X355608340Y-61450637D01*
X355608340Y-61450637D02*
X342085379Y-65074104D01*
%TO.C,U2*%
X210456101Y-81794647D02*
X210568483Y-82072802D01*
X210456101Y-81794647D02*
X229926962Y-73927908D01*
X211355157Y-84019888D02*
X211505000Y-84390762D01*
X211455177Y-84267446D02*
X214243219Y-83141004D01*
X212329134Y-86430566D02*
X212478977Y-86801440D01*
X213265651Y-88748526D02*
X213415493Y-89119398D01*
X214239628Y-91159204D02*
X214389472Y-91530077D01*
X214243219Y-83141004D02*
X213244143Y-80668205D01*
X215176144Y-93477164D02*
X215325987Y-93848037D01*
X216112661Y-95795123D02*
X216262504Y-96165997D01*
X217086638Y-98205801D02*
X217236481Y-98576675D01*
X218023155Y-100523761D02*
X218172997Y-100894634D01*
X218997132Y-102934439D02*
X219146974Y-103305312D01*
X219933648Y-105252398D02*
X220083491Y-105623272D01*
X220870165Y-107570358D02*
X221020007Y-107941232D01*
X221844142Y-109981036D02*
X221993984Y-110351910D01*
X222780658Y-112298996D02*
X222930501Y-112669869D01*
X223754635Y-114709674D02*
X223904478Y-115080547D01*
X224691152Y-117027633D02*
X224840995Y-117398507D01*
X225665129Y-119438311D02*
X225814972Y-119809185D01*
X226601646Y-121756271D02*
X226751488Y-122127145D01*
X227538162Y-124074231D02*
X227688005Y-124445104D01*
X228512139Y-126484909D02*
X228661982Y-126855782D01*
X229926962Y-73927908D02*
X230039344Y-74206064D01*
X230826018Y-76153150D02*
X230975861Y-76524023D01*
X231799995Y-78563828D02*
X231949838Y-78934701D01*
X232736512Y-80881787D02*
X232886354Y-81252661D01*
X233710489Y-83292465D02*
X233860332Y-83663339D01*
X234647005Y-85610425D02*
X234796848Y-85981299D01*
X235583522Y-87928385D02*
X235733365Y-88299258D01*
X235865888Y-126533699D02*
X229561038Y-129081024D01*
X236557499Y-90339063D02*
X236707342Y-90709936D01*
X237494016Y-92657022D02*
X237643858Y-93027896D01*
X237905692Y-125709564D02*
X238276566Y-125559722D01*
X238467993Y-95067700D02*
X238617835Y-95438574D01*
X239404509Y-97385660D02*
X239554352Y-97756534D01*
X240316370Y-124735587D02*
X240687244Y-124585744D01*
X240341026Y-99703620D02*
X240490868Y-100074493D01*
X241315003Y-102114298D02*
X241464845Y-102485171D01*
X242251519Y-104432257D02*
X242401362Y-104803131D01*
X243225496Y-106842935D02*
X243375339Y-107213809D01*
X244162013Y-109160895D02*
X244311856Y-109531768D01*
X245135990Y-111571573D02*
X245285833Y-111942447D01*
X246072507Y-113889534D02*
X246222349Y-114260406D01*
X247009023Y-116207492D02*
X247158866Y-116578366D01*
X247983000Y-118618170D02*
X248132843Y-118989044D01*
X249031899Y-121214285D02*
X242727048Y-123761610D01*
%TO.C,SW50*%
X295402472Y-122581584D02*
X300190754Y-135737280D01*
X295402472Y-122581584D02*
X308558168Y-117793302D01*
X308558168Y-117793302D02*
X313346450Y-130948998D01*
X313346450Y-130948998D02*
X300190754Y-135737280D01*
%TO.C,SW52*%
X277517458Y-130096887D02*
X280666773Y-143738068D01*
X277517458Y-130096887D02*
X291158639Y-126947572D01*
X291158639Y-126947572D02*
X294307954Y-140588753D01*
X294307954Y-140588753D02*
X280666773Y-143738068D01*
%TO.C,SW36*%
X306126695Y-88229165D02*
X311371187Y-101209739D01*
X306126695Y-88229165D02*
X319107269Y-82984673D01*
X319107269Y-82984673D02*
X324351761Y-95965247D01*
X324351761Y-95965247D02*
X311371187Y-101209739D01*
%TO.C,SW2*%
X333531412Y-33150252D02*
X337154876Y-46673212D01*
X333531412Y-33150252D02*
X347054372Y-29526788D01*
X347054372Y-29526788D02*
X350677836Y-43049748D01*
X350677836Y-43049748D02*
X337154876Y-46673212D01*
%TO.C,SW20*%
X232856147Y-59438233D02*
X238100639Y-72418807D01*
X232856147Y-59438233D02*
X245836721Y-54193741D01*
X245836721Y-54193741D02*
X251081213Y-67174315D01*
X251081213Y-67174315D02*
X238100639Y-72418807D01*
%TO.C,SW14*%
X291854186Y-52903453D02*
X297098678Y-65884029D01*
X291854186Y-52903453D02*
X304834762Y-47658961D01*
X304834762Y-47658961D02*
X310079254Y-60639537D01*
X310079254Y-60639537D02*
X297098678Y-65884029D01*
%TO.C,SW24*%
X298990431Y-70566308D02*
X304234923Y-83546884D01*
X298990431Y-70566308D02*
X311971007Y-65321816D01*
X311971007Y-65321816D02*
X317215499Y-78302392D01*
X317215499Y-78302392D02*
X304234923Y-83546884D01*
%TO.C,SW16*%
X273064563Y-57250836D02*
X278309055Y-70231410D01*
X273064563Y-57250836D02*
X286045137Y-52006344D01*
X286045137Y-52006344D02*
X291289629Y-64986918D01*
X291289629Y-64986918D02*
X278309055Y-70231410D01*
%TO.C,SW6*%
X311251603Y-38566628D02*
X315577841Y-51881420D01*
X311251603Y-38566628D02*
X324566395Y-34240390D01*
X324566395Y-34240390D02*
X328892633Y-47555182D01*
X328892633Y-47555182D02*
X315577841Y-51881420D01*
%TD*%
M02*
