0
SECTION
2
HEADER
9
$INSUNITS
70
4
0
ENDSEC
0
SECTION
2
TABLES
0
TABLE
2
LTYPE
0
LTYPE
72
65
70
64
2
CONTINUOUS
3
______
73
0
40
0
0
ENDTAB
0
TABLE
2
LAYER
0
ENDTAB
0
ENDSEC
0
SECTION
2
ENTITIES
0
LINE
8
0
10
-12.1180392
20
-6.5881049
11
7.2004773
21
-11.7644858
0
LINE
8
0
10
7.2004773
20
-11.7644858
11
7.5815511
21
-10.3422989
0
LINE
8
0
10
-12.1180392
20
-6.5881049
11
-2.2829154
21
30.1170765
0
LINE
8
0
10
12.3362222
20
7.4023751
11
17.0356011
21
24.9406956
0
LINE
8
0
10
17.0356011
20
24.9406957
11
26.8707248
21
61.6458771
0
LINE
8
0
10
-2.2829154
20
30.1170766
11
7.5522083
21
66.822258
0
LINE
8
0
10
26.8707248
20
61.6458771
11
7.5522083
21
66.822258
0
LINE
8
0
10
7.5815511
20
-10.3422989
11
25.688293
21
-16.2255359
0
LINE
8
0
10
25.688293
20
-16.2255359
11
29.5913514
21
-4.2131574
0
LINE
8
0
10
12.3362222
20
7.4023751
11
30.1524543
21
62.235099
0
LINE
8
0
10
33.7690487
20
8.6444729
11
49.1735846
21
56.0547592
0
LINE
8
0
10
49.1735846
20
56.0547592
11
30.1524543
21
62.235099
0
LINE
8
0
10
29.5913514
20
-4.2131574
11
47.2606389
21
-11.352013
0
LINE
8
0
10
47.2606389
20
-11.352013
11
48.3844587
21
-8.5704615
0
LINE
8
0
10
33.7690487
20
8.6444729
11
57.1870628
21
66.6060919
0
LINE
8
0
10
74.803556
20
59.4885666
11
57.1870628
21
66.6060919
0
LINE
8
0
10
48.3844587
20
-8.5704615
11
65.073768
21
-15.3133802
0
LINE
8
0
10
93.3472331
20
51.9964346
11
94.4710529
21
54.7779862
0
LINE
8
0
10
94.4710529
20
54.7779862
11
75.9273758
21
62.2701181
0
LINE
8
0
10
75.9273758
20
62.2701181
11
74.803556
21
59.4885666
0
LINE
8
0
10
63.9499482
20
-18.0949318
11
80.9121038
21
-24.9480876
0
LINE
8
0
10
81.2366155
20
-25.0791988
11
82.4936253
21
-25.5870637
0
LINE
8
0
10
82.4936253
20
-25.5870637
11
88.4873308
21
-10.752122
0
LINE
8
0
10
65.073768
20
-15.3133802
11
63.9499482
21
-18.0949318
0
LINE
8
0
10
109.8399065
20
42.0973578
11
110.9637263
21
44.8789093
0
LINE
8
0
10
110.9637263
20
44.8789093
11
93.3472331
21
51.9964346
0
LINE
8
0
10
88.4873308
20
-10.752122
11
106.103824
21
-17.8696473
0
LINE
8
0
10
106.103824
20
-17.8696473
11
127.4563998
21
34.9798325
0
LINE
8
0
10
127.4563998
20
34.9798325
11
109.8399065
21
42.0973578
0
LINE
8
0
10
42.0583535
20
-42.520018
11
62.0461701
21
-43.2180079
0
LINE
8
0
10
62.0461701
20
-43.2180079
11
62.3532888
21
-34.4232782
0
LINE
8
0
10
62.5942696
20
-27.5224914
11
62.7092605
21
-24.2295822
0
LINE
8
0
10
62.7092605
20
-24.2295822
11
42.7214439
21
-23.5315923
0
LINE
8
0
10
42.7214439
20
-23.5315923
11
42.0583535
21
-42.520018
0
LINE
8
0
10
64.051188
20
-46.5044587
11
83.8565493
21
-43.7209966
0
LINE
8
0
10
83.8565493
20
-43.7209966
11
81.7563078
21
-28.777002
0
LINE
8
0
10
81.7501311
20
-28.7330524
11
81.2366155
21
-25.0791988
0
LINE
8
0
10
80.9121038
20
-24.9480876
11
62.5942696
21
-27.5224914
0
LINE
8
0
10
62.3532888
20
-34.4232782
11
64.051188
21
-46.5044587
0
LINE
8
0
10
81.7563078
20
-28.777002
11
99.5537567
21
-37.8452551
0
LINE
8
0
10
99.5537567
20
-37.8452551
11
108.1795762
21
-20.9161311
0
LINE
8
0
10
108.1795762
20
-20.9161311
11
90.3594457
21
-11.8363211
0
LINE
8
0
10
90.3594457
20
-11.8363211
11
81.7501311
21
-28.7330524
0
LINE
8
0
10
270.5115929
20
-11.7644858
11
289.8301094
21
-6.5881049
0
LINE
8
0
10
279.9949856
20
30.1170765
11
289.8301094
21
-6.5881049
0
LINE
8
0
10
270.1305191
20
-10.3422989
11
270.5115929
21
-11.7644858
0
LINE
8
0
10
260.6764691
20
24.9406956
11
265.375848
21
7.4023751
0
LINE
8
0
10
270.1598619
20
66.822258
11
279.9949856
21
30.1170766
0
LINE
8
0
10
250.8413454
20
61.6458771
11
260.6764691
21
24.9406957
0
LINE
8
0
10
270.1598619
20
66.822258
11
250.8413454
21
61.6458771
0
LINE
8
0
10
252.0237772
20
-16.2255359
11
270.1305191
21
-10.3422989
0
LINE
8
0
10
247.5596159
20
62.235099
11
265.375848
21
7.4023751
0
LINE
8
0
10
248.1207188
20
-4.2131574
11
252.0237772
21
-16.2255359
0
LINE
8
0
10
228.5384856
20
56.0547592
11
243.9430215
21
8.6444729
0
LINE
8
0
10
247.5596159
20
62.235099
11
228.5384856
21
56.0547592
0
LINE
8
0
10
230.4514313
20
-11.352013
11
248.1207188
21
-4.2131574
0
LINE
8
0
10
220.5250074
20
66.6060919
11
243.9430215
21
8.6444729
0
LINE
8
0
10
229.3276115
20
-8.5704615
11
230.4514313
21
-11.352013
0
LINE
8
0
10
220.5250074
20
66.6060919
11
202.9085142
21
59.4885666
0
LINE
8
0
10
212.6383022
20
-15.3133802
11
229.3276115
21
-8.5704615
0
LINE
8
0
10
202.9085142
20
59.4885666
11
201.7846944
21
62.2701181
0
LINE
8
0
10
201.7846944
20
62.2701181
11
183.2410173
21
54.7779862
0
LINE
8
0
10
183.2410173
20
54.7779862
11
184.3648371
21
51.9964346
0
LINE
8
0
10
195.2184449
20
-25.5870637
11
196.4754547
21
-25.0791988
0
LINE
8
0
10
196.7999664
20
-24.9480876
11
213.762122
21
-18.0949318
0
LINE
8
0
10
213.762122
20
-18.0949318
11
212.6383022
21
-15.3133802
0
LINE
8
0
10
189.2247394
20
-10.752122
11
195.2184449
21
-25.5870637
0
LINE
8
0
10
184.3648371
20
51.9964346
11
166.7483439
21
44.8789093
0
LINE
8
0
10
166.7483439
20
44.8789093
11
167.8721637
21
42.0973578
0
LINE
8
0
10
171.6082462
20
-17.8696473
11
189.2247394
21
-10.752122
0
LINE
8
0
10
150.2556704
20
34.9798325
11
171.6082462
21
-17.8696473
0
LINE
8
0
10
167.8721637
20
42.0973578
11
150.2556704
21
34.9798325
0
LINE
8
0
10
215.6659001
20
-43.2180079
11
235.6537167
21
-42.520018
0
LINE
8
0
10
235.6537167
20
-42.520018
11
234.9906263
21
-23.5315923
0
LINE
8
0
10
234.9906263
20
-23.5315923
11
215.0028097
21
-24.2295822
0
LINE
8
0
10
215.0028097
20
-24.2295822
11
215.1178006
21
-27.5224914
0
LINE
8
0
10
215.3587814
20
-34.4232782
11
215.6659001
21
-43.2180079
0
LINE
8
0
10
193.8555209
20
-43.7209966
11
213.6608822
21
-46.5044587
0
LINE
8
0
10
213.6608822
20
-46.5044587
11
215.3587814
21
-34.4232782
0
LINE
8
0
10
215.1178006
20
-27.5224914
11
196.7999664
21
-24.9480876
0
LINE
8
0
10
196.4754547
20
-25.0791988
11
195.9619391
21
-28.7330524
0
LINE
8
0
10
195.9557624
20
-28.777002
11
193.8555209
21
-43.7209966
0
LINE
8
0
10
178.1583135
20
-37.8452551
11
195.9557624
21
-28.777002
0
LINE
8
0
10
195.9619391
20
-28.7330524
11
187.3526245
21
-11.8363211
0
LINE
8
0
10
187.3526245
20
-11.8363211
11
169.532494
21
-20.9161311
0
LINE
8
0
10
169.532494
20
-20.9161311
11
178.1583135
21
-37.8452551
0
ENDSEC
0
EOF