0
SECTION
2
HEADER
9
$INSUNITS
70
4
0
ENDSEC
0
SECTION
2
TABLES
0
TABLE
2
LTYPE
0
LTYPE
72
65
70
64
2
CONTINUOUS
3
______
73
0
40
0
0
ENDTAB
0
TABLE
2
LAYER
0
ENDTAB
0
ENDSEC
0
SECTION
2
ENTITIES
0
LINE
8
0
10
-12.1180392
20
-6.5881049
11
7.2004773
21
-11.7644858
0
LINE
8
0
10
7.2004773
20
-11.7644858
11
7.5815511
21
-10.3422989
0
LINE
8
0
10
-12.1180392
20
-6.5881049
11
-2.2829154
21
30.1170765
0
LINE
8
0
10
12.3362222
20
7.4023751
11
17.0356011
21
24.9406956
0
LINE
8
0
10
17.0356011
20
24.9406957
11
26.8707248
21
61.6458771
0
LINE
8
0
10
-2.2829154
20
30.1170766
11
7.5522083
21
66.822258
0
LINE
8
0
10
26.8707248
20
61.6458771
11
7.5522083
21
66.822258
0
LINE
8
0
10
7.5815511
20
-10.3422989
11
25.688293
21
-16.2255359
0
LINE
8
0
10
25.688293
20
-16.2255359
11
29.5913514
21
-4.2131574
0
LINE
8
0
10
12.3362222
20
7.4023751
11
30.1524543
21
62.235099
0
LINE
8
0
10
33.7690487
20
8.6444729
11
49.1735846
21
56.0547592
0
LINE
8
0
10
49.1735846
20
56.0547592
11
30.1524543
21
62.235099
0
LINE
8
0
10
29.5913514
20
-4.2131574
11
47.2606389
21
-11.352013
0
LINE
8
0
10
47.2606389
20
-11.352013
11
48.3844587
21
-8.5704615
0
LINE
8
0
10
33.7690487
20
8.6444729
11
57.1870628
21
66.6060919
0
LINE
8
0
10
74.803556
20
59.4885666
11
57.1870628
21
66.6060919
0
LINE
8
0
10
48.3844587
20
-8.5704615
11
65.073768
21
-15.3133802
0
LINE
8
0
10
93.3472331
20
51.9964346
11
94.4710529
21
54.7779862
0
LINE
8
0
10
94.4710529
20
54.7779862
11
75.9273758
21
62.2701181
0
LINE
8
0
10
75.9273758
20
62.2701181
11
74.803556
21
59.4885666
0
LINE
8
0
10
63.9499482
20
-18.0949318
11
82.4936253
21
-25.5870637
0
LINE
8
0
10
82.4936253
20
-25.5870637
11
110.9637263
21
44.8789093
0
LINE
8
0
10
65.073768
20
-15.3133802
11
63.9499482
21
-18.0949318
0
LINE
8
0
10
110.9637263
20
44.8789093
11
93.3472331
21
51.9964346
0
LINE
8
0
10
82.7291093
20
-29.4947289
11
101.7502396
21
-35.6750687
0
LINE
8
0
10
101.7502396
20
-35.6750687
11
107.6215625
21
-17.6049949
0
LINE
8
0
10
90.5025453
20
-12.0426891
11
88.6004322
21
-11.4246551
0
LINE
8
0
10
88.6004322
20
-11.4246551
11
82.7291093
21
-29.4947289
0
LINE
8
0
10
107.6215625
20
-17.6049949
11
109.5236756
21
-18.2230289
0
LINE
8
0
10
109.5236756
20
-18.2230289
11
115.3949985
21
-0.1529551
0
LINE
8
0
10
98.2759813
20
5.4093507
11
96.3738682
21
6.0273847
0
LINE
8
0
10
96.3738682
20
6.0273847
11
90.5025453
21
-12.0426891
0
LINE
8
0
10
115.3949985
20
-0.1529551
11
117.2971116
21
-0.7709891
0
LINE
8
0
10
117.2971116
20
-0.7709891
11
123.1684345
21
17.2990847
0
LINE
8
0
10
106.0494173
20
22.8613905
11
104.1473042
21
23.4794245
0
LINE
8
0
10
104.1473042
20
23.4794245
11
98.2759813
21
5.4093507
0
LINE
8
0
10
123.1684345
20
17.2990847
11
125.0705476
21
16.6810507
0
LINE
8
0
10
125.0705476
20
16.6810507
11
130.9418705
21
34.7511245
0
LINE
8
0
10
130.9418705
20
34.7511245
11
111.9207402
21
40.9314643
0
LINE
8
0
10
111.9207402
20
40.9314643
11
106.0494173
21
22.8613905
0
LINE
8
0
10
42.6677629
20
-42.764564
11
61.6888932
21
-48.9449038
0
LINE
8
0
10
61.6888932
20
-48.9449038
11
64.408271
21
-40.5755195
0
LINE
8
0
10
66.542031
20
-34.0084816
11
67.5602161
21
-30.87483
0
LINE
8
0
10
67.5602161
20
-30.87483
11
48.5390858
21
-24.6944902
0
LINE
8
0
10
48.5390858
20
-24.6944902
11
42.6677629
21
-42.764564
0
LINE
8
0
10
62.7103717
20
-52.6567009
11
82.515733
21
-55.440163
0
LINE
8
0
10
82.515733
20
-55.440163
11
85.1600219
21
-36.6250697
0
LINE
8
0
10
85.1600219
20
-36.6250697
11
66.542031
21
-34.0084816
0
LINE
8
0
10
64.408271
20
-40.5755195
11
62.7103717
21
-52.6567009
0
LINE
8
0
10
270.5115929
20
-11.7644858
11
289.8301094
21
-6.5881049
0
LINE
8
0
10
279.9949856
20
30.1170765
11
289.8301094
21
-6.5881049
0
LINE
8
0
10
270.1305191
20
-10.3422989
11
270.5115929
21
-11.7644858
0
LINE
8
0
10
260.6764691
20
24.9406956
11
265.375848
21
7.4023751
0
LINE
8
0
10
270.1598619
20
66.822258
11
279.9949856
21
30.1170766
0
LINE
8
0
10
250.8413454
20
61.6458771
11
260.6764691
21
24.9406957
0
LINE
8
0
10
270.1598619
20
66.822258
11
250.8413454
21
61.6458771
0
LINE
8
0
10
252.0237772
20
-16.2255359
11
270.1305191
21
-10.3422989
0
LINE
8
0
10
247.5596159
20
62.235099
11
265.375848
21
7.4023751
0
LINE
8
0
10
248.1207188
20
-4.2131574
11
252.0237772
21
-16.2255359
0
LINE
8
0
10
228.5384856
20
56.0547592
11
243.9430215
21
8.6444729
0
LINE
8
0
10
247.5596159
20
62.235099
11
228.5384856
21
56.0547592
0
LINE
8
0
10
230.4514313
20
-11.352013
11
248.1207188
21
-4.2131574
0
LINE
8
0
10
220.5250074
20
66.6060919
11
243.9430215
21
8.6444729
0
LINE
8
0
10
229.3276115
20
-8.5704615
11
230.4514313
21
-11.352013
0
LINE
8
0
10
220.5250074
20
66.6060919
11
202.9085142
21
59.4885666
0
LINE
8
0
10
212.6383022
20
-15.3133802
11
229.3276115
21
-8.5704615
0
LINE
8
0
10
202.9085142
20
59.4885666
11
201.7846944
21
62.2701181
0
LINE
8
0
10
201.7846944
20
62.2701181
11
183.2410173
21
54.7779862
0
LINE
8
0
10
183.2410173
20
54.7779862
11
184.3648371
21
51.9964346
0
LINE
8
0
10
195.2184449
20
-25.5870637
11
213.762122
21
-18.0949318
0
LINE
8
0
10
213.762122
20
-18.0949318
11
212.6383022
21
-15.3133802
0
LINE
8
0
10
166.7483439
20
44.8789093
11
195.2184449
21
-25.5870637
0
LINE
8
0
10
184.3648371
20
51.9964346
11
166.7483439
21
44.8789093
0
LINE
8
0
10
175.9618306
20
-35.6750687
11
194.9829609
21
-29.4947289
0
LINE
8
0
10
194.9829609
20
-29.4947289
11
189.111638
21
-11.4246551
0
LINE
8
0
10
189.111638
20
-11.4246551
11
187.2095249
21
-12.0426891
0
LINE
8
0
10
170.0905077
20
-17.6049949
11
175.9618306
21
-35.6750687
0
LINE
8
0
10
168.1883946
20
-18.2230289
11
170.0905077
21
-17.6049949
0
LINE
8
0
10
187.2095249
20
-12.0426891
11
181.338202
21
6.0273847
0
LINE
8
0
10
181.338202
20
6.0273847
11
179.4360889
21
5.4093507
0
LINE
8
0
10
162.3170717
20
-0.1529551
11
168.1883946
21
-18.2230289
0
LINE
8
0
10
160.4149586
20
-0.7709891
11
162.3170717
21
-0.1529551
0
LINE
8
0
10
179.4360889
20
5.4093507
11
173.564766
21
23.4794245
0
LINE
8
0
10
173.564766
20
23.4794245
11
171.6626529
21
22.8613905
0
LINE
8
0
10
154.5436357
20
17.2990847
11
160.4149586
21
-0.7709891
0
LINE
8
0
10
152.6415226
20
16.6810507
11
154.5436357
21
17.2990847
0
LINE
8
0
10
171.6626529
20
22.8613905
11
165.79133
21
40.9314643
0
LINE
8
0
10
165.79133
20
40.9314643
11
146.7701997
21
34.7511245
0
LINE
8
0
10
146.7701997
20
34.7511245
11
152.6415226
21
16.6810507
0
LINE
8
0
10
216.023177
20
-48.9449038
11
235.0443073
21
-42.764564
0
LINE
8
0
10
235.0443073
20
-42.764564
11
229.1729844
21
-24.6944902
0
LINE
8
0
10
229.1729844
20
-24.6944902
11
210.1518541
21
-30.87483
0
LINE
8
0
10
210.1518541
20
-30.87483
11
211.1700392
21
-34.0084816
0
LINE
8
0
10
213.3037992
20
-40.5755195
11
216.023177
21
-48.9449038
0
LINE
8
0
10
195.1963372
20
-55.440163
11
215.0016985
21
-52.6567009
0
LINE
8
0
10
215.0016985
20
-52.6567009
11
213.3037992
21
-40.5755195
0
LINE
8
0
10
211.1700392
20
-34.0084816
11
192.5520483
21
-36.6250697
0
LINE
8
0
10
192.5520483
20
-36.6250697
11
195.1963372
21
-55.440163
0
ENDSEC
0
EOF