%TF.GenerationSoftware,KiCad,Pcbnew,9.0.5*%
%TF.CreationDate,2025-10-09T16:25:36-06:00*%
%TF.ProjectId,ergo-kola (left),6572676f-2d6b-46f6-9c61-20286c656674,rev?*%
%TF.SameCoordinates,Original*%
%TF.FileFunction,Legend,Top*%
%TF.FilePolarity,Positive*%
%FSLAX46Y46*%
G04 Gerber Fmt 4.6, Leading zero omitted, Abs format (unit mm)*
G04 Created by KiCad (PCBNEW 9.0.5) date 2025-10-09 16:25:36*
%MOMM*%
%LPD*%
G01*
G04 APERTURE LIST*
%ADD10C,0.150000*%
%ADD11C,0.120000*%
G04 APERTURE END LIST*
D10*
X113435811Y-126892048D02*
X113564294Y-126970582D01*
X113564294Y-126970582D02*
X113796287Y-127024142D01*
X113796287Y-127024142D02*
X113899796Y-126999167D01*
X113899796Y-126999167D02*
X113956907Y-126963481D01*
X113956907Y-126963481D02*
X114024729Y-126881395D01*
X114024729Y-126881395D02*
X114046153Y-126788598D01*
X114046153Y-126788598D02*
X114021179Y-126685089D01*
X114021179Y-126685089D02*
X113985492Y-126627979D01*
X113985492Y-126627979D02*
X113903407Y-126560156D01*
X113903407Y-126560156D02*
X113728524Y-126470910D01*
X113728524Y-126470910D02*
X113646439Y-126403087D01*
X113646439Y-126403087D02*
X113610753Y-126345977D01*
X113610753Y-126345977D02*
X113585778Y-126242468D01*
X113585778Y-126242468D02*
X113607202Y-126149671D01*
X113607202Y-126149671D02*
X113675024Y-126067585D01*
X113675024Y-126067585D02*
X113732135Y-126031899D01*
X113732135Y-126031899D02*
X113835644Y-126006924D01*
X113835644Y-126006924D02*
X114067637Y-126060484D01*
X114067637Y-126060484D02*
X114196121Y-126139018D01*
X114531623Y-126167603D02*
X114538664Y-127195533D01*
X114538664Y-127195533D02*
X114884938Y-126542402D01*
X114884938Y-126542402D02*
X114909853Y-127281229D01*
X114909853Y-127281229D02*
X115366797Y-126360419D01*
X116201971Y-126553234D02*
X115737985Y-126446114D01*
X115737985Y-126446114D02*
X115584467Y-126899388D01*
X115584467Y-126899388D02*
X115641578Y-126863701D01*
X115641578Y-126863701D02*
X115745087Y-126838727D01*
X115745087Y-126838727D02*
X115977080Y-126892286D01*
X115977080Y-126892286D02*
X116059165Y-126960109D01*
X116059165Y-126960109D02*
X116094852Y-127017219D01*
X116094852Y-127017219D02*
X116119826Y-127120729D01*
X116119826Y-127120729D02*
X116066267Y-127352721D01*
X116066267Y-127352721D02*
X115998444Y-127434807D01*
X115998444Y-127434807D02*
X115941334Y-127470493D01*
X115941334Y-127470493D02*
X115837824Y-127495468D01*
X115837824Y-127495468D02*
X115605832Y-127441908D01*
X115605832Y-127441908D02*
X115523746Y-127374086D01*
X115523746Y-127374086D02*
X115488060Y-127316975D01*
X116951390Y-127752555D02*
X116394607Y-127624011D01*
X116672999Y-127688283D02*
X116897950Y-126713913D01*
X116897950Y-126713913D02*
X116773017Y-126831685D01*
X116773017Y-126831685D02*
X116658796Y-126903058D01*
X116658796Y-126903058D02*
X116555287Y-126928033D01*
X111356011Y-70449691D02*
X111470628Y-70547358D01*
X111470628Y-70547358D02*
X111691386Y-70636550D01*
X111691386Y-70636550D02*
X111797528Y-70628075D01*
X111797528Y-70628075D02*
X111859518Y-70601762D01*
X111859518Y-70601762D02*
X111939346Y-70531297D01*
X111939346Y-70531297D02*
X111975023Y-70442994D01*
X111975023Y-70442994D02*
X111966548Y-70336852D01*
X111966548Y-70336852D02*
X111940235Y-70274862D01*
X111940235Y-70274862D02*
X111869770Y-70195034D01*
X111869770Y-70195034D02*
X111711002Y-70079529D01*
X111711002Y-70079529D02*
X111640537Y-69999700D01*
X111640537Y-69999700D02*
X111614224Y-69937710D01*
X111614224Y-69937710D02*
X111605749Y-69831569D01*
X111605749Y-69831569D02*
X111641426Y-69743265D01*
X111641426Y-69743265D02*
X111721254Y-69672801D01*
X111721254Y-69672801D02*
X111783244Y-69646487D01*
X111783244Y-69646487D02*
X111889386Y-69638013D01*
X111889386Y-69638013D02*
X112110144Y-69727205D01*
X112110144Y-69727205D02*
X112224761Y-69824871D01*
X112551660Y-69905589D02*
X112397812Y-70921965D01*
X112397812Y-70921965D02*
X112841994Y-70331044D01*
X112841994Y-70331044D02*
X112751025Y-71064672D01*
X112751025Y-71064672D02*
X113346389Y-70226680D01*
X113619774Y-70439852D02*
X113681764Y-70413539D01*
X113681764Y-70413539D02*
X113787905Y-70405064D01*
X113787905Y-70405064D02*
X114008663Y-70494256D01*
X114008663Y-70494256D02*
X114079128Y-70574085D01*
X114079128Y-70574085D02*
X114105441Y-70636075D01*
X114105441Y-70636075D02*
X114113916Y-70742216D01*
X114113916Y-70742216D02*
X114078239Y-70830520D01*
X114078239Y-70830520D02*
X113980573Y-70945136D01*
X113980573Y-70945136D02*
X113236692Y-71260894D01*
X113236692Y-71260894D02*
X113810663Y-71492794D01*
X114494331Y-70690479D02*
X115112454Y-70940216D01*
X115112454Y-70940216D02*
X114340483Y-71706855D01*
X162854633Y-138442100D02*
X162587057Y-139104374D01*
X162587057Y-139104374D02*
X162489390Y-139218990D01*
X162489390Y-139218990D02*
X162365410Y-139271617D01*
X162365410Y-139271617D02*
X162215117Y-139262253D01*
X162215117Y-139262253D02*
X162126814Y-139226576D01*
X163407211Y-139743890D02*
X162877392Y-139529829D01*
X163142301Y-139636860D02*
X163516908Y-138709676D01*
X163516908Y-138709676D02*
X163375089Y-138806454D01*
X163375089Y-138806454D02*
X163251109Y-138859080D01*
X163251109Y-138859080D02*
X163144968Y-138867555D01*
X118492256Y-52786836D02*
X118606873Y-52884503D01*
X118606873Y-52884503D02*
X118827631Y-52973695D01*
X118827631Y-52973695D02*
X118933773Y-52965220D01*
X118933773Y-52965220D02*
X118995763Y-52938907D01*
X118995763Y-52938907D02*
X119075591Y-52868442D01*
X119075591Y-52868442D02*
X119111268Y-52780139D01*
X119111268Y-52780139D02*
X119102793Y-52673997D01*
X119102793Y-52673997D02*
X119076480Y-52612007D01*
X119076480Y-52612007D02*
X119006015Y-52532179D01*
X119006015Y-52532179D02*
X118847247Y-52416674D01*
X118847247Y-52416674D02*
X118776782Y-52336845D01*
X118776782Y-52336845D02*
X118750469Y-52274855D01*
X118750469Y-52274855D02*
X118741994Y-52168714D01*
X118741994Y-52168714D02*
X118777671Y-52080410D01*
X118777671Y-52080410D02*
X118857499Y-52009946D01*
X118857499Y-52009946D02*
X118919489Y-51983632D01*
X118919489Y-51983632D02*
X119025631Y-51975158D01*
X119025631Y-51975158D02*
X119246389Y-52064350D01*
X119246389Y-52064350D02*
X119361006Y-52162016D01*
X119687905Y-52242734D02*
X119534057Y-53259110D01*
X119534057Y-53259110D02*
X119978239Y-52668189D01*
X119978239Y-52668189D02*
X119887270Y-53401817D01*
X119887270Y-53401817D02*
X120482634Y-52563825D01*
X120946908Y-53829939D02*
X120417089Y-53615878D01*
X120681999Y-53722908D02*
X121056605Y-52795724D01*
X121056605Y-52795724D02*
X120914787Y-52892502D01*
X120914787Y-52892502D02*
X120790807Y-52945129D01*
X120790807Y-52945129D02*
X120684665Y-52953604D01*
X122160395Y-53241685D02*
X121718879Y-53063301D01*
X121718879Y-53063301D02*
X121496344Y-53486978D01*
X121496344Y-53486978D02*
X121558334Y-53460665D01*
X121558334Y-53460665D02*
X121664475Y-53452190D01*
X121664475Y-53452190D02*
X121885233Y-53541382D01*
X121885233Y-53541382D02*
X121955698Y-53621211D01*
X121955698Y-53621211D02*
X121982011Y-53683201D01*
X121982011Y-53683201D02*
X121990486Y-53789342D01*
X121990486Y-53789342D02*
X121901294Y-54010100D01*
X121901294Y-54010100D02*
X121821466Y-54080565D01*
X121821466Y-54080565D02*
X121759476Y-54106878D01*
X121759476Y-54106878D02*
X121653334Y-54115353D01*
X121653334Y-54115353D02*
X121432576Y-54026161D01*
X121432576Y-54026161D02*
X121362111Y-53946333D01*
X121362111Y-53946333D02*
X121335798Y-53884343D01*
X142606122Y-45227492D02*
X142720738Y-45325158D01*
X142720738Y-45325158D02*
X142941497Y-45414350D01*
X142941497Y-45414350D02*
X143047638Y-45405876D01*
X143047638Y-45405876D02*
X143109628Y-45379562D01*
X143109628Y-45379562D02*
X143189457Y-45309098D01*
X143189457Y-45309098D02*
X143225133Y-45220794D01*
X143225133Y-45220794D02*
X143216659Y-45114653D01*
X143216659Y-45114653D02*
X143190345Y-45052663D01*
X143190345Y-45052663D02*
X143119881Y-44972834D01*
X143119881Y-44972834D02*
X142961113Y-44857329D01*
X142961113Y-44857329D02*
X142890648Y-44777501D01*
X142890648Y-44777501D02*
X142864335Y-44715511D01*
X142864335Y-44715511D02*
X142855860Y-44609369D01*
X142855860Y-44609369D02*
X142891537Y-44521066D01*
X142891537Y-44521066D02*
X142971365Y-44450601D01*
X142971365Y-44450601D02*
X143033355Y-44424288D01*
X143033355Y-44424288D02*
X143139497Y-44415813D01*
X143139497Y-44415813D02*
X143360255Y-44505005D01*
X143360255Y-44505005D02*
X143474871Y-44602672D01*
X143801771Y-44683389D02*
X143647922Y-45699765D01*
X143647922Y-45699765D02*
X144092105Y-45108844D01*
X144092105Y-45108844D02*
X144001135Y-45842472D01*
X144001135Y-45842472D02*
X144596500Y-45004480D01*
X144619258Y-46092210D02*
X144795864Y-46163564D01*
X144795864Y-46163564D02*
X144902006Y-46155089D01*
X144902006Y-46155089D02*
X144963996Y-46128776D01*
X144963996Y-46128776D02*
X145105814Y-46031998D01*
X145105814Y-46031998D02*
X145221320Y-45873229D01*
X145221320Y-45873229D02*
X145364027Y-45520017D01*
X145364027Y-45520017D02*
X145355552Y-45413875D01*
X145355552Y-45413875D02*
X145329239Y-45351885D01*
X145329239Y-45351885D02*
X145258774Y-45272057D01*
X145258774Y-45272057D02*
X145082168Y-45200703D01*
X145082168Y-45200703D02*
X144976026Y-45209178D01*
X144976026Y-45209178D02*
X144914036Y-45235491D01*
X144914036Y-45235491D02*
X144834207Y-45305956D01*
X144834207Y-45305956D02*
X144745015Y-45526714D01*
X144745015Y-45526714D02*
X144753490Y-45632855D01*
X144753490Y-45632855D02*
X144779803Y-45694845D01*
X144779803Y-45694845D02*
X144850268Y-45774674D01*
X144850268Y-45774674D02*
X145026875Y-45846027D01*
X145026875Y-45846027D02*
X145133016Y-45837553D01*
X145133016Y-45837553D02*
X145195006Y-45811239D01*
X145195006Y-45811239D02*
X145274835Y-45740775D01*
X144428164Y-90299943D02*
X144542781Y-90397610D01*
X144542781Y-90397610D02*
X144763539Y-90486802D01*
X144763539Y-90486802D02*
X144869681Y-90478327D01*
X144869681Y-90478327D02*
X144931671Y-90452014D01*
X144931671Y-90452014D02*
X145011499Y-90381549D01*
X145011499Y-90381549D02*
X145047176Y-90293246D01*
X145047176Y-90293246D02*
X145038701Y-90187104D01*
X145038701Y-90187104D02*
X145012388Y-90125114D01*
X145012388Y-90125114D02*
X144941923Y-90045286D01*
X144941923Y-90045286D02*
X144783155Y-89929781D01*
X144783155Y-89929781D02*
X144712690Y-89849952D01*
X144712690Y-89849952D02*
X144686377Y-89787962D01*
X144686377Y-89787962D02*
X144677902Y-89681821D01*
X144677902Y-89681821D02*
X144713579Y-89593517D01*
X144713579Y-89593517D02*
X144793407Y-89523053D01*
X144793407Y-89523053D02*
X144855397Y-89496739D01*
X144855397Y-89496739D02*
X144961539Y-89488265D01*
X144961539Y-89488265D02*
X145182297Y-89577457D01*
X145182297Y-89577457D02*
X145296914Y-89675123D01*
X145623813Y-89755841D02*
X145469965Y-90772217D01*
X145469965Y-90772217D02*
X145914147Y-90181296D01*
X145914147Y-90181296D02*
X145823178Y-90914924D01*
X145823178Y-90914924D02*
X146418542Y-90076932D01*
X147044251Y-90689246D02*
X146794513Y-91307369D01*
X146966200Y-90246841D02*
X146477866Y-90819924D01*
X146477866Y-90819924D02*
X147051837Y-91051823D01*
X147566484Y-90540731D02*
X148140455Y-90772630D01*
X148140455Y-90772630D02*
X147688687Y-91000974D01*
X147688687Y-91000974D02*
X147821141Y-91054489D01*
X147821141Y-91054489D02*
X147891606Y-91134318D01*
X147891606Y-91134318D02*
X147917919Y-91196308D01*
X147917919Y-91196308D02*
X147926394Y-91302449D01*
X147926394Y-91302449D02*
X147837202Y-91523207D01*
X147837202Y-91523207D02*
X147757374Y-91593672D01*
X147757374Y-91593672D02*
X147695384Y-91619985D01*
X147695384Y-91619985D02*
X147589242Y-91628460D01*
X147589242Y-91628460D02*
X147324332Y-91521430D01*
X147324332Y-91521430D02*
X147253868Y-91441601D01*
X147253868Y-91441601D02*
X147227554Y-91379611D01*
X127892078Y-80374817D02*
X128006695Y-80472484D01*
X128006695Y-80472484D02*
X128227453Y-80561676D01*
X128227453Y-80561676D02*
X128333595Y-80553201D01*
X128333595Y-80553201D02*
X128395585Y-80526888D01*
X128395585Y-80526888D02*
X128475413Y-80456423D01*
X128475413Y-80456423D02*
X128511090Y-80368120D01*
X128511090Y-80368120D02*
X128502615Y-80261978D01*
X128502615Y-80261978D02*
X128476302Y-80199988D01*
X128476302Y-80199988D02*
X128405837Y-80120160D01*
X128405837Y-80120160D02*
X128247069Y-80004655D01*
X128247069Y-80004655D02*
X128176604Y-79924826D01*
X128176604Y-79924826D02*
X128150291Y-79862836D01*
X128150291Y-79862836D02*
X128141816Y-79756695D01*
X128141816Y-79756695D02*
X128177493Y-79668391D01*
X128177493Y-79668391D02*
X128257321Y-79597927D01*
X128257321Y-79597927D02*
X128319311Y-79571613D01*
X128319311Y-79571613D02*
X128425453Y-79563139D01*
X128425453Y-79563139D02*
X128646211Y-79652331D01*
X128646211Y-79652331D02*
X128760828Y-79749997D01*
X129087727Y-79830715D02*
X128933879Y-80847091D01*
X128933879Y-80847091D02*
X129378061Y-80256170D01*
X129378061Y-80256170D02*
X129287092Y-80989798D01*
X129287092Y-80989798D02*
X129882456Y-80151806D01*
X130147366Y-80258837D02*
X130721337Y-80490736D01*
X130721337Y-80490736D02*
X130269568Y-80719080D01*
X130269568Y-80719080D02*
X130402023Y-80772595D01*
X130402023Y-80772595D02*
X130472488Y-80852424D01*
X130472488Y-80852424D02*
X130498801Y-80914414D01*
X130498801Y-80914414D02*
X130507276Y-81020555D01*
X130507276Y-81020555D02*
X130418084Y-81241313D01*
X130418084Y-81241313D02*
X130338255Y-81311778D01*
X130338255Y-81311778D02*
X130276265Y-81338091D01*
X130276265Y-81338091D02*
X130170124Y-81346566D01*
X130170124Y-81346566D02*
X129905214Y-81239536D01*
X129905214Y-81239536D02*
X129834749Y-81159707D01*
X129834749Y-81159707D02*
X129808436Y-81097717D01*
X131030398Y-80615605D02*
X131604369Y-80847504D01*
X131604369Y-80847504D02*
X131152601Y-81075848D01*
X131152601Y-81075848D02*
X131285055Y-81129363D01*
X131285055Y-81129363D02*
X131355520Y-81209192D01*
X131355520Y-81209192D02*
X131381833Y-81271182D01*
X131381833Y-81271182D02*
X131390308Y-81377323D01*
X131390308Y-81377323D02*
X131301116Y-81598081D01*
X131301116Y-81598081D02*
X131221288Y-81668546D01*
X131221288Y-81668546D02*
X131159298Y-81694859D01*
X131159298Y-81694859D02*
X131053156Y-81703334D01*
X131053156Y-81703334D02*
X130788246Y-81596304D01*
X130788246Y-81596304D02*
X130717782Y-81516475D01*
X130717782Y-81516475D02*
X130691468Y-81454485D01*
X104219748Y-88112546D02*
X104334365Y-88210213D01*
X104334365Y-88210213D02*
X104555123Y-88299405D01*
X104555123Y-88299405D02*
X104661265Y-88290930D01*
X104661265Y-88290930D02*
X104723255Y-88264617D01*
X104723255Y-88264617D02*
X104803083Y-88194152D01*
X104803083Y-88194152D02*
X104838760Y-88105849D01*
X104838760Y-88105849D02*
X104830285Y-87999707D01*
X104830285Y-87999707D02*
X104803972Y-87937717D01*
X104803972Y-87937717D02*
X104733507Y-87857889D01*
X104733507Y-87857889D02*
X104574739Y-87742384D01*
X104574739Y-87742384D02*
X104504274Y-87662555D01*
X104504274Y-87662555D02*
X104477961Y-87600565D01*
X104477961Y-87600565D02*
X104469486Y-87494424D01*
X104469486Y-87494424D02*
X104505163Y-87406120D01*
X104505163Y-87406120D02*
X104584991Y-87335656D01*
X104584991Y-87335656D02*
X104646981Y-87309342D01*
X104646981Y-87309342D02*
X104753123Y-87300868D01*
X104753123Y-87300868D02*
X104973881Y-87390060D01*
X104973881Y-87390060D02*
X105088498Y-87487726D01*
X105415397Y-87568444D02*
X105261549Y-88584820D01*
X105261549Y-88584820D02*
X105705731Y-87993899D01*
X105705731Y-87993899D02*
X105614762Y-88727527D01*
X105614762Y-88727527D02*
X106210126Y-87889535D01*
X106475036Y-87996566D02*
X107049007Y-88228465D01*
X107049007Y-88228465D02*
X106597238Y-88456809D01*
X106597238Y-88456809D02*
X106729693Y-88510324D01*
X106729693Y-88510324D02*
X106800158Y-88590153D01*
X106800158Y-88590153D02*
X106826471Y-88652143D01*
X106826471Y-88652143D02*
X106834946Y-88758284D01*
X106834946Y-88758284D02*
X106745754Y-88979042D01*
X106745754Y-88979042D02*
X106665925Y-89049507D01*
X106665925Y-89049507D02*
X106603935Y-89075820D01*
X106603935Y-89075820D02*
X106497794Y-89084295D01*
X106497794Y-89084295D02*
X106232884Y-88977265D01*
X106232884Y-88977265D02*
X106162419Y-88897436D01*
X106162419Y-88897436D02*
X106136106Y-88835446D01*
X107115916Y-89334033D02*
X107292523Y-89405386D01*
X107292523Y-89405386D02*
X107398664Y-89396912D01*
X107398664Y-89396912D02*
X107460654Y-89370598D01*
X107460654Y-89370598D02*
X107602473Y-89273820D01*
X107602473Y-89273820D02*
X107717978Y-89115052D01*
X107717978Y-89115052D02*
X107860685Y-88761840D01*
X107860685Y-88761840D02*
X107852211Y-88655698D01*
X107852211Y-88655698D02*
X107825897Y-88593708D01*
X107825897Y-88593708D02*
X107755433Y-88513879D01*
X107755433Y-88513879D02*
X107578826Y-88442526D01*
X107578826Y-88442526D02*
X107472685Y-88451001D01*
X107472685Y-88451001D02*
X107410695Y-88477314D01*
X107410695Y-88477314D02*
X107330866Y-88547779D01*
X107330866Y-88547779D02*
X107241674Y-88768537D01*
X107241674Y-88768537D02*
X107250149Y-88874678D01*
X107250149Y-88874678D02*
X107276462Y-88936668D01*
X107276462Y-88936668D02*
X107346927Y-89016497D01*
X107346927Y-89016497D02*
X107523533Y-89087850D01*
X107523533Y-89087850D02*
X107629675Y-89079376D01*
X107629675Y-89079376D02*
X107691665Y-89053062D01*
X107691665Y-89053062D02*
X107771493Y-88982598D01*
X120755834Y-98037672D02*
X120870451Y-98135339D01*
X120870451Y-98135339D02*
X121091209Y-98224531D01*
X121091209Y-98224531D02*
X121197351Y-98216056D01*
X121197351Y-98216056D02*
X121259341Y-98189743D01*
X121259341Y-98189743D02*
X121339169Y-98119278D01*
X121339169Y-98119278D02*
X121374846Y-98030975D01*
X121374846Y-98030975D02*
X121366371Y-97924833D01*
X121366371Y-97924833D02*
X121340058Y-97862843D01*
X121340058Y-97862843D02*
X121269593Y-97783015D01*
X121269593Y-97783015D02*
X121110825Y-97667510D01*
X121110825Y-97667510D02*
X121040360Y-97587681D01*
X121040360Y-97587681D02*
X121014047Y-97525691D01*
X121014047Y-97525691D02*
X121005572Y-97419550D01*
X121005572Y-97419550D02*
X121041249Y-97331246D01*
X121041249Y-97331246D02*
X121121077Y-97260782D01*
X121121077Y-97260782D02*
X121183067Y-97234468D01*
X121183067Y-97234468D02*
X121289209Y-97225994D01*
X121289209Y-97225994D02*
X121509967Y-97315186D01*
X121509967Y-97315186D02*
X121624584Y-97412852D01*
X121951483Y-97493570D02*
X121797635Y-98509946D01*
X121797635Y-98509946D02*
X122241817Y-97919025D01*
X122241817Y-97919025D02*
X122150848Y-98652653D01*
X122150848Y-98652653D02*
X122746212Y-97814661D01*
X123371921Y-98426975D02*
X123122183Y-99045098D01*
X123293870Y-97984570D02*
X122805536Y-98557653D01*
X122805536Y-98557653D02*
X123379507Y-98789552D01*
X124423973Y-98492521D02*
X123982457Y-98314137D01*
X123982457Y-98314137D02*
X123759922Y-98737814D01*
X123759922Y-98737814D02*
X123821912Y-98711501D01*
X123821912Y-98711501D02*
X123928053Y-98703026D01*
X123928053Y-98703026D02*
X124148811Y-98792218D01*
X124148811Y-98792218D02*
X124219276Y-98872047D01*
X124219276Y-98872047D02*
X124245589Y-98934037D01*
X124245589Y-98934037D02*
X124254064Y-99040178D01*
X124254064Y-99040178D02*
X124164872Y-99260936D01*
X124164872Y-99260936D02*
X124085044Y-99331401D01*
X124085044Y-99331401D02*
X124023054Y-99357714D01*
X124023054Y-99357714D02*
X123916912Y-99366189D01*
X123916912Y-99366189D02*
X123696154Y-99276997D01*
X123696154Y-99276997D02*
X123625689Y-99197169D01*
X123625689Y-99197169D02*
X123599376Y-99135179D01*
X99702631Y-48439454D02*
X99817248Y-48537121D01*
X99817248Y-48537121D02*
X100038006Y-48626313D01*
X100038006Y-48626313D02*
X100144148Y-48617838D01*
X100144148Y-48617838D02*
X100206138Y-48591525D01*
X100206138Y-48591525D02*
X100285966Y-48521060D01*
X100285966Y-48521060D02*
X100321643Y-48432757D01*
X100321643Y-48432757D02*
X100313168Y-48326615D01*
X100313168Y-48326615D02*
X100286855Y-48264625D01*
X100286855Y-48264625D02*
X100216390Y-48184797D01*
X100216390Y-48184797D02*
X100057622Y-48069292D01*
X100057622Y-48069292D02*
X99987157Y-47989463D01*
X99987157Y-47989463D02*
X99960844Y-47927473D01*
X99960844Y-47927473D02*
X99952369Y-47821332D01*
X99952369Y-47821332D02*
X99988046Y-47733028D01*
X99988046Y-47733028D02*
X100067874Y-47662564D01*
X100067874Y-47662564D02*
X100129864Y-47636250D01*
X100129864Y-47636250D02*
X100236006Y-47627776D01*
X100236006Y-47627776D02*
X100456764Y-47716968D01*
X100456764Y-47716968D02*
X100571381Y-47814634D01*
X100898280Y-47895352D02*
X100744432Y-48911728D01*
X100744432Y-48911728D02*
X101188614Y-48320807D01*
X101188614Y-48320807D02*
X101097645Y-49054435D01*
X101097645Y-49054435D02*
X101693009Y-48216443D01*
X102157283Y-49482557D02*
X101627464Y-49268496D01*
X101892374Y-49375526D02*
X102266980Y-48448342D01*
X102266980Y-48448342D02*
X102125162Y-48545120D01*
X102125162Y-48545120D02*
X102001182Y-48597747D01*
X102001182Y-48597747D02*
X101895040Y-48606222D01*
X102840951Y-48680242D02*
X103414922Y-48912141D01*
X103414922Y-48912141D02*
X102963154Y-49140485D01*
X102963154Y-49140485D02*
X103095608Y-49194000D01*
X103095608Y-49194000D02*
X103166073Y-49273829D01*
X103166073Y-49273829D02*
X103192386Y-49335819D01*
X103192386Y-49335819D02*
X103200861Y-49441960D01*
X103200861Y-49441960D02*
X103111669Y-49662718D01*
X103111669Y-49662718D02*
X103031841Y-49733183D01*
X103031841Y-49733183D02*
X102969851Y-49759496D01*
X102969851Y-49759496D02*
X102863709Y-49767971D01*
X102863709Y-49767971D02*
X102598799Y-49660941D01*
X102598799Y-49660941D02*
X102528335Y-49581112D01*
X102528335Y-49581112D02*
X102502021Y-49519122D01*
X68239026Y-70885727D02*
X68360176Y-70975161D01*
X68360176Y-70975161D02*
X68586619Y-71048736D01*
X68586619Y-71048736D02*
X68691910Y-71032878D01*
X68691910Y-71032878D02*
X68751914Y-71002305D01*
X68751914Y-71002305D02*
X68826633Y-70926443D01*
X68826633Y-70926443D02*
X68856063Y-70835866D01*
X68856063Y-70835866D02*
X68840204Y-70730574D01*
X68840204Y-70730574D02*
X68809631Y-70670571D01*
X68809631Y-70670571D02*
X68733769Y-70595852D01*
X68733769Y-70595852D02*
X68567331Y-70491703D01*
X68567331Y-70491703D02*
X68491469Y-70416985D01*
X68491469Y-70416985D02*
X68460896Y-70356981D01*
X68460896Y-70356981D02*
X68445038Y-70251689D01*
X68445038Y-70251689D02*
X68474468Y-70161113D01*
X68474468Y-70161113D02*
X68549186Y-70085251D01*
X68549186Y-70085251D02*
X68609190Y-70054678D01*
X68609190Y-70054678D02*
X68714482Y-70038819D01*
X68714482Y-70038819D02*
X68940924Y-70112395D01*
X68940924Y-70112395D02*
X69062074Y-70201829D01*
X69393808Y-70259546D02*
X69311233Y-71284178D01*
X69311233Y-71284178D02*
X69713113Y-70663712D01*
X69713113Y-70663712D02*
X69673540Y-71401899D01*
X69673540Y-71401899D02*
X70208999Y-70524418D01*
X70496588Y-70718000D02*
X70556591Y-70687427D01*
X70556591Y-70687427D02*
X70661883Y-70671568D01*
X70661883Y-70671568D02*
X70888325Y-70745144D01*
X70888325Y-70745144D02*
X70964187Y-70819862D01*
X70964187Y-70819862D02*
X70994760Y-70879866D01*
X70994760Y-70879866D02*
X71010619Y-70985158D01*
X71010619Y-70985158D02*
X70981188Y-71075735D01*
X70981188Y-71075735D02*
X70891755Y-71196885D01*
X70891755Y-71196885D02*
X70171713Y-71563765D01*
X70171713Y-71563765D02*
X70760462Y-71755061D01*
X71213346Y-71902212D02*
X71394500Y-71961072D01*
X71394500Y-71961072D02*
X71499792Y-71945214D01*
X71499792Y-71945214D02*
X71559795Y-71914641D01*
X71559795Y-71914641D02*
X71694517Y-71808206D01*
X71694517Y-71808206D02*
X71798666Y-71641767D01*
X71798666Y-71641767D02*
X71916387Y-71279460D01*
X71916387Y-71279460D02*
X71900528Y-71174168D01*
X71900528Y-71174168D02*
X71869955Y-71114164D01*
X71869955Y-71114164D02*
X71794093Y-71039446D01*
X71794093Y-71039446D02*
X71612940Y-70980585D01*
X71612940Y-70980585D02*
X71507648Y-70996444D01*
X71507648Y-70996444D02*
X71447644Y-71027017D01*
X71447644Y-71027017D02*
X71372926Y-71102879D01*
X71372926Y-71102879D02*
X71299350Y-71329321D01*
X71299350Y-71329321D02*
X71315209Y-71434613D01*
X71315209Y-71434613D02*
X71345782Y-71494616D01*
X71345782Y-71494616D02*
X71421644Y-71569335D01*
X71421644Y-71569335D02*
X71602797Y-71628195D01*
X71602797Y-71628195D02*
X71708089Y-71612337D01*
X71708089Y-71612337D02*
X71768093Y-71581764D01*
X71768093Y-71581764D02*
X71842811Y-71505902D01*
X42747257Y-84860324D02*
X42872921Y-84943295D01*
X42872921Y-84943295D02*
X43102904Y-85004918D01*
X43102904Y-85004918D02*
X43207221Y-84983571D01*
X43207221Y-84983571D02*
X43265542Y-84949900D01*
X43265542Y-84949900D02*
X43336188Y-84870231D01*
X43336188Y-84870231D02*
X43360838Y-84778239D01*
X43360838Y-84778239D02*
X43339491Y-84673921D01*
X43339491Y-84673921D02*
X43305819Y-84615600D01*
X43305819Y-84615600D02*
X43226151Y-84544954D01*
X43226151Y-84544954D02*
X43054490Y-84449658D01*
X43054490Y-84449658D02*
X42974821Y-84379013D01*
X42974821Y-84379013D02*
X42941150Y-84320691D01*
X42941150Y-84320691D02*
X42919803Y-84216374D01*
X42919803Y-84216374D02*
X42944452Y-84124381D01*
X42944452Y-84124381D02*
X43015098Y-84044713D01*
X43015098Y-84044713D02*
X43073419Y-84011041D01*
X43073419Y-84011041D02*
X43177737Y-83989694D01*
X43177737Y-83989694D02*
X43407719Y-84051317D01*
X43407719Y-84051317D02*
X43533384Y-84134288D01*
X43867684Y-84174565D02*
X43838847Y-85202114D01*
X43838847Y-85202114D02*
X44207704Y-84561466D01*
X44207704Y-84561466D02*
X44206819Y-85300712D01*
X44206819Y-85300712D02*
X44695620Y-84396409D01*
X44971599Y-84470358D02*
X45569553Y-84630579D01*
X45569553Y-84630579D02*
X45148980Y-84912278D01*
X45148980Y-84912278D02*
X45286969Y-84949252D01*
X45286969Y-84949252D02*
X45366638Y-85019898D01*
X45366638Y-85019898D02*
X45400309Y-85078219D01*
X45400309Y-85078219D02*
X45421656Y-85182537D01*
X45421656Y-85182537D02*
X45360033Y-85412519D01*
X45360033Y-85412519D02*
X45289387Y-85492187D01*
X45289387Y-85492187D02*
X45231066Y-85525859D01*
X45231066Y-85525859D02*
X45126748Y-85547206D01*
X45126748Y-85547206D02*
X44850769Y-85473258D01*
X44850769Y-85473258D02*
X44771101Y-85402612D01*
X44771101Y-85402612D02*
X44737429Y-85344291D01*
X45891528Y-84716852D02*
X46535479Y-84889398D01*
X46535479Y-84889398D02*
X45862692Y-85744401D01*
X169277723Y-100713568D02*
X168974470Y-101464145D01*
X168974470Y-101464145D02*
X168982945Y-101570287D01*
X168982945Y-101570287D02*
X169009258Y-101632277D01*
X169009258Y-101632277D02*
X169079723Y-101712105D01*
X169079723Y-101712105D02*
X169256329Y-101783459D01*
X169256329Y-101783459D02*
X169362471Y-101774984D01*
X169362471Y-101774984D02*
X169424461Y-101748671D01*
X169424461Y-101748671D02*
X169504289Y-101678206D01*
X169504289Y-101678206D02*
X169807542Y-100927629D01*
X170360120Y-102229419D02*
X169830300Y-102015358D01*
X170095210Y-102122389D02*
X170469817Y-101195205D01*
X170469817Y-101195205D02*
X170327998Y-101291983D01*
X170327998Y-101291983D02*
X170204018Y-101344609D01*
X170204018Y-101344609D02*
X170097876Y-101353084D01*
X160560077Y-88322269D02*
X160475058Y-88316972D01*
X160475058Y-88316972D02*
X160369858Y-88361627D01*
X160369858Y-88361627D02*
X160279542Y-88441349D01*
X160279542Y-88441349D02*
X160239179Y-88541252D01*
X160239179Y-88541252D02*
X160233882Y-88626271D01*
X160233882Y-88626271D02*
X160258355Y-88781424D01*
X160258355Y-88781424D02*
X160303010Y-88886624D01*
X160303010Y-88886624D02*
X160397617Y-89012006D01*
X160397617Y-89012006D02*
X160462454Y-89067255D01*
X160462454Y-89067255D02*
X160562357Y-89107619D01*
X160562357Y-89107619D02*
X160682443Y-89098031D01*
X160682443Y-89098031D02*
X160752577Y-89068261D01*
X160752577Y-89068261D02*
X160842892Y-88988539D01*
X160842892Y-88988539D02*
X160863074Y-88938587D01*
X160863074Y-88938587D02*
X160758879Y-88693119D01*
X160758879Y-88693119D02*
X160618612Y-88752659D01*
X161208446Y-88874756D02*
X160895861Y-88138352D01*
X160895861Y-88138352D02*
X161176396Y-88019272D01*
X161176396Y-88019272D02*
X161261414Y-88024569D01*
X161261414Y-88024569D02*
X161311366Y-88044751D01*
X161311366Y-88044751D02*
X161376203Y-88099999D01*
X161376203Y-88099999D02*
X161420858Y-88205200D01*
X161420858Y-88205200D02*
X161415561Y-88290219D01*
X161415561Y-88290219D02*
X161395379Y-88340171D01*
X161395379Y-88340171D02*
X161340130Y-88405007D01*
X161340130Y-88405007D02*
X161059596Y-88524087D01*
X161982933Y-87676917D02*
X161632265Y-87825767D01*
X161632265Y-87825767D02*
X161746048Y-88191321D01*
X161746048Y-88191321D02*
X161766230Y-88141369D01*
X161766230Y-88141369D02*
X161821478Y-88076532D01*
X161821478Y-88076532D02*
X161996813Y-88002107D01*
X161996813Y-88002107D02*
X162081831Y-88007404D01*
X162081831Y-88007404D02*
X162131783Y-88027586D01*
X162131783Y-88027586D02*
X162196620Y-88082834D01*
X162196620Y-88082834D02*
X162271045Y-88258169D01*
X162271045Y-88258169D02*
X162265748Y-88343187D01*
X162265748Y-88343187D02*
X162245566Y-88393139D01*
X162245566Y-88393139D02*
X162190317Y-88457976D01*
X162190317Y-88457976D02*
X162014983Y-88532401D01*
X162014983Y-88532401D02*
X161929965Y-88527104D01*
X161929965Y-88527104D02*
X161880013Y-88506922D01*
X178551913Y-112057365D02*
X178466894Y-112052068D01*
X178466894Y-112052068D02*
X178361693Y-112096723D01*
X178361693Y-112096723D02*
X178271378Y-112176445D01*
X178271378Y-112176445D02*
X178231014Y-112276348D01*
X178231014Y-112276348D02*
X178225717Y-112361367D01*
X178225717Y-112361367D02*
X178250190Y-112516519D01*
X178250190Y-112516519D02*
X178294845Y-112621720D01*
X178294845Y-112621720D02*
X178389452Y-112747102D01*
X178389452Y-112747102D02*
X178454289Y-112802351D01*
X178454289Y-112802351D02*
X178554193Y-112842715D01*
X178554193Y-112842715D02*
X178674278Y-112833127D01*
X178674278Y-112833127D02*
X178744412Y-112803357D01*
X178744412Y-112803357D02*
X178834727Y-112723635D01*
X178834727Y-112723635D02*
X178854909Y-112673683D01*
X178854909Y-112673683D02*
X178750714Y-112428215D01*
X178750714Y-112428215D02*
X178610447Y-112487755D01*
X179200281Y-112609852D02*
X178887696Y-111873448D01*
X178887696Y-111873448D02*
X179621083Y-112431232D01*
X179621083Y-112431232D02*
X179308498Y-111694828D01*
X179971752Y-112282382D02*
X179659167Y-111545978D01*
X179659167Y-111545978D02*
X179834501Y-111471553D01*
X179834501Y-111471553D02*
X179954586Y-111461965D01*
X179954586Y-111461965D02*
X180054490Y-111502329D01*
X180054490Y-111502329D02*
X180119327Y-111557577D01*
X180119327Y-111557577D02*
X180213934Y-111682960D01*
X180213934Y-111682960D02*
X180258589Y-111788160D01*
X180258589Y-111788160D02*
X180283062Y-111943313D01*
X180283062Y-111943313D02*
X180277765Y-112028331D01*
X180277765Y-112028331D02*
X180237401Y-112128235D01*
X180237401Y-112128235D02*
X180147086Y-112207957D01*
X180147086Y-112207957D02*
X179971752Y-112282382D01*
X173794410Y-123832600D02*
X173709391Y-123827303D01*
X173709391Y-123827303D02*
X173604190Y-123871958D01*
X173604190Y-123871958D02*
X173513875Y-123951680D01*
X173513875Y-123951680D02*
X173473511Y-124051583D01*
X173473511Y-124051583D02*
X173468214Y-124136602D01*
X173468214Y-124136602D02*
X173492687Y-124291754D01*
X173492687Y-124291754D02*
X173537342Y-124396955D01*
X173537342Y-124396955D02*
X173631949Y-124522337D01*
X173631949Y-124522337D02*
X173696786Y-124577586D01*
X173696786Y-124577586D02*
X173796690Y-124617950D01*
X173796690Y-124617950D02*
X173916775Y-124608362D01*
X173916775Y-124608362D02*
X173986909Y-124578592D01*
X173986909Y-124578592D02*
X174077224Y-124498870D01*
X174077224Y-124498870D02*
X174097406Y-124448918D01*
X174097406Y-124448918D02*
X173993211Y-124203450D01*
X173993211Y-124203450D02*
X173852944Y-124262990D01*
X174442778Y-124385087D02*
X174130193Y-123648683D01*
X174130193Y-123648683D02*
X174863580Y-124206467D01*
X174863580Y-124206467D02*
X174550995Y-123470063D01*
X175214249Y-124057617D02*
X174901664Y-123321213D01*
X174901664Y-123321213D02*
X175076998Y-123246788D01*
X175076998Y-123246788D02*
X175197083Y-123237200D01*
X175197083Y-123237200D02*
X175296987Y-123277564D01*
X175296987Y-123277564D02*
X175361824Y-123332812D01*
X175361824Y-123332812D02*
X175456431Y-123458195D01*
X175456431Y-123458195D02*
X175501086Y-123563395D01*
X175501086Y-123563395D02*
X175525559Y-123718548D01*
X175525559Y-123718548D02*
X175520262Y-123803566D01*
X175520262Y-123803566D02*
X175479898Y-123903470D01*
X175479898Y-123903470D02*
X175389583Y-123983192D01*
X175389583Y-123983192D02*
X175214249Y-124057617D01*
X188066921Y-88506895D02*
X187981902Y-88501598D01*
X187981902Y-88501598D02*
X187876701Y-88546253D01*
X187876701Y-88546253D02*
X187786386Y-88625975D01*
X187786386Y-88625975D02*
X187746022Y-88725878D01*
X187746022Y-88725878D02*
X187740725Y-88810897D01*
X187740725Y-88810897D02*
X187765198Y-88966049D01*
X187765198Y-88966049D02*
X187809853Y-89071250D01*
X187809853Y-89071250D02*
X187904460Y-89196632D01*
X187904460Y-89196632D02*
X187969297Y-89251881D01*
X187969297Y-89251881D02*
X188069201Y-89292245D01*
X188069201Y-89292245D02*
X188189286Y-89282657D01*
X188189286Y-89282657D02*
X188259420Y-89252887D01*
X188259420Y-89252887D02*
X188349735Y-89173165D01*
X188349735Y-89173165D02*
X188369917Y-89123213D01*
X188369917Y-89123213D02*
X188265722Y-88877745D01*
X188265722Y-88877745D02*
X188125455Y-88937285D01*
X188715289Y-89059382D02*
X188402704Y-88322978D01*
X188402704Y-88322978D02*
X189136091Y-88880762D01*
X189136091Y-88880762D02*
X188823506Y-88144358D01*
X189486760Y-88731912D02*
X189174175Y-87995508D01*
X189174175Y-87995508D02*
X189349509Y-87921083D01*
X189349509Y-87921083D02*
X189469594Y-87911495D01*
X189469594Y-87911495D02*
X189569498Y-87951859D01*
X189569498Y-87951859D02*
X189634335Y-88007107D01*
X189634335Y-88007107D02*
X189728942Y-88132490D01*
X189728942Y-88132490D02*
X189773597Y-88237690D01*
X189773597Y-88237690D02*
X189798070Y-88392843D01*
X189798070Y-88392843D02*
X189792773Y-88477861D01*
X189792773Y-88477861D02*
X189752409Y-88577765D01*
X189752409Y-88577765D02*
X189662094Y-88657487D01*
X189662094Y-88657487D02*
X189486760Y-88731912D01*
X184275970Y-97920693D02*
X184190951Y-97915396D01*
X184190951Y-97915396D02*
X184085751Y-97960051D01*
X184085751Y-97960051D02*
X183995435Y-98039773D01*
X183995435Y-98039773D02*
X183955072Y-98139677D01*
X183955072Y-98139677D02*
X183949775Y-98224695D01*
X183949775Y-98224695D02*
X183974248Y-98379848D01*
X183974248Y-98379848D02*
X184018903Y-98485048D01*
X184018903Y-98485048D02*
X184113510Y-98610431D01*
X184113510Y-98610431D02*
X184178347Y-98665679D01*
X184178347Y-98665679D02*
X184278250Y-98706043D01*
X184278250Y-98706043D02*
X184398336Y-98696455D01*
X184398336Y-98696455D02*
X184468469Y-98666685D01*
X184468469Y-98666685D02*
X184558785Y-98586963D01*
X184558785Y-98586963D02*
X184578967Y-98537011D01*
X184578967Y-98537011D02*
X184474772Y-98291543D01*
X184474772Y-98291543D02*
X184334505Y-98351083D01*
X184924339Y-98473180D02*
X184611754Y-97736776D01*
X184611754Y-97736776D02*
X184892288Y-97617696D01*
X184892288Y-97617696D02*
X184977307Y-97622993D01*
X184977307Y-97622993D02*
X185027259Y-97643175D01*
X185027259Y-97643175D02*
X185092096Y-97698424D01*
X185092096Y-97698424D02*
X185136751Y-97803624D01*
X185136751Y-97803624D02*
X185131454Y-97888643D01*
X185131454Y-97888643D02*
X185111272Y-97938595D01*
X185111272Y-97938595D02*
X185056023Y-98003432D01*
X185056023Y-98003432D02*
X184775489Y-98122512D01*
X185342861Y-97509210D02*
X185363043Y-97459258D01*
X185363043Y-97459258D02*
X185418291Y-97394421D01*
X185418291Y-97394421D02*
X185593625Y-97319996D01*
X185593625Y-97319996D02*
X185678644Y-97325293D01*
X185678644Y-97325293D02*
X185728596Y-97345475D01*
X185728596Y-97345475D02*
X185793433Y-97400724D01*
X185793433Y-97400724D02*
X185823203Y-97470857D01*
X185823203Y-97470857D02*
X185832791Y-97590943D01*
X185832791Y-97590943D02*
X185590609Y-98190365D01*
X185590609Y-98190365D02*
X186046478Y-97996860D01*
X186288660Y-97397438D02*
X186203642Y-97392141D01*
X186203642Y-97392141D02*
X186153690Y-97371959D01*
X186153690Y-97371959D02*
X186088853Y-97316711D01*
X186088853Y-97316711D02*
X186073968Y-97281644D01*
X186073968Y-97281644D02*
X186079265Y-97196625D01*
X186079265Y-97196625D02*
X186099447Y-97146673D01*
X186099447Y-97146673D02*
X186154695Y-97081836D01*
X186154695Y-97081836D02*
X186294963Y-97022296D01*
X186294963Y-97022296D02*
X186379981Y-97027593D01*
X186379981Y-97027593D02*
X186429933Y-97047775D01*
X186429933Y-97047775D02*
X186494770Y-97103024D01*
X186494770Y-97103024D02*
X186509655Y-97138091D01*
X186509655Y-97138091D02*
X186504358Y-97223109D01*
X186504358Y-97223109D02*
X186484176Y-97273061D01*
X186484176Y-97273061D02*
X186428928Y-97337898D01*
X186428928Y-97337898D02*
X186288660Y-97397438D01*
X186288660Y-97397438D02*
X186233412Y-97462275D01*
X186233412Y-97462275D02*
X186213230Y-97512227D01*
X186213230Y-97512227D02*
X186207933Y-97597245D01*
X186207933Y-97597245D02*
X186267473Y-97737513D01*
X186267473Y-97737513D02*
X186332310Y-97792761D01*
X186332310Y-97792761D02*
X186382262Y-97812943D01*
X186382262Y-97812943D02*
X186467280Y-97818240D01*
X186467280Y-97818240D02*
X186607548Y-97758700D01*
X186607548Y-97758700D02*
X186662796Y-97693863D01*
X186662796Y-97693863D02*
X186682978Y-97643911D01*
X186682978Y-97643911D02*
X186688275Y-97558893D01*
X186688275Y-97558893D02*
X186628735Y-97418625D01*
X186628735Y-97418625D02*
X186563898Y-97363377D01*
X186563898Y-97363377D02*
X186513946Y-97343195D01*
X186513946Y-97343195D02*
X186428928Y-97337898D01*
X185864859Y-93433135D02*
X186320728Y-93239630D01*
X186320728Y-93239630D02*
X186194340Y-93624360D01*
X186194340Y-93624360D02*
X186299541Y-93579705D01*
X186299541Y-93579705D02*
X186384560Y-93585002D01*
X186384560Y-93585002D02*
X186434512Y-93605184D01*
X186434512Y-93605184D02*
X186499348Y-93660432D01*
X186499348Y-93660432D02*
X186573773Y-93835767D01*
X186573773Y-93835767D02*
X186568477Y-93920785D01*
X186568477Y-93920785D02*
X186548295Y-93970737D01*
X186548295Y-93970737D02*
X186493046Y-94035574D01*
X186493046Y-94035574D02*
X186282645Y-94124884D01*
X186282645Y-94124884D02*
X186197626Y-94119587D01*
X186197626Y-94119587D02*
X186147674Y-94099405D01*
X186531130Y-93150320D02*
X187089183Y-93782529D01*
X187089183Y-93782529D02*
X187022066Y-92941930D01*
X187197400Y-92867505D02*
X187653269Y-92674000D01*
X187653269Y-92674000D02*
X187526881Y-93058730D01*
X187526881Y-93058730D02*
X187632081Y-93014075D01*
X187632081Y-93014075D02*
X187717100Y-93019372D01*
X187717100Y-93019372D02*
X187767052Y-93039554D01*
X187767052Y-93039554D02*
X187831889Y-93094803D01*
X187831889Y-93094803D02*
X187906314Y-93270137D01*
X187906314Y-93270137D02*
X187901017Y-93355155D01*
X187901017Y-93355155D02*
X187880835Y-93405107D01*
X187880835Y-93405107D02*
X187825586Y-93469944D01*
X187825586Y-93469944D02*
X187615185Y-93559254D01*
X187615185Y-93559254D02*
X187530166Y-93553957D01*
X187530166Y-93553957D02*
X187480215Y-93533775D01*
X156754074Y-97742457D02*
X156669055Y-97737160D01*
X156669055Y-97737160D02*
X156563855Y-97781815D01*
X156563855Y-97781815D02*
X156473539Y-97861537D01*
X156473539Y-97861537D02*
X156433176Y-97961440D01*
X156433176Y-97961440D02*
X156427879Y-98046459D01*
X156427879Y-98046459D02*
X156452352Y-98201612D01*
X156452352Y-98201612D02*
X156497007Y-98306812D01*
X156497007Y-98306812D02*
X156591614Y-98432194D01*
X156591614Y-98432194D02*
X156656451Y-98487443D01*
X156656451Y-98487443D02*
X156756354Y-98527807D01*
X156756354Y-98527807D02*
X156876440Y-98518219D01*
X156876440Y-98518219D02*
X156946574Y-98488449D01*
X156946574Y-98488449D02*
X157036889Y-98408727D01*
X157036889Y-98408727D02*
X157057071Y-98358775D01*
X157057071Y-98358775D02*
X156952876Y-98113307D01*
X156952876Y-98113307D02*
X156812609Y-98172847D01*
X157402443Y-98294944D02*
X157089858Y-97558540D01*
X157089858Y-97558540D02*
X157370393Y-97439460D01*
X157370393Y-97439460D02*
X157455411Y-97444757D01*
X157455411Y-97444757D02*
X157505363Y-97464939D01*
X157505363Y-97464939D02*
X157570200Y-97520187D01*
X157570200Y-97520187D02*
X157614855Y-97625388D01*
X157614855Y-97625388D02*
X157609558Y-97710407D01*
X157609558Y-97710407D02*
X157589376Y-97760359D01*
X157589376Y-97760359D02*
X157534127Y-97825195D01*
X157534127Y-97825195D02*
X157253593Y-97944275D01*
X158065427Y-97516902D02*
X157980408Y-97511605D01*
X157980408Y-97511605D02*
X157930457Y-97491423D01*
X157930457Y-97491423D02*
X157865620Y-97436174D01*
X157865620Y-97436174D02*
X157850735Y-97401107D01*
X157850735Y-97401107D02*
X157856032Y-97316089D01*
X157856032Y-97316089D02*
X157876213Y-97266137D01*
X157876213Y-97266137D02*
X157931462Y-97201300D01*
X157931462Y-97201300D02*
X158071730Y-97141760D01*
X158071730Y-97141760D02*
X158156748Y-97147057D01*
X158156748Y-97147057D02*
X158206700Y-97167239D01*
X158206700Y-97167239D02*
X158271537Y-97222488D01*
X158271537Y-97222488D02*
X158286422Y-97257554D01*
X158286422Y-97257554D02*
X158281125Y-97342573D01*
X158281125Y-97342573D02*
X158260943Y-97392525D01*
X158260943Y-97392525D02*
X158205695Y-97457362D01*
X158205695Y-97457362D02*
X158065427Y-97516902D01*
X158065427Y-97516902D02*
X158010178Y-97581739D01*
X158010178Y-97581739D02*
X157989997Y-97631690D01*
X157989997Y-97631690D02*
X157984700Y-97716709D01*
X157984700Y-97716709D02*
X158044240Y-97856977D01*
X158044240Y-97856977D02*
X158109077Y-97912225D01*
X158109077Y-97912225D02*
X158159028Y-97932407D01*
X158159028Y-97932407D02*
X158244047Y-97937704D01*
X158244047Y-97937704D02*
X158384314Y-97878164D01*
X158384314Y-97878164D02*
X158439563Y-97813327D01*
X158439563Y-97813327D02*
X158459745Y-97763375D01*
X158459745Y-97763375D02*
X158465042Y-97678357D01*
X158465042Y-97678357D02*
X158405502Y-97538089D01*
X158405502Y-97538089D02*
X158340665Y-97482840D01*
X158340665Y-97482840D02*
X158290713Y-97462659D01*
X158290713Y-97462659D02*
X158205695Y-97457362D01*
X164331014Y-78916966D02*
X164245995Y-78911669D01*
X164245995Y-78911669D02*
X164140794Y-78956324D01*
X164140794Y-78956324D02*
X164050479Y-79036046D01*
X164050479Y-79036046D02*
X164010115Y-79135949D01*
X164010115Y-79135949D02*
X164004818Y-79220968D01*
X164004818Y-79220968D02*
X164029291Y-79376120D01*
X164029291Y-79376120D02*
X164073946Y-79481321D01*
X164073946Y-79481321D02*
X164168553Y-79606703D01*
X164168553Y-79606703D02*
X164233390Y-79661952D01*
X164233390Y-79661952D02*
X164333294Y-79702316D01*
X164333294Y-79702316D02*
X164453379Y-79692728D01*
X164453379Y-79692728D02*
X164523513Y-79662958D01*
X164523513Y-79662958D02*
X164613828Y-79583236D01*
X164613828Y-79583236D02*
X164634010Y-79533284D01*
X164634010Y-79533284D02*
X164529815Y-79287816D01*
X164529815Y-79287816D02*
X164389548Y-79347356D01*
X164979382Y-79469453D02*
X164666797Y-78733049D01*
X164666797Y-78733049D02*
X165400184Y-79290833D01*
X165400184Y-79290833D02*
X165087599Y-78554429D01*
X165750853Y-79141983D02*
X165438268Y-78405579D01*
X165438268Y-78405579D02*
X165613602Y-78331154D01*
X165613602Y-78331154D02*
X165733687Y-78321566D01*
X165733687Y-78321566D02*
X165833591Y-78361930D01*
X165833591Y-78361930D02*
X165898428Y-78417178D01*
X165898428Y-78417178D02*
X165993035Y-78542561D01*
X165993035Y-78542561D02*
X166037690Y-78647761D01*
X166037690Y-78647761D02*
X166062163Y-78802914D01*
X166062163Y-78802914D02*
X166056866Y-78887932D01*
X166056866Y-78887932D02*
X166016502Y-78987836D01*
X166016502Y-78987836D02*
X165926187Y-79067558D01*
X165926187Y-79067558D02*
X165750853Y-79141983D01*
X152881071Y-123284158D02*
X152972764Y-123362291D01*
X152972764Y-123362291D02*
X153149370Y-123433645D01*
X153149370Y-123433645D02*
X153234283Y-123426865D01*
X153234283Y-123426865D02*
X153283875Y-123405815D01*
X153283875Y-123405815D02*
X153347738Y-123349443D01*
X153347738Y-123349443D02*
X153376280Y-123278800D01*
X153376280Y-123278800D02*
X153369500Y-123193887D01*
X153369500Y-123193887D02*
X153348449Y-123144295D01*
X153348449Y-123144295D02*
X153292077Y-123080432D01*
X153292077Y-123080432D02*
X153165063Y-122988028D01*
X153165063Y-122988028D02*
X153108691Y-122924165D01*
X153108691Y-122924165D02*
X153087641Y-122874573D01*
X153087641Y-122874573D02*
X153080861Y-122789660D01*
X153080861Y-122789660D02*
X153109402Y-122719017D01*
X153109402Y-122719017D02*
X153173265Y-122662645D01*
X153173265Y-122662645D02*
X153222857Y-122641595D01*
X153222857Y-122641595D02*
X153307770Y-122634815D01*
X153307770Y-122634815D02*
X153484377Y-122706169D01*
X153484377Y-122706169D02*
X153576070Y-122784302D01*
X153837590Y-122848876D02*
X153714511Y-123661977D01*
X153714511Y-123661977D02*
X154069857Y-123189240D01*
X154069857Y-123189240D02*
X153997081Y-123776143D01*
X153997081Y-123776143D02*
X154473373Y-123105749D01*
X154908655Y-124062268D02*
X154859063Y-124083319D01*
X154859063Y-124083319D02*
X154738829Y-124075828D01*
X154738829Y-124075828D02*
X154668186Y-124047286D01*
X154668186Y-124047286D02*
X154576493Y-123969153D01*
X154576493Y-123969153D02*
X154534392Y-123869969D01*
X154534392Y-123869969D02*
X154527612Y-123785056D01*
X154527612Y-123785056D02*
X154549374Y-123629500D01*
X154549374Y-123629500D02*
X154592186Y-123523536D01*
X154592186Y-123523536D02*
X154684590Y-123396521D01*
X154684590Y-123396521D02*
X154748453Y-123340150D01*
X154748453Y-123340150D02*
X154847637Y-123298048D01*
X154847637Y-123298048D02*
X154967871Y-123305539D01*
X154967871Y-123305539D02*
X155038514Y-123334081D01*
X155038514Y-123334081D02*
X155130207Y-123412214D01*
X155130207Y-123412214D02*
X155151258Y-123461806D01*
X155551218Y-124404055D02*
X155198005Y-124261347D01*
X155198005Y-124261347D02*
X155497691Y-123519600D01*
X155798467Y-124503950D02*
X156098153Y-123762203D01*
X156222323Y-124675198D02*
X156075680Y-124122906D01*
X156522008Y-123933451D02*
X155926904Y-124186058D01*
X161511578Y-85967222D02*
X161426559Y-85961925D01*
X161426559Y-85961925D02*
X161321359Y-86006580D01*
X161321359Y-86006580D02*
X161231043Y-86086302D01*
X161231043Y-86086302D02*
X161190680Y-86186205D01*
X161190680Y-86186205D02*
X161185383Y-86271224D01*
X161185383Y-86271224D02*
X161209856Y-86426377D01*
X161209856Y-86426377D02*
X161254511Y-86531577D01*
X161254511Y-86531577D02*
X161349118Y-86656959D01*
X161349118Y-86656959D02*
X161413955Y-86712208D01*
X161413955Y-86712208D02*
X161513858Y-86752572D01*
X161513858Y-86752572D02*
X161633944Y-86742984D01*
X161633944Y-86742984D02*
X161704078Y-86713214D01*
X161704078Y-86713214D02*
X161794393Y-86633492D01*
X161794393Y-86633492D02*
X161814575Y-86583540D01*
X161814575Y-86583540D02*
X161710380Y-86338072D01*
X161710380Y-86338072D02*
X161570113Y-86397612D01*
X162159947Y-86519709D02*
X161847362Y-85783305D01*
X161847362Y-85783305D02*
X162127897Y-85664225D01*
X162127897Y-85664225D02*
X162212915Y-85669522D01*
X162212915Y-85669522D02*
X162262867Y-85689704D01*
X162262867Y-85689704D02*
X162327704Y-85744952D01*
X162327704Y-85744952D02*
X162372359Y-85850153D01*
X162372359Y-85850153D02*
X162367062Y-85935172D01*
X162367062Y-85935172D02*
X162346880Y-85985124D01*
X162346880Y-85985124D02*
X162291631Y-86049960D01*
X162291631Y-86049960D02*
X162011097Y-86169040D01*
X163003562Y-85582223D02*
X163211952Y-86073159D01*
X162709148Y-85376113D02*
X162757089Y-85976541D01*
X162757089Y-85976541D02*
X163212958Y-85783036D01*
X158657076Y-93032363D02*
X158572057Y-93027066D01*
X158572057Y-93027066D02*
X158466857Y-93071721D01*
X158466857Y-93071721D02*
X158376541Y-93151443D01*
X158376541Y-93151443D02*
X158336178Y-93251346D01*
X158336178Y-93251346D02*
X158330881Y-93336365D01*
X158330881Y-93336365D02*
X158355354Y-93491518D01*
X158355354Y-93491518D02*
X158400009Y-93596718D01*
X158400009Y-93596718D02*
X158494616Y-93722100D01*
X158494616Y-93722100D02*
X158559453Y-93777349D01*
X158559453Y-93777349D02*
X158659356Y-93817713D01*
X158659356Y-93817713D02*
X158779442Y-93808125D01*
X158779442Y-93808125D02*
X158849576Y-93778355D01*
X158849576Y-93778355D02*
X158939891Y-93698633D01*
X158939891Y-93698633D02*
X158960073Y-93648681D01*
X158960073Y-93648681D02*
X158855878Y-93403213D01*
X158855878Y-93403213D02*
X158715611Y-93462753D01*
X159305445Y-93584850D02*
X158992860Y-92848446D01*
X158992860Y-92848446D02*
X159273395Y-92729366D01*
X159273395Y-92729366D02*
X159358413Y-92734663D01*
X159358413Y-92734663D02*
X159408365Y-92754845D01*
X159408365Y-92754845D02*
X159473202Y-92810093D01*
X159473202Y-92810093D02*
X159517857Y-92915294D01*
X159517857Y-92915294D02*
X159512560Y-93000313D01*
X159512560Y-93000313D02*
X159492378Y-93050265D01*
X159492378Y-93050265D02*
X159437129Y-93115101D01*
X159437129Y-93115101D02*
X159156595Y-93234181D01*
X160044865Y-92401896D02*
X159904598Y-92461436D01*
X159904598Y-92461436D02*
X159849349Y-92526273D01*
X159849349Y-92526273D02*
X159829167Y-92576225D01*
X159829167Y-92576225D02*
X159803689Y-92711195D01*
X159803689Y-92711195D02*
X159828162Y-92866348D01*
X159828162Y-92866348D02*
X159947242Y-93146883D01*
X159947242Y-93146883D02*
X160012079Y-93202131D01*
X160012079Y-93202131D02*
X160062030Y-93222313D01*
X160062030Y-93222313D02*
X160147049Y-93227610D01*
X160147049Y-93227610D02*
X160287316Y-93168070D01*
X160287316Y-93168070D02*
X160342565Y-93103233D01*
X160342565Y-93103233D02*
X160362747Y-93053281D01*
X160362747Y-93053281D02*
X160368044Y-92968263D01*
X160368044Y-92968263D02*
X160293619Y-92792928D01*
X160293619Y-92792928D02*
X160228782Y-92737680D01*
X160228782Y-92737680D02*
X160178830Y-92717498D01*
X160178830Y-92717498D02*
X160093812Y-92712201D01*
X160093812Y-92712201D02*
X159953544Y-92771741D01*
X159953544Y-92771741D02*
X159898295Y-92836578D01*
X159898295Y-92836578D02*
X159878114Y-92886530D01*
X159878114Y-92886530D02*
X159872817Y-92971548D01*
X176568814Y-116996574D02*
X176483795Y-116991277D01*
X176483795Y-116991277D02*
X176378595Y-117035932D01*
X176378595Y-117035932D02*
X176288279Y-117115654D01*
X176288279Y-117115654D02*
X176247916Y-117215558D01*
X176247916Y-117215558D02*
X176242619Y-117300576D01*
X176242619Y-117300576D02*
X176267092Y-117455729D01*
X176267092Y-117455729D02*
X176311747Y-117560929D01*
X176311747Y-117560929D02*
X176406354Y-117686312D01*
X176406354Y-117686312D02*
X176471191Y-117741560D01*
X176471191Y-117741560D02*
X176571094Y-117781924D01*
X176571094Y-117781924D02*
X176691180Y-117772336D01*
X176691180Y-117772336D02*
X176761313Y-117742566D01*
X176761313Y-117742566D02*
X176851629Y-117662844D01*
X176851629Y-117662844D02*
X176871811Y-117612892D01*
X176871811Y-117612892D02*
X176767616Y-117367424D01*
X176767616Y-117367424D02*
X176627349Y-117426964D01*
X177217183Y-117549061D02*
X176904598Y-116812657D01*
X176904598Y-116812657D02*
X177185132Y-116693577D01*
X177185132Y-116693577D02*
X177270151Y-116698874D01*
X177270151Y-116698874D02*
X177320103Y-116719056D01*
X177320103Y-116719056D02*
X177384940Y-116774305D01*
X177384940Y-116774305D02*
X177429595Y-116879505D01*
X177429595Y-116879505D02*
X177424298Y-116964524D01*
X177424298Y-116964524D02*
X177404116Y-117014476D01*
X177404116Y-117014476D02*
X177348867Y-117079313D01*
X177348867Y-117079313D02*
X177068333Y-117198393D01*
X177635705Y-116585091D02*
X177655887Y-116535139D01*
X177655887Y-116535139D02*
X177711135Y-116470302D01*
X177711135Y-116470302D02*
X177886469Y-116395877D01*
X177886469Y-116395877D02*
X177971488Y-116401174D01*
X177971488Y-116401174D02*
X178021440Y-116421356D01*
X178021440Y-116421356D02*
X178086277Y-116476605D01*
X178086277Y-116476605D02*
X178116047Y-116546738D01*
X178116047Y-116546738D02*
X178125635Y-116666824D01*
X178125635Y-116666824D02*
X177883453Y-117266246D01*
X177883453Y-117266246D02*
X178339322Y-117072741D01*
X178482606Y-116142832D02*
X178552740Y-116113062D01*
X178552740Y-116113062D02*
X178637759Y-116118359D01*
X178637759Y-116118359D02*
X178687710Y-116138541D01*
X178687710Y-116138541D02*
X178752547Y-116193790D01*
X178752547Y-116193790D02*
X178847154Y-116319172D01*
X178847154Y-116319172D02*
X178921579Y-116494506D01*
X178921579Y-116494506D02*
X178946052Y-116649659D01*
X178946052Y-116649659D02*
X178940755Y-116734677D01*
X178940755Y-116734677D02*
X178920573Y-116784629D01*
X178920573Y-116784629D02*
X178865325Y-116849466D01*
X178865325Y-116849466D02*
X178795191Y-116879236D01*
X178795191Y-116879236D02*
X178710172Y-116873939D01*
X178710172Y-116873939D02*
X178660221Y-116853757D01*
X178660221Y-116853757D02*
X178595384Y-116798509D01*
X178595384Y-116798509D02*
X178500777Y-116673126D01*
X178500777Y-116673126D02*
X178426352Y-116497792D01*
X178426352Y-116497792D02*
X178401879Y-116342640D01*
X178401879Y-116342640D02*
X178407176Y-116257621D01*
X178407176Y-116257621D02*
X178427357Y-116207669D01*
X178427357Y-116207669D02*
X178482606Y-116142832D01*
X163464213Y-127560025D02*
X163555906Y-127638159D01*
X163555906Y-127638159D02*
X163732512Y-127709512D01*
X163732512Y-127709512D02*
X163817426Y-127702732D01*
X163817426Y-127702732D02*
X163867018Y-127681682D01*
X163867018Y-127681682D02*
X163930880Y-127625310D01*
X163930880Y-127625310D02*
X163959422Y-127554667D01*
X163959422Y-127554667D02*
X163952642Y-127469754D01*
X163952642Y-127469754D02*
X163931591Y-127420162D01*
X163931591Y-127420162D02*
X163875220Y-127356299D01*
X163875220Y-127356299D02*
X163748205Y-127263895D01*
X163748205Y-127263895D02*
X163691833Y-127200032D01*
X163691833Y-127200032D02*
X163670783Y-127150440D01*
X163670783Y-127150440D02*
X163664003Y-127065527D01*
X163664003Y-127065527D02*
X163692544Y-126994885D01*
X163692544Y-126994885D02*
X163756407Y-126938513D01*
X163756407Y-126938513D02*
X163805999Y-126917462D01*
X163805999Y-126917462D02*
X163890912Y-126910682D01*
X163890912Y-126910682D02*
X164067519Y-126982036D01*
X164067519Y-126982036D02*
X164159212Y-127060169D01*
X164420732Y-127124743D02*
X164297653Y-127937844D01*
X164297653Y-127937844D02*
X164652999Y-127465108D01*
X164652999Y-127465108D02*
X164580223Y-128052010D01*
X164580223Y-128052010D02*
X165056515Y-127381616D01*
X165039400Y-128237529D02*
X165339086Y-127495782D01*
X165339086Y-127495782D02*
X165515692Y-127567136D01*
X165515692Y-127567136D02*
X165607385Y-127645269D01*
X165607385Y-127645269D02*
X165649486Y-127744453D01*
X165649486Y-127744453D02*
X165656266Y-127829367D01*
X165656266Y-127829367D02*
X165634505Y-127984923D01*
X165634505Y-127984923D02*
X165591693Y-128090886D01*
X165591693Y-128090886D02*
X165499288Y-128217901D01*
X165499288Y-128217901D02*
X165435426Y-128274273D01*
X165435426Y-128274273D02*
X165336242Y-128316374D01*
X165336242Y-128316374D02*
X165216007Y-128308883D01*
X165216007Y-128308883D02*
X165039400Y-128237529D01*
X165781148Y-128537215D02*
X166080833Y-127795468D01*
X166575331Y-127995258D02*
X166716616Y-128052341D01*
X166716616Y-128052341D02*
X166772988Y-128116203D01*
X166772988Y-128116203D02*
X166815089Y-128215387D01*
X166815089Y-128215387D02*
X166793327Y-128370943D01*
X166793327Y-128370943D02*
X166693432Y-128618192D01*
X166693432Y-128618192D02*
X166601028Y-128745207D01*
X166601028Y-128745207D02*
X166501844Y-128787308D01*
X166501844Y-128787308D02*
X166416930Y-128794088D01*
X166416930Y-128794088D02*
X166275645Y-128737005D01*
X166275645Y-128737005D02*
X166219273Y-128673142D01*
X166219273Y-128673142D02*
X166177172Y-128573958D01*
X166177172Y-128573958D02*
X166198934Y-128418402D01*
X166198934Y-128418402D02*
X166298829Y-128171153D01*
X166298829Y-128171153D02*
X166391233Y-128044139D01*
X166391233Y-128044139D02*
X166490417Y-128002037D01*
X166490417Y-128002037D02*
X166575331Y-127995258D01*
X180955585Y-108116086D02*
X180561267Y-107869613D01*
X180534782Y-108294706D02*
X180222197Y-107558302D01*
X180222197Y-107558302D02*
X180502732Y-107439222D01*
X180502732Y-107439222D02*
X180587751Y-107444519D01*
X180587751Y-107444519D02*
X180637703Y-107464701D01*
X180637703Y-107464701D02*
X180702540Y-107519950D01*
X180702540Y-107519950D02*
X180747195Y-107625150D01*
X180747195Y-107625150D02*
X180741898Y-107710169D01*
X180741898Y-107710169D02*
X180721716Y-107760121D01*
X180721716Y-107760121D02*
X180666467Y-107824958D01*
X180666467Y-107824958D02*
X180385932Y-107944038D01*
X180958601Y-107245718D02*
X181211646Y-107841854D01*
X181211646Y-107841854D02*
X181276483Y-107897103D01*
X181276483Y-107897103D02*
X181326435Y-107917285D01*
X181326435Y-107917285D02*
X181411454Y-107922581D01*
X181411454Y-107922581D02*
X181551721Y-107863041D01*
X181551721Y-107863041D02*
X181606970Y-107798205D01*
X181606970Y-107798205D02*
X181627152Y-107748253D01*
X181627152Y-107748253D02*
X181632448Y-107663234D01*
X181632448Y-107663234D02*
X181379404Y-107067098D01*
X182042657Y-107654652D02*
X181730072Y-106918248D01*
X181730072Y-106918248D02*
X182463459Y-107476032D01*
X182463459Y-107476032D02*
X182150874Y-106739628D01*
X151275028Y-109516699D02*
X151190009Y-109511402D01*
X151190009Y-109511402D02*
X151084809Y-109556057D01*
X151084809Y-109556057D02*
X150994493Y-109635779D01*
X150994493Y-109635779D02*
X150954130Y-109735683D01*
X150954130Y-109735683D02*
X150948833Y-109820701D01*
X150948833Y-109820701D02*
X150973306Y-109975854D01*
X150973306Y-109975854D02*
X151017961Y-110081054D01*
X151017961Y-110081054D02*
X151112568Y-110206437D01*
X151112568Y-110206437D02*
X151177405Y-110261685D01*
X151177405Y-110261685D02*
X151277308Y-110302049D01*
X151277308Y-110302049D02*
X151397394Y-110292461D01*
X151397394Y-110292461D02*
X151467527Y-110262691D01*
X151467527Y-110262691D02*
X151557843Y-110182969D01*
X151557843Y-110182969D02*
X151578025Y-110133017D01*
X151578025Y-110133017D02*
X151473830Y-109887549D01*
X151473830Y-109887549D02*
X151333563Y-109947089D01*
X151923397Y-110069186D02*
X151610812Y-109332782D01*
X151610812Y-109332782D02*
X151891346Y-109213702D01*
X151891346Y-109213702D02*
X151976365Y-109218999D01*
X151976365Y-109218999D02*
X152026317Y-109239181D01*
X152026317Y-109239181D02*
X152091154Y-109294430D01*
X152091154Y-109294430D02*
X152135809Y-109399630D01*
X152135809Y-109399630D02*
X152130512Y-109484649D01*
X152130512Y-109484649D02*
X152110330Y-109534601D01*
X152110330Y-109534601D02*
X152055081Y-109599438D01*
X152055081Y-109599438D02*
X151774547Y-109718518D01*
X153045536Y-109592866D02*
X152624734Y-109771486D01*
X152835135Y-109682176D02*
X152522550Y-108945772D01*
X152522550Y-108945772D02*
X152497071Y-109080743D01*
X152497071Y-109080743D02*
X152456707Y-109180647D01*
X152456707Y-109180647D02*
X152401459Y-109245483D01*
X153043256Y-108807516D02*
X153063438Y-108757564D01*
X153063438Y-108757564D02*
X153118686Y-108692727D01*
X153118686Y-108692727D02*
X153294021Y-108618302D01*
X153294021Y-108618302D02*
X153379039Y-108623599D01*
X153379039Y-108623599D02*
X153428991Y-108643781D01*
X153428991Y-108643781D02*
X153493828Y-108699030D01*
X153493828Y-108699030D02*
X153523598Y-108769163D01*
X153523598Y-108769163D02*
X153533186Y-108889249D01*
X153533186Y-108889249D02*
X153291004Y-109488671D01*
X153291004Y-109488671D02*
X153746873Y-109295166D01*
X179423316Y-109931433D02*
X179338297Y-109926136D01*
X179338297Y-109926136D02*
X179233097Y-109970791D01*
X179233097Y-109970791D02*
X179142781Y-110050513D01*
X179142781Y-110050513D02*
X179102418Y-110150417D01*
X179102418Y-110150417D02*
X179097121Y-110235435D01*
X179097121Y-110235435D02*
X179121594Y-110390588D01*
X179121594Y-110390588D02*
X179166249Y-110495788D01*
X179166249Y-110495788D02*
X179260856Y-110621171D01*
X179260856Y-110621171D02*
X179325693Y-110676419D01*
X179325693Y-110676419D02*
X179425596Y-110716783D01*
X179425596Y-110716783D02*
X179545682Y-110707195D01*
X179545682Y-110707195D02*
X179615815Y-110677425D01*
X179615815Y-110677425D02*
X179706131Y-110597703D01*
X179706131Y-110597703D02*
X179726313Y-110547751D01*
X179726313Y-110547751D02*
X179622118Y-110302283D01*
X179622118Y-110302283D02*
X179481851Y-110361823D01*
X180071685Y-110483920D02*
X179759100Y-109747516D01*
X179759100Y-109747516D02*
X180039634Y-109628436D01*
X180039634Y-109628436D02*
X180124653Y-109633733D01*
X180124653Y-109633733D02*
X180174605Y-109653915D01*
X180174605Y-109653915D02*
X180239442Y-109709164D01*
X180239442Y-109709164D02*
X180284097Y-109814364D01*
X180284097Y-109814364D02*
X180278800Y-109899383D01*
X180278800Y-109899383D02*
X180258618Y-109949335D01*
X180258618Y-109949335D02*
X180203369Y-110014172D01*
X180203369Y-110014172D02*
X179922835Y-110133252D01*
X180490207Y-109519950D02*
X180510389Y-109469998D01*
X180510389Y-109469998D02*
X180565637Y-109405161D01*
X180565637Y-109405161D02*
X180740971Y-109330736D01*
X180740971Y-109330736D02*
X180825990Y-109336033D01*
X180825990Y-109336033D02*
X180875942Y-109356215D01*
X180875942Y-109356215D02*
X180940779Y-109411464D01*
X180940779Y-109411464D02*
X180970549Y-109481597D01*
X180970549Y-109481597D02*
X180980137Y-109601683D01*
X180980137Y-109601683D02*
X180737955Y-110201105D01*
X180737955Y-110201105D02*
X181193824Y-110007600D01*
X181191544Y-109222250D02*
X181211726Y-109172298D01*
X181211726Y-109172298D02*
X181266974Y-109107461D01*
X181266974Y-109107461D02*
X181442309Y-109033036D01*
X181442309Y-109033036D02*
X181527327Y-109038333D01*
X181527327Y-109038333D02*
X181577279Y-109058515D01*
X181577279Y-109058515D02*
X181642116Y-109113764D01*
X181642116Y-109113764D02*
X181671886Y-109183897D01*
X181671886Y-109183897D02*
X181681474Y-109303983D01*
X181681474Y-109303983D02*
X181439292Y-109903405D01*
X181439292Y-109903405D02*
X181895161Y-109709900D01*
X147604394Y-118991580D02*
X147519375Y-118986283D01*
X147519375Y-118986283D02*
X147414175Y-119030938D01*
X147414175Y-119030938D02*
X147323859Y-119110660D01*
X147323859Y-119110660D02*
X147283496Y-119210564D01*
X147283496Y-119210564D02*
X147278199Y-119295582D01*
X147278199Y-119295582D02*
X147302672Y-119450735D01*
X147302672Y-119450735D02*
X147347327Y-119555935D01*
X147347327Y-119555935D02*
X147441934Y-119681318D01*
X147441934Y-119681318D02*
X147506771Y-119736566D01*
X147506771Y-119736566D02*
X147606674Y-119776930D01*
X147606674Y-119776930D02*
X147726760Y-119767342D01*
X147726760Y-119767342D02*
X147796893Y-119737572D01*
X147796893Y-119737572D02*
X147887209Y-119657850D01*
X147887209Y-119657850D02*
X147907391Y-119607898D01*
X147907391Y-119607898D02*
X147803196Y-119362430D01*
X147803196Y-119362430D02*
X147662929Y-119421970D01*
X148252763Y-119544067D02*
X147940178Y-118807663D01*
X147940178Y-118807663D02*
X148220712Y-118688583D01*
X148220712Y-118688583D02*
X148305731Y-118693880D01*
X148305731Y-118693880D02*
X148355683Y-118714062D01*
X148355683Y-118714062D02*
X148420520Y-118769311D01*
X148420520Y-118769311D02*
X148465175Y-118874511D01*
X148465175Y-118874511D02*
X148459878Y-118959530D01*
X148459878Y-118959530D02*
X148439696Y-119009482D01*
X148439696Y-119009482D02*
X148384447Y-119074319D01*
X148384447Y-119074319D02*
X148103913Y-119193399D01*
X149374902Y-119067747D02*
X148954100Y-119246367D01*
X149164501Y-119157057D02*
X148851916Y-118420653D01*
X148851916Y-118420653D02*
X148826437Y-118555624D01*
X148826437Y-118555624D02*
X148786073Y-118655528D01*
X148786073Y-118655528D02*
X148730825Y-118720364D01*
X149728587Y-118048528D02*
X149377919Y-118197378D01*
X149377919Y-118197378D02*
X149491702Y-118562932D01*
X149491702Y-118562932D02*
X149511884Y-118512980D01*
X149511884Y-118512980D02*
X149567132Y-118448143D01*
X149567132Y-118448143D02*
X149742467Y-118373718D01*
X149742467Y-118373718D02*
X149827485Y-118379015D01*
X149827485Y-118379015D02*
X149877437Y-118399197D01*
X149877437Y-118399197D02*
X149942274Y-118454446D01*
X149942274Y-118454446D02*
X150016699Y-118629780D01*
X150016699Y-118629780D02*
X150011402Y-118714798D01*
X150011402Y-118714798D02*
X149991220Y-118764750D01*
X149991220Y-118764750D02*
X149935972Y-118829587D01*
X149935972Y-118829587D02*
X149760637Y-118904012D01*
X149760637Y-118904012D02*
X149675619Y-118898715D01*
X149675619Y-118898715D02*
X149625667Y-118878533D01*
X183016908Y-101180800D02*
X183367576Y-101031950D01*
X183036084Y-101420972D02*
X182968967Y-100580373D01*
X182968967Y-100580373D02*
X183527020Y-101212582D01*
X183860523Y-100243315D02*
X183775504Y-100238018D01*
X183775504Y-100238018D02*
X183670304Y-100282673D01*
X183670304Y-100282673D02*
X183579988Y-100362395D01*
X183579988Y-100362395D02*
X183539625Y-100462298D01*
X183539625Y-100462298D02*
X183534328Y-100547317D01*
X183534328Y-100547317D02*
X183558801Y-100702470D01*
X183558801Y-100702470D02*
X183603456Y-100807670D01*
X183603456Y-100807670D02*
X183698063Y-100933052D01*
X183698063Y-100933052D02*
X183762900Y-100988301D01*
X183762900Y-100988301D02*
X183862803Y-101028665D01*
X183862803Y-101028665D02*
X183982889Y-101019077D01*
X183982889Y-101019077D02*
X184053022Y-100989307D01*
X184053022Y-100989307D02*
X184143338Y-100909585D01*
X184143338Y-100909585D02*
X184163520Y-100859633D01*
X184163520Y-100859633D02*
X184059325Y-100614165D01*
X184059325Y-100614165D02*
X183919057Y-100673705D01*
X184508892Y-100795802D02*
X184196307Y-100059398D01*
X184196307Y-100059398D02*
X184929694Y-100617182D01*
X184929694Y-100617182D02*
X184617109Y-99880778D01*
X185280362Y-100468332D02*
X184967777Y-99731928D01*
X184967777Y-99731928D02*
X185143111Y-99657503D01*
X185143111Y-99657503D02*
X185263197Y-99647915D01*
X185263197Y-99647915D02*
X185363101Y-99688279D01*
X185363101Y-99688279D02*
X185427937Y-99743527D01*
X185427937Y-99743527D02*
X185522544Y-99868910D01*
X185522544Y-99868910D02*
X185567199Y-99974110D01*
X185567199Y-99974110D02*
X185591672Y-100129263D01*
X185591672Y-100129263D02*
X185586376Y-100214282D01*
X185586376Y-100214282D02*
X185546012Y-100314185D01*
X185546012Y-100314185D02*
X185455696Y-100393907D01*
X185455696Y-100393907D02*
X185280362Y-100468332D01*
X171811310Y-128771809D02*
X171726291Y-128766512D01*
X171726291Y-128766512D02*
X171621091Y-128811167D01*
X171621091Y-128811167D02*
X171530775Y-128890889D01*
X171530775Y-128890889D02*
X171490412Y-128990793D01*
X171490412Y-128990793D02*
X171485115Y-129075811D01*
X171485115Y-129075811D02*
X171509588Y-129230964D01*
X171509588Y-129230964D02*
X171554243Y-129336164D01*
X171554243Y-129336164D02*
X171648850Y-129461547D01*
X171648850Y-129461547D02*
X171713687Y-129516795D01*
X171713687Y-129516795D02*
X171813590Y-129557159D01*
X171813590Y-129557159D02*
X171933676Y-129547571D01*
X171933676Y-129547571D02*
X172003809Y-129517801D01*
X172003809Y-129517801D02*
X172094125Y-129438079D01*
X172094125Y-129438079D02*
X172114307Y-129388127D01*
X172114307Y-129388127D02*
X172010112Y-129142659D01*
X172010112Y-129142659D02*
X171869845Y-129202199D01*
X172459679Y-129324296D02*
X172147094Y-128587892D01*
X172147094Y-128587892D02*
X172427628Y-128468812D01*
X172427628Y-128468812D02*
X172512647Y-128474109D01*
X172512647Y-128474109D02*
X172562599Y-128494291D01*
X172562599Y-128494291D02*
X172627436Y-128549540D01*
X172627436Y-128549540D02*
X172672091Y-128654740D01*
X172672091Y-128654740D02*
X172666794Y-128739759D01*
X172666794Y-128739759D02*
X172646612Y-128789711D01*
X172646612Y-128789711D02*
X172591363Y-128854548D01*
X172591363Y-128854548D02*
X172310829Y-128973628D01*
X173581818Y-128847976D02*
X173161016Y-129026596D01*
X173371417Y-128937286D02*
X173058832Y-128200882D01*
X173058832Y-128200882D02*
X173033353Y-128335853D01*
X173033353Y-128335853D02*
X172992989Y-128435757D01*
X172992989Y-128435757D02*
X172937741Y-128500593D01*
X173900436Y-127843642D02*
X173760169Y-127903182D01*
X173760169Y-127903182D02*
X173704920Y-127968019D01*
X173704920Y-127968019D02*
X173684738Y-128017971D01*
X173684738Y-128017971D02*
X173659260Y-128152942D01*
X173659260Y-128152942D02*
X173683733Y-128308094D01*
X173683733Y-128308094D02*
X173802813Y-128588629D01*
X173802813Y-128588629D02*
X173867650Y-128643877D01*
X173867650Y-128643877D02*
X173917602Y-128664059D01*
X173917602Y-128664059D02*
X174002620Y-128669356D01*
X174002620Y-128669356D02*
X174142888Y-128609816D01*
X174142888Y-128609816D02*
X174198136Y-128544979D01*
X174198136Y-128544979D02*
X174218318Y-128495027D01*
X174218318Y-128495027D02*
X174223615Y-128410009D01*
X174223615Y-128410009D02*
X174149190Y-128234675D01*
X174149190Y-128234675D02*
X174084353Y-128179426D01*
X174084353Y-128179426D02*
X174034401Y-128159244D01*
X174034401Y-128159244D02*
X173949383Y-128153947D01*
X173949383Y-128153947D02*
X173809115Y-128213487D01*
X173809115Y-128213487D02*
X173753867Y-128278324D01*
X173753867Y-128278324D02*
X173733685Y-128328276D01*
X173733685Y-128328276D02*
X173728388Y-128413294D01*
X182274072Y-102875564D02*
X182189053Y-102870267D01*
X182189053Y-102870267D02*
X182083853Y-102914922D01*
X182083853Y-102914922D02*
X181993537Y-102994644D01*
X181993537Y-102994644D02*
X181953174Y-103094548D01*
X181953174Y-103094548D02*
X181947877Y-103179566D01*
X181947877Y-103179566D02*
X181972350Y-103334719D01*
X181972350Y-103334719D02*
X182017005Y-103439919D01*
X182017005Y-103439919D02*
X182111612Y-103565302D01*
X182111612Y-103565302D02*
X182176449Y-103620550D01*
X182176449Y-103620550D02*
X182276352Y-103660914D01*
X182276352Y-103660914D02*
X182396438Y-103651326D01*
X182396438Y-103651326D02*
X182466571Y-103621556D01*
X182466571Y-103621556D02*
X182556887Y-103541834D01*
X182556887Y-103541834D02*
X182577069Y-103491882D01*
X182577069Y-103491882D02*
X182472874Y-103246414D01*
X182472874Y-103246414D02*
X182332607Y-103305954D01*
X182922441Y-103428051D02*
X182609856Y-102691647D01*
X182609856Y-102691647D02*
X182890390Y-102572567D01*
X182890390Y-102572567D02*
X182975409Y-102577864D01*
X182975409Y-102577864D02*
X183025361Y-102598046D01*
X183025361Y-102598046D02*
X183090198Y-102653295D01*
X183090198Y-102653295D02*
X183134853Y-102758495D01*
X183134853Y-102758495D02*
X183129556Y-102843514D01*
X183129556Y-102843514D02*
X183109374Y-102893466D01*
X183109374Y-102893466D02*
X183054125Y-102958303D01*
X183054125Y-102958303D02*
X182773591Y-103077383D01*
X183340963Y-102464081D02*
X183361145Y-102414129D01*
X183361145Y-102414129D02*
X183416393Y-102349292D01*
X183416393Y-102349292D02*
X183591727Y-102274867D01*
X183591727Y-102274867D02*
X183676746Y-102280164D01*
X183676746Y-102280164D02*
X183726698Y-102300346D01*
X183726698Y-102300346D02*
X183791535Y-102355595D01*
X183791535Y-102355595D02*
X183821305Y-102425728D01*
X183821305Y-102425728D02*
X183830893Y-102545814D01*
X183830893Y-102545814D02*
X183588711Y-103145236D01*
X183588711Y-103145236D02*
X184044580Y-102951731D01*
X183977463Y-102111132D02*
X184468399Y-101902742D01*
X184468399Y-101902742D02*
X184465382Y-102773111D01*
X172762811Y-126416762D02*
X172677792Y-126411465D01*
X172677792Y-126411465D02*
X172572592Y-126456120D01*
X172572592Y-126456120D02*
X172482276Y-126535842D01*
X172482276Y-126535842D02*
X172441913Y-126635746D01*
X172441913Y-126635746D02*
X172436616Y-126720764D01*
X172436616Y-126720764D02*
X172461089Y-126875917D01*
X172461089Y-126875917D02*
X172505744Y-126981117D01*
X172505744Y-126981117D02*
X172600351Y-127106500D01*
X172600351Y-127106500D02*
X172665188Y-127161748D01*
X172665188Y-127161748D02*
X172765091Y-127202112D01*
X172765091Y-127202112D02*
X172885177Y-127192524D01*
X172885177Y-127192524D02*
X172955310Y-127162754D01*
X172955310Y-127162754D02*
X173045626Y-127083032D01*
X173045626Y-127083032D02*
X173065808Y-127033080D01*
X173065808Y-127033080D02*
X172961613Y-126787612D01*
X172961613Y-126787612D02*
X172821346Y-126847152D01*
X173411180Y-126969249D02*
X173098595Y-126232845D01*
X173098595Y-126232845D02*
X173379129Y-126113765D01*
X173379129Y-126113765D02*
X173464148Y-126119062D01*
X173464148Y-126119062D02*
X173514100Y-126139244D01*
X173514100Y-126139244D02*
X173578937Y-126194493D01*
X173578937Y-126194493D02*
X173623592Y-126299693D01*
X173623592Y-126299693D02*
X173618295Y-126384712D01*
X173618295Y-126384712D02*
X173598113Y-126434664D01*
X173598113Y-126434664D02*
X173542864Y-126499501D01*
X173542864Y-126499501D02*
X173262330Y-126618581D01*
X174533319Y-126492929D02*
X174112517Y-126671549D01*
X174322918Y-126582239D02*
X174010333Y-125845835D01*
X174010333Y-125845835D02*
X173984854Y-125980806D01*
X173984854Y-125980806D02*
X173944490Y-126080710D01*
X173944490Y-126080710D02*
X173889242Y-126145546D01*
X174466202Y-125652330D02*
X174957138Y-125443940D01*
X174957138Y-125443940D02*
X174954121Y-126314309D01*
X186843404Y-91097336D02*
X187299273Y-90903831D01*
X187299273Y-90903831D02*
X187172885Y-91288561D01*
X187172885Y-91288561D02*
X187278086Y-91243906D01*
X187278086Y-91243906D02*
X187363105Y-91249203D01*
X187363105Y-91249203D02*
X187413057Y-91269385D01*
X187413057Y-91269385D02*
X187477893Y-91324634D01*
X187477893Y-91324634D02*
X187552318Y-91499968D01*
X187552318Y-91499968D02*
X187547022Y-91584987D01*
X187547022Y-91584987D02*
X187526840Y-91634938D01*
X187526840Y-91634938D02*
X187471591Y-91699775D01*
X187471591Y-91699775D02*
X187261190Y-91789085D01*
X187261190Y-91789085D02*
X187176171Y-91783788D01*
X187176171Y-91783788D02*
X187126219Y-91763606D01*
X187509675Y-90814521D02*
X188067728Y-91446730D01*
X188067728Y-91446730D02*
X188000611Y-90606131D01*
X188175945Y-90531707D02*
X188631814Y-90338202D01*
X188631814Y-90338202D02*
X188505426Y-90722931D01*
X188505426Y-90722931D02*
X188610626Y-90678276D01*
X188610626Y-90678276D02*
X188695645Y-90683573D01*
X188695645Y-90683573D02*
X188745597Y-90703755D01*
X188745597Y-90703755D02*
X188810434Y-90759004D01*
X188810434Y-90759004D02*
X188884859Y-90934338D01*
X188884859Y-90934338D02*
X188879562Y-91019357D01*
X188879562Y-91019357D02*
X188859380Y-91069309D01*
X188859380Y-91069309D02*
X188804131Y-91134145D01*
X188804131Y-91134145D02*
X188593730Y-91223455D01*
X188593730Y-91223455D02*
X188508711Y-91218159D01*
X188508711Y-91218159D02*
X188458760Y-91197977D01*
X189114436Y-91085199D02*
X189675506Y-90847039D01*
X189657335Y-90316745D02*
X189902803Y-90212550D01*
X190171739Y-90553630D02*
X189821070Y-90702480D01*
X189821070Y-90702480D02*
X189508485Y-89966077D01*
X189508485Y-89966077D02*
X189859154Y-89817227D01*
X190487341Y-90419665D02*
X190174756Y-89683261D01*
X190174756Y-89683261D02*
X190908143Y-90241045D01*
X190908143Y-90241045D02*
X190595558Y-89504641D01*
X181326317Y-105221339D02*
X181241298Y-105216042D01*
X181241298Y-105216042D02*
X181136098Y-105260697D01*
X181136098Y-105260697D02*
X181045782Y-105340419D01*
X181045782Y-105340419D02*
X181005419Y-105440323D01*
X181005419Y-105440323D02*
X181000122Y-105525341D01*
X181000122Y-105525341D02*
X181024595Y-105680494D01*
X181024595Y-105680494D02*
X181069250Y-105785694D01*
X181069250Y-105785694D02*
X181163857Y-105911077D01*
X181163857Y-105911077D02*
X181228694Y-105966325D01*
X181228694Y-105966325D02*
X181328597Y-106006689D01*
X181328597Y-106006689D02*
X181448683Y-105997101D01*
X181448683Y-105997101D02*
X181518816Y-105967331D01*
X181518816Y-105967331D02*
X181609132Y-105887609D01*
X181609132Y-105887609D02*
X181629314Y-105837657D01*
X181629314Y-105837657D02*
X181525119Y-105592189D01*
X181525119Y-105592189D02*
X181384852Y-105651729D01*
X181974686Y-105773826D02*
X181662101Y-105037422D01*
X181662101Y-105037422D02*
X181942635Y-104918342D01*
X181942635Y-104918342D02*
X182027654Y-104923639D01*
X182027654Y-104923639D02*
X182077606Y-104943821D01*
X182077606Y-104943821D02*
X182142443Y-104999070D01*
X182142443Y-104999070D02*
X182187098Y-105104270D01*
X182187098Y-105104270D02*
X182181801Y-105189289D01*
X182181801Y-105189289D02*
X182161619Y-105239241D01*
X182161619Y-105239241D02*
X182106370Y-105304078D01*
X182106370Y-105304078D02*
X181825836Y-105423158D01*
X182393208Y-104809856D02*
X182413390Y-104759904D01*
X182413390Y-104759904D02*
X182468638Y-104695067D01*
X182468638Y-104695067D02*
X182643972Y-104620642D01*
X182643972Y-104620642D02*
X182728991Y-104625939D01*
X182728991Y-104625939D02*
X182778943Y-104646121D01*
X182778943Y-104646121D02*
X182843780Y-104701370D01*
X182843780Y-104701370D02*
X182873550Y-104771503D01*
X182873550Y-104771503D02*
X182883138Y-104891589D01*
X182883138Y-104891589D02*
X182640956Y-105491011D01*
X182640956Y-105491011D02*
X183096825Y-105297506D01*
X183415443Y-104293172D02*
X183275176Y-104352712D01*
X183275176Y-104352712D02*
X183219927Y-104417549D01*
X183219927Y-104417549D02*
X183199745Y-104467501D01*
X183199745Y-104467501D02*
X183174267Y-104602472D01*
X183174267Y-104602472D02*
X183198740Y-104757624D01*
X183198740Y-104757624D02*
X183317820Y-105038159D01*
X183317820Y-105038159D02*
X183382657Y-105093407D01*
X183382657Y-105093407D02*
X183432609Y-105113589D01*
X183432609Y-105113589D02*
X183517627Y-105118886D01*
X183517627Y-105118886D02*
X183657895Y-105059346D01*
X183657895Y-105059346D02*
X183713143Y-104994509D01*
X183713143Y-104994509D02*
X183733325Y-104944557D01*
X183733325Y-104944557D02*
X183738622Y-104859539D01*
X183738622Y-104859539D02*
X183664197Y-104684205D01*
X183664197Y-104684205D02*
X183599360Y-104628956D01*
X183599360Y-104628956D02*
X183549408Y-104608774D01*
X183549408Y-104608774D02*
X183464390Y-104603477D01*
X183464390Y-104603477D02*
X183324122Y-104663017D01*
X183324122Y-104663017D02*
X183268874Y-104727854D01*
X183268874Y-104727854D02*
X183248692Y-104777806D01*
X183248692Y-104777806D02*
X183243395Y-104862824D01*
X157809532Y-95397055D02*
X157724513Y-95391758D01*
X157724513Y-95391758D02*
X157619313Y-95436413D01*
X157619313Y-95436413D02*
X157528997Y-95516135D01*
X157528997Y-95516135D02*
X157488634Y-95616038D01*
X157488634Y-95616038D02*
X157483337Y-95701057D01*
X157483337Y-95701057D02*
X157507810Y-95856210D01*
X157507810Y-95856210D02*
X157552465Y-95961410D01*
X157552465Y-95961410D02*
X157647072Y-96086792D01*
X157647072Y-96086792D02*
X157711909Y-96142041D01*
X157711909Y-96142041D02*
X157811812Y-96182405D01*
X157811812Y-96182405D02*
X157931898Y-96172817D01*
X157931898Y-96172817D02*
X158002032Y-96143047D01*
X158002032Y-96143047D02*
X158092347Y-96063325D01*
X158092347Y-96063325D02*
X158112529Y-96013373D01*
X158112529Y-96013373D02*
X158008334Y-95767905D01*
X158008334Y-95767905D02*
X157868067Y-95827445D01*
X158457901Y-95949542D02*
X158145316Y-95213138D01*
X158145316Y-95213138D02*
X158425851Y-95094058D01*
X158425851Y-95094058D02*
X158510869Y-95099355D01*
X158510869Y-95099355D02*
X158560821Y-95119537D01*
X158560821Y-95119537D02*
X158625658Y-95174785D01*
X158625658Y-95174785D02*
X158670313Y-95279986D01*
X158670313Y-95279986D02*
X158665016Y-95365005D01*
X158665016Y-95365005D02*
X158644834Y-95414957D01*
X158644834Y-95414957D02*
X158589585Y-95479793D01*
X158589585Y-95479793D02*
X158309051Y-95598873D01*
X158811586Y-94930323D02*
X159302522Y-94721933D01*
X159302522Y-94721933D02*
X159299505Y-95592302D01*
X150058503Y-114242671D02*
X149973484Y-114237374D01*
X149973484Y-114237374D02*
X149868283Y-114282029D01*
X149868283Y-114282029D02*
X149777968Y-114361751D01*
X149777968Y-114361751D02*
X149737604Y-114461654D01*
X149737604Y-114461654D02*
X149732307Y-114546673D01*
X149732307Y-114546673D02*
X149756780Y-114701825D01*
X149756780Y-114701825D02*
X149801435Y-114807026D01*
X149801435Y-114807026D02*
X149896042Y-114932408D01*
X149896042Y-114932408D02*
X149960879Y-114987657D01*
X149960879Y-114987657D02*
X150060783Y-115028021D01*
X150060783Y-115028021D02*
X150180868Y-115018433D01*
X150180868Y-115018433D02*
X150251002Y-114988663D01*
X150251002Y-114988663D02*
X150341317Y-114908941D01*
X150341317Y-114908941D02*
X150361499Y-114858989D01*
X150361499Y-114858989D02*
X150257304Y-114613521D01*
X150257304Y-114613521D02*
X150117037Y-114673061D01*
X150706871Y-114795158D02*
X150394286Y-114058754D01*
X150394286Y-114058754D02*
X151127673Y-114616538D01*
X151127673Y-114616538D02*
X150815088Y-113880134D01*
X151478342Y-114467688D02*
X151165757Y-113731284D01*
X151165757Y-113731284D02*
X151341091Y-113656859D01*
X151341091Y-113656859D02*
X151461176Y-113647271D01*
X151461176Y-113647271D02*
X151561080Y-113687635D01*
X151561080Y-113687635D02*
X151625917Y-113742883D01*
X151625917Y-113742883D02*
X151720524Y-113868266D01*
X151720524Y-113868266D02*
X151765179Y-113973466D01*
X151765179Y-113973466D02*
X151789652Y-114128619D01*
X151789652Y-114128619D02*
X151784355Y-114213637D01*
X151784355Y-114213637D02*
X151743991Y-114313541D01*
X151743991Y-114313541D02*
X151653676Y-114393263D01*
X151653676Y-114393263D02*
X151478342Y-114467688D01*
X154816007Y-102467436D02*
X154730988Y-102462139D01*
X154730988Y-102462139D02*
X154625787Y-102506794D01*
X154625787Y-102506794D02*
X154535472Y-102586516D01*
X154535472Y-102586516D02*
X154495108Y-102686419D01*
X154495108Y-102686419D02*
X154489811Y-102771438D01*
X154489811Y-102771438D02*
X154514284Y-102926590D01*
X154514284Y-102926590D02*
X154558939Y-103031791D01*
X154558939Y-103031791D02*
X154653546Y-103157173D01*
X154653546Y-103157173D02*
X154718383Y-103212422D01*
X154718383Y-103212422D02*
X154818287Y-103252786D01*
X154818287Y-103252786D02*
X154938372Y-103243198D01*
X154938372Y-103243198D02*
X155008506Y-103213428D01*
X155008506Y-103213428D02*
X155098821Y-103133706D01*
X155098821Y-103133706D02*
X155119003Y-103083754D01*
X155119003Y-103083754D02*
X155014808Y-102838286D01*
X155014808Y-102838286D02*
X154874541Y-102897826D01*
X155464375Y-103019923D02*
X155151790Y-102283519D01*
X155151790Y-102283519D02*
X155885177Y-102841303D01*
X155885177Y-102841303D02*
X155572592Y-102104899D01*
X156235846Y-102692453D02*
X155923261Y-101956049D01*
X155923261Y-101956049D02*
X156098595Y-101881624D01*
X156098595Y-101881624D02*
X156218680Y-101872036D01*
X156218680Y-101872036D02*
X156318584Y-101912400D01*
X156318584Y-101912400D02*
X156383421Y-101967648D01*
X156383421Y-101967648D02*
X156478028Y-102093031D01*
X156478028Y-102093031D02*
X156522683Y-102198231D01*
X156522683Y-102198231D02*
X156547156Y-102353384D01*
X156547156Y-102353384D02*
X156541859Y-102438402D01*
X156541859Y-102438402D02*
X156501495Y-102538306D01*
X156501495Y-102538306D02*
X156411180Y-102618028D01*
X156411180Y-102618028D02*
X156235846Y-102692453D01*
X148513244Y-116619301D02*
X148428225Y-116614004D01*
X148428225Y-116614004D02*
X148323025Y-116658659D01*
X148323025Y-116658659D02*
X148232709Y-116738381D01*
X148232709Y-116738381D02*
X148192346Y-116838285D01*
X148192346Y-116838285D02*
X148187049Y-116923303D01*
X148187049Y-116923303D02*
X148211522Y-117078456D01*
X148211522Y-117078456D02*
X148256177Y-117183656D01*
X148256177Y-117183656D02*
X148350784Y-117309039D01*
X148350784Y-117309039D02*
X148415621Y-117364287D01*
X148415621Y-117364287D02*
X148515524Y-117404651D01*
X148515524Y-117404651D02*
X148635610Y-117395063D01*
X148635610Y-117395063D02*
X148705743Y-117365293D01*
X148705743Y-117365293D02*
X148796059Y-117285571D01*
X148796059Y-117285571D02*
X148816241Y-117235619D01*
X148816241Y-117235619D02*
X148712046Y-116990151D01*
X148712046Y-116990151D02*
X148571779Y-117049691D01*
X149161613Y-117171788D02*
X148849028Y-116435384D01*
X148849028Y-116435384D02*
X149129562Y-116316304D01*
X149129562Y-116316304D02*
X149214581Y-116321601D01*
X149214581Y-116321601D02*
X149264533Y-116341783D01*
X149264533Y-116341783D02*
X149329370Y-116397032D01*
X149329370Y-116397032D02*
X149374025Y-116502232D01*
X149374025Y-116502232D02*
X149368728Y-116587251D01*
X149368728Y-116587251D02*
X149348546Y-116637203D01*
X149348546Y-116637203D02*
X149293297Y-116702040D01*
X149293297Y-116702040D02*
X149012763Y-116821120D01*
X150283752Y-116695468D02*
X149862950Y-116874088D01*
X150073351Y-116784778D02*
X149760766Y-116048374D01*
X149760766Y-116048374D02*
X149735287Y-116183345D01*
X149735287Y-116183345D02*
X149694923Y-116283249D01*
X149694923Y-116283249D02*
X149639675Y-116348085D01*
X150706565Y-115936602D02*
X150914955Y-116427538D01*
X150412151Y-115730492D02*
X150460092Y-116330920D01*
X150460092Y-116330920D02*
X150915961Y-116137415D01*
X155802574Y-100097504D02*
X155717555Y-100092207D01*
X155717555Y-100092207D02*
X155612355Y-100136862D01*
X155612355Y-100136862D02*
X155522039Y-100216584D01*
X155522039Y-100216584D02*
X155481676Y-100316487D01*
X155481676Y-100316487D02*
X155476379Y-100401506D01*
X155476379Y-100401506D02*
X155500852Y-100556659D01*
X155500852Y-100556659D02*
X155545507Y-100661859D01*
X155545507Y-100661859D02*
X155640114Y-100787241D01*
X155640114Y-100787241D02*
X155704951Y-100842490D01*
X155704951Y-100842490D02*
X155804854Y-100882854D01*
X155804854Y-100882854D02*
X155924940Y-100873266D01*
X155924940Y-100873266D02*
X155995074Y-100843496D01*
X155995074Y-100843496D02*
X156085389Y-100763774D01*
X156085389Y-100763774D02*
X156105571Y-100713822D01*
X156105571Y-100713822D02*
X156001376Y-100468354D01*
X156001376Y-100468354D02*
X155861109Y-100527894D01*
X156450943Y-100649991D02*
X156138358Y-99913587D01*
X156138358Y-99913587D02*
X156418893Y-99794507D01*
X156418893Y-99794507D02*
X156503911Y-99799804D01*
X156503911Y-99799804D02*
X156553863Y-99819986D01*
X156553863Y-99819986D02*
X156618700Y-99875234D01*
X156618700Y-99875234D02*
X156663355Y-99980435D01*
X156663355Y-99980435D02*
X156658058Y-100065454D01*
X156658058Y-100065454D02*
X156637876Y-100115406D01*
X156637876Y-100115406D02*
X156582627Y-100180242D01*
X156582627Y-100180242D02*
X156302093Y-100299322D01*
X157222413Y-100322521D02*
X157362681Y-100262981D01*
X157362681Y-100262981D02*
X157417929Y-100198144D01*
X157417929Y-100198144D02*
X157438111Y-100148192D01*
X157438111Y-100148192D02*
X157463590Y-100013222D01*
X157463590Y-100013222D02*
X157439117Y-99858069D01*
X157439117Y-99858069D02*
X157320037Y-99577535D01*
X157320037Y-99577535D02*
X157255200Y-99522286D01*
X157255200Y-99522286D02*
X157205248Y-99502104D01*
X157205248Y-99502104D02*
X157120230Y-99496807D01*
X157120230Y-99496807D02*
X156979962Y-99556347D01*
X156979962Y-99556347D02*
X156924713Y-99621184D01*
X156924713Y-99621184D02*
X156904532Y-99671136D01*
X156904532Y-99671136D02*
X156899235Y-99756154D01*
X156899235Y-99756154D02*
X156973660Y-99931489D01*
X156973660Y-99931489D02*
X157038497Y-99986737D01*
X157038497Y-99986737D02*
X157088448Y-100006919D01*
X157088448Y-100006919D02*
X157173467Y-100012216D01*
X157173467Y-100012216D02*
X157313735Y-99952676D01*
X157313735Y-99952676D02*
X157368983Y-99887839D01*
X157368983Y-99887839D02*
X157389165Y-99837887D01*
X157389165Y-99837887D02*
X157394462Y-99752869D01*
X159573511Y-90692201D02*
X159488492Y-90686904D01*
X159488492Y-90686904D02*
X159383291Y-90731559D01*
X159383291Y-90731559D02*
X159292976Y-90811281D01*
X159292976Y-90811281D02*
X159252612Y-90911184D01*
X159252612Y-90911184D02*
X159247315Y-90996203D01*
X159247315Y-90996203D02*
X159271788Y-91151355D01*
X159271788Y-91151355D02*
X159316443Y-91256556D01*
X159316443Y-91256556D02*
X159411050Y-91381938D01*
X159411050Y-91381938D02*
X159475887Y-91437187D01*
X159475887Y-91437187D02*
X159575791Y-91477551D01*
X159575791Y-91477551D02*
X159695876Y-91467963D01*
X159695876Y-91467963D02*
X159766010Y-91438193D01*
X159766010Y-91438193D02*
X159856325Y-91358471D01*
X159856325Y-91358471D02*
X159876507Y-91308519D01*
X159876507Y-91308519D02*
X159772312Y-91063051D01*
X159772312Y-91063051D02*
X159632045Y-91122591D01*
X160221879Y-91244688D02*
X159909294Y-90508284D01*
X159909294Y-90508284D02*
X160642681Y-91066068D01*
X160642681Y-91066068D02*
X160330096Y-90329664D01*
X160993350Y-90917218D02*
X160680765Y-90180814D01*
X160680765Y-90180814D02*
X160856099Y-90106389D01*
X160856099Y-90106389D02*
X160976184Y-90096801D01*
X160976184Y-90096801D02*
X161076088Y-90137165D01*
X161076088Y-90137165D02*
X161140925Y-90192413D01*
X161140925Y-90192413D02*
X161235532Y-90317796D01*
X161235532Y-90317796D02*
X161280187Y-90422996D01*
X161280187Y-90422996D02*
X161304660Y-90578149D01*
X161304660Y-90578149D02*
X161299363Y-90663167D01*
X161299363Y-90663167D02*
X161258999Y-90763071D01*
X161258999Y-90763071D02*
X161168684Y-90842793D01*
X161168684Y-90842793D02*
X160993350Y-90917218D01*
X175617313Y-119351621D02*
X175532294Y-119346324D01*
X175532294Y-119346324D02*
X175427094Y-119390979D01*
X175427094Y-119390979D02*
X175336778Y-119470701D01*
X175336778Y-119470701D02*
X175296415Y-119570605D01*
X175296415Y-119570605D02*
X175291118Y-119655623D01*
X175291118Y-119655623D02*
X175315591Y-119810776D01*
X175315591Y-119810776D02*
X175360246Y-119915976D01*
X175360246Y-119915976D02*
X175454853Y-120041359D01*
X175454853Y-120041359D02*
X175519690Y-120096607D01*
X175519690Y-120096607D02*
X175619593Y-120136971D01*
X175619593Y-120136971D02*
X175739679Y-120127383D01*
X175739679Y-120127383D02*
X175809812Y-120097613D01*
X175809812Y-120097613D02*
X175900128Y-120017891D01*
X175900128Y-120017891D02*
X175920310Y-119967939D01*
X175920310Y-119967939D02*
X175816115Y-119722471D01*
X175816115Y-119722471D02*
X175675848Y-119782011D01*
X176265682Y-119904108D02*
X175953097Y-119167704D01*
X175953097Y-119167704D02*
X176233631Y-119048624D01*
X176233631Y-119048624D02*
X176318650Y-119053921D01*
X176318650Y-119053921D02*
X176368602Y-119074103D01*
X176368602Y-119074103D02*
X176433439Y-119129352D01*
X176433439Y-119129352D02*
X176478094Y-119234552D01*
X176478094Y-119234552D02*
X176472797Y-119319571D01*
X176472797Y-119319571D02*
X176452615Y-119369523D01*
X176452615Y-119369523D02*
X176397366Y-119434360D01*
X176397366Y-119434360D02*
X176116832Y-119553440D01*
X177387821Y-119427788D02*
X176967019Y-119606408D01*
X177177420Y-119517098D02*
X176864835Y-118780694D01*
X176864835Y-118780694D02*
X176839356Y-118915665D01*
X176839356Y-118915665D02*
X176798992Y-119015569D01*
X176798992Y-119015569D02*
X176743744Y-119080405D01*
X177738490Y-119278938D02*
X177878757Y-119219398D01*
X177878757Y-119219398D02*
X177934006Y-119154561D01*
X177934006Y-119154561D02*
X177954187Y-119104609D01*
X177954187Y-119104609D02*
X177979666Y-118969639D01*
X177979666Y-118969639D02*
X177955193Y-118814487D01*
X177955193Y-118814487D02*
X177836113Y-118533952D01*
X177836113Y-118533952D02*
X177771276Y-118478703D01*
X177771276Y-118478703D02*
X177721324Y-118458521D01*
X177721324Y-118458521D02*
X177636306Y-118453224D01*
X177636306Y-118453224D02*
X177496038Y-118512764D01*
X177496038Y-118512764D02*
X177440790Y-118577601D01*
X177440790Y-118577601D02*
X177420608Y-118627553D01*
X177420608Y-118627553D02*
X177415311Y-118712572D01*
X177415311Y-118712572D02*
X177489736Y-118887906D01*
X177489736Y-118887906D02*
X177554573Y-118943155D01*
X177554573Y-118943155D02*
X177604525Y-118963336D01*
X177604525Y-118963336D02*
X177689543Y-118968633D01*
X177689543Y-118968633D02*
X177829811Y-118909093D01*
X177829811Y-118909093D02*
X177885059Y-118844257D01*
X177885059Y-118844257D02*
X177905241Y-118794305D01*
X177905241Y-118794305D02*
X177910538Y-118709286D01*
X162463079Y-83612175D02*
X162378060Y-83606878D01*
X162378060Y-83606878D02*
X162272860Y-83651533D01*
X162272860Y-83651533D02*
X162182544Y-83731255D01*
X162182544Y-83731255D02*
X162142181Y-83831158D01*
X162142181Y-83831158D02*
X162136884Y-83916177D01*
X162136884Y-83916177D02*
X162161357Y-84071330D01*
X162161357Y-84071330D02*
X162206012Y-84176530D01*
X162206012Y-84176530D02*
X162300619Y-84301912D01*
X162300619Y-84301912D02*
X162365456Y-84357161D01*
X162365456Y-84357161D02*
X162465359Y-84397525D01*
X162465359Y-84397525D02*
X162585445Y-84387937D01*
X162585445Y-84387937D02*
X162655579Y-84358167D01*
X162655579Y-84358167D02*
X162745894Y-84278445D01*
X162745894Y-84278445D02*
X162766076Y-84228493D01*
X162766076Y-84228493D02*
X162661881Y-83983025D01*
X162661881Y-83983025D02*
X162521614Y-84042565D01*
X163111448Y-84164662D02*
X162798863Y-83428258D01*
X162798863Y-83428258D02*
X163079398Y-83309178D01*
X163079398Y-83309178D02*
X163164416Y-83314475D01*
X163164416Y-83314475D02*
X163214368Y-83334657D01*
X163214368Y-83334657D02*
X163279205Y-83389905D01*
X163279205Y-83389905D02*
X163323860Y-83495106D01*
X163323860Y-83495106D02*
X163318563Y-83580125D01*
X163318563Y-83580125D02*
X163298381Y-83630077D01*
X163298381Y-83630077D02*
X163243132Y-83694913D01*
X163243132Y-83694913D02*
X162962598Y-83813993D01*
X163465133Y-83145443D02*
X163921002Y-82951938D01*
X163921002Y-82951938D02*
X163794614Y-83336668D01*
X163794614Y-83336668D02*
X163899815Y-83292013D01*
X163899815Y-83292013D02*
X163984833Y-83297310D01*
X163984833Y-83297310D02*
X164034785Y-83317492D01*
X164034785Y-83317492D02*
X164099622Y-83372740D01*
X164099622Y-83372740D02*
X164174047Y-83548075D01*
X164174047Y-83548075D02*
X164168750Y-83633093D01*
X164168750Y-83633093D02*
X164148568Y-83683045D01*
X164148568Y-83683045D02*
X164093319Y-83747882D01*
X164093319Y-83747882D02*
X163882918Y-83837192D01*
X163882918Y-83837192D02*
X163797900Y-83831895D01*
X163797900Y-83831895D02*
X163747948Y-83811713D01*
X152226529Y-107161652D02*
X152141510Y-107156355D01*
X152141510Y-107156355D02*
X152036310Y-107201010D01*
X152036310Y-107201010D02*
X151945994Y-107280732D01*
X151945994Y-107280732D02*
X151905631Y-107380636D01*
X151905631Y-107380636D02*
X151900334Y-107465654D01*
X151900334Y-107465654D02*
X151924807Y-107620807D01*
X151924807Y-107620807D02*
X151969462Y-107726007D01*
X151969462Y-107726007D02*
X152064069Y-107851390D01*
X152064069Y-107851390D02*
X152128906Y-107906638D01*
X152128906Y-107906638D02*
X152228809Y-107947002D01*
X152228809Y-107947002D02*
X152348895Y-107937414D01*
X152348895Y-107937414D02*
X152419028Y-107907644D01*
X152419028Y-107907644D02*
X152509344Y-107827922D01*
X152509344Y-107827922D02*
X152529526Y-107777970D01*
X152529526Y-107777970D02*
X152425331Y-107532502D01*
X152425331Y-107532502D02*
X152285064Y-107592042D01*
X152874898Y-107714139D02*
X152562313Y-106977735D01*
X152562313Y-106977735D02*
X152842847Y-106858655D01*
X152842847Y-106858655D02*
X152927866Y-106863952D01*
X152927866Y-106863952D02*
X152977818Y-106884134D01*
X152977818Y-106884134D02*
X153042655Y-106939383D01*
X153042655Y-106939383D02*
X153087310Y-107044583D01*
X153087310Y-107044583D02*
X153082013Y-107129602D01*
X153082013Y-107129602D02*
X153061831Y-107179554D01*
X153061831Y-107179554D02*
X153006582Y-107244391D01*
X153006582Y-107244391D02*
X152726048Y-107363471D01*
X153997037Y-107237819D02*
X153576235Y-107416439D01*
X153786636Y-107327129D02*
X153474051Y-106590725D01*
X153474051Y-106590725D02*
X153448572Y-106725696D01*
X153448572Y-106725696D02*
X153408208Y-106825600D01*
X153408208Y-106825600D02*
X153352960Y-106890436D01*
X154698374Y-106940119D02*
X154277572Y-107118739D01*
X154487973Y-107029429D02*
X154175388Y-106293025D01*
X154175388Y-106293025D02*
X154149909Y-106427996D01*
X154149909Y-106427996D02*
X154109546Y-106527900D01*
X154109546Y-106527900D02*
X154054297Y-106592736D01*
X188673072Y-86564324D02*
X189231125Y-87196533D01*
X189231125Y-87196533D02*
X189164008Y-86355934D01*
X189672109Y-86967961D02*
X189792194Y-86958373D01*
X189792194Y-86958373D02*
X189967528Y-86883948D01*
X189967528Y-86883948D02*
X190022777Y-86819111D01*
X190022777Y-86819111D02*
X190042959Y-86769159D01*
X190042959Y-86769159D02*
X190048256Y-86684141D01*
X190048256Y-86684141D02*
X190018486Y-86614007D01*
X190018486Y-86614007D02*
X189953649Y-86558758D01*
X189953649Y-86558758D02*
X189903697Y-86538576D01*
X189903697Y-86538576D02*
X189818679Y-86533280D01*
X189818679Y-86533280D02*
X189663526Y-86557753D01*
X189663526Y-86557753D02*
X189578507Y-86552456D01*
X189578507Y-86552456D02*
X189528556Y-86532274D01*
X189528556Y-86532274D02*
X189463719Y-86477025D01*
X189463719Y-86477025D02*
X189433949Y-86406892D01*
X189433949Y-86406892D02*
X189439246Y-86321873D01*
X189439246Y-86321873D02*
X189459427Y-86271921D01*
X189459427Y-86271921D02*
X189514676Y-86207084D01*
X189514676Y-86207084D02*
X189690010Y-86132659D01*
X189690010Y-86132659D02*
X189810096Y-86123071D01*
X190414815Y-86280235D02*
X190563665Y-86630903D01*
X190005612Y-85998694D02*
X190414815Y-86280235D01*
X190414815Y-86280235D02*
X190496548Y-85790304D01*
X191004649Y-86402331D02*
X191124735Y-86392743D01*
X191124735Y-86392743D02*
X191300069Y-86318318D01*
X191300069Y-86318318D02*
X191355318Y-86253481D01*
X191355318Y-86253481D02*
X191375499Y-86203530D01*
X191375499Y-86203530D02*
X191380796Y-86118511D01*
X191380796Y-86118511D02*
X191351026Y-86048377D01*
X191351026Y-86048377D02*
X191286189Y-85993128D01*
X191286189Y-85993128D02*
X191236238Y-85972947D01*
X191236238Y-85972947D02*
X191151219Y-85967650D01*
X191151219Y-85967650D02*
X190996066Y-85992123D01*
X190996066Y-85992123D02*
X190911048Y-85986826D01*
X190911048Y-85986826D02*
X190861096Y-85966644D01*
X190861096Y-85966644D02*
X190796259Y-85911395D01*
X190796259Y-85911395D02*
X190766489Y-85841262D01*
X190766489Y-85841262D02*
X190771786Y-85756243D01*
X190771786Y-85756243D02*
X190791968Y-85706291D01*
X190791968Y-85706291D02*
X190847217Y-85641454D01*
X190847217Y-85641454D02*
X191022551Y-85567029D01*
X191022551Y-85567029D02*
X191142636Y-85557441D01*
X166269082Y-74191987D02*
X166184063Y-74186690D01*
X166184063Y-74186690D02*
X166078863Y-74231345D01*
X166078863Y-74231345D02*
X165988547Y-74311067D01*
X165988547Y-74311067D02*
X165948184Y-74410970D01*
X165948184Y-74410970D02*
X165942887Y-74495989D01*
X165942887Y-74495989D02*
X165967360Y-74651142D01*
X165967360Y-74651142D02*
X166012015Y-74756342D01*
X166012015Y-74756342D02*
X166106622Y-74881724D01*
X166106622Y-74881724D02*
X166171459Y-74936973D01*
X166171459Y-74936973D02*
X166271362Y-74977337D01*
X166271362Y-74977337D02*
X166391448Y-74967749D01*
X166391448Y-74967749D02*
X166461582Y-74937979D01*
X166461582Y-74937979D02*
X166551897Y-74858257D01*
X166551897Y-74858257D02*
X166572079Y-74808305D01*
X166572079Y-74808305D02*
X166467884Y-74562837D01*
X166467884Y-74562837D02*
X166327617Y-74622377D01*
X166917451Y-74744474D02*
X166604866Y-74008070D01*
X166604866Y-74008070D02*
X166885401Y-73888990D01*
X166885401Y-73888990D02*
X166970419Y-73894287D01*
X166970419Y-73894287D02*
X167020371Y-73914469D01*
X167020371Y-73914469D02*
X167085208Y-73969717D01*
X167085208Y-73969717D02*
X167129863Y-74074918D01*
X167129863Y-74074918D02*
X167124566Y-74159937D01*
X167124566Y-74159937D02*
X167104384Y-74209889D01*
X167104384Y-74209889D02*
X167049135Y-74274725D01*
X167049135Y-74274725D02*
X166768601Y-74393805D01*
X167481537Y-73635945D02*
X167551671Y-73606175D01*
X167551671Y-73606175D02*
X167636689Y-73611472D01*
X167636689Y-73611472D02*
X167686641Y-73631654D01*
X167686641Y-73631654D02*
X167751478Y-73686903D01*
X167751478Y-73686903D02*
X167846085Y-73812285D01*
X167846085Y-73812285D02*
X167920510Y-73987619D01*
X167920510Y-73987619D02*
X167944983Y-74142772D01*
X167944983Y-74142772D02*
X167939686Y-74227790D01*
X167939686Y-74227790D02*
X167919504Y-74277742D01*
X167919504Y-74277742D02*
X167864256Y-74342579D01*
X167864256Y-74342579D02*
X167794122Y-74372349D01*
X167794122Y-74372349D02*
X167709103Y-74367052D01*
X167709103Y-74367052D02*
X167659151Y-74346870D01*
X167659151Y-74346870D02*
X167594315Y-74291622D01*
X167594315Y-74291622D02*
X167499708Y-74166239D01*
X167499708Y-74166239D02*
X167425283Y-73990905D01*
X167425283Y-73990905D02*
X167400810Y-73835752D01*
X167400810Y-73835752D02*
X167406106Y-73750734D01*
X167406106Y-73750734D02*
X167426288Y-73700782D01*
X167426288Y-73700782D02*
X167481537Y-73635945D01*
X153313398Y-104861298D02*
X153228379Y-104856001D01*
X153228379Y-104856001D02*
X153123179Y-104900656D01*
X153123179Y-104900656D02*
X153032863Y-104980378D01*
X153032863Y-104980378D02*
X152992500Y-105080282D01*
X152992500Y-105080282D02*
X152987203Y-105165300D01*
X152987203Y-105165300D02*
X153011676Y-105320453D01*
X153011676Y-105320453D02*
X153056331Y-105425653D01*
X153056331Y-105425653D02*
X153150938Y-105551036D01*
X153150938Y-105551036D02*
X153215775Y-105606284D01*
X153215775Y-105606284D02*
X153315678Y-105646648D01*
X153315678Y-105646648D02*
X153435764Y-105637060D01*
X153435764Y-105637060D02*
X153505897Y-105607290D01*
X153505897Y-105607290D02*
X153596213Y-105527568D01*
X153596213Y-105527568D02*
X153616395Y-105477616D01*
X153616395Y-105477616D02*
X153512200Y-105232148D01*
X153512200Y-105232148D02*
X153371933Y-105291688D01*
X153961767Y-105413785D02*
X153649182Y-104677381D01*
X153649182Y-104677381D02*
X153929716Y-104558301D01*
X153929716Y-104558301D02*
X154014735Y-104563598D01*
X154014735Y-104563598D02*
X154064687Y-104583780D01*
X154064687Y-104583780D02*
X154129524Y-104639029D01*
X154129524Y-104639029D02*
X154174179Y-104744229D01*
X154174179Y-104744229D02*
X154168882Y-104829248D01*
X154168882Y-104829248D02*
X154148700Y-104879200D01*
X154148700Y-104879200D02*
X154093451Y-104944037D01*
X154093451Y-104944037D02*
X153812917Y-105063117D01*
X155083906Y-104937465D02*
X154663104Y-105116085D01*
X154873505Y-105026775D02*
X154560920Y-104290371D01*
X154560920Y-104290371D02*
X154535441Y-104425342D01*
X154535441Y-104425342D02*
X154495077Y-104525246D01*
X154495077Y-104525246D02*
X154439829Y-104590082D01*
X155227190Y-104007556D02*
X155297324Y-103977786D01*
X155297324Y-103977786D02*
X155382343Y-103983083D01*
X155382343Y-103983083D02*
X155432294Y-104003265D01*
X155432294Y-104003265D02*
X155497131Y-104058514D01*
X155497131Y-104058514D02*
X155591738Y-104183896D01*
X155591738Y-104183896D02*
X155666163Y-104359230D01*
X155666163Y-104359230D02*
X155690636Y-104514383D01*
X155690636Y-104514383D02*
X155685339Y-104599401D01*
X155685339Y-104599401D02*
X155665157Y-104649353D01*
X155665157Y-104649353D02*
X155609909Y-104714190D01*
X155609909Y-104714190D02*
X155539775Y-104743960D01*
X155539775Y-104743960D02*
X155454756Y-104738663D01*
X155454756Y-104738663D02*
X155404805Y-104718481D01*
X155404805Y-104718481D02*
X155339968Y-104663233D01*
X155339968Y-104663233D02*
X155245361Y-104537850D01*
X155245361Y-104537850D02*
X155170936Y-104362516D01*
X155170936Y-104362516D02*
X155146463Y-104207364D01*
X155146463Y-104207364D02*
X155151760Y-104122345D01*
X155151760Y-104122345D02*
X155171941Y-104072393D01*
X155171941Y-104072393D02*
X155227190Y-104007556D01*
X177516568Y-114650799D02*
X177431549Y-114645502D01*
X177431549Y-114645502D02*
X177326349Y-114690157D01*
X177326349Y-114690157D02*
X177236033Y-114769879D01*
X177236033Y-114769879D02*
X177195670Y-114869783D01*
X177195670Y-114869783D02*
X177190373Y-114954801D01*
X177190373Y-114954801D02*
X177214846Y-115109954D01*
X177214846Y-115109954D02*
X177259501Y-115215154D01*
X177259501Y-115215154D02*
X177354108Y-115340537D01*
X177354108Y-115340537D02*
X177418945Y-115395785D01*
X177418945Y-115395785D02*
X177518848Y-115436149D01*
X177518848Y-115436149D02*
X177638934Y-115426561D01*
X177638934Y-115426561D02*
X177709067Y-115396791D01*
X177709067Y-115396791D02*
X177799383Y-115317069D01*
X177799383Y-115317069D02*
X177819565Y-115267117D01*
X177819565Y-115267117D02*
X177715370Y-115021649D01*
X177715370Y-115021649D02*
X177575103Y-115081189D01*
X178164937Y-115203286D02*
X177852352Y-114466882D01*
X177852352Y-114466882D02*
X178132886Y-114347802D01*
X178132886Y-114347802D02*
X178217905Y-114353099D01*
X178217905Y-114353099D02*
X178267857Y-114373281D01*
X178267857Y-114373281D02*
X178332694Y-114428530D01*
X178332694Y-114428530D02*
X178377349Y-114533730D01*
X178377349Y-114533730D02*
X178372052Y-114618749D01*
X178372052Y-114618749D02*
X178351870Y-114668701D01*
X178351870Y-114668701D02*
X178296621Y-114733538D01*
X178296621Y-114733538D02*
X178016087Y-114852618D01*
X178583459Y-114239316D02*
X178603641Y-114189364D01*
X178603641Y-114189364D02*
X178658889Y-114124527D01*
X178658889Y-114124527D02*
X178834223Y-114050102D01*
X178834223Y-114050102D02*
X178919242Y-114055399D01*
X178919242Y-114055399D02*
X178969194Y-114075581D01*
X178969194Y-114075581D02*
X179034031Y-114130830D01*
X179034031Y-114130830D02*
X179063801Y-114200963D01*
X179063801Y-114200963D02*
X179073389Y-114321049D01*
X179073389Y-114321049D02*
X178831207Y-114920471D01*
X178831207Y-114920471D02*
X179287076Y-114726966D01*
X179988413Y-114429266D02*
X179567611Y-114607886D01*
X179778012Y-114518576D02*
X179465427Y-113782172D01*
X179465427Y-113782172D02*
X179439948Y-113917143D01*
X179439948Y-113917143D02*
X179399585Y-114017047D01*
X179399585Y-114017047D02*
X179344336Y-114081883D01*
X189655847Y-84219046D02*
X190213900Y-84851255D01*
X190213900Y-84851255D02*
X190146783Y-84010656D01*
X190786569Y-84152935D02*
X190906654Y-84143347D01*
X190906654Y-84143347D02*
X190956606Y-84163529D01*
X190956606Y-84163529D02*
X191021443Y-84218778D01*
X191021443Y-84218778D02*
X191066098Y-84323978D01*
X191066098Y-84323978D02*
X191060801Y-84408997D01*
X191060801Y-84408997D02*
X191040619Y-84458949D01*
X191040619Y-84458949D02*
X190985370Y-84523786D01*
X190985370Y-84523786D02*
X190704835Y-84642865D01*
X190704835Y-84642865D02*
X190392251Y-83906462D01*
X190392251Y-83906462D02*
X190637719Y-83802267D01*
X190637719Y-83802267D02*
X190722737Y-83807564D01*
X190722737Y-83807564D02*
X190772689Y-83827745D01*
X190772689Y-83827745D02*
X190837526Y-83882994D01*
X190837526Y-83882994D02*
X190867296Y-83953128D01*
X190867296Y-83953128D02*
X190861999Y-84038146D01*
X190861999Y-84038146D02*
X190841817Y-84088098D01*
X190841817Y-84088098D02*
X190786569Y-84152935D01*
X190786569Y-84152935D02*
X190541101Y-84257130D01*
X191128654Y-83593877D02*
X191381699Y-84190013D01*
X191381699Y-84190013D02*
X191446536Y-84245262D01*
X191446536Y-84245262D02*
X191496488Y-84265444D01*
X191496488Y-84265444D02*
X191581507Y-84270741D01*
X191581507Y-84270741D02*
X191721774Y-84211201D01*
X191721774Y-84211201D02*
X191777023Y-84146364D01*
X191777023Y-84146364D02*
X191797205Y-84096412D01*
X191797205Y-84096412D02*
X191802502Y-84011393D01*
X191802502Y-84011393D02*
X191549457Y-83415257D01*
X192162758Y-83982629D02*
X192282844Y-83973041D01*
X192282844Y-83973041D02*
X192458178Y-83898616D01*
X192458178Y-83898616D02*
X192513427Y-83833779D01*
X192513427Y-83833779D02*
X192533608Y-83783827D01*
X192533608Y-83783827D02*
X192538905Y-83698808D01*
X192538905Y-83698808D02*
X192509135Y-83628675D01*
X192509135Y-83628675D02*
X192444298Y-83573426D01*
X192444298Y-83573426D02*
X192394347Y-83553244D01*
X192394347Y-83553244D02*
X192309328Y-83547947D01*
X192309328Y-83547947D02*
X192154175Y-83572420D01*
X192154175Y-83572420D02*
X192069157Y-83567124D01*
X192069157Y-83567124D02*
X192019205Y-83546942D01*
X192019205Y-83546942D02*
X191954368Y-83491693D01*
X191954368Y-83491693D02*
X191924598Y-83421559D01*
X191924598Y-83421559D02*
X191929895Y-83336541D01*
X191929895Y-83336541D02*
X191950077Y-83286589D01*
X191950077Y-83286589D02*
X192005326Y-83221752D01*
X192005326Y-83221752D02*
X192180660Y-83147327D01*
X192180660Y-83147327D02*
X192300745Y-83137739D01*
X184970513Y-96353973D02*
X185321182Y-96205123D01*
X184989690Y-96594144D02*
X184922573Y-95753545D01*
X184922573Y-95753545D02*
X185480626Y-96385754D01*
X185726093Y-96281559D02*
X185413508Y-95545155D01*
X185413508Y-95545155D02*
X185588843Y-95470730D01*
X185588843Y-95470730D02*
X185708928Y-95461142D01*
X185708928Y-95461142D02*
X185808832Y-95501506D01*
X185808832Y-95501506D02*
X185873669Y-95556754D01*
X185873669Y-95556754D02*
X185968275Y-95682137D01*
X185968275Y-95682137D02*
X186012930Y-95787337D01*
X186012930Y-95787337D02*
X186037404Y-95942490D01*
X186037404Y-95942490D02*
X186032107Y-96027508D01*
X186032107Y-96027508D02*
X185991743Y-96127412D01*
X185991743Y-96127412D02*
X185901427Y-96207134D01*
X185901427Y-96207134D02*
X185726093Y-96281559D01*
X186853529Y-95720220D02*
X186833347Y-95770172D01*
X186833347Y-95770172D02*
X186743032Y-95849894D01*
X186743032Y-95849894D02*
X186672898Y-95879664D01*
X186672898Y-95879664D02*
X186552813Y-95889252D01*
X186552813Y-95889252D02*
X186452909Y-95848888D01*
X186452909Y-95848888D02*
X186388072Y-95793640D01*
X186388072Y-95793640D02*
X186293465Y-95668257D01*
X186293465Y-95668257D02*
X186248810Y-95563057D01*
X186248810Y-95563057D02*
X186224337Y-95407904D01*
X186224337Y-95407904D02*
X186229634Y-95322886D01*
X186229634Y-95322886D02*
X186269998Y-95222982D01*
X186269998Y-95222982D02*
X186360313Y-95143260D01*
X186360313Y-95143260D02*
X186430447Y-95113490D01*
X186430447Y-95113490D02*
X186550533Y-95103902D01*
X186550533Y-95103902D02*
X186600484Y-95124084D01*
X187053337Y-95800948D02*
X187614406Y-95562788D01*
X187342185Y-94726480D02*
X187900238Y-95358689D01*
X187900238Y-95358689D02*
X187833121Y-94518090D01*
X188811976Y-94971679D02*
X188417658Y-94725206D01*
X188391174Y-95150299D02*
X188078589Y-94413895D01*
X188078589Y-94413895D02*
X188359124Y-94294815D01*
X188359124Y-94294815D02*
X188444142Y-94300112D01*
X188444142Y-94300112D02*
X188494094Y-94320294D01*
X188494094Y-94320294D02*
X188558931Y-94375543D01*
X188558931Y-94375543D02*
X188603586Y-94480743D01*
X188603586Y-94480743D02*
X188598289Y-94565762D01*
X188598289Y-94565762D02*
X188578107Y-94615714D01*
X188578107Y-94615714D02*
X188522859Y-94680551D01*
X188522859Y-94680551D02*
X188242324Y-94799631D01*
X188963843Y-94451979D02*
X189209311Y-94347784D01*
X189478246Y-94688864D02*
X189127578Y-94837714D01*
X189127578Y-94837714D02*
X188814993Y-94101310D01*
X188814993Y-94101310D02*
X189165661Y-93952461D01*
X189875581Y-94064969D02*
X189630113Y-94169164D01*
X189793848Y-94554899D02*
X189481263Y-93818495D01*
X189481263Y-93818495D02*
X189831932Y-93669645D01*
X163321861Y-81219668D02*
X163236842Y-81214371D01*
X163236842Y-81214371D02*
X163131642Y-81259026D01*
X163131642Y-81259026D02*
X163041326Y-81338748D01*
X163041326Y-81338748D02*
X163000963Y-81438651D01*
X163000963Y-81438651D02*
X162995666Y-81523670D01*
X162995666Y-81523670D02*
X163020139Y-81678823D01*
X163020139Y-81678823D02*
X163064794Y-81784023D01*
X163064794Y-81784023D02*
X163159401Y-81909405D01*
X163159401Y-81909405D02*
X163224238Y-81964654D01*
X163224238Y-81964654D02*
X163324141Y-82005018D01*
X163324141Y-82005018D02*
X163444227Y-81995430D01*
X163444227Y-81995430D02*
X163514361Y-81965660D01*
X163514361Y-81965660D02*
X163604676Y-81885938D01*
X163604676Y-81885938D02*
X163624858Y-81835986D01*
X163624858Y-81835986D02*
X163520663Y-81590518D01*
X163520663Y-81590518D02*
X163380396Y-81650058D01*
X163970230Y-81772155D02*
X163657645Y-81035751D01*
X163657645Y-81035751D02*
X163938180Y-80916671D01*
X163938180Y-80916671D02*
X164023198Y-80921968D01*
X164023198Y-80921968D02*
X164073150Y-80942150D01*
X164073150Y-80942150D02*
X164137987Y-80997398D01*
X164137987Y-80997398D02*
X164182642Y-81102599D01*
X164182642Y-81102599D02*
X164177345Y-81187618D01*
X164177345Y-81187618D02*
X164157163Y-81237570D01*
X164157163Y-81237570D02*
X164101914Y-81302406D01*
X164101914Y-81302406D02*
X163821380Y-81421486D01*
X164388752Y-80808185D02*
X164408934Y-80758233D01*
X164408934Y-80758233D02*
X164464182Y-80693396D01*
X164464182Y-80693396D02*
X164639517Y-80618971D01*
X164639517Y-80618971D02*
X164724535Y-80624268D01*
X164724535Y-80624268D02*
X164774487Y-80644450D01*
X164774487Y-80644450D02*
X164839324Y-80699699D01*
X164839324Y-80699699D02*
X164869094Y-80769832D01*
X164869094Y-80769832D02*
X164878682Y-80889918D01*
X164878682Y-80889918D02*
X164636500Y-81489340D01*
X164636500Y-81489340D02*
X165092369Y-81295835D01*
X150458896Y-111926439D02*
X150373877Y-111921142D01*
X150373877Y-111921142D02*
X150268677Y-111965797D01*
X150268677Y-111965797D02*
X150178361Y-112045519D01*
X150178361Y-112045519D02*
X150137998Y-112145423D01*
X150137998Y-112145423D02*
X150132701Y-112230441D01*
X150132701Y-112230441D02*
X150157174Y-112385594D01*
X150157174Y-112385594D02*
X150201829Y-112490794D01*
X150201829Y-112490794D02*
X150296436Y-112616177D01*
X150296436Y-112616177D02*
X150361273Y-112671425D01*
X150361273Y-112671425D02*
X150461176Y-112711789D01*
X150461176Y-112711789D02*
X150581262Y-112702201D01*
X150581262Y-112702201D02*
X150651395Y-112672431D01*
X150651395Y-112672431D02*
X150741711Y-112592709D01*
X150741711Y-112592709D02*
X150761893Y-112542757D01*
X150761893Y-112542757D02*
X150657698Y-112297289D01*
X150657698Y-112297289D02*
X150517431Y-112356829D01*
X151107265Y-112478926D02*
X150794680Y-111742522D01*
X150794680Y-111742522D02*
X151075214Y-111623442D01*
X151075214Y-111623442D02*
X151160233Y-111628739D01*
X151160233Y-111628739D02*
X151210185Y-111648921D01*
X151210185Y-111648921D02*
X151275022Y-111704170D01*
X151275022Y-111704170D02*
X151319677Y-111809370D01*
X151319677Y-111809370D02*
X151314380Y-111894389D01*
X151314380Y-111894389D02*
X151294198Y-111944341D01*
X151294198Y-111944341D02*
X151238949Y-112009178D01*
X151238949Y-112009178D02*
X150958415Y-112128258D01*
X152229404Y-112002606D02*
X151808602Y-112181226D01*
X152019003Y-112091916D02*
X151706418Y-111355512D01*
X151706418Y-111355512D02*
X151680939Y-111490483D01*
X151680939Y-111490483D02*
X151640575Y-111590387D01*
X151640575Y-111590387D02*
X151585327Y-111655223D01*
X152162287Y-111162007D02*
X152618156Y-110968502D01*
X152618156Y-110968502D02*
X152491768Y-111353232D01*
X152491768Y-111353232D02*
X152596969Y-111308577D01*
X152596969Y-111308577D02*
X152681987Y-111313874D01*
X152681987Y-111313874D02*
X152731939Y-111334056D01*
X152731939Y-111334056D02*
X152796776Y-111389305D01*
X152796776Y-111389305D02*
X152871201Y-111564639D01*
X152871201Y-111564639D02*
X152865904Y-111649657D01*
X152865904Y-111649657D02*
X152845722Y-111699609D01*
X152845722Y-111699609D02*
X152790474Y-111764446D01*
X152790474Y-111764446D02*
X152580073Y-111853756D01*
X152580073Y-111853756D02*
X152495054Y-111848459D01*
X152495054Y-111848459D02*
X152445102Y-111828277D01*
X165228609Y-76500302D02*
X165143590Y-76495005D01*
X165143590Y-76495005D02*
X165038390Y-76539660D01*
X165038390Y-76539660D02*
X164948074Y-76619382D01*
X164948074Y-76619382D02*
X164907711Y-76719285D01*
X164907711Y-76719285D02*
X164902414Y-76804304D01*
X164902414Y-76804304D02*
X164926887Y-76959457D01*
X164926887Y-76959457D02*
X164971542Y-77064657D01*
X164971542Y-77064657D02*
X165066149Y-77190039D01*
X165066149Y-77190039D02*
X165130986Y-77245288D01*
X165130986Y-77245288D02*
X165230889Y-77285652D01*
X165230889Y-77285652D02*
X165350975Y-77276064D01*
X165350975Y-77276064D02*
X165421109Y-77246294D01*
X165421109Y-77246294D02*
X165511424Y-77166572D01*
X165511424Y-77166572D02*
X165531606Y-77116620D01*
X165531606Y-77116620D02*
X165427411Y-76871152D01*
X165427411Y-76871152D02*
X165287144Y-76930692D01*
X165876978Y-77052789D02*
X165564393Y-76316385D01*
X165564393Y-76316385D02*
X165844928Y-76197305D01*
X165844928Y-76197305D02*
X165929946Y-76202602D01*
X165929946Y-76202602D02*
X165979898Y-76222784D01*
X165979898Y-76222784D02*
X166044735Y-76278032D01*
X166044735Y-76278032D02*
X166089390Y-76383233D01*
X166089390Y-76383233D02*
X166084093Y-76468252D01*
X166084093Y-76468252D02*
X166063911Y-76518204D01*
X166063911Y-76518204D02*
X166008662Y-76583040D01*
X166008662Y-76583040D02*
X165728128Y-76702120D01*
X166999117Y-76576469D02*
X166578315Y-76755089D01*
X166788716Y-76665779D02*
X166476131Y-75929375D01*
X166476131Y-75929375D02*
X166450652Y-76064346D01*
X166450652Y-76064346D02*
X166410288Y-76164249D01*
X166410288Y-76164249D02*
X166355040Y-76229086D01*
X174665812Y-121706668D02*
X174580793Y-121701371D01*
X174580793Y-121701371D02*
X174475593Y-121746026D01*
X174475593Y-121746026D02*
X174385277Y-121825748D01*
X174385277Y-121825748D02*
X174344914Y-121925652D01*
X174344914Y-121925652D02*
X174339617Y-122010670D01*
X174339617Y-122010670D02*
X174364090Y-122165823D01*
X174364090Y-122165823D02*
X174408745Y-122271023D01*
X174408745Y-122271023D02*
X174503352Y-122396406D01*
X174503352Y-122396406D02*
X174568189Y-122451654D01*
X174568189Y-122451654D02*
X174668092Y-122492018D01*
X174668092Y-122492018D02*
X174788178Y-122482430D01*
X174788178Y-122482430D02*
X174858311Y-122452660D01*
X174858311Y-122452660D02*
X174948627Y-122372938D01*
X174948627Y-122372938D02*
X174968809Y-122322986D01*
X174968809Y-122322986D02*
X174864614Y-122077518D01*
X174864614Y-122077518D02*
X174724347Y-122137058D01*
X175314181Y-122259155D02*
X175001596Y-121522751D01*
X175001596Y-121522751D02*
X175282130Y-121403671D01*
X175282130Y-121403671D02*
X175367149Y-121408968D01*
X175367149Y-121408968D02*
X175417101Y-121429150D01*
X175417101Y-121429150D02*
X175481938Y-121484399D01*
X175481938Y-121484399D02*
X175526593Y-121589599D01*
X175526593Y-121589599D02*
X175521296Y-121674618D01*
X175521296Y-121674618D02*
X175501114Y-121724570D01*
X175501114Y-121724570D02*
X175445865Y-121789407D01*
X175445865Y-121789407D02*
X175165331Y-121908487D01*
X176436320Y-121782835D02*
X176015518Y-121961455D01*
X176225919Y-121872145D02*
X175913334Y-121135741D01*
X175913334Y-121135741D02*
X175887855Y-121270712D01*
X175887855Y-121270712D02*
X175847491Y-121370616D01*
X175847491Y-121370616D02*
X175792243Y-121435452D01*
X176678502Y-121183413D02*
X176593484Y-121178116D01*
X176593484Y-121178116D02*
X176543532Y-121157934D01*
X176543532Y-121157934D02*
X176478695Y-121102686D01*
X176478695Y-121102686D02*
X176463810Y-121067619D01*
X176463810Y-121067619D02*
X176469107Y-120982600D01*
X176469107Y-120982600D02*
X176489289Y-120932648D01*
X176489289Y-120932648D02*
X176544537Y-120867811D01*
X176544537Y-120867811D02*
X176684805Y-120808271D01*
X176684805Y-120808271D02*
X176769823Y-120813568D01*
X176769823Y-120813568D02*
X176819775Y-120833750D01*
X176819775Y-120833750D02*
X176884612Y-120888999D01*
X176884612Y-120888999D02*
X176899497Y-120924066D01*
X176899497Y-120924066D02*
X176894200Y-121009084D01*
X176894200Y-121009084D02*
X176874018Y-121059036D01*
X176874018Y-121059036D02*
X176818770Y-121123873D01*
X176818770Y-121123873D02*
X176678502Y-121183413D01*
X176678502Y-121183413D02*
X176623254Y-121248250D01*
X176623254Y-121248250D02*
X176603072Y-121298202D01*
X176603072Y-121298202D02*
X176597775Y-121383220D01*
X176597775Y-121383220D02*
X176657315Y-121523488D01*
X176657315Y-121523488D02*
X176722152Y-121578736D01*
X176722152Y-121578736D02*
X176772104Y-121598918D01*
X176772104Y-121598918D02*
X176857122Y-121604215D01*
X176857122Y-121604215D02*
X176997390Y-121544675D01*
X176997390Y-121544675D02*
X177052638Y-121479838D01*
X177052638Y-121479838D02*
X177072820Y-121429886D01*
X177072820Y-121429886D02*
X177078117Y-121344868D01*
X177078117Y-121344868D02*
X177018577Y-121204600D01*
X177018577Y-121204600D02*
X176953740Y-121149352D01*
X176953740Y-121149352D02*
X176903788Y-121129170D01*
X176903788Y-121129170D02*
X176818770Y-121123873D01*
X92566387Y-66102309D02*
X92681004Y-66199976D01*
X92681004Y-66199976D02*
X92901762Y-66289168D01*
X92901762Y-66289168D02*
X93007904Y-66280693D01*
X93007904Y-66280693D02*
X93069894Y-66254380D01*
X93069894Y-66254380D02*
X93149722Y-66183915D01*
X93149722Y-66183915D02*
X93185399Y-66095612D01*
X93185399Y-66095612D02*
X93176924Y-65989470D01*
X93176924Y-65989470D02*
X93150611Y-65927480D01*
X93150611Y-65927480D02*
X93080146Y-65847652D01*
X93080146Y-65847652D02*
X92921378Y-65732147D01*
X92921378Y-65732147D02*
X92850913Y-65652318D01*
X92850913Y-65652318D02*
X92824600Y-65590328D01*
X92824600Y-65590328D02*
X92816125Y-65484187D01*
X92816125Y-65484187D02*
X92851802Y-65395883D01*
X92851802Y-65395883D02*
X92931630Y-65325419D01*
X92931630Y-65325419D02*
X92993620Y-65299105D01*
X92993620Y-65299105D02*
X93099762Y-65290631D01*
X93099762Y-65290631D02*
X93320520Y-65379823D01*
X93320520Y-65379823D02*
X93435137Y-65477489D01*
X93762036Y-65558207D02*
X93608188Y-66574583D01*
X93608188Y-66574583D02*
X94052370Y-65983662D01*
X94052370Y-65983662D02*
X93961401Y-66717290D01*
X93961401Y-66717290D02*
X94556765Y-65879298D01*
X94830150Y-66092470D02*
X94892140Y-66066157D01*
X94892140Y-66066157D02*
X94998281Y-66057682D01*
X94998281Y-66057682D02*
X95219039Y-66146874D01*
X95219039Y-66146874D02*
X95289504Y-66226703D01*
X95289504Y-66226703D02*
X95315817Y-66288693D01*
X95315817Y-66288693D02*
X95324292Y-66394834D01*
X95324292Y-66394834D02*
X95288615Y-66483138D01*
X95288615Y-66483138D02*
X95190949Y-66597754D01*
X95190949Y-66597754D02*
X94447068Y-66913512D01*
X94447068Y-66913512D02*
X95021039Y-67145412D01*
X95704707Y-66343097D02*
X96278678Y-66574996D01*
X96278678Y-66574996D02*
X95826910Y-66803340D01*
X95826910Y-66803340D02*
X95959364Y-66856855D01*
X95959364Y-66856855D02*
X96029829Y-66936684D01*
X96029829Y-66936684D02*
X96056142Y-66998674D01*
X96056142Y-66998674D02*
X96064617Y-67104815D01*
X96064617Y-67104815D02*
X95975425Y-67325573D01*
X95975425Y-67325573D02*
X95895597Y-67396038D01*
X95895597Y-67396038D02*
X95833607Y-67422351D01*
X95833607Y-67422351D02*
X95727465Y-67430826D01*
X95727465Y-67430826D02*
X95462555Y-67323796D01*
X95462555Y-67323796D02*
X95392091Y-67243967D01*
X95392091Y-67243967D02*
X95365777Y-67181977D01*
X47677758Y-66459432D02*
X47803422Y-66542403D01*
X47803422Y-66542403D02*
X48033405Y-66604026D01*
X48033405Y-66604026D02*
X48137722Y-66582679D01*
X48137722Y-66582679D02*
X48196043Y-66549008D01*
X48196043Y-66549008D02*
X48266689Y-66469339D01*
X48266689Y-66469339D02*
X48291339Y-66377347D01*
X48291339Y-66377347D02*
X48269992Y-66273029D01*
X48269992Y-66273029D02*
X48236320Y-66214708D01*
X48236320Y-66214708D02*
X48156652Y-66144062D01*
X48156652Y-66144062D02*
X47984991Y-66048766D01*
X47984991Y-66048766D02*
X47905322Y-65978121D01*
X47905322Y-65978121D02*
X47871651Y-65919799D01*
X47871651Y-65919799D02*
X47850304Y-65815482D01*
X47850304Y-65815482D02*
X47874953Y-65723489D01*
X47874953Y-65723489D02*
X47945599Y-65643821D01*
X47945599Y-65643821D02*
X48003920Y-65610149D01*
X48003920Y-65610149D02*
X48108238Y-65588802D01*
X48108238Y-65588802D02*
X48338220Y-65650425D01*
X48338220Y-65650425D02*
X48463885Y-65733396D01*
X48798185Y-65773673D02*
X48769348Y-66801222D01*
X48769348Y-66801222D02*
X49138205Y-66160574D01*
X49138205Y-66160574D02*
X49137320Y-66899820D01*
X49137320Y-66899820D02*
X49626121Y-65995517D01*
X49923447Y-66173783D02*
X49981768Y-66140112D01*
X49981768Y-66140112D02*
X50086086Y-66118765D01*
X50086086Y-66118765D02*
X50316068Y-66180388D01*
X50316068Y-66180388D02*
X50395736Y-66251034D01*
X50395736Y-66251034D02*
X50429408Y-66309355D01*
X50429408Y-66309355D02*
X50450755Y-66413673D01*
X50450755Y-66413673D02*
X50426106Y-66505666D01*
X50426106Y-66505666D02*
X50343135Y-66631331D01*
X50343135Y-66631331D02*
X49643281Y-67035392D01*
X49643281Y-67035392D02*
X50241235Y-67195613D01*
X51373987Y-66463857D02*
X50914022Y-66340609D01*
X50914022Y-66340609D02*
X50744779Y-66788249D01*
X50744779Y-66788249D02*
X50803100Y-66754578D01*
X50803100Y-66754578D02*
X50907418Y-66733231D01*
X50907418Y-66733231D02*
X51137400Y-66794854D01*
X51137400Y-66794854D02*
X51217068Y-66865500D01*
X51217068Y-66865500D02*
X51250740Y-66923821D01*
X51250740Y-66923821D02*
X51272087Y-67028139D01*
X51272087Y-67028139D02*
X51210463Y-67258121D01*
X51210463Y-67258121D02*
X51139817Y-67337790D01*
X51139817Y-67337790D02*
X51081496Y-67371461D01*
X51081496Y-67371461D02*
X50977179Y-67392808D01*
X50977179Y-67392808D02*
X50747196Y-67331185D01*
X50747196Y-67331185D02*
X50667528Y-67260539D01*
X50667528Y-67260539D02*
X50633856Y-67202218D01*
X85430123Y-83765165D02*
X85544740Y-83862832D01*
X85544740Y-83862832D02*
X85765498Y-83952024D01*
X85765498Y-83952024D02*
X85871640Y-83943549D01*
X85871640Y-83943549D02*
X85933630Y-83917236D01*
X85933630Y-83917236D02*
X86013458Y-83846771D01*
X86013458Y-83846771D02*
X86049135Y-83758468D01*
X86049135Y-83758468D02*
X86040660Y-83652326D01*
X86040660Y-83652326D02*
X86014347Y-83590336D01*
X86014347Y-83590336D02*
X85943882Y-83510508D01*
X85943882Y-83510508D02*
X85785114Y-83395003D01*
X85785114Y-83395003D02*
X85714649Y-83315174D01*
X85714649Y-83315174D02*
X85688336Y-83253184D01*
X85688336Y-83253184D02*
X85679861Y-83147043D01*
X85679861Y-83147043D02*
X85715538Y-83058739D01*
X85715538Y-83058739D02*
X85795366Y-82988275D01*
X85795366Y-82988275D02*
X85857356Y-82961961D01*
X85857356Y-82961961D02*
X85963498Y-82953487D01*
X85963498Y-82953487D02*
X86184256Y-83042679D01*
X86184256Y-83042679D02*
X86298873Y-83140345D01*
X86625772Y-83221063D02*
X86471924Y-84237439D01*
X86471924Y-84237439D02*
X86916106Y-83646518D01*
X86916106Y-83646518D02*
X86825137Y-84380146D01*
X86825137Y-84380146D02*
X87420501Y-83542154D01*
X87685411Y-83649185D02*
X88259382Y-83881084D01*
X88259382Y-83881084D02*
X87807613Y-84109428D01*
X87807613Y-84109428D02*
X87940068Y-84162943D01*
X87940068Y-84162943D02*
X88010533Y-84242772D01*
X88010533Y-84242772D02*
X88036846Y-84304762D01*
X88036846Y-84304762D02*
X88045321Y-84410903D01*
X88045321Y-84410903D02*
X87956129Y-84631661D01*
X87956129Y-84631661D02*
X87876300Y-84702126D01*
X87876300Y-84702126D02*
X87814310Y-84728439D01*
X87814310Y-84728439D02*
X87708169Y-84736914D01*
X87708169Y-84736914D02*
X87443259Y-84629884D01*
X87443259Y-84629884D02*
X87372794Y-84550055D01*
X87372794Y-84550055D02*
X87346481Y-84488065D01*
X89098262Y-84220014D02*
X88656746Y-84041630D01*
X88656746Y-84041630D02*
X88434211Y-84465307D01*
X88434211Y-84465307D02*
X88496201Y-84438994D01*
X88496201Y-84438994D02*
X88602342Y-84430519D01*
X88602342Y-84430519D02*
X88823100Y-84519711D01*
X88823100Y-84519711D02*
X88893565Y-84599540D01*
X88893565Y-84599540D02*
X88919878Y-84661530D01*
X88919878Y-84661530D02*
X88928353Y-84767671D01*
X88928353Y-84767671D02*
X88839161Y-84988429D01*
X88839161Y-84988429D02*
X88759333Y-85058894D01*
X88759333Y-85058894D02*
X88697343Y-85085207D01*
X88697343Y-85085207D02*
X88591201Y-85093682D01*
X88591201Y-85093682D02*
X88370443Y-85004490D01*
X88370443Y-85004490D02*
X88299978Y-84924662D01*
X88299978Y-84924662D02*
X88273665Y-84862672D01*
X80465459Y-34797625D02*
X80586609Y-34887059D01*
X80586609Y-34887059D02*
X80813051Y-34960634D01*
X80813051Y-34960634D02*
X80918343Y-34944776D01*
X80918343Y-34944776D02*
X80978346Y-34914203D01*
X80978346Y-34914203D02*
X81053065Y-34838341D01*
X81053065Y-34838341D02*
X81082495Y-34747764D01*
X81082495Y-34747764D02*
X81066637Y-34642472D01*
X81066637Y-34642472D02*
X81036064Y-34582469D01*
X81036064Y-34582469D02*
X80960202Y-34507750D01*
X80960202Y-34507750D02*
X80793763Y-34403602D01*
X80793763Y-34403602D02*
X80717902Y-34328883D01*
X80717902Y-34328883D02*
X80687328Y-34268879D01*
X80687328Y-34268879D02*
X80671470Y-34163588D01*
X80671470Y-34163588D02*
X80700900Y-34073011D01*
X80700900Y-34073011D02*
X80775619Y-33997149D01*
X80775619Y-33997149D02*
X80835623Y-33966576D01*
X80835623Y-33966576D02*
X80940914Y-33950717D01*
X80940914Y-33950717D02*
X81167356Y-34024293D01*
X81167356Y-34024293D02*
X81288507Y-34113727D01*
X81620241Y-34171444D02*
X81537666Y-35196076D01*
X81537666Y-35196076D02*
X81939546Y-34575610D01*
X81939546Y-34575610D02*
X81899973Y-35313797D01*
X81899973Y-35313797D02*
X82435432Y-34436316D01*
X83250623Y-34701187D02*
X82797739Y-34554036D01*
X82797739Y-34554036D02*
X82605300Y-34992205D01*
X82605300Y-34992205D02*
X82665303Y-34961632D01*
X82665303Y-34961632D02*
X82770595Y-34945774D01*
X82770595Y-34945774D02*
X82997037Y-35019349D01*
X82997037Y-35019349D02*
X83072899Y-35094068D01*
X83072899Y-35094068D02*
X83103472Y-35154071D01*
X83103472Y-35154071D02*
X83119330Y-35259363D01*
X83119330Y-35259363D02*
X83045755Y-35485805D01*
X83045755Y-35485805D02*
X82971036Y-35561667D01*
X82971036Y-35561667D02*
X82911033Y-35592240D01*
X82911033Y-35592240D02*
X82805741Y-35608099D01*
X82805741Y-35608099D02*
X82579299Y-35534523D01*
X82579299Y-35534523D02*
X82503437Y-35459804D01*
X82503437Y-35459804D02*
X82472864Y-35399801D01*
X135028341Y-62711962D02*
X135142958Y-62809629D01*
X135142958Y-62809629D02*
X135363716Y-62898821D01*
X135363716Y-62898821D02*
X135469858Y-62890346D01*
X135469858Y-62890346D02*
X135531848Y-62864033D01*
X135531848Y-62864033D02*
X135611676Y-62793568D01*
X135611676Y-62793568D02*
X135647353Y-62705265D01*
X135647353Y-62705265D02*
X135638878Y-62599123D01*
X135638878Y-62599123D02*
X135612565Y-62537133D01*
X135612565Y-62537133D02*
X135542100Y-62457305D01*
X135542100Y-62457305D02*
X135383332Y-62341800D01*
X135383332Y-62341800D02*
X135312867Y-62261971D01*
X135312867Y-62261971D02*
X135286554Y-62199981D01*
X135286554Y-62199981D02*
X135278079Y-62093840D01*
X135278079Y-62093840D02*
X135313756Y-62005536D01*
X135313756Y-62005536D02*
X135393584Y-61935072D01*
X135393584Y-61935072D02*
X135455574Y-61908758D01*
X135455574Y-61908758D02*
X135561716Y-61900284D01*
X135561716Y-61900284D02*
X135782474Y-61989476D01*
X135782474Y-61989476D02*
X135897091Y-62087142D01*
X136223990Y-62167860D02*
X136070142Y-63184236D01*
X136070142Y-63184236D02*
X136514324Y-62593315D01*
X136514324Y-62593315D02*
X136423355Y-63326943D01*
X136423355Y-63326943D02*
X137018719Y-62488951D01*
X137292104Y-62702123D02*
X137354094Y-62675810D01*
X137354094Y-62675810D02*
X137460235Y-62667335D01*
X137460235Y-62667335D02*
X137680993Y-62756527D01*
X137680993Y-62756527D02*
X137751458Y-62836356D01*
X137751458Y-62836356D02*
X137777771Y-62898346D01*
X137777771Y-62898346D02*
X137786246Y-63004487D01*
X137786246Y-63004487D02*
X137750569Y-63092791D01*
X137750569Y-63092791D02*
X137652903Y-63207407D01*
X137652903Y-63207407D02*
X136909022Y-63523165D01*
X136909022Y-63523165D02*
X137482993Y-63755065D01*
X138366026Y-64111833D02*
X137836206Y-63897772D01*
X138101116Y-64004802D02*
X138475722Y-63077619D01*
X138475722Y-63077619D02*
X138333904Y-63174397D01*
X138333904Y-63174397D02*
X138209924Y-63227023D01*
X138209924Y-63227023D02*
X138103782Y-63235498D01*
X62352252Y-89003344D02*
X62473402Y-89092778D01*
X62473402Y-89092778D02*
X62699845Y-89166353D01*
X62699845Y-89166353D02*
X62805136Y-89150495D01*
X62805136Y-89150495D02*
X62865140Y-89119922D01*
X62865140Y-89119922D02*
X62939859Y-89044060D01*
X62939859Y-89044060D02*
X62969289Y-88953483D01*
X62969289Y-88953483D02*
X62953430Y-88848191D01*
X62953430Y-88848191D02*
X62922857Y-88788188D01*
X62922857Y-88788188D02*
X62846995Y-88713469D01*
X62846995Y-88713469D02*
X62680557Y-88609320D01*
X62680557Y-88609320D02*
X62604695Y-88534602D01*
X62604695Y-88534602D02*
X62574122Y-88474598D01*
X62574122Y-88474598D02*
X62558264Y-88369306D01*
X62558264Y-88369306D02*
X62587694Y-88278730D01*
X62587694Y-88278730D02*
X62662412Y-88202868D01*
X62662412Y-88202868D02*
X62722416Y-88172295D01*
X62722416Y-88172295D02*
X62827708Y-88156436D01*
X62827708Y-88156436D02*
X63054150Y-88230012D01*
X63054150Y-88230012D02*
X63175300Y-88319446D01*
X63507034Y-88377163D02*
X63424459Y-89401795D01*
X63424459Y-89401795D02*
X63826339Y-88781329D01*
X63826339Y-88781329D02*
X63786766Y-89519516D01*
X63786766Y-89519516D02*
X64322225Y-88642035D01*
X64989122Y-89209210D02*
X64783111Y-89843248D01*
X64880401Y-88773327D02*
X64433233Y-89379078D01*
X64433233Y-89379078D02*
X65021982Y-89570374D01*
X65779456Y-90166980D02*
X65235995Y-89990399D01*
X65507726Y-90078689D02*
X65816743Y-89127633D01*
X65816743Y-89127633D02*
X65682021Y-89234068D01*
X65682021Y-89234068D02*
X65562014Y-89295214D01*
X65562014Y-89295214D02*
X65456722Y-89311072D01*
X57998728Y-29780901D02*
X58124392Y-29863871D01*
X58124392Y-29863871D02*
X58354375Y-29925495D01*
X58354375Y-29925495D02*
X58458692Y-29904148D01*
X58458692Y-29904148D02*
X58517014Y-29870476D01*
X58517014Y-29870476D02*
X58587660Y-29790808D01*
X58587660Y-29790808D02*
X58612309Y-29698815D01*
X58612309Y-29698815D02*
X58590962Y-29594497D01*
X58590962Y-29594497D02*
X58557290Y-29536176D01*
X58557290Y-29536176D02*
X58477622Y-29465530D01*
X58477622Y-29465530D02*
X58305961Y-29370235D01*
X58305961Y-29370235D02*
X58226293Y-29299589D01*
X58226293Y-29299589D02*
X58192621Y-29241268D01*
X58192621Y-29241268D02*
X58171274Y-29136950D01*
X58171274Y-29136950D02*
X58195923Y-29044957D01*
X58195923Y-29044957D02*
X58266569Y-28965289D01*
X58266569Y-28965289D02*
X58324890Y-28931617D01*
X58324890Y-28931617D02*
X58429208Y-28910270D01*
X58429208Y-28910270D02*
X58659190Y-28971894D01*
X58659190Y-28971894D02*
X58784855Y-29054864D01*
X59119155Y-29095141D02*
X59090318Y-30122690D01*
X59090318Y-30122690D02*
X59459175Y-29482042D01*
X59459175Y-29482042D02*
X59458290Y-30221288D01*
X59458290Y-30221288D02*
X59947091Y-29316986D01*
X60562205Y-30517081D02*
X60010248Y-30369185D01*
X60286226Y-30443133D02*
X60545045Y-29477207D01*
X60545045Y-29477207D02*
X60416078Y-29590547D01*
X60416078Y-29590547D02*
X60299436Y-29657890D01*
X60299436Y-29657890D02*
X60195118Y-29679238D01*
X126070036Y-35302366D02*
X126184652Y-35400032D01*
X126184652Y-35400032D02*
X126405411Y-35489224D01*
X126405411Y-35489224D02*
X126511552Y-35480750D01*
X126511552Y-35480750D02*
X126573542Y-35454436D01*
X126573542Y-35454436D02*
X126653371Y-35383972D01*
X126653371Y-35383972D02*
X126689047Y-35295668D01*
X126689047Y-35295668D02*
X126680573Y-35189527D01*
X126680573Y-35189527D02*
X126654259Y-35127537D01*
X126654259Y-35127537D02*
X126583795Y-35047708D01*
X126583795Y-35047708D02*
X126425027Y-34932203D01*
X126425027Y-34932203D02*
X126354562Y-34852375D01*
X126354562Y-34852375D02*
X126328249Y-34790385D01*
X126328249Y-34790385D02*
X126319774Y-34684243D01*
X126319774Y-34684243D02*
X126355451Y-34595940D01*
X126355451Y-34595940D02*
X126435279Y-34525475D01*
X126435279Y-34525475D02*
X126497269Y-34499162D01*
X126497269Y-34499162D02*
X126603411Y-34490687D01*
X126603411Y-34490687D02*
X126824169Y-34579879D01*
X126824169Y-34579879D02*
X126938785Y-34677546D01*
X127265685Y-34758263D02*
X127111836Y-35774639D01*
X127111836Y-35774639D02*
X127556019Y-35183718D01*
X127556019Y-35183718D02*
X127465049Y-35917346D01*
X127465049Y-35917346D02*
X128060414Y-35079354D01*
X128325323Y-35186385D02*
X128943446Y-35436123D01*
X128943446Y-35436123D02*
X128171475Y-36202761D01*
X107280410Y-30954983D02*
X107395026Y-31052649D01*
X107395026Y-31052649D02*
X107615785Y-31141841D01*
X107615785Y-31141841D02*
X107721926Y-31133367D01*
X107721926Y-31133367D02*
X107783916Y-31107053D01*
X107783916Y-31107053D02*
X107863745Y-31036589D01*
X107863745Y-31036589D02*
X107899421Y-30948285D01*
X107899421Y-30948285D02*
X107890947Y-30842144D01*
X107890947Y-30842144D02*
X107864633Y-30780154D01*
X107864633Y-30780154D02*
X107794169Y-30700325D01*
X107794169Y-30700325D02*
X107635401Y-30584820D01*
X107635401Y-30584820D02*
X107564936Y-30504992D01*
X107564936Y-30504992D02*
X107538623Y-30443002D01*
X107538623Y-30443002D02*
X107530148Y-30336860D01*
X107530148Y-30336860D02*
X107565825Y-30248557D01*
X107565825Y-30248557D02*
X107645653Y-30178092D01*
X107645653Y-30178092D02*
X107707643Y-30151779D01*
X107707643Y-30151779D02*
X107813785Y-30143304D01*
X107813785Y-30143304D02*
X108034543Y-30232496D01*
X108034543Y-30232496D02*
X108149159Y-30330163D01*
X108476059Y-30410880D02*
X108322210Y-31427256D01*
X108322210Y-31427256D02*
X108766393Y-30836335D01*
X108766393Y-30836335D02*
X108675423Y-31569963D01*
X108675423Y-31569963D02*
X109270788Y-30731971D01*
X109535697Y-30839002D02*
X110109668Y-31070901D01*
X110109668Y-31070901D02*
X109657900Y-31299245D01*
X109657900Y-31299245D02*
X109790355Y-31352760D01*
X109790355Y-31352760D02*
X109860820Y-31432589D01*
X109860820Y-31432589D02*
X109887133Y-31494579D01*
X109887133Y-31494579D02*
X109895608Y-31600720D01*
X109895608Y-31600720D02*
X109806415Y-31821479D01*
X109806415Y-31821479D02*
X109726587Y-31891943D01*
X109726587Y-31891943D02*
X109664597Y-31918257D01*
X109664597Y-31918257D02*
X109558455Y-31926731D01*
X109558455Y-31926731D02*
X109293546Y-31819701D01*
X109293546Y-31819701D02*
X109223081Y-31739872D01*
X109223081Y-31739872D02*
X109196768Y-31677882D01*
X74125800Y-52768091D02*
X74246950Y-52857525D01*
X74246950Y-52857525D02*
X74473393Y-52931100D01*
X74473393Y-52931100D02*
X74578684Y-52915242D01*
X74578684Y-52915242D02*
X74638688Y-52884669D01*
X74638688Y-52884669D02*
X74713407Y-52808807D01*
X74713407Y-52808807D02*
X74742837Y-52718230D01*
X74742837Y-52718230D02*
X74726978Y-52612938D01*
X74726978Y-52612938D02*
X74696405Y-52552935D01*
X74696405Y-52552935D02*
X74620543Y-52478216D01*
X74620543Y-52478216D02*
X74454105Y-52374067D01*
X74454105Y-52374067D02*
X74378243Y-52299349D01*
X74378243Y-52299349D02*
X74347670Y-52239345D01*
X74347670Y-52239345D02*
X74331812Y-52134053D01*
X74331812Y-52134053D02*
X74361242Y-52043477D01*
X74361242Y-52043477D02*
X74435960Y-51967615D01*
X74435960Y-51967615D02*
X74495964Y-51937042D01*
X74495964Y-51937042D02*
X74601256Y-51921183D01*
X74601256Y-51921183D02*
X74827698Y-51994759D01*
X74827698Y-51994759D02*
X74948848Y-52084193D01*
X75280582Y-52141910D02*
X75198007Y-53166542D01*
X75198007Y-53166542D02*
X75599887Y-52546076D01*
X75599887Y-52546076D02*
X75560314Y-53284263D01*
X75560314Y-53284263D02*
X76095773Y-52406782D01*
X76647236Y-53637425D02*
X76103775Y-53460844D01*
X76375505Y-53549134D02*
X76684522Y-52598078D01*
X76684522Y-52598078D02*
X76549800Y-52704513D01*
X76549800Y-52704513D02*
X76429793Y-52765659D01*
X76429793Y-52765659D02*
X76324501Y-52781518D01*
X77273272Y-52789374D02*
X77907309Y-52995385D01*
X77907309Y-52995385D02*
X77190697Y-53814006D01*
X137291901Y-107962799D02*
X137406518Y-108060466D01*
X137406518Y-108060466D02*
X137627276Y-108149658D01*
X137627276Y-108149658D02*
X137733418Y-108141183D01*
X137733418Y-108141183D02*
X137795408Y-108114870D01*
X137795408Y-108114870D02*
X137875236Y-108044405D01*
X137875236Y-108044405D02*
X137910913Y-107956102D01*
X137910913Y-107956102D02*
X137902438Y-107849960D01*
X137902438Y-107849960D02*
X137876125Y-107787970D01*
X137876125Y-107787970D02*
X137805660Y-107708142D01*
X137805660Y-107708142D02*
X137646892Y-107592637D01*
X137646892Y-107592637D02*
X137576427Y-107512808D01*
X137576427Y-107512808D02*
X137550114Y-107450818D01*
X137550114Y-107450818D02*
X137541639Y-107344677D01*
X137541639Y-107344677D02*
X137577316Y-107256373D01*
X137577316Y-107256373D02*
X137657144Y-107185909D01*
X137657144Y-107185909D02*
X137719134Y-107159595D01*
X137719134Y-107159595D02*
X137825276Y-107151121D01*
X137825276Y-107151121D02*
X138046034Y-107240313D01*
X138046034Y-107240313D02*
X138160651Y-107337979D01*
X138487550Y-107418697D02*
X138333702Y-108435073D01*
X138333702Y-108435073D02*
X138777884Y-107844152D01*
X138777884Y-107844152D02*
X138686915Y-108577780D01*
X138686915Y-108577780D02*
X139282279Y-107739788D01*
X139907988Y-108352102D02*
X139658250Y-108970225D01*
X139829937Y-107909697D02*
X139341603Y-108482780D01*
X139341603Y-108482780D02*
X139915574Y-108714679D01*
X140430221Y-108203587D02*
X141048344Y-108453324D01*
X141048344Y-108453324D02*
X140276373Y-109219963D01*
X52608261Y-48058543D02*
X52733925Y-48141514D01*
X52733925Y-48141514D02*
X52963908Y-48203137D01*
X52963908Y-48203137D02*
X53068225Y-48181790D01*
X53068225Y-48181790D02*
X53126546Y-48148119D01*
X53126546Y-48148119D02*
X53197192Y-48068450D01*
X53197192Y-48068450D02*
X53221842Y-47976458D01*
X53221842Y-47976458D02*
X53200495Y-47872140D01*
X53200495Y-47872140D02*
X53166823Y-47813819D01*
X53166823Y-47813819D02*
X53087155Y-47743173D01*
X53087155Y-47743173D02*
X52915494Y-47647877D01*
X52915494Y-47647877D02*
X52835825Y-47577232D01*
X52835825Y-47577232D02*
X52802154Y-47518910D01*
X52802154Y-47518910D02*
X52780807Y-47414593D01*
X52780807Y-47414593D02*
X52805456Y-47322600D01*
X52805456Y-47322600D02*
X52876102Y-47242932D01*
X52876102Y-47242932D02*
X52934423Y-47209260D01*
X52934423Y-47209260D02*
X53038741Y-47187913D01*
X53038741Y-47187913D02*
X53268723Y-47249536D01*
X53268723Y-47249536D02*
X53394388Y-47332507D01*
X53728688Y-47372784D02*
X53699851Y-48400333D01*
X53699851Y-48400333D02*
X54068708Y-47759685D01*
X54068708Y-47759685D02*
X54067823Y-48498931D01*
X54067823Y-48498931D02*
X54556624Y-47594628D01*
X55171738Y-48794724D02*
X54619780Y-48646827D01*
X54895759Y-48720776D02*
X55154578Y-47754850D01*
X55154578Y-47754850D02*
X55025611Y-47868190D01*
X55025611Y-47868190D02*
X54908969Y-47935533D01*
X54908969Y-47935533D02*
X54804651Y-47956880D01*
X56091667Y-49041218D02*
X55539710Y-48893322D01*
X55815689Y-48967270D02*
X56074508Y-48001344D01*
X56074508Y-48001344D02*
X55945541Y-48114684D01*
X55945541Y-48114684D02*
X55828898Y-48182028D01*
X55828898Y-48182028D02*
X55724581Y-48203375D01*
X96003246Y-118388953D02*
X96121201Y-118482560D01*
X96121201Y-118482560D02*
X96344937Y-118563993D01*
X96344937Y-118563993D02*
X96450718Y-118551819D01*
X96450718Y-118551819D02*
X96511752Y-118523359D01*
X96511752Y-118523359D02*
X96589073Y-118450151D01*
X96589073Y-118450151D02*
X96621646Y-118360656D01*
X96621646Y-118360656D02*
X96609472Y-118254875D01*
X96609472Y-118254875D02*
X96581012Y-118193841D01*
X96581012Y-118193841D02*
X96507804Y-118116521D01*
X96507804Y-118116521D02*
X96345102Y-118006627D01*
X96345102Y-118006627D02*
X96271894Y-117929306D01*
X96271894Y-117929306D02*
X96243433Y-117868272D01*
X96243433Y-117868272D02*
X96231259Y-117762491D01*
X96231259Y-117762491D02*
X96263833Y-117672996D01*
X96263833Y-117672996D02*
X96341153Y-117599789D01*
X96341153Y-117599789D02*
X96402187Y-117571328D01*
X96402187Y-117571328D02*
X96507968Y-117559154D01*
X96507968Y-117559154D02*
X96731705Y-117640587D01*
X96731705Y-117640587D02*
X96849660Y-117734195D01*
X97179177Y-117803454D02*
X97060894Y-118824580D01*
X97060894Y-118824580D02*
X97484183Y-118218518D01*
X97484183Y-118218518D02*
X97418872Y-118954874D01*
X97418872Y-118954874D02*
X97984628Y-118096614D01*
X98631325Y-118686719D02*
X98403311Y-119313180D01*
X98537882Y-118247307D02*
X98069845Y-118837083D01*
X98069845Y-118837083D02*
X98651560Y-119048809D01*
X98940279Y-119508620D02*
X99119268Y-119573767D01*
X99119268Y-119573767D02*
X99225049Y-119561593D01*
X99225049Y-119561593D02*
X99286083Y-119533133D01*
X99286083Y-119533133D02*
X99424437Y-119431464D01*
X99424437Y-119431464D02*
X99534331Y-119268762D01*
X99534331Y-119268762D02*
X99664625Y-118910784D01*
X99664625Y-118910784D02*
X99652451Y-118805002D01*
X99652451Y-118805002D02*
X99623990Y-118743968D01*
X99623990Y-118743968D02*
X99550782Y-118666648D01*
X99550782Y-118666648D02*
X99371793Y-118601501D01*
X99371793Y-118601501D02*
X99266012Y-118613675D01*
X99266012Y-118613675D02*
X99204978Y-118642136D01*
X99204978Y-118642136D02*
X99127658Y-118715344D01*
X99127658Y-118715344D02*
X99046224Y-118939080D01*
X99046224Y-118939080D02*
X99058398Y-119044861D01*
X99058398Y-119044861D02*
X99086859Y-119105895D01*
X99086859Y-119105895D02*
X99160067Y-119183216D01*
X99160067Y-119183216D02*
X99339056Y-119248362D01*
X99339056Y-119248362D02*
X99444837Y-119236188D01*
X99444837Y-119236188D02*
X99505871Y-119207728D01*
X99505871Y-119207728D02*
X99583191Y-119134520D01*
X151564408Y-72637088D02*
X151679025Y-72734755D01*
X151679025Y-72734755D02*
X151899783Y-72823947D01*
X151899783Y-72823947D02*
X152005925Y-72815472D01*
X152005925Y-72815472D02*
X152067915Y-72789159D01*
X152067915Y-72789159D02*
X152147743Y-72718694D01*
X152147743Y-72718694D02*
X152183420Y-72630391D01*
X152183420Y-72630391D02*
X152174945Y-72524249D01*
X152174945Y-72524249D02*
X152148632Y-72462259D01*
X152148632Y-72462259D02*
X152078167Y-72382431D01*
X152078167Y-72382431D02*
X151919399Y-72266926D01*
X151919399Y-72266926D02*
X151848934Y-72187097D01*
X151848934Y-72187097D02*
X151822621Y-72125107D01*
X151822621Y-72125107D02*
X151814146Y-72018966D01*
X151814146Y-72018966D02*
X151849823Y-71930662D01*
X151849823Y-71930662D02*
X151929651Y-71860198D01*
X151929651Y-71860198D02*
X151991641Y-71833884D01*
X151991641Y-71833884D02*
X152097783Y-71825410D01*
X152097783Y-71825410D02*
X152318541Y-71914602D01*
X152318541Y-71914602D02*
X152433158Y-72012268D01*
X152760057Y-72092986D02*
X152606209Y-73109362D01*
X152606209Y-73109362D02*
X153050391Y-72518441D01*
X153050391Y-72518441D02*
X152959422Y-73252069D01*
X152959422Y-73252069D02*
X153554786Y-72414077D01*
X153819696Y-72521108D02*
X154393667Y-72753007D01*
X154393667Y-72753007D02*
X153941898Y-72981351D01*
X153941898Y-72981351D02*
X154074353Y-73034866D01*
X154074353Y-73034866D02*
X154144818Y-73114695D01*
X154144818Y-73114695D02*
X154171131Y-73176685D01*
X154171131Y-73176685D02*
X154179606Y-73282826D01*
X154179606Y-73282826D02*
X154090414Y-73503584D01*
X154090414Y-73503584D02*
X154010585Y-73574049D01*
X154010585Y-73574049D02*
X153948595Y-73600362D01*
X153948595Y-73600362D02*
X153842454Y-73608837D01*
X153842454Y-73608837D02*
X153577544Y-73501807D01*
X153577544Y-73501807D02*
X153507079Y-73421978D01*
X153507079Y-73421978D02*
X153480766Y-73359988D01*
X154902093Y-74036959D02*
X154372273Y-73822898D01*
X154637183Y-73929928D02*
X155011789Y-73002745D01*
X155011789Y-73002745D02*
X154869971Y-73099523D01*
X154869971Y-73099523D02*
X154745991Y-73152149D01*
X154745991Y-73152149D02*
X154639849Y-73160624D01*
X158700672Y-54974232D02*
X158815289Y-55071899D01*
X158815289Y-55071899D02*
X159036047Y-55161091D01*
X159036047Y-55161091D02*
X159142189Y-55152616D01*
X159142189Y-55152616D02*
X159204179Y-55126303D01*
X159204179Y-55126303D02*
X159284007Y-55055838D01*
X159284007Y-55055838D02*
X159319684Y-54967535D01*
X159319684Y-54967535D02*
X159311209Y-54861393D01*
X159311209Y-54861393D02*
X159284896Y-54799403D01*
X159284896Y-54799403D02*
X159214431Y-54719575D01*
X159214431Y-54719575D02*
X159055663Y-54604070D01*
X159055663Y-54604070D02*
X158985198Y-54524241D01*
X158985198Y-54524241D02*
X158958885Y-54462251D01*
X158958885Y-54462251D02*
X158950410Y-54356110D01*
X158950410Y-54356110D02*
X158986087Y-54267806D01*
X158986087Y-54267806D02*
X159065915Y-54197342D01*
X159065915Y-54197342D02*
X159127905Y-54171028D01*
X159127905Y-54171028D02*
X159234047Y-54162554D01*
X159234047Y-54162554D02*
X159454805Y-54251746D01*
X159454805Y-54251746D02*
X159569422Y-54349412D01*
X159896321Y-54430130D02*
X159742473Y-55446506D01*
X159742473Y-55446506D02*
X160186655Y-54855585D01*
X160186655Y-54855585D02*
X160095686Y-55589213D01*
X160095686Y-55589213D02*
X160691050Y-54751221D01*
X161155324Y-56017335D02*
X160625505Y-55803274D01*
X160890415Y-55910304D02*
X161265021Y-54983120D01*
X161265021Y-54983120D02*
X161123203Y-55079898D01*
X161123203Y-55079898D02*
X160999223Y-55132525D01*
X160999223Y-55132525D02*
X160893081Y-55141000D01*
X161596840Y-56195719D02*
X161773447Y-56267072D01*
X161773447Y-56267072D02*
X161879588Y-56258598D01*
X161879588Y-56258598D02*
X161941578Y-56232284D01*
X161941578Y-56232284D02*
X162083397Y-56135506D01*
X162083397Y-56135506D02*
X162198902Y-55976738D01*
X162198902Y-55976738D02*
X162341609Y-55623526D01*
X162341609Y-55623526D02*
X162333135Y-55517384D01*
X162333135Y-55517384D02*
X162306821Y-55455394D01*
X162306821Y-55455394D02*
X162236357Y-55375565D01*
X162236357Y-55375565D02*
X162059750Y-55304212D01*
X162059750Y-55304212D02*
X161953609Y-55312687D01*
X161953609Y-55312687D02*
X161891619Y-55339000D01*
X161891619Y-55339000D02*
X161811790Y-55409465D01*
X161811790Y-55409465D02*
X161722598Y-55630223D01*
X161722598Y-55630223D02*
X161731073Y-55736364D01*
X161731073Y-55736364D02*
X161757386Y-55798354D01*
X161757386Y-55798354D02*
X161827851Y-55878183D01*
X161827851Y-55878183D02*
X162004457Y-55949536D01*
X162004457Y-55949536D02*
X162110599Y-55941062D01*
X162110599Y-55941062D02*
X162172589Y-55914748D01*
X162172589Y-55914748D02*
X162252417Y-55844284D01*
D11*
%TO.C,SW51*%
X108095985Y-126947572D02*
X104946670Y-140588753D01*
X108095985Y-126947572D02*
X121737166Y-130096887D01*
X118587851Y-143738068D02*
X104946670Y-140588753D01*
X121737166Y-130096887D02*
X118587851Y-143738068D01*
%TO.C,SW27*%
X106073242Y-69669199D02*
X100828750Y-82649773D01*
X106073242Y-69669199D02*
X119053816Y-74913691D01*
X113809324Y-87894265D02*
X100828750Y-82649773D01*
X119053816Y-74913691D02*
X113809324Y-87894265D01*
%TO.C,J1*%
X157694762Y-134606031D02*
X160167165Y-128486618D01*
X169748152Y-139475917D02*
X157694762Y-134606031D01*
X170047837Y-138734170D02*
X169748152Y-139475917D01*
X171902205Y-139483383D02*
X170047837Y-138734170D01*
X171920870Y-134098251D02*
X172220556Y-133356504D01*
X172014587Y-139205228D02*
X171902205Y-139483383D01*
X172014587Y-139205228D02*
X173775238Y-134847464D01*
X172220556Y-133356504D02*
X160167165Y-128486618D01*
X173775238Y-134847464D02*
X171920870Y-134098251D01*
%TO.C,SW15*%
X113209487Y-52006344D02*
X107964995Y-64986918D01*
X113209487Y-52006344D02*
X126190061Y-57250836D01*
X120945569Y-70231410D02*
X107964995Y-64986918D01*
X126190061Y-57250836D02*
X120945569Y-70231410D01*
%TO.C,SW9*%
X136881836Y-44268615D02*
X131637344Y-57249189D01*
X136881836Y-44268615D02*
X149862410Y-49513107D01*
X144617918Y-62493681D02*
X131637344Y-57249189D01*
X149862410Y-49513107D02*
X144617918Y-62493681D01*
%TO.C,SW43*%
X139145395Y-89519451D02*
X133900903Y-102500025D01*
X139145395Y-89519451D02*
X152125969Y-94763943D01*
X146881477Y-107744517D02*
X133900903Y-102500025D01*
X152125969Y-94763943D02*
X146881477Y-107744517D01*
%TO.C,SW33*%
X122609309Y-79594325D02*
X117364817Y-92574899D01*
X122609309Y-79594325D02*
X135589883Y-84838817D01*
X130345391Y-97819391D02*
X117364817Y-92574899D01*
X135589883Y-84838817D02*
X130345391Y-97819391D01*
%TO.C,SW39*%
X98936979Y-87332054D02*
X93692487Y-100312628D01*
X98936979Y-87332054D02*
X111917553Y-92576546D01*
X106673061Y-105557120D02*
X93692487Y-100312628D01*
X111917553Y-92576546D02*
X106673061Y-105557120D01*
%TO.C,SW45*%
X115473065Y-97257180D02*
X110228573Y-110237754D01*
X115473065Y-97257180D02*
X128453639Y-102501672D01*
X123209147Y-115482246D02*
X110228573Y-110237754D01*
X128453639Y-102501672D02*
X123209147Y-115482246D01*
%TO.C,SW13*%
X94419862Y-47658962D02*
X89175370Y-60639536D01*
X94419862Y-47658962D02*
X107400436Y-52903454D01*
X102155944Y-65884028D02*
X89175370Y-60639536D01*
X107400436Y-52903454D02*
X102155944Y-65884028D01*
%TO.C,SW29*%
X62914681Y-70475643D02*
X58588443Y-83790435D01*
X62914681Y-70475643D02*
X76229473Y-74801881D01*
X71903235Y-88116673D02*
X58588443Y-83790435D01*
X76229473Y-74801881D02*
X71903235Y-88116673D01*
%TO.C,SW37*%
X37408747Y-84729457D02*
X33785280Y-98252418D01*
X37408747Y-84729457D02*
X50931708Y-88352924D01*
X47308241Y-101875885D02*
X33785280Y-98252418D01*
X50931708Y-88352924D02*
X47308241Y-101875885D01*
%TO.C,U1*%
X151540921Y-118618170D02*
X151391078Y-118989044D01*
X152514898Y-116207492D02*
X152365055Y-116578366D01*
X153451414Y-113889534D02*
X153301572Y-114260406D01*
X154387931Y-111571573D02*
X154238088Y-111942447D01*
X155361908Y-109160895D02*
X155212065Y-109531768D01*
X156298425Y-106842935D02*
X156148582Y-107213809D01*
X156796873Y-123761610D02*
X150492022Y-121214285D01*
X157272402Y-104432257D02*
X157122559Y-104803131D01*
X158208918Y-102114298D02*
X158059076Y-102485171D01*
X158836677Y-124585744D02*
X159207551Y-124735587D01*
X159182895Y-99703620D02*
X159033053Y-100074493D01*
X160119412Y-97385660D02*
X159969569Y-97756534D01*
X161055928Y-95067700D02*
X160906086Y-95438574D01*
X161247355Y-125559722D02*
X161618229Y-125709564D01*
X162029905Y-92657022D02*
X161880063Y-93027896D01*
X162966422Y-90339063D02*
X162816579Y-90709936D01*
X163940399Y-87928385D02*
X163790556Y-88299258D01*
X164876916Y-85610425D02*
X164727073Y-85981299D01*
X165813432Y-83292465D02*
X165663589Y-83663339D01*
X166787409Y-80881787D02*
X166637567Y-81252661D01*
X167723926Y-78563828D02*
X167574083Y-78934701D01*
X168597883Y-76400708D02*
X171385925Y-77527150D01*
X168697903Y-76153150D02*
X168548060Y-76524023D01*
X169596959Y-73927908D02*
X169484577Y-74206064D01*
X169596959Y-73927908D02*
X189067820Y-81794647D01*
X169962883Y-129081024D02*
X163658033Y-126533699D01*
X171011782Y-126484909D02*
X170861939Y-126855782D01*
X171385925Y-77527150D02*
X172385001Y-75054351D01*
X171985759Y-124074231D02*
X171835916Y-124445104D01*
X172922275Y-121756271D02*
X172772433Y-122127145D01*
X173858792Y-119438311D02*
X173708949Y-119809185D01*
X174832769Y-117027633D02*
X174682926Y-117398507D01*
X175769286Y-114709674D02*
X175619443Y-115080547D01*
X176743263Y-112298996D02*
X176593420Y-112669869D01*
X177679779Y-109981036D02*
X177529937Y-110351910D01*
X178653756Y-107570358D02*
X178503914Y-107941232D01*
X179590273Y-105252398D02*
X179440430Y-105623272D01*
X180526789Y-102934439D02*
X180376947Y-103305312D01*
X181500766Y-100523761D02*
X181350924Y-100894634D01*
X182437283Y-98205801D02*
X182287440Y-98576675D01*
X183411260Y-95795123D02*
X183261417Y-96165997D01*
X184347777Y-93477164D02*
X184197934Y-93848037D01*
X185284293Y-91159204D02*
X185134449Y-91530077D01*
X186258270Y-88748526D02*
X186108428Y-89119398D01*
X187194787Y-86430566D02*
X187044944Y-86801440D01*
X188168764Y-84019888D02*
X188018921Y-84390762D01*
X189067820Y-81794647D02*
X188955438Y-82072802D01*
%TO.C,SW23*%
X87283618Y-65321817D02*
X82039126Y-78302391D01*
X87283618Y-65321817D02*
X100264192Y-70566309D01*
X95019700Y-83546883D02*
X82039126Y-78302391D01*
X100264192Y-70566309D02*
X95019700Y-83546883D01*
%TO.C,SW25*%
X42339249Y-66328566D02*
X38715782Y-79851527D01*
X42339249Y-66328566D02*
X55862210Y-69952033D01*
X52238743Y-83474994D02*
X38715782Y-79851527D01*
X55862210Y-69952033D02*
X52238743Y-83474994D01*
%TO.C,SW35*%
X80147354Y-82984673D02*
X74902862Y-95965247D01*
X80147354Y-82984673D02*
X93127928Y-88229165D01*
X87883436Y-101209739D02*
X74902862Y-95965247D01*
X93127928Y-88229165D02*
X87883436Y-101209739D01*
%TO.C,SW5*%
X74688230Y-34240389D02*
X70361990Y-47555181D01*
X74688230Y-34240389D02*
X88003022Y-38566629D01*
X83676782Y-51881421D02*
X70361990Y-47555181D01*
X88003022Y-38566629D02*
X83676782Y-51881421D01*
%TO.C,SW21*%
X129745572Y-61931470D02*
X124501080Y-74912044D01*
X129745572Y-61931470D02*
X142726146Y-67175962D01*
X137481654Y-80156536D02*
X124501080Y-74912044D01*
X142726146Y-67175962D02*
X137481654Y-80156536D01*
%TO.C,SW41*%
X57027907Y-88593260D02*
X52701669Y-101908052D01*
X57027907Y-88593260D02*
X70342699Y-92919498D01*
X66016461Y-106234290D02*
X52701669Y-101908052D01*
X70342699Y-92919498D02*
X66016461Y-106234290D01*
%TO.C,SW1*%
X52200253Y-29526785D02*
X48576785Y-43049747D01*
X52200253Y-29526785D02*
X65723215Y-33150253D01*
X62099747Y-46673215D02*
X48576785Y-43049747D01*
X65723215Y-33150253D02*
X62099747Y-46673215D01*
%TO.C,SW7*%
X120345750Y-34343489D02*
X115101258Y-47324063D01*
X120345750Y-34343489D02*
X133326324Y-39587981D01*
X128081832Y-52568555D02*
X115101258Y-47324063D01*
X133326324Y-39587981D02*
X128081832Y-52568555D01*
%TO.C,SW3*%
X101556126Y-29996107D02*
X96311633Y-42976680D01*
X101556126Y-29996107D02*
X114536699Y-35240600D01*
X109292206Y-48221173D02*
X96311633Y-42976680D01*
X114536699Y-35240600D02*
X109292206Y-48221173D01*
%TO.C,SW17*%
X68801456Y-52358006D02*
X64475216Y-65672798D01*
X68801456Y-52358006D02*
X82116248Y-56684246D01*
X77790008Y-69999038D02*
X64475216Y-65672798D01*
X82116248Y-56684246D02*
X77790008Y-69999038D01*
%TO.C,SW47*%
X132009132Y-107182307D02*
X126764640Y-120162881D01*
X132009132Y-107182307D02*
X144989706Y-112426799D01*
X139745214Y-125407373D02*
X126764640Y-120162881D01*
X144989706Y-112426799D02*
X139745214Y-125407373D01*
%TO.C,SW11*%
X47269751Y-47927676D02*
X43646284Y-61450637D01*
X47269751Y-47927676D02*
X60792712Y-51551143D01*
X57169245Y-65074104D02*
X43646284Y-61450637D01*
X60792712Y-51551143D02*
X57169245Y-65074104D01*
%TO.C,SW49*%
X90696456Y-117793302D02*
X85908174Y-130948998D01*
X90696456Y-117793302D02*
X103852152Y-122581584D01*
X99063870Y-135737280D02*
X85908174Y-130948998D01*
X103852152Y-122581584D02*
X99063870Y-135737280D01*
%TO.C,SW31*%
X146281639Y-71856596D02*
X141037147Y-84837170D01*
X146281639Y-71856596D02*
X159262213Y-77101088D01*
X154017721Y-90081662D02*
X141037147Y-84837170D01*
X159262213Y-77101088D02*
X154017721Y-90081662D01*
%TO.C,SW19*%
X153417904Y-54193740D02*
X148173410Y-67174314D01*
X153417904Y-54193740D02*
X166398478Y-59438234D01*
X161153984Y-72418808D02*
X148173410Y-67174314D01*
X166398478Y-59438234D02*
X161153984Y-72418808D01*
%TD*%
M02*
