%TF.GenerationSoftware,KiCad,Pcbnew,9.0.5*%
%TF.CreationDate,2025-10-09T16:25:36-06:00*%
%TF.ProjectId,ergo-kola (left),6572676f-2d6b-46f6-9c61-20286c656674,rev?*%
%TF.SameCoordinates,Original*%
%TF.FileFunction,Legend,Bot*%
%TF.FilePolarity,Positive*%
%FSLAX46Y46*%
G04 Gerber Fmt 4.6, Leading zero omitted, Abs format (unit mm)*
G04 Created by KiCad (PCBNEW 9.0.5) date 2025-10-09 16:25:36*
%MOMM*%
%LPD*%
G01*
G04 APERTURE LIST*
%ADD10C,0.150000*%
%ADD11C,0.100000*%
%ADD12C,0.120000*%
G04 APERTURE END LIST*
D10*
X59627577Y-104701005D02*
X59944596Y-104804010D01*
X59944596Y-104804010D02*
X60160908Y-104138271D01*
X59264555Y-104092369D02*
X59120347Y-104536196D01*
X59505469Y-103890257D02*
X59509470Y-104417288D01*
X59509470Y-104417288D02*
X59097345Y-104283381D01*
X58422905Y-104309583D02*
X58803328Y-104433190D01*
X58613116Y-104371386D02*
X58829428Y-103705647D01*
X58829428Y-103705647D02*
X58861930Y-103821354D01*
X58861930Y-103821354D02*
X58904733Y-103905358D01*
X58904733Y-103905358D02*
X58957836Y-103957662D01*
X152809524Y-101280211D02*
X151882340Y-100905604D01*
X151882340Y-100905604D02*
X151793148Y-101126362D01*
X151793148Y-101126362D02*
X151783784Y-101276655D01*
X151783784Y-101276655D02*
X151836411Y-101400635D01*
X151836411Y-101400635D02*
X151906876Y-101480464D01*
X151906876Y-101480464D02*
X152065644Y-101595969D01*
X152065644Y-101595969D02*
X152198098Y-101649484D01*
X152198098Y-101649484D02*
X152392543Y-101676686D01*
X152392543Y-101676686D02*
X152498685Y-101668211D01*
X152498685Y-101668211D02*
X152622665Y-101615585D01*
X152622665Y-101615585D02*
X152720332Y-101500969D01*
X152720332Y-101500969D02*
X152809524Y-101280211D01*
X151656249Y-102355021D02*
X152274372Y-102604759D01*
X151392228Y-101991556D02*
X152143694Y-102038374D01*
X152143694Y-102038374D02*
X151911795Y-102612345D01*
X151186642Y-102627517D02*
X150954743Y-103201488D01*
X150954743Y-103201488D02*
X151432824Y-103035134D01*
X151432824Y-103035134D02*
X151379309Y-103167589D01*
X151379309Y-103167589D02*
X151387784Y-103273730D01*
X151387784Y-103273730D02*
X151414097Y-103335720D01*
X151414097Y-103335720D02*
X151484562Y-103415549D01*
X151484562Y-103415549D02*
X151705320Y-103504741D01*
X151705320Y-103504741D02*
X151811462Y-103496266D01*
X151811462Y-103496266D02*
X151873452Y-103469953D01*
X151873452Y-103469953D02*
X151953280Y-103399488D01*
X151953280Y-103399488D02*
X152060311Y-103134578D01*
X152060311Y-103134578D02*
X152051836Y-103028437D01*
X152051836Y-103028437D02*
X152025523Y-102966447D01*
X88992311Y-45472224D02*
X88041254Y-45163207D01*
X88041254Y-45163207D02*
X87967679Y-45389650D01*
X87967679Y-45389650D02*
X87968822Y-45540230D01*
X87968822Y-45540230D02*
X88029969Y-45660237D01*
X88029969Y-45660237D02*
X88105830Y-45734955D01*
X88105830Y-45734955D02*
X88272269Y-45839104D01*
X88272269Y-45839104D02*
X88408134Y-45883249D01*
X88408134Y-45883249D02*
X88604003Y-45896821D01*
X88604003Y-45896821D02*
X88709295Y-45880963D01*
X88709295Y-45880963D02*
X88829302Y-45819817D01*
X88829302Y-45819817D02*
X88918735Y-45698667D01*
X88918735Y-45698667D02*
X88992311Y-45472224D01*
X87585086Y-46567148D02*
X87732237Y-46114264D01*
X87732237Y-46114264D02*
X88199837Y-46216127D01*
X88199837Y-46216127D02*
X88139833Y-46246700D01*
X88139833Y-46246700D02*
X88065114Y-46322562D01*
X88065114Y-46322562D02*
X87991539Y-46549004D01*
X87991539Y-46549004D02*
X88007397Y-46654296D01*
X88007397Y-46654296D02*
X88037971Y-46714299D01*
X88037971Y-46714299D02*
X88113832Y-46789018D01*
X88113832Y-46789018D02*
X88340274Y-46862593D01*
X88340274Y-46862593D02*
X88445566Y-46846735D01*
X88445566Y-46846735D02*
X88505570Y-46816162D01*
X88505570Y-46816162D02*
X88580288Y-46740300D01*
X88580288Y-46740300D02*
X88653864Y-46513858D01*
X88653864Y-46513858D02*
X88638006Y-46408566D01*
X88638006Y-46408566D02*
X88607432Y-46348562D01*
X51188580Y-47839333D02*
X51236200Y-47791714D01*
X51236200Y-47791714D02*
X51283819Y-47648857D01*
X51283819Y-47648857D02*
X51283819Y-47553619D01*
X51283819Y-47553619D02*
X51236200Y-47410762D01*
X51236200Y-47410762D02*
X51140961Y-47315524D01*
X51140961Y-47315524D02*
X51045723Y-47267905D01*
X51045723Y-47267905D02*
X50855247Y-47220286D01*
X50855247Y-47220286D02*
X50712390Y-47220286D01*
X50712390Y-47220286D02*
X50521914Y-47267905D01*
X50521914Y-47267905D02*
X50426676Y-47315524D01*
X50426676Y-47315524D02*
X50331438Y-47410762D01*
X50331438Y-47410762D02*
X50283819Y-47553619D01*
X50283819Y-47553619D02*
X50283819Y-47648857D01*
X50283819Y-47648857D02*
X50331438Y-47791714D01*
X50331438Y-47791714D02*
X50379057Y-47839333D01*
X51283819Y-48791714D02*
X51283819Y-48220286D01*
X51283819Y-48506000D02*
X50283819Y-48506000D01*
X50283819Y-48506000D02*
X50426676Y-48410762D01*
X50426676Y-48410762D02*
X50521914Y-48315524D01*
X50521914Y-48315524D02*
X50569533Y-48220286D01*
X71479140Y-99372210D02*
X70528084Y-99063193D01*
X70528084Y-99063193D02*
X70454508Y-99289635D01*
X70454508Y-99289635D02*
X70455651Y-99440215D01*
X70455651Y-99440215D02*
X70516798Y-99560222D01*
X70516798Y-99560222D02*
X70592660Y-99634941D01*
X70592660Y-99634941D02*
X70759098Y-99739090D01*
X70759098Y-99739090D02*
X70894963Y-99783235D01*
X70894963Y-99783235D02*
X71090832Y-99796807D01*
X71090832Y-99796807D02*
X71196124Y-99780949D01*
X71196124Y-99780949D02*
X71316131Y-99719802D01*
X71316131Y-99719802D02*
X71405565Y-99598652D01*
X71405565Y-99598652D02*
X71479140Y-99372210D01*
X70403650Y-100524851D02*
X71037687Y-100730862D01*
X70114918Y-100180688D02*
X70867819Y-100174972D01*
X70867819Y-100174972D02*
X70676523Y-100763722D01*
X70713955Y-101727207D02*
X70890536Y-101183746D01*
X70802246Y-101455477D02*
X69851189Y-101146460D01*
X69851189Y-101146460D02*
X70016485Y-101100028D01*
X70016485Y-101100028D02*
X70136492Y-101038881D01*
X70136492Y-101038881D02*
X70211210Y-100963020D01*
X108083991Y-59419722D02*
X107156807Y-59045115D01*
X107156807Y-59045115D02*
X107067615Y-59265873D01*
X107067615Y-59265873D02*
X107058251Y-59416166D01*
X107058251Y-59416166D02*
X107110878Y-59540146D01*
X107110878Y-59540146D02*
X107181343Y-59619975D01*
X107181343Y-59619975D02*
X107340111Y-59735480D01*
X107340111Y-59735480D02*
X107472565Y-59788995D01*
X107472565Y-59788995D02*
X107667010Y-59816197D01*
X107667010Y-59816197D02*
X107773152Y-59807722D01*
X107773152Y-59807722D02*
X107897132Y-59755096D01*
X107897132Y-59755096D02*
X107994799Y-59640480D01*
X107994799Y-59640480D02*
X108083991Y-59419722D01*
X107513162Y-60832573D02*
X107727223Y-60302754D01*
X107620192Y-60567663D02*
X106693008Y-60193057D01*
X106693008Y-60193057D02*
X106861140Y-60158269D01*
X106861140Y-60158269D02*
X106985120Y-60105642D01*
X106985120Y-60105642D02*
X107064948Y-60035178D01*
X106461109Y-60767028D02*
X106229210Y-61340999D01*
X106229210Y-61340999D02*
X106707291Y-61174645D01*
X106707291Y-61174645D02*
X106653776Y-61307100D01*
X106653776Y-61307100D02*
X106662251Y-61413241D01*
X106662251Y-61413241D02*
X106688564Y-61475231D01*
X106688564Y-61475231D02*
X106759029Y-61555060D01*
X106759029Y-61555060D02*
X106979787Y-61644252D01*
X106979787Y-61644252D02*
X107085929Y-61635777D01*
X107085929Y-61635777D02*
X107147919Y-61609464D01*
X107147919Y-61609464D02*
X107227747Y-61538999D01*
X107227747Y-61538999D02*
X107334778Y-61274089D01*
X107334778Y-61274089D02*
X107326303Y-61167948D01*
X107326303Y-61167948D02*
X107299990Y-61105958D01*
X112601108Y-99092814D02*
X111673924Y-98718207D01*
X111673924Y-98718207D02*
X111584732Y-98938965D01*
X111584732Y-98938965D02*
X111575368Y-99089258D01*
X111575368Y-99089258D02*
X111627995Y-99213238D01*
X111627995Y-99213238D02*
X111698460Y-99293067D01*
X111698460Y-99293067D02*
X111857228Y-99408572D01*
X111857228Y-99408572D02*
X111989682Y-99462087D01*
X111989682Y-99462087D02*
X112184127Y-99489289D01*
X112184127Y-99489289D02*
X112290269Y-99480814D01*
X112290269Y-99480814D02*
X112414249Y-99428188D01*
X112414249Y-99428188D02*
X112511916Y-99313572D01*
X112511916Y-99313572D02*
X112601108Y-99092814D01*
X111334994Y-99557088D02*
X111103095Y-100131059D01*
X111103095Y-100131059D02*
X111581177Y-99964705D01*
X111581177Y-99964705D02*
X111527661Y-100097159D01*
X111527661Y-100097159D02*
X111536136Y-100203301D01*
X111536136Y-100203301D02*
X111562449Y-100265291D01*
X111562449Y-100265291D02*
X111632914Y-100345119D01*
X111632914Y-100345119D02*
X111853672Y-100434312D01*
X111853672Y-100434312D02*
X111959814Y-100425837D01*
X111959814Y-100425837D02*
X112021804Y-100399524D01*
X112021804Y-100399524D02*
X112101632Y-100329059D01*
X112101632Y-100329059D02*
X112208663Y-100064149D01*
X112208663Y-100064149D02*
X112200188Y-99958007D01*
X112200188Y-99958007D02*
X112173875Y-99896017D01*
X111851895Y-100947181D02*
X111780541Y-101123788D01*
X111780541Y-101123788D02*
X111700713Y-101194253D01*
X111700713Y-101194253D02*
X111638723Y-101220566D01*
X111638723Y-101220566D02*
X111470591Y-101255354D01*
X111470591Y-101255354D02*
X111276146Y-101228152D01*
X111276146Y-101228152D02*
X110922933Y-101085444D01*
X110922933Y-101085444D02*
X110852468Y-101005616D01*
X110852468Y-101005616D02*
X110826155Y-100943626D01*
X110826155Y-100943626D02*
X110817680Y-100837484D01*
X110817680Y-100837484D02*
X110889034Y-100660878D01*
X110889034Y-100660878D02*
X110968862Y-100590413D01*
X110968862Y-100590413D02*
X111030852Y-100564100D01*
X111030852Y-100564100D02*
X111136994Y-100555625D01*
X111136994Y-100555625D02*
X111357752Y-100644817D01*
X111357752Y-100644817D02*
X111428217Y-100724646D01*
X111428217Y-100724646D02*
X111454530Y-100786636D01*
X111454530Y-100786636D02*
X111463005Y-100892777D01*
X111463005Y-100892777D02*
X111391651Y-101069384D01*
X111391651Y-101069384D02*
X111311823Y-101139849D01*
X111311823Y-101139849D02*
X111249833Y-101166162D01*
X111249833Y-101166162D02*
X111143691Y-101174637D01*
X40847868Y-100679069D02*
X41169843Y-100765342D01*
X41169843Y-100765342D02*
X41351016Y-100089194D01*
X40868053Y-99959784D02*
X40449485Y-99847629D01*
X40449485Y-99847629D02*
X40605849Y-100165601D01*
X40605849Y-100165601D02*
X40509257Y-100139719D01*
X40509257Y-100139719D02*
X40436235Y-100154662D01*
X40436235Y-100154662D02*
X40395410Y-100178232D01*
X40395410Y-100178232D02*
X40345958Y-100234000D01*
X40345958Y-100234000D02*
X40302821Y-100394987D01*
X40302821Y-100394987D02*
X40317764Y-100468010D01*
X40317764Y-100468010D02*
X40341334Y-100508834D01*
X40341334Y-100508834D02*
X40397102Y-100558287D01*
X40397102Y-100558287D02*
X40590287Y-100610050D01*
X40590287Y-100610050D02*
X40663309Y-100595107D01*
X40663309Y-100595107D02*
X40704134Y-100571537D01*
X40224102Y-99787238D02*
X39773337Y-99666456D01*
X39773337Y-99666456D02*
X39881941Y-100420250D01*
X100947747Y-77082577D02*
X100020563Y-76707970D01*
X100020563Y-76707970D02*
X99931371Y-76928728D01*
X99931371Y-76928728D02*
X99922007Y-77079021D01*
X99922007Y-77079021D02*
X99974634Y-77203001D01*
X99974634Y-77203001D02*
X100045099Y-77282830D01*
X100045099Y-77282830D02*
X100203867Y-77398335D01*
X100203867Y-77398335D02*
X100336321Y-77451850D01*
X100336321Y-77451850D02*
X100530766Y-77479052D01*
X100530766Y-77479052D02*
X100636908Y-77470577D01*
X100636908Y-77470577D02*
X100760888Y-77417951D01*
X100760888Y-77417951D02*
X100858555Y-77303335D01*
X100858555Y-77303335D02*
X100947747Y-77082577D01*
X99752098Y-77626679D02*
X99690108Y-77652992D01*
X99690108Y-77652992D02*
X99610280Y-77723457D01*
X99610280Y-77723457D02*
X99521088Y-77944215D01*
X99521088Y-77944215D02*
X99529562Y-78050357D01*
X99529562Y-78050357D02*
X99555876Y-78112347D01*
X99555876Y-78112347D02*
X99626340Y-78192175D01*
X99626340Y-78192175D02*
X99714644Y-78227852D01*
X99714644Y-78227852D02*
X99864937Y-78237216D01*
X99864937Y-78237216D02*
X100608817Y-77921457D01*
X100608817Y-77921457D02*
X100376918Y-78495428D01*
X99324865Y-78429883D02*
X99092966Y-79003854D01*
X99092966Y-79003854D02*
X99571047Y-78837500D01*
X99571047Y-78837500D02*
X99517532Y-78969955D01*
X99517532Y-78969955D02*
X99526007Y-79076096D01*
X99526007Y-79076096D02*
X99552320Y-79138086D01*
X99552320Y-79138086D02*
X99622785Y-79217915D01*
X99622785Y-79217915D02*
X99843543Y-79307107D01*
X99843543Y-79307107D02*
X99949685Y-79298632D01*
X99949685Y-79298632D02*
X100011675Y-79272319D01*
X100011675Y-79272319D02*
X100091503Y-79201854D01*
X100091503Y-79201854D02*
X100198534Y-78936944D01*
X100198534Y-78936944D02*
X100190059Y-78830803D01*
X100190059Y-78830803D02*
X100163746Y-78768813D01*
X131215290Y-78181319D02*
X131524351Y-78306188D01*
X131524351Y-78306188D02*
X131786576Y-77657160D01*
X131267104Y-77519182D02*
X131248685Y-77475789D01*
X131248685Y-77475789D02*
X131199359Y-77419909D01*
X131199359Y-77419909D02*
X131044829Y-77357474D01*
X131044829Y-77357474D02*
X130970529Y-77363407D01*
X130970529Y-77363407D02*
X130927136Y-77381826D01*
X130927136Y-77381826D02*
X130871257Y-77431151D01*
X130871257Y-77431151D02*
X130846283Y-77492963D01*
X130846283Y-77492963D02*
X130839728Y-77598169D01*
X130839728Y-77598169D02*
X131060759Y-78118885D01*
X131060759Y-78118885D02*
X130658979Y-77956555D01*
X130040857Y-77706818D02*
X130411730Y-77856660D01*
X130226293Y-77781739D02*
X130488518Y-77132710D01*
X130488518Y-77132710D02*
X130512870Y-77250402D01*
X130512870Y-77250402D02*
X130549708Y-77337188D01*
X130549708Y-77337188D02*
X130599033Y-77393068D01*
X65514351Y-86583388D02*
X65831370Y-86686393D01*
X65831370Y-86686393D02*
X66047682Y-86020654D01*
X65519850Y-85919248D02*
X65498449Y-85877246D01*
X65498449Y-85877246D02*
X65445346Y-85824943D01*
X65445346Y-85824943D02*
X65286836Y-85773440D01*
X65286836Y-85773440D02*
X65213132Y-85784541D01*
X65213132Y-85784541D02*
X65171130Y-85805942D01*
X65171130Y-85805942D02*
X65118827Y-85859045D01*
X65118827Y-85859045D02*
X65098226Y-85922449D01*
X65098226Y-85922449D02*
X65099026Y-86027855D01*
X65099026Y-86027855D02*
X65355842Y-86531885D01*
X65355842Y-86531885D02*
X64943717Y-86397977D01*
X64626698Y-86294972D02*
X64499890Y-86253769D01*
X64499890Y-86253769D02*
X64446787Y-86201466D01*
X64446787Y-86201466D02*
X64425386Y-86159464D01*
X64425386Y-86159464D02*
X64392884Y-86043757D01*
X64392884Y-86043757D02*
X64402384Y-85906649D01*
X64402384Y-85906649D02*
X64484789Y-85653034D01*
X64484789Y-85653034D02*
X64537092Y-85599931D01*
X64537092Y-85599931D02*
X64579094Y-85578529D01*
X64579094Y-85578529D02*
X64652798Y-85567429D01*
X64652798Y-85567429D02*
X64779606Y-85608631D01*
X64779606Y-85608631D02*
X64832709Y-85660934D01*
X64832709Y-85660934D02*
X64854111Y-85702936D01*
X64854111Y-85702936D02*
X64865211Y-85776641D01*
X64865211Y-85776641D02*
X64813708Y-85935150D01*
X64813708Y-85935150D02*
X64761405Y-85988253D01*
X64761405Y-85988253D02*
X64719403Y-86009655D01*
X64719403Y-86009655D02*
X64645699Y-86020755D01*
X64645699Y-86020755D02*
X64518891Y-85979553D01*
X64518891Y-85979553D02*
X64465788Y-85927250D01*
X64465788Y-85927250D02*
X64444387Y-85885248D01*
X64444387Y-85885248D02*
X64433286Y-85811543D01*
X92732388Y-133981960D02*
X93045619Y-134095966D01*
X93045619Y-134095966D02*
X93285033Y-133438182D01*
X92390828Y-133361026D02*
X92231219Y-133799549D01*
X92638649Y-133167444D02*
X92624254Y-133694294D01*
X92624254Y-133694294D02*
X92217054Y-133546085D01*
X91855341Y-133662741D02*
X91730049Y-133617138D01*
X91730049Y-133617138D02*
X91678803Y-133563014D01*
X91678803Y-133563014D02*
X91658881Y-133520290D01*
X91658881Y-133520290D02*
X91630437Y-133403519D01*
X91630437Y-133403519D02*
X91644717Y-133266826D01*
X91644717Y-133266826D02*
X91735922Y-133016242D01*
X91735922Y-133016242D02*
X91790046Y-132964996D01*
X91790046Y-132964996D02*
X91832770Y-132945074D01*
X91832770Y-132945074D02*
X91906817Y-132936552D01*
X91906817Y-132936552D02*
X92032109Y-132982155D01*
X92032109Y-132982155D02*
X92083355Y-133036279D01*
X92083355Y-133036279D02*
X92103277Y-133079003D01*
X92103277Y-133079003D02*
X92111799Y-133153050D01*
X92111799Y-133153050D02*
X92054796Y-133309665D01*
X92054796Y-133309665D02*
X92000671Y-133360911D01*
X92000671Y-133360911D02*
X91957947Y-133380833D01*
X91957947Y-133380833D02*
X91883901Y-133389355D01*
X91883901Y-133389355D02*
X91758608Y-133343752D01*
X91758608Y-133343752D02*
X91707363Y-133289628D01*
X91707363Y-133289628D02*
X91687440Y-133246904D01*
X91687440Y-133246904D02*
X91678919Y-133172857D01*
X88753336Y-81571666D02*
X89062397Y-81696535D01*
X89062397Y-81696535D02*
X89324622Y-81047507D01*
X88805150Y-80909529D02*
X88786731Y-80866136D01*
X88786731Y-80866136D02*
X88737405Y-80810256D01*
X88737405Y-80810256D02*
X88582875Y-80747821D01*
X88582875Y-80747821D02*
X88508575Y-80753754D01*
X88508575Y-80753754D02*
X88465182Y-80772173D01*
X88465182Y-80772173D02*
X88409303Y-80821498D01*
X88409303Y-80821498D02*
X88384329Y-80883310D01*
X88384329Y-80883310D02*
X88377774Y-80988516D01*
X88377774Y-80988516D02*
X88598805Y-81509232D01*
X88598805Y-81509232D02*
X88197025Y-81346902D01*
X88242907Y-80610465D02*
X87841127Y-80448136D01*
X87841127Y-80448136D02*
X87957575Y-80782793D01*
X87957575Y-80782793D02*
X87864857Y-80745332D01*
X87864857Y-80745332D02*
X87790557Y-80751265D01*
X87790557Y-80751265D02*
X87747164Y-80769684D01*
X87747164Y-80769684D02*
X87691285Y-80819009D01*
X87691285Y-80819009D02*
X87628850Y-80973540D01*
X87628850Y-80973540D02*
X87634782Y-81047839D01*
X87634782Y-81047839D02*
X87653202Y-81091232D01*
X87653202Y-81091232D02*
X87702527Y-81147112D01*
X87702527Y-81147112D02*
X87887964Y-81222033D01*
X87887964Y-81222033D02*
X87962263Y-81216101D01*
X87962263Y-81216101D02*
X88005656Y-81197682D01*
X81617072Y-99234522D02*
X81926133Y-99359391D01*
X81926133Y-99359391D02*
X82188358Y-98710363D01*
X81724766Y-98523059D02*
X81322986Y-98360730D01*
X81322986Y-98360730D02*
X81439434Y-98695387D01*
X81439434Y-98695387D02*
X81346715Y-98657926D01*
X81346715Y-98657926D02*
X81272416Y-98663859D01*
X81272416Y-98663859D02*
X81229023Y-98682278D01*
X81229023Y-98682278D02*
X81173143Y-98731603D01*
X81173143Y-98731603D02*
X81110709Y-98886134D01*
X81110709Y-98886134D02*
X81116641Y-98960433D01*
X81116641Y-98960433D02*
X81135061Y-99003826D01*
X81135061Y-99003826D02*
X81184386Y-99059706D01*
X81184386Y-99059706D02*
X81369823Y-99134627D01*
X81369823Y-99134627D02*
X81444122Y-99128695D01*
X81444122Y-99128695D02*
X81487515Y-99110276D01*
X80735769Y-98123479D02*
X81044831Y-98248348D01*
X81044831Y-98248348D02*
X80950868Y-98569896D01*
X80950868Y-98569896D02*
X80932449Y-98526503D01*
X80932449Y-98526503D02*
X80883123Y-98470623D01*
X80883123Y-98470623D02*
X80728593Y-98408188D01*
X80728593Y-98408188D02*
X80654293Y-98414121D01*
X80654293Y-98414121D02*
X80610900Y-98432540D01*
X80610900Y-98432540D02*
X80555021Y-98481865D01*
X80555021Y-98481865D02*
X80492586Y-98636396D01*
X80492586Y-98636396D02*
X80498518Y-98710695D01*
X80498518Y-98710695D02*
X80516938Y-98754088D01*
X80516938Y-98754088D02*
X80566263Y-98809968D01*
X80566263Y-98809968D02*
X80720794Y-98872403D01*
X80720794Y-98872403D02*
X80795093Y-98866470D01*
X80795093Y-98866470D02*
X80838486Y-98848051D01*
X50708872Y-63877288D02*
X51030847Y-63963561D01*
X51030847Y-63963561D02*
X51212020Y-63287413D01*
X50129316Y-63721996D02*
X50515686Y-63825524D01*
X50322501Y-63773760D02*
X50503674Y-63097612D01*
X50503674Y-63097612D02*
X50542188Y-63211459D01*
X50542188Y-63211459D02*
X50589328Y-63293109D01*
X50589328Y-63293109D02*
X50645096Y-63342561D01*
X49485365Y-63549450D02*
X49871735Y-63652978D01*
X49678550Y-63601214D02*
X49859723Y-62925066D01*
X49859723Y-62925066D02*
X49898237Y-63038913D01*
X49898237Y-63038913D02*
X49945377Y-63120563D01*
X49945377Y-63120563D02*
X50001145Y-63170015D01*
X114679205Y-68256193D02*
X114988266Y-68381062D01*
X114988266Y-68381062D02*
X115250491Y-67732034D01*
X114122894Y-68031429D02*
X114493768Y-68181272D01*
X114308331Y-68106351D02*
X114570556Y-67457322D01*
X114570556Y-67457322D02*
X114594907Y-67575014D01*
X114594907Y-67575014D02*
X114631746Y-67661800D01*
X114631746Y-67661800D02*
X114681071Y-67717680D01*
X113797902Y-67145150D02*
X114106964Y-67270019D01*
X114106964Y-67270019D02*
X114013001Y-67591567D01*
X114013001Y-67591567D02*
X113994582Y-67548174D01*
X113994582Y-67548174D02*
X113945256Y-67492294D01*
X113945256Y-67492294D02*
X113790726Y-67429859D01*
X113790726Y-67429859D02*
X113716426Y-67435792D01*
X113716426Y-67435792D02*
X113673033Y-67454211D01*
X113673033Y-67454211D02*
X113617154Y-67503536D01*
X113617154Y-67503536D02*
X113554719Y-67658067D01*
X113554719Y-67658067D02*
X113560651Y-67732366D01*
X113560651Y-67732366D02*
X113579071Y-67775759D01*
X113579071Y-67775759D02*
X113628396Y-67831639D01*
X113628396Y-67831639D02*
X113782927Y-67894074D01*
X113782927Y-67894074D02*
X113857226Y-67888141D01*
X113857226Y-67888141D02*
X113900619Y-67869722D01*
X115041870Y-42198383D02*
X114114686Y-41823777D01*
X114114686Y-41823777D02*
X114025494Y-42044535D01*
X114025494Y-42044535D02*
X114016130Y-42194828D01*
X114016130Y-42194828D02*
X114068756Y-42318808D01*
X114068756Y-42318808D02*
X114139221Y-42398636D01*
X114139221Y-42398636D02*
X114297989Y-42514142D01*
X114297989Y-42514142D02*
X114430444Y-42567657D01*
X114430444Y-42567657D02*
X114624889Y-42594859D01*
X114624889Y-42594859D02*
X114731031Y-42586384D01*
X114731031Y-42586384D02*
X114855011Y-42533758D01*
X114855011Y-42533758D02*
X114952677Y-42419141D01*
X114952677Y-42419141D02*
X115041870Y-42198383D01*
X113775756Y-42662657D02*
X113543857Y-43236628D01*
X113543857Y-43236628D02*
X114021938Y-43070274D01*
X114021938Y-43070274D02*
X113968423Y-43202729D01*
X113968423Y-43202729D02*
X113976898Y-43308871D01*
X113976898Y-43308871D02*
X114003211Y-43370861D01*
X114003211Y-43370861D02*
X114073676Y-43450689D01*
X114073676Y-43450689D02*
X114294434Y-43539881D01*
X114294434Y-43539881D02*
X114400576Y-43531406D01*
X114400576Y-43531406D02*
X114462566Y-43505093D01*
X114462566Y-43505093D02*
X114542394Y-43434628D01*
X114542394Y-43434628D02*
X114649425Y-43169719D01*
X114649425Y-43169719D02*
X114640950Y-43063577D01*
X114640950Y-43063577D02*
X114614637Y-43001587D01*
X95889580Y-63908811D02*
X96198641Y-64033680D01*
X96198641Y-64033680D02*
X96460866Y-63384652D01*
X95333269Y-63684047D02*
X95704143Y-63833890D01*
X95518706Y-63758969D02*
X95780931Y-63109940D01*
X95780931Y-63109940D02*
X95805282Y-63227632D01*
X95805282Y-63227632D02*
X95842121Y-63314418D01*
X95842121Y-63314418D02*
X95891446Y-63370298D01*
X95379151Y-62947610D02*
X94977371Y-62785281D01*
X94977371Y-62785281D02*
X95093819Y-63119938D01*
X95093819Y-63119938D02*
X95001101Y-63082477D01*
X95001101Y-63082477D02*
X94926801Y-63088410D01*
X94926801Y-63088410D02*
X94883408Y-63106829D01*
X94883408Y-63106829D02*
X94827529Y-63156154D01*
X94827529Y-63156154D02*
X94765094Y-63310685D01*
X94765094Y-63310685D02*
X94771026Y-63384984D01*
X94771026Y-63384984D02*
X94789446Y-63428377D01*
X94789446Y-63428377D02*
X94838771Y-63484257D01*
X94838771Y-63484257D02*
X95024208Y-63559178D01*
X95024208Y-63559178D02*
X95098507Y-63553246D01*
X95098507Y-63553246D02*
X95141900Y-63534827D01*
X62265305Y-57935534D02*
X61299379Y-57676715D01*
X61299379Y-57676715D02*
X61237756Y-57906698D01*
X61237756Y-57906698D02*
X61246778Y-58057012D01*
X61246778Y-58057012D02*
X61314122Y-58173654D01*
X61314122Y-58173654D02*
X61393790Y-58244300D01*
X61393790Y-58244300D02*
X61565451Y-58339595D01*
X61565451Y-58339595D02*
X61703440Y-58376570D01*
X61703440Y-58376570D02*
X61899751Y-58379872D01*
X61899751Y-58379872D02*
X62004069Y-58358525D01*
X62004069Y-58358525D02*
X62120711Y-58291181D01*
X62120711Y-58291181D02*
X62203682Y-58165517D01*
X62203682Y-58165517D02*
X62265305Y-57935534D01*
X61870914Y-59407421D02*
X62018811Y-58855464D01*
X61944863Y-59131443D02*
X60978937Y-58872623D01*
X60978937Y-58872623D02*
X61141576Y-58817605D01*
X61141576Y-58817605D02*
X61258218Y-58750261D01*
X61258218Y-58750261D02*
X61328864Y-58670593D01*
X61624420Y-60327351D02*
X61772317Y-59775393D01*
X61698368Y-60051372D02*
X60732442Y-59792553D01*
X60732442Y-59792553D02*
X60895081Y-59737534D01*
X60895081Y-59737534D02*
X61011724Y-59670191D01*
X61011724Y-59670191D02*
X61082370Y-59590522D01*
X133831495Y-46545765D02*
X132904311Y-46171159D01*
X132904311Y-46171159D02*
X132815119Y-46391917D01*
X132815119Y-46391917D02*
X132805755Y-46542210D01*
X132805755Y-46542210D02*
X132858381Y-46666190D01*
X132858381Y-46666190D02*
X132928846Y-46746018D01*
X132928846Y-46746018D02*
X133087614Y-46861524D01*
X133087614Y-46861524D02*
X133220069Y-46915039D01*
X133220069Y-46915039D02*
X133414514Y-46942241D01*
X133414514Y-46942241D02*
X133520656Y-46933766D01*
X133520656Y-46933766D02*
X133644636Y-46881140D01*
X133644636Y-46881140D02*
X133742302Y-46766523D01*
X133742302Y-46766523D02*
X133831495Y-46545765D01*
X132565381Y-47010039D02*
X132315643Y-47628162D01*
X132315643Y-47628162D02*
X133403373Y-47605404D01*
X83252688Y-63136957D02*
X82301632Y-62827940D01*
X82301632Y-62827940D02*
X82228056Y-63054382D01*
X82228056Y-63054382D02*
X82229199Y-63204962D01*
X82229199Y-63204962D02*
X82290346Y-63324969D01*
X82290346Y-63324969D02*
X82366208Y-63399688D01*
X82366208Y-63399688D02*
X82532646Y-63503837D01*
X82532646Y-63503837D02*
X82668511Y-63547982D01*
X82668511Y-63547982D02*
X82864380Y-63561554D01*
X82864380Y-63561554D02*
X82969672Y-63545696D01*
X82969672Y-63545696D02*
X83089679Y-63484549D01*
X83089679Y-63484549D02*
X83179113Y-63363399D01*
X83179113Y-63363399D02*
X83252688Y-63136957D01*
X82781805Y-64586186D02*
X82958386Y-64042725D01*
X82870096Y-64314455D02*
X81919039Y-64005438D01*
X81919039Y-64005438D02*
X82084334Y-63959007D01*
X82084334Y-63959007D02*
X82204341Y-63897860D01*
X82204341Y-63897860D02*
X82279060Y-63821999D01*
X81727743Y-64594188D02*
X81521731Y-65228225D01*
X81521731Y-65228225D02*
X82605224Y-65129647D01*
X138042493Y-60393596D02*
X138351554Y-60518465D01*
X138351554Y-60518465D02*
X138613779Y-59869436D01*
X137795244Y-60293701D02*
X137671619Y-60243753D01*
X137671619Y-60243753D02*
X137622294Y-60187873D01*
X137622294Y-60187873D02*
X137603875Y-60144480D01*
X137603875Y-60144480D02*
X137579523Y-60026788D01*
X137579523Y-60026788D02*
X137598564Y-59890676D01*
X137598564Y-59890676D02*
X137698460Y-59643427D01*
X137698460Y-59643427D02*
X137754339Y-59594102D01*
X137754339Y-59594102D02*
X137797732Y-59575683D01*
X137797732Y-59575683D02*
X137872032Y-59569750D01*
X137872032Y-59569750D02*
X137995656Y-59619698D01*
X137995656Y-59619698D02*
X138044981Y-59675578D01*
X138044981Y-59675578D02*
X138063401Y-59718971D01*
X138063401Y-59718971D02*
X138069333Y-59793270D01*
X138069333Y-59793270D02*
X138006899Y-59947801D01*
X138006899Y-59947801D02*
X137951019Y-59997126D01*
X137951019Y-59997126D02*
X137907626Y-60015545D01*
X137907626Y-60015545D02*
X137833327Y-60021478D01*
X137833327Y-60021478D02*
X137709702Y-59971530D01*
X137709702Y-59971530D02*
X137660377Y-59915650D01*
X137660377Y-59915650D02*
X137641957Y-59872257D01*
X137641957Y-59872257D02*
X137636025Y-59797958D01*
X140615113Y-105769300D02*
X140924174Y-105894169D01*
X140924174Y-105894169D02*
X141186399Y-105245141D01*
X140295431Y-105136824D02*
X140120615Y-105569510D01*
X140549857Y-104952010D02*
X140517084Y-105478036D01*
X140517084Y-105478036D02*
X140115305Y-105315707D01*
X140104684Y-104808099D02*
X139702904Y-104645770D01*
X139702904Y-104645770D02*
X139819352Y-104980427D01*
X139819352Y-104980427D02*
X139726634Y-104942966D01*
X139726634Y-104942966D02*
X139652334Y-104948899D01*
X139652334Y-104948899D02*
X139608941Y-104967318D01*
X139608941Y-104967318D02*
X139553062Y-105016643D01*
X139553062Y-105016643D02*
X139490627Y-105171174D01*
X139490627Y-105171174D02*
X139496559Y-105245473D01*
X139496559Y-105245473D02*
X139514979Y-105288866D01*
X139514979Y-105288866D02*
X139564304Y-105344746D01*
X139564304Y-105344746D02*
X139749741Y-105419667D01*
X139749741Y-105419667D02*
X139824040Y-105413735D01*
X139824040Y-105413735D02*
X139867433Y-105395316D01*
X150367581Y-56470891D02*
X149440397Y-56096285D01*
X149440397Y-56096285D02*
X149351205Y-56317043D01*
X149351205Y-56317043D02*
X149341841Y-56467336D01*
X149341841Y-56467336D02*
X149394467Y-56591316D01*
X149394467Y-56591316D02*
X149464932Y-56671144D01*
X149464932Y-56671144D02*
X149623700Y-56786650D01*
X149623700Y-56786650D02*
X149756155Y-56840165D01*
X149756155Y-56840165D02*
X149950600Y-56867367D01*
X149950600Y-56867367D02*
X150056742Y-56858892D01*
X150056742Y-56858892D02*
X150180722Y-56806266D01*
X150180722Y-56806266D02*
X150278388Y-56691649D01*
X150278388Y-56691649D02*
X150367581Y-56470891D01*
X149975136Y-57442227D02*
X149903782Y-57618833D01*
X149903782Y-57618833D02*
X149823953Y-57689298D01*
X149823953Y-57689298D02*
X149761963Y-57715611D01*
X149761963Y-57715611D02*
X149593832Y-57750399D01*
X149593832Y-57750399D02*
X149399387Y-57723197D01*
X149399387Y-57723197D02*
X149046174Y-57580490D01*
X149046174Y-57580490D02*
X148975709Y-57500661D01*
X148975709Y-57500661D02*
X148949396Y-57438671D01*
X148949396Y-57438671D02*
X148940921Y-57332530D01*
X148940921Y-57332530D02*
X149012275Y-57155923D01*
X149012275Y-57155923D02*
X149092103Y-57085458D01*
X149092103Y-57085458D02*
X149154093Y-57059145D01*
X149154093Y-57059145D02*
X149260235Y-57050670D01*
X149260235Y-57050670D02*
X149480993Y-57139862D01*
X149480993Y-57139862D02*
X149551458Y-57219691D01*
X149551458Y-57219691D02*
X149577771Y-57281681D01*
X149577771Y-57281681D02*
X149586246Y-57387823D01*
X149586246Y-57387823D02*
X149514892Y-57564429D01*
X149514892Y-57564429D02*
X149435064Y-57634894D01*
X149435064Y-57634894D02*
X149373074Y-57661207D01*
X149373074Y-57661207D02*
X149266932Y-57669682D01*
X154887621Y-70443590D02*
X155196682Y-70568459D01*
X155196682Y-70568459D02*
X155458907Y-69919431D01*
X154331310Y-70218826D02*
X154702184Y-70368669D01*
X154516747Y-70293748D02*
X154778972Y-69644719D01*
X154778972Y-69644719D02*
X154803323Y-69762411D01*
X154803323Y-69762411D02*
X154840162Y-69849197D01*
X154840162Y-69849197D02*
X154889487Y-69905077D01*
X154022249Y-70093957D02*
X153898624Y-70044010D01*
X153898624Y-70044010D02*
X153849299Y-69988130D01*
X153849299Y-69988130D02*
X153830880Y-69944737D01*
X153830880Y-69944737D02*
X153806528Y-69827045D01*
X153806528Y-69827045D02*
X153825570Y-69690933D01*
X153825570Y-69690933D02*
X153925465Y-69443684D01*
X153925465Y-69443684D02*
X153981345Y-69394359D01*
X153981345Y-69394359D02*
X154024738Y-69375940D01*
X154024738Y-69375940D02*
X154099037Y-69370007D01*
X154099037Y-69370007D02*
X154222661Y-69419955D01*
X154222661Y-69419955D02*
X154271987Y-69475835D01*
X154271987Y-69475835D02*
X154290406Y-69519228D01*
X154290406Y-69519228D02*
X154296338Y-69593527D01*
X154296338Y-69593527D02*
X154233904Y-69748058D01*
X154233904Y-69748058D02*
X154178024Y-69797383D01*
X154178024Y-69797383D02*
X154134631Y-69815802D01*
X154134631Y-69815802D02*
X154060332Y-69821735D01*
X154060332Y-69821735D02*
X153936707Y-69771787D01*
X153936707Y-69771787D02*
X153887382Y-69715907D01*
X153887382Y-69715907D02*
X153868963Y-69672514D01*
X153868963Y-69672514D02*
X153863030Y-69598215D01*
X44076580Y-84647833D02*
X44124200Y-84600214D01*
X44124200Y-84600214D02*
X44171819Y-84457357D01*
X44171819Y-84457357D02*
X44171819Y-84362119D01*
X44171819Y-84362119D02*
X44124200Y-84219262D01*
X44124200Y-84219262D02*
X44028961Y-84124024D01*
X44028961Y-84124024D02*
X43933723Y-84076405D01*
X43933723Y-84076405D02*
X43743247Y-84028786D01*
X43743247Y-84028786D02*
X43600390Y-84028786D01*
X43600390Y-84028786D02*
X43409914Y-84076405D01*
X43409914Y-84076405D02*
X43314676Y-84124024D01*
X43314676Y-84124024D02*
X43219438Y-84219262D01*
X43219438Y-84219262D02*
X43171819Y-84362119D01*
X43171819Y-84362119D02*
X43171819Y-84457357D01*
X43171819Y-84457357D02*
X43219438Y-84600214D01*
X43219438Y-84600214D02*
X43267057Y-84647833D01*
X43171819Y-85504976D02*
X43171819Y-85314500D01*
X43171819Y-85314500D02*
X43219438Y-85219262D01*
X43219438Y-85219262D02*
X43267057Y-85171643D01*
X43267057Y-85171643D02*
X43409914Y-85076405D01*
X43409914Y-85076405D02*
X43600390Y-85028786D01*
X43600390Y-85028786D02*
X43981342Y-85028786D01*
X43981342Y-85028786D02*
X44076580Y-85076405D01*
X44076580Y-85076405D02*
X44124200Y-85124024D01*
X44124200Y-85124024D02*
X44171819Y-85219262D01*
X44171819Y-85219262D02*
X44171819Y-85409738D01*
X44171819Y-85409738D02*
X44124200Y-85504976D01*
X44124200Y-85504976D02*
X44076580Y-85552595D01*
X44076580Y-85552595D02*
X43981342Y-85600214D01*
X43981342Y-85600214D02*
X43743247Y-85600214D01*
X43743247Y-85600214D02*
X43648009Y-85552595D01*
X43648009Y-85552595D02*
X43600390Y-85504976D01*
X43600390Y-85504976D02*
X43552771Y-85409738D01*
X43552771Y-85409738D02*
X43552771Y-85219262D01*
X43552771Y-85219262D02*
X43600390Y-85124024D01*
X43600390Y-85124024D02*
X43648009Y-85076405D01*
X43648009Y-85076405D02*
X43743247Y-85028786D01*
X143409701Y-73692230D02*
X142482517Y-73317623D01*
X142482517Y-73317623D02*
X142393325Y-73538381D01*
X142393325Y-73538381D02*
X142383961Y-73688674D01*
X142383961Y-73688674D02*
X142436588Y-73812654D01*
X142436588Y-73812654D02*
X142507053Y-73892483D01*
X142507053Y-73892483D02*
X142665821Y-74007988D01*
X142665821Y-74007988D02*
X142798275Y-74061503D01*
X142798275Y-74061503D02*
X142992720Y-74088705D01*
X142992720Y-74088705D02*
X143098862Y-74080230D01*
X143098862Y-74080230D02*
X143222842Y-74027604D01*
X143222842Y-74027604D02*
X143320509Y-73912988D01*
X143320509Y-73912988D02*
X143409701Y-73692230D01*
X142214052Y-74236332D02*
X142152062Y-74262645D01*
X142152062Y-74262645D02*
X142072234Y-74333110D01*
X142072234Y-74333110D02*
X141983042Y-74553868D01*
X141983042Y-74553868D02*
X141991516Y-74660010D01*
X141991516Y-74660010D02*
X142017830Y-74722000D01*
X142017830Y-74722000D02*
X142088294Y-74801828D01*
X142088294Y-74801828D02*
X142176598Y-74837505D01*
X142176598Y-74837505D02*
X142326891Y-74846869D01*
X142326891Y-74846869D02*
X143070771Y-74531110D01*
X143070771Y-74531110D02*
X142838872Y-75105081D01*
X142482104Y-75988113D02*
X142696164Y-75458294D01*
X142589134Y-75723204D02*
X141661950Y-75348597D01*
X141661950Y-75348597D02*
X141830082Y-75313809D01*
X141830082Y-75313809D02*
X141954062Y-75261183D01*
X141954062Y-75261183D02*
X142033890Y-75190718D01*
X55317399Y-45390125D02*
X55639374Y-45476398D01*
X55639374Y-45476398D02*
X55820547Y-44800250D01*
X54737843Y-45234833D02*
X55124213Y-45338361D01*
X54931028Y-45286597D02*
X55112201Y-44610449D01*
X55112201Y-44610449D02*
X55150715Y-44724296D01*
X55150715Y-44724296D02*
X55197855Y-44805946D01*
X55197855Y-44805946D02*
X55253623Y-44855398D01*
X119737371Y-81429959D02*
X118810187Y-81055352D01*
X118810187Y-81055352D02*
X118720995Y-81276110D01*
X118720995Y-81276110D02*
X118711631Y-81426403D01*
X118711631Y-81426403D02*
X118764258Y-81550383D01*
X118764258Y-81550383D02*
X118834723Y-81630212D01*
X118834723Y-81630212D02*
X118993491Y-81745717D01*
X118993491Y-81745717D02*
X119125945Y-81799232D01*
X119125945Y-81799232D02*
X119320390Y-81826434D01*
X119320390Y-81826434D02*
X119426532Y-81817959D01*
X119426532Y-81817959D02*
X119550512Y-81765333D01*
X119550512Y-81765333D02*
X119648179Y-81650717D01*
X119648179Y-81650717D02*
X119737371Y-81429959D01*
X118541722Y-81974061D02*
X118479732Y-82000374D01*
X118479732Y-82000374D02*
X118399904Y-82070839D01*
X118399904Y-82070839D02*
X118310712Y-82291597D01*
X118310712Y-82291597D02*
X118319186Y-82397739D01*
X118319186Y-82397739D02*
X118345500Y-82459729D01*
X118345500Y-82459729D02*
X118415964Y-82539557D01*
X118415964Y-82539557D02*
X118504268Y-82575234D01*
X118504268Y-82575234D02*
X118654561Y-82584598D01*
X118654561Y-82584598D02*
X119398441Y-82268839D01*
X119398441Y-82268839D02*
X119166542Y-82842810D01*
X118114489Y-82777265D02*
X117864751Y-83395387D01*
X117864751Y-83395387D02*
X118952481Y-83372630D01*
X133478850Y-123432156D02*
X133787911Y-123557025D01*
X133787911Y-123557025D02*
X134050136Y-122907997D01*
X133159168Y-122799680D02*
X132984352Y-123232366D01*
X133413594Y-122614866D02*
X133380821Y-123140892D01*
X133380821Y-123140892D02*
X132979042Y-122978563D01*
X132968421Y-122470955D02*
X132535735Y-122296139D01*
X132535735Y-122296139D02*
X132551666Y-123057550D01*
X67072560Y-39994610D02*
X66106634Y-39735790D01*
X66106634Y-39735790D02*
X66045011Y-39965773D01*
X66045011Y-39965773D02*
X66054033Y-40116087D01*
X66054033Y-40116087D02*
X66121376Y-40232729D01*
X66121376Y-40232729D02*
X66201045Y-40303375D01*
X66201045Y-40303375D02*
X66372706Y-40398671D01*
X66372706Y-40398671D02*
X66510695Y-40435645D01*
X66510695Y-40435645D02*
X66707006Y-40438947D01*
X66707006Y-40438947D02*
X66811323Y-40417600D01*
X66811323Y-40417600D02*
X66927966Y-40350257D01*
X66927966Y-40350257D02*
X67010936Y-40224592D01*
X67010936Y-40224592D02*
X67072560Y-39994610D01*
X66678169Y-41466497D02*
X66826066Y-40914539D01*
X66752117Y-41190518D02*
X65786191Y-40931699D01*
X65786191Y-40931699D02*
X65948830Y-40876680D01*
X65948830Y-40876680D02*
X66065473Y-40809336D01*
X66065473Y-40809336D02*
X66136119Y-40729668D01*
X167082032Y-65954501D02*
X166154848Y-65579894D01*
X166154848Y-65579894D02*
X166065656Y-65800652D01*
X166065656Y-65800652D02*
X166056292Y-65950945D01*
X166056292Y-65950945D02*
X166108919Y-66074925D01*
X166108919Y-66074925D02*
X166179384Y-66154754D01*
X166179384Y-66154754D02*
X166338152Y-66270259D01*
X166338152Y-66270259D02*
X166470606Y-66323774D01*
X166470606Y-66323774D02*
X166665051Y-66350976D01*
X166665051Y-66350976D02*
X166771193Y-66342501D01*
X166771193Y-66342501D02*
X166895173Y-66289875D01*
X166895173Y-66289875D02*
X166992840Y-66175259D01*
X166992840Y-66175259D02*
X167082032Y-65954501D01*
X166511203Y-67367352D02*
X166725264Y-66837533D01*
X166618233Y-67102442D02*
X165691049Y-66727836D01*
X165691049Y-66727836D02*
X165859181Y-66693048D01*
X165859181Y-66693048D02*
X165983161Y-66640421D01*
X165983161Y-66640421D02*
X166062989Y-66569957D01*
X166332819Y-67808868D02*
X166261465Y-67985475D01*
X166261465Y-67985475D02*
X166181637Y-68055940D01*
X166181637Y-68055940D02*
X166119647Y-68082253D01*
X166119647Y-68082253D02*
X165951515Y-68117041D01*
X165951515Y-68117041D02*
X165757070Y-68089839D01*
X165757070Y-68089839D02*
X165403857Y-67947131D01*
X165403857Y-67947131D02*
X165333392Y-67867303D01*
X165333392Y-67867303D02*
X165307079Y-67805313D01*
X165307079Y-67805313D02*
X165298604Y-67699171D01*
X165298604Y-67699171D02*
X165369958Y-67522565D01*
X165369958Y-67522565D02*
X165449786Y-67452100D01*
X165449786Y-67452100D02*
X165511776Y-67425787D01*
X165511776Y-67425787D02*
X165617918Y-67417312D01*
X165617918Y-67417312D02*
X165838676Y-67506504D01*
X165838676Y-67506504D02*
X165909141Y-67586333D01*
X165909141Y-67586333D02*
X165935454Y-67648323D01*
X165935454Y-67648323D02*
X165943929Y-67754464D01*
X165943929Y-67754464D02*
X165872575Y-67931071D01*
X165872575Y-67931071D02*
X165792747Y-68001536D01*
X165792747Y-68001536D02*
X165730757Y-68027849D01*
X165730757Y-68027849D02*
X165624615Y-68036324D01*
X71401125Y-68465752D02*
X71718144Y-68568757D01*
X71718144Y-68568757D02*
X71934456Y-67903018D01*
X70830491Y-68280341D02*
X71210914Y-68403948D01*
X71020702Y-68342145D02*
X71237014Y-67676405D01*
X71237014Y-67676405D02*
X71269516Y-67792112D01*
X71269516Y-67792112D02*
X71312319Y-67876117D01*
X71312319Y-67876117D02*
X71365422Y-67928420D01*
X70824889Y-67542498D02*
X70381063Y-67398290D01*
X70381063Y-67398290D02*
X70450068Y-68156735D01*
X45778370Y-82278178D02*
X46100345Y-82364451D01*
X46100345Y-82364451D02*
X46281518Y-81688303D01*
X45749103Y-81614661D02*
X45725533Y-81573836D01*
X45725533Y-81573836D02*
X45669765Y-81524384D01*
X45669765Y-81524384D02*
X45508777Y-81481247D01*
X45508777Y-81481247D02*
X45435755Y-81496190D01*
X45435755Y-81496190D02*
X45394930Y-81519761D01*
X45394930Y-81519761D02*
X45345478Y-81575528D01*
X45345478Y-81575528D02*
X45328223Y-81639923D01*
X45328223Y-81639923D02*
X45334539Y-81745143D01*
X45334539Y-81745143D02*
X45617382Y-82235041D01*
X45617382Y-82235041D02*
X45198814Y-82122886D01*
X44768234Y-81282819D02*
X45090209Y-81369092D01*
X45090209Y-81369092D02*
X45036134Y-81699695D01*
X45036134Y-81699695D02*
X45012563Y-81658870D01*
X45012563Y-81658870D02*
X44956796Y-81609418D01*
X44956796Y-81609418D02*
X44795808Y-81566282D01*
X44795808Y-81566282D02*
X44722786Y-81581224D01*
X44722786Y-81581224D02*
X44681961Y-81604795D01*
X44681961Y-81604795D02*
X44632509Y-81660562D01*
X44632509Y-81660562D02*
X44589372Y-81821550D01*
X44589372Y-81821550D02*
X44604315Y-81894572D01*
X44604315Y-81894572D02*
X44627885Y-81935397D01*
X44627885Y-81935397D02*
X44683653Y-81984849D01*
X44683653Y-81984849D02*
X44844641Y-82027986D01*
X44844641Y-82027986D02*
X44917663Y-82013043D01*
X44917663Y-82013043D02*
X44958488Y-81989473D01*
X112089645Y-142767445D02*
X112414435Y-142842429D01*
X112414435Y-142842429D02*
X112571901Y-142160370D01*
X111694967Y-141957914D02*
X112019757Y-142032897D01*
X112019757Y-142032897D02*
X111977253Y-142365186D01*
X111977253Y-142365186D02*
X111952272Y-142325208D01*
X111952272Y-142325208D02*
X111894812Y-142277732D01*
X111894812Y-142277732D02*
X111732417Y-142240241D01*
X111732417Y-142240241D02*
X111659961Y-142257723D01*
X111659961Y-142257723D02*
X111619984Y-142282704D01*
X111619984Y-142282704D02*
X111572508Y-142340163D01*
X111572508Y-142340163D02*
X111535016Y-142502558D01*
X111535016Y-142502558D02*
X111552498Y-142575015D01*
X111552498Y-142575015D02*
X111577479Y-142614992D01*
X111577479Y-142614992D02*
X111634939Y-142662468D01*
X111634939Y-142662468D02*
X111797334Y-142699960D01*
X111797334Y-142699960D02*
X111869790Y-142682477D01*
X111869790Y-142682477D02*
X111909767Y-142657497D01*
X110855442Y-142482507D02*
X111245190Y-142572487D01*
X111050316Y-142527497D02*
X111207782Y-141845438D01*
X111207782Y-141845438D02*
X111250245Y-141957872D01*
X111250245Y-141957872D02*
X111300206Y-142037826D01*
X111300206Y-142037826D02*
X111357666Y-142085302D01*
X41409580Y-85790833D02*
X41457200Y-85743214D01*
X41457200Y-85743214D02*
X41504819Y-85600357D01*
X41504819Y-85600357D02*
X41504819Y-85505119D01*
X41504819Y-85505119D02*
X41457200Y-85362262D01*
X41457200Y-85362262D02*
X41361961Y-85267024D01*
X41361961Y-85267024D02*
X41266723Y-85219405D01*
X41266723Y-85219405D02*
X41076247Y-85171786D01*
X41076247Y-85171786D02*
X40933390Y-85171786D01*
X40933390Y-85171786D02*
X40742914Y-85219405D01*
X40742914Y-85219405D02*
X40647676Y-85267024D01*
X40647676Y-85267024D02*
X40552438Y-85362262D01*
X40552438Y-85362262D02*
X40504819Y-85505119D01*
X40504819Y-85505119D02*
X40504819Y-85600357D01*
X40504819Y-85600357D02*
X40552438Y-85743214D01*
X40552438Y-85743214D02*
X40600057Y-85790833D01*
X40504819Y-86695595D02*
X40504819Y-86219405D01*
X40504819Y-86219405D02*
X40981009Y-86171786D01*
X40981009Y-86171786D02*
X40933390Y-86219405D01*
X40933390Y-86219405D02*
X40885771Y-86314643D01*
X40885771Y-86314643D02*
X40885771Y-86552738D01*
X40885771Y-86552738D02*
X40933390Y-86647976D01*
X40933390Y-86647976D02*
X40981009Y-86695595D01*
X40981009Y-86695595D02*
X41076247Y-86743214D01*
X41076247Y-86743214D02*
X41314342Y-86743214D01*
X41314342Y-86743214D02*
X41409580Y-86695595D01*
X41409580Y-86695595D02*
X41457200Y-86647976D01*
X41457200Y-86647976D02*
X41504819Y-86552738D01*
X41504819Y-86552738D02*
X41504819Y-86314643D01*
X41504819Y-86314643D02*
X41457200Y-86219405D01*
X41457200Y-86219405D02*
X41409580Y-86171786D01*
X159945768Y-83617356D02*
X159018584Y-83242749D01*
X159018584Y-83242749D02*
X158929392Y-83463507D01*
X158929392Y-83463507D02*
X158920028Y-83613800D01*
X158920028Y-83613800D02*
X158972655Y-83737780D01*
X158972655Y-83737780D02*
X159043120Y-83817609D01*
X159043120Y-83817609D02*
X159201888Y-83933114D01*
X159201888Y-83933114D02*
X159334342Y-83986629D01*
X159334342Y-83986629D02*
X159528787Y-84013831D01*
X159528787Y-84013831D02*
X159634929Y-84005356D01*
X159634929Y-84005356D02*
X159758909Y-83952730D01*
X159758909Y-83952730D02*
X159856576Y-83838114D01*
X159856576Y-83838114D02*
X159945768Y-83617356D01*
X158679654Y-84081630D02*
X158447755Y-84655601D01*
X158447755Y-84655601D02*
X158925837Y-84489247D01*
X158925837Y-84489247D02*
X158872321Y-84621701D01*
X158872321Y-84621701D02*
X158880796Y-84727843D01*
X158880796Y-84727843D02*
X158907109Y-84789833D01*
X158907109Y-84789833D02*
X158977574Y-84869661D01*
X158977574Y-84869661D02*
X159198332Y-84958854D01*
X159198332Y-84958854D02*
X159304474Y-84950379D01*
X159304474Y-84950379D02*
X159366464Y-84924066D01*
X159366464Y-84924066D02*
X159446292Y-84853601D01*
X159446292Y-84853601D02*
X159553323Y-84588691D01*
X159553323Y-84588691D02*
X159544848Y-84482549D01*
X159544848Y-84482549D02*
X159518535Y-84420559D01*
X159018171Y-85913239D02*
X159232231Y-85383420D01*
X159125201Y-85648330D02*
X158198017Y-85273723D01*
X158198017Y-85273723D02*
X158366149Y-85238935D01*
X158366149Y-85238935D02*
X158490129Y-85186309D01*
X158490129Y-85186309D02*
X158569957Y-85115844D01*
X145673261Y-118943067D02*
X144746077Y-118568460D01*
X144746077Y-118568460D02*
X144656885Y-118789218D01*
X144656885Y-118789218D02*
X144647521Y-118939511D01*
X144647521Y-118939511D02*
X144700148Y-119063491D01*
X144700148Y-119063491D02*
X144770613Y-119143320D01*
X144770613Y-119143320D02*
X144929381Y-119258825D01*
X144929381Y-119258825D02*
X145061835Y-119312340D01*
X145061835Y-119312340D02*
X145256280Y-119339542D01*
X145256280Y-119339542D02*
X145362422Y-119331067D01*
X145362422Y-119331067D02*
X145486402Y-119278441D01*
X145486402Y-119278441D02*
X145584069Y-119163825D01*
X145584069Y-119163825D02*
X145673261Y-118943067D01*
X144519986Y-120017877D02*
X145138109Y-120267615D01*
X144255965Y-119654412D02*
X145007431Y-119701230D01*
X145007431Y-119701230D02*
X144775532Y-120275201D01*
X144050379Y-120290373D02*
X143800641Y-120908495D01*
X143800641Y-120908495D02*
X144888371Y-120885738D01*
X129137194Y-109017940D02*
X128210010Y-108643333D01*
X128210010Y-108643333D02*
X128120818Y-108864091D01*
X128120818Y-108864091D02*
X128111454Y-109014384D01*
X128111454Y-109014384D02*
X128164081Y-109138364D01*
X128164081Y-109138364D02*
X128234546Y-109218193D01*
X128234546Y-109218193D02*
X128393314Y-109333698D01*
X128393314Y-109333698D02*
X128525768Y-109387213D01*
X128525768Y-109387213D02*
X128720213Y-109414415D01*
X128720213Y-109414415D02*
X128826355Y-109405940D01*
X128826355Y-109405940D02*
X128950335Y-109353314D01*
X128950335Y-109353314D02*
X129048002Y-109238698D01*
X129048002Y-109238698D02*
X129137194Y-109017940D01*
X127983919Y-110092750D02*
X128602042Y-110342488D01*
X127719898Y-109729285D02*
X128471364Y-109776103D01*
X128471364Y-109776103D02*
X128239465Y-110350074D01*
X127300251Y-110895065D02*
X127478635Y-110453549D01*
X127478635Y-110453549D02*
X127937990Y-110587782D01*
X127937990Y-110587782D02*
X127876000Y-110614095D01*
X127876000Y-110614095D02*
X127796171Y-110684560D01*
X127796171Y-110684560D02*
X127706979Y-110905318D01*
X127706979Y-110905318D02*
X127715454Y-111011459D01*
X127715454Y-111011459D02*
X127741767Y-111073449D01*
X127741767Y-111073449D02*
X127812232Y-111153278D01*
X127812232Y-111153278D02*
X128032990Y-111242470D01*
X128032990Y-111242470D02*
X128139132Y-111233995D01*
X128139132Y-111233995D02*
X128201122Y-111207682D01*
X128201122Y-111207682D02*
X128280950Y-111137217D01*
X128280950Y-111137217D02*
X128370142Y-110916459D01*
X128370142Y-110916459D02*
X128361667Y-110810317D01*
X128361667Y-110810317D02*
X128335354Y-110748327D01*
X48775580Y-65978833D02*
X48823200Y-65931214D01*
X48823200Y-65931214D02*
X48870819Y-65788357D01*
X48870819Y-65788357D02*
X48870819Y-65693119D01*
X48870819Y-65693119D02*
X48823200Y-65550262D01*
X48823200Y-65550262D02*
X48727961Y-65455024D01*
X48727961Y-65455024D02*
X48632723Y-65407405D01*
X48632723Y-65407405D02*
X48442247Y-65359786D01*
X48442247Y-65359786D02*
X48299390Y-65359786D01*
X48299390Y-65359786D02*
X48108914Y-65407405D01*
X48108914Y-65407405D02*
X48013676Y-65455024D01*
X48013676Y-65455024D02*
X47918438Y-65550262D01*
X47918438Y-65550262D02*
X47870819Y-65693119D01*
X47870819Y-65693119D02*
X47870819Y-65788357D01*
X47870819Y-65788357D02*
X47918438Y-65931214D01*
X47918438Y-65931214D02*
X47966057Y-65978833D01*
X48204152Y-66835976D02*
X48870819Y-66835976D01*
X47823200Y-66597881D02*
X48537485Y-66359786D01*
X48537485Y-66359786D02*
X48537485Y-66978833D01*
X102716782Y-46121088D02*
X103025843Y-46245957D01*
X103025843Y-46245957D02*
X103288068Y-45596928D01*
X102824476Y-45409624D02*
X102422696Y-45247295D01*
X102422696Y-45247295D02*
X102539144Y-45581952D01*
X102539144Y-45581952D02*
X102446426Y-45544492D01*
X102446426Y-45544492D02*
X102372126Y-45550424D01*
X102372126Y-45550424D02*
X102328733Y-45568843D01*
X102328733Y-45568843D02*
X102272853Y-45618168D01*
X102272853Y-45618168D02*
X102210419Y-45772699D01*
X102210419Y-45772699D02*
X102216351Y-45846998D01*
X102216351Y-45846998D02*
X102234771Y-45890391D01*
X102234771Y-45890391D02*
X102284096Y-45946271D01*
X102284096Y-45946271D02*
X102469533Y-46021193D01*
X102469533Y-46021193D02*
X102543832Y-46015260D01*
X102543832Y-46015260D02*
X102587225Y-45996841D01*
X76970881Y-50245129D02*
X77287900Y-50348135D01*
X77287900Y-50348135D02*
X77504211Y-49682395D01*
X76648260Y-49404280D02*
X76965279Y-49507286D01*
X76965279Y-49507286D02*
X76893975Y-49834605D01*
X76893975Y-49834605D02*
X76872574Y-49792602D01*
X76872574Y-49792602D02*
X76819471Y-49740299D01*
X76819471Y-49740299D02*
X76660961Y-49688797D01*
X76660961Y-49688797D02*
X76587257Y-49699897D01*
X76587257Y-49699897D02*
X76545255Y-49721299D01*
X76545255Y-49721299D02*
X76492952Y-49774402D01*
X76492952Y-49774402D02*
X76441449Y-49932911D01*
X76441449Y-49932911D02*
X76452550Y-50006616D01*
X76452550Y-50006616D02*
X76473951Y-50048618D01*
X76473951Y-50048618D02*
X76527054Y-50100921D01*
X76527054Y-50100921D02*
X76685563Y-50152424D01*
X76685563Y-50152424D02*
X76759268Y-50141323D01*
X76759268Y-50141323D02*
X76801270Y-50119922D01*
X147751357Y-88106445D02*
X148060418Y-88231314D01*
X148060418Y-88231314D02*
X148322643Y-87582286D01*
X147859051Y-87394982D02*
X147457271Y-87232653D01*
X147457271Y-87232653D02*
X147573719Y-87567310D01*
X147573719Y-87567310D02*
X147481000Y-87529849D01*
X147481000Y-87529849D02*
X147406701Y-87535782D01*
X147406701Y-87535782D02*
X147363308Y-87554201D01*
X147363308Y-87554201D02*
X147307428Y-87603526D01*
X147307428Y-87603526D02*
X147244994Y-87758057D01*
X147244994Y-87758057D02*
X147250926Y-87832356D01*
X147250926Y-87832356D02*
X147269346Y-87875749D01*
X147269346Y-87875749D02*
X147318671Y-87931629D01*
X147318671Y-87931629D02*
X147504108Y-88006550D01*
X147504108Y-88006550D02*
X147578407Y-88000618D01*
X147578407Y-88000618D02*
X147621800Y-87982199D01*
X146576924Y-87631944D02*
X146947797Y-87781786D01*
X146762360Y-87706865D02*
X147024585Y-87057836D01*
X147024585Y-87057836D02*
X147048937Y-87175528D01*
X147048937Y-87175528D02*
X147085775Y-87262314D01*
X147085775Y-87262314D02*
X147135100Y-87318194D01*
X136273438Y-91355085D02*
X135346254Y-90980478D01*
X135346254Y-90980478D02*
X135257062Y-91201236D01*
X135257062Y-91201236D02*
X135247698Y-91351529D01*
X135247698Y-91351529D02*
X135300325Y-91475509D01*
X135300325Y-91475509D02*
X135370790Y-91555338D01*
X135370790Y-91555338D02*
X135529558Y-91670843D01*
X135529558Y-91670843D02*
X135662012Y-91724358D01*
X135662012Y-91724358D02*
X135856457Y-91751560D01*
X135856457Y-91751560D02*
X135962599Y-91743085D01*
X135962599Y-91743085D02*
X136086579Y-91690459D01*
X136086579Y-91690459D02*
X136184246Y-91575843D01*
X136184246Y-91575843D02*
X136273438Y-91355085D01*
X135007324Y-91819359D02*
X134775425Y-92393330D01*
X134775425Y-92393330D02*
X135253507Y-92226976D01*
X135253507Y-92226976D02*
X135199991Y-92359430D01*
X135199991Y-92359430D02*
X135208466Y-92465572D01*
X135208466Y-92465572D02*
X135234779Y-92527562D01*
X135234779Y-92527562D02*
X135305244Y-92607390D01*
X135305244Y-92607390D02*
X135526002Y-92696583D01*
X135526002Y-92696583D02*
X135632144Y-92688108D01*
X135632144Y-92688108D02*
X135694134Y-92661795D01*
X135694134Y-92661795D02*
X135773962Y-92591330D01*
X135773962Y-92591330D02*
X135880993Y-92326420D01*
X135880993Y-92326420D02*
X135872518Y-92220278D01*
X135872518Y-92220278D02*
X135846205Y-92158288D01*
X134650556Y-92702391D02*
X134418657Y-93276362D01*
X134418657Y-93276362D02*
X134896738Y-93110008D01*
X134896738Y-93110008D02*
X134843223Y-93242463D01*
X134843223Y-93242463D02*
X134851698Y-93348604D01*
X134851698Y-93348604D02*
X134878011Y-93410594D01*
X134878011Y-93410594D02*
X134948476Y-93490423D01*
X134948476Y-93490423D02*
X135169234Y-93579615D01*
X135169234Y-93579615D02*
X135275376Y-93571140D01*
X135275376Y-93571140D02*
X135337366Y-93544827D01*
X135337366Y-93544827D02*
X135417194Y-93474362D01*
X135417194Y-93474362D02*
X135524225Y-93209452D01*
X135524225Y-93209452D02*
X135515750Y-93103311D01*
X135515750Y-93103311D02*
X135489437Y-93041321D01*
X57334803Y-76336424D02*
X56368877Y-76077605D01*
X56368877Y-76077605D02*
X56307254Y-76307588D01*
X56307254Y-76307588D02*
X56316276Y-76457902D01*
X56316276Y-76457902D02*
X56383620Y-76574544D01*
X56383620Y-76574544D02*
X56463288Y-76645190D01*
X56463288Y-76645190D02*
X56634949Y-76740485D01*
X56634949Y-76740485D02*
X56772938Y-76777460D01*
X56772938Y-76777460D02*
X56969249Y-76780762D01*
X56969249Y-76780762D02*
X57073567Y-76759415D01*
X57073567Y-76759415D02*
X57190209Y-76692071D01*
X57190209Y-76692071D02*
X57273180Y-76566407D01*
X57273180Y-76566407D02*
X57334803Y-76336424D01*
X56214376Y-77022184D02*
X56156055Y-77055856D01*
X56156055Y-77055856D02*
X56085409Y-77135524D01*
X56085409Y-77135524D02*
X56023785Y-77365506D01*
X56023785Y-77365506D02*
X56045132Y-77469824D01*
X56045132Y-77469824D02*
X56078804Y-77528145D01*
X56078804Y-77528145D02*
X56158472Y-77598791D01*
X56158472Y-77598791D02*
X56250465Y-77623441D01*
X56250465Y-77623441D02*
X56400779Y-77614418D01*
X56400779Y-77614418D02*
X57100634Y-77210357D01*
X57100634Y-77210357D02*
X56940412Y-77808311D01*
X55740317Y-78423425D02*
X55863564Y-77963461D01*
X55863564Y-77963461D02*
X56335853Y-78040711D01*
X56335853Y-78040711D02*
X56277532Y-78074383D01*
X56277532Y-78074383D02*
X56206886Y-78154051D01*
X56206886Y-78154051D02*
X56145263Y-78384034D01*
X56145263Y-78384034D02*
X56166610Y-78488351D01*
X56166610Y-78488351D02*
X56200282Y-78546672D01*
X56200282Y-78546672D02*
X56279950Y-78617318D01*
X56279950Y-78617318D02*
X56509932Y-78678942D01*
X56509932Y-78678942D02*
X56614250Y-78657595D01*
X56614250Y-78657595D02*
X56672571Y-78623923D01*
X56672571Y-78623923D02*
X56743217Y-78544255D01*
X56743217Y-78544255D02*
X56804840Y-78314273D01*
X56804840Y-78314273D02*
X56783493Y-78209955D01*
X56783493Y-78209955D02*
X56749822Y-78151634D01*
X124079027Y-95844174D02*
X124388088Y-95969043D01*
X124388088Y-95969043D02*
X124650313Y-95320015D01*
X124186721Y-95132711D02*
X123784941Y-94970382D01*
X123784941Y-94970382D02*
X123901389Y-95305039D01*
X123901389Y-95305039D02*
X123808670Y-95267578D01*
X123808670Y-95267578D02*
X123734371Y-95273511D01*
X123734371Y-95273511D02*
X123690978Y-95291930D01*
X123690978Y-95291930D02*
X123635098Y-95341255D01*
X123635098Y-95341255D02*
X123572664Y-95495786D01*
X123572664Y-95495786D02*
X123578596Y-95570085D01*
X123578596Y-95570085D02*
X123597016Y-95613478D01*
X123597016Y-95613478D02*
X123646341Y-95669358D01*
X123646341Y-95669358D02*
X123831778Y-95744279D01*
X123831778Y-95744279D02*
X123906077Y-95738347D01*
X123906077Y-95738347D02*
X123949470Y-95719928D01*
X123568598Y-94882973D02*
X123166818Y-94720644D01*
X123166818Y-94720644D02*
X123283266Y-95055301D01*
X123283266Y-95055301D02*
X123190548Y-95017840D01*
X123190548Y-95017840D02*
X123116248Y-95023773D01*
X123116248Y-95023773D02*
X123072855Y-95042192D01*
X123072855Y-95042192D02*
X123016976Y-95091517D01*
X123016976Y-95091517D02*
X122954541Y-95246048D01*
X122954541Y-95246048D02*
X122960473Y-95320347D01*
X122960473Y-95320347D02*
X122978893Y-95363740D01*
X122978893Y-95363740D02*
X123028218Y-95419620D01*
X123028218Y-95419620D02*
X123213655Y-95494541D01*
X123213655Y-95494541D02*
X123287954Y-95488609D01*
X123287954Y-95488609D02*
X123331347Y-95470190D01*
X93811483Y-94745433D02*
X92884299Y-94370826D01*
X92884299Y-94370826D02*
X92795107Y-94591584D01*
X92795107Y-94591584D02*
X92785743Y-94741877D01*
X92785743Y-94741877D02*
X92838370Y-94865857D01*
X92838370Y-94865857D02*
X92908835Y-94945686D01*
X92908835Y-94945686D02*
X93067603Y-95061191D01*
X93067603Y-95061191D02*
X93200057Y-95114706D01*
X93200057Y-95114706D02*
X93394502Y-95141908D01*
X93394502Y-95141908D02*
X93500644Y-95133433D01*
X93500644Y-95133433D02*
X93624624Y-95080807D01*
X93624624Y-95080807D02*
X93722291Y-94966191D01*
X93722291Y-94966191D02*
X93811483Y-94745433D01*
X92545369Y-95209707D02*
X92313470Y-95783678D01*
X92313470Y-95783678D02*
X92791552Y-95617324D01*
X92791552Y-95617324D02*
X92738036Y-95749778D01*
X92738036Y-95749778D02*
X92746511Y-95855920D01*
X92746511Y-95855920D02*
X92772824Y-95917910D01*
X92772824Y-95917910D02*
X92843289Y-95997738D01*
X92843289Y-95997738D02*
X93064047Y-96086931D01*
X93064047Y-96086931D02*
X93170189Y-96078456D01*
X93170189Y-96078456D02*
X93232179Y-96052143D01*
X93232179Y-96052143D02*
X93312007Y-95981678D01*
X93312007Y-95981678D02*
X93419038Y-95716768D01*
X93419038Y-95716768D02*
X93410563Y-95610626D01*
X93410563Y-95610626D02*
X93384250Y-95548636D01*
X91974540Y-96622558D02*
X92152924Y-96181042D01*
X92152924Y-96181042D02*
X92612279Y-96315275D01*
X92612279Y-96315275D02*
X92550289Y-96341588D01*
X92550289Y-96341588D02*
X92470460Y-96412053D01*
X92470460Y-96412053D02*
X92381268Y-96632811D01*
X92381268Y-96632811D02*
X92389743Y-96738952D01*
X92389743Y-96738952D02*
X92416056Y-96800942D01*
X92416056Y-96800942D02*
X92486521Y-96880771D01*
X92486521Y-96880771D02*
X92707279Y-96969963D01*
X92707279Y-96969963D02*
X92813421Y-96961488D01*
X92813421Y-96961488D02*
X92875411Y-96935175D01*
X92875411Y-96935175D02*
X92955239Y-96864710D01*
X92955239Y-96864710D02*
X93044431Y-96643952D01*
X93044431Y-96643952D02*
X93035956Y-96537810D01*
X93035956Y-96537810D02*
X93009643Y-96475820D01*
X45981580Y-66359833D02*
X46029200Y-66312214D01*
X46029200Y-66312214D02*
X46076819Y-66169357D01*
X46076819Y-66169357D02*
X46076819Y-66074119D01*
X46076819Y-66074119D02*
X46029200Y-65931262D01*
X46029200Y-65931262D02*
X45933961Y-65836024D01*
X45933961Y-65836024D02*
X45838723Y-65788405D01*
X45838723Y-65788405D02*
X45648247Y-65740786D01*
X45648247Y-65740786D02*
X45505390Y-65740786D01*
X45505390Y-65740786D02*
X45314914Y-65788405D01*
X45314914Y-65788405D02*
X45219676Y-65836024D01*
X45219676Y-65836024D02*
X45124438Y-65931262D01*
X45124438Y-65931262D02*
X45076819Y-66074119D01*
X45076819Y-66074119D02*
X45076819Y-66169357D01*
X45076819Y-66169357D02*
X45124438Y-66312214D01*
X45124438Y-66312214D02*
X45172057Y-66359833D01*
X45076819Y-66693167D02*
X45076819Y-67312214D01*
X45076819Y-67312214D02*
X45457771Y-66978881D01*
X45457771Y-66978881D02*
X45457771Y-67121738D01*
X45457771Y-67121738D02*
X45505390Y-67216976D01*
X45505390Y-67216976D02*
X45553009Y-67264595D01*
X45553009Y-67264595D02*
X45648247Y-67312214D01*
X45648247Y-67312214D02*
X45886342Y-67312214D01*
X45886342Y-67312214D02*
X45981580Y-67264595D01*
X45981580Y-67264595D02*
X46029200Y-67216976D01*
X46029200Y-67216976D02*
X46076819Y-67121738D01*
X46076819Y-67121738D02*
X46076819Y-66836024D01*
X46076819Y-66836024D02*
X46029200Y-66740786D01*
X46029200Y-66740786D02*
X45981580Y-66693167D01*
X95531791Y-135214004D02*
X95503331Y-135275038D01*
X95503331Y-135275038D02*
X95507443Y-135425567D01*
X95507443Y-135425567D02*
X95540017Y-135515061D01*
X95540017Y-135515061D02*
X95633624Y-135633017D01*
X95633624Y-135633017D02*
X95755692Y-135689938D01*
X95755692Y-135689938D02*
X95861473Y-135702112D01*
X95861473Y-135702112D02*
X96056749Y-135681712D01*
X96056749Y-135681712D02*
X96190991Y-135632852D01*
X96190991Y-135632852D02*
X96353693Y-135522958D01*
X96353693Y-135522958D02*
X96426901Y-135445638D01*
X96426901Y-135445638D02*
X96483822Y-135323570D01*
X96483822Y-135323570D02*
X96479709Y-135173041D01*
X96479709Y-135173041D02*
X96447136Y-135083547D01*
X96447136Y-135083547D02*
X96353529Y-134965592D01*
X96353529Y-134965592D02*
X96292495Y-134937131D01*
X95279430Y-134799105D02*
X95214283Y-134620116D01*
X95214283Y-134620116D02*
X95226457Y-134514335D01*
X95226457Y-134514335D02*
X95254918Y-134453301D01*
X95254918Y-134453301D02*
X95356586Y-134314946D01*
X95356586Y-134314946D02*
X95519289Y-134205052D01*
X95519289Y-134205052D02*
X95877267Y-134074759D01*
X95877267Y-134074759D02*
X95983048Y-134086933D01*
X95983048Y-134086933D02*
X96044082Y-134115393D01*
X96044082Y-134115393D02*
X96121402Y-134188601D01*
X96121402Y-134188601D02*
X96186549Y-134367590D01*
X96186549Y-134367590D02*
X96174375Y-134473372D01*
X96174375Y-134473372D02*
X96145915Y-134534406D01*
X96145915Y-134534406D02*
X96072707Y-134611726D01*
X96072707Y-134611726D02*
X95848970Y-134693160D01*
X95848970Y-134693160D02*
X95743189Y-134680986D01*
X95743189Y-134680986D02*
X95682155Y-134652525D01*
X95682155Y-134652525D02*
X95604835Y-134579317D01*
X95604835Y-134579317D02*
X95539688Y-134400328D01*
X95539688Y-134400328D02*
X95551862Y-134294547D01*
X95551862Y-134294547D02*
X95580322Y-134233513D01*
X95580322Y-134233513D02*
X95653530Y-134156192D01*
X53855580Y-47204333D02*
X53903200Y-47156714D01*
X53903200Y-47156714D02*
X53950819Y-47013857D01*
X53950819Y-47013857D02*
X53950819Y-46918619D01*
X53950819Y-46918619D02*
X53903200Y-46775762D01*
X53903200Y-46775762D02*
X53807961Y-46680524D01*
X53807961Y-46680524D02*
X53712723Y-46632905D01*
X53712723Y-46632905D02*
X53522247Y-46585286D01*
X53522247Y-46585286D02*
X53379390Y-46585286D01*
X53379390Y-46585286D02*
X53188914Y-46632905D01*
X53188914Y-46632905D02*
X53093676Y-46680524D01*
X53093676Y-46680524D02*
X52998438Y-46775762D01*
X52998438Y-46775762D02*
X52950819Y-46918619D01*
X52950819Y-46918619D02*
X52950819Y-47013857D01*
X52950819Y-47013857D02*
X52998438Y-47156714D01*
X52998438Y-47156714D02*
X53046057Y-47204333D01*
X53046057Y-47585286D02*
X52998438Y-47632905D01*
X52998438Y-47632905D02*
X52950819Y-47728143D01*
X52950819Y-47728143D02*
X52950819Y-47966238D01*
X52950819Y-47966238D02*
X52998438Y-48061476D01*
X52998438Y-48061476D02*
X53046057Y-48109095D01*
X53046057Y-48109095D02*
X53141295Y-48156714D01*
X53141295Y-48156714D02*
X53236533Y-48156714D01*
X53236533Y-48156714D02*
X53379390Y-48109095D01*
X53379390Y-48109095D02*
X53950819Y-47537667D01*
X53950819Y-47537667D02*
X53950819Y-48156714D01*
X37345580Y-100438833D02*
X37393200Y-100391214D01*
X37393200Y-100391214D02*
X37440819Y-100248357D01*
X37440819Y-100248357D02*
X37440819Y-100153119D01*
X37440819Y-100153119D02*
X37393200Y-100010262D01*
X37393200Y-100010262D02*
X37297961Y-99915024D01*
X37297961Y-99915024D02*
X37202723Y-99867405D01*
X37202723Y-99867405D02*
X37012247Y-99819786D01*
X37012247Y-99819786D02*
X36869390Y-99819786D01*
X36869390Y-99819786D02*
X36678914Y-99867405D01*
X36678914Y-99867405D02*
X36583676Y-99915024D01*
X36583676Y-99915024D02*
X36488438Y-100010262D01*
X36488438Y-100010262D02*
X36440819Y-100153119D01*
X36440819Y-100153119D02*
X36440819Y-100248357D01*
X36440819Y-100248357D02*
X36488438Y-100391214D01*
X36488438Y-100391214D02*
X36536057Y-100438833D01*
X36869390Y-101010262D02*
X36821771Y-100915024D01*
X36821771Y-100915024D02*
X36774152Y-100867405D01*
X36774152Y-100867405D02*
X36678914Y-100819786D01*
X36678914Y-100819786D02*
X36631295Y-100819786D01*
X36631295Y-100819786D02*
X36536057Y-100867405D01*
X36536057Y-100867405D02*
X36488438Y-100915024D01*
X36488438Y-100915024D02*
X36440819Y-101010262D01*
X36440819Y-101010262D02*
X36440819Y-101200738D01*
X36440819Y-101200738D02*
X36488438Y-101295976D01*
X36488438Y-101295976D02*
X36536057Y-101343595D01*
X36536057Y-101343595D02*
X36631295Y-101391214D01*
X36631295Y-101391214D02*
X36678914Y-101391214D01*
X36678914Y-101391214D02*
X36774152Y-101343595D01*
X36774152Y-101343595D02*
X36821771Y-101295976D01*
X36821771Y-101295976D02*
X36869390Y-101200738D01*
X36869390Y-101200738D02*
X36869390Y-101010262D01*
X36869390Y-101010262D02*
X36917009Y-100915024D01*
X36917009Y-100915024D02*
X36964628Y-100867405D01*
X36964628Y-100867405D02*
X37059866Y-100819786D01*
X37059866Y-100819786D02*
X37250342Y-100819786D01*
X37250342Y-100819786D02*
X37345580Y-100867405D01*
X37345580Y-100867405D02*
X37393200Y-100915024D01*
X37393200Y-100915024D02*
X37440819Y-101010262D01*
X37440819Y-101010262D02*
X37440819Y-101200738D01*
X37440819Y-101200738D02*
X37393200Y-101295976D01*
X37393200Y-101295976D02*
X37345580Y-101343595D01*
X37345580Y-101343595D02*
X37250342Y-101391214D01*
X37250342Y-101391214D02*
X37059866Y-101391214D01*
X37059866Y-101391214D02*
X36964628Y-101343595D01*
X36964628Y-101343595D02*
X36917009Y-101295976D01*
X36917009Y-101295976D02*
X36869390Y-101200738D01*
X116942783Y-113507029D02*
X117251844Y-113631898D01*
X117251844Y-113631898D02*
X117514069Y-112982870D01*
X116623101Y-112874553D02*
X116448285Y-113307239D01*
X116877527Y-112689739D02*
X116844754Y-113215765D01*
X116844754Y-113215765D02*
X116442975Y-113053436D01*
X116061480Y-112395986D02*
X116370542Y-112520855D01*
X116370542Y-112520855D02*
X116276579Y-112842403D01*
X116276579Y-112842403D02*
X116258160Y-112799010D01*
X116258160Y-112799010D02*
X116208834Y-112743130D01*
X116208834Y-112743130D02*
X116054304Y-112680695D01*
X116054304Y-112680695D02*
X115980004Y-112686628D01*
X115980004Y-112686628D02*
X115936611Y-112705047D01*
X115936611Y-112705047D02*
X115880732Y-112754372D01*
X115880732Y-112754372D02*
X115818297Y-112908903D01*
X115818297Y-112908903D02*
X115824229Y-112983202D01*
X115824229Y-112983202D02*
X115842649Y-113026595D01*
X115842649Y-113026595D02*
X115891974Y-113082475D01*
X115891974Y-113082475D02*
X116046505Y-113144910D01*
X116046505Y-113144910D02*
X116120804Y-113138977D01*
X116120804Y-113138977D02*
X116164197Y-113120558D01*
X121506407Y-50468470D02*
X121815468Y-50593339D01*
X121815468Y-50593339D02*
X122077693Y-49944310D01*
X121614101Y-49757006D02*
X121181415Y-49582190D01*
X121181415Y-49582190D02*
X121197345Y-50343601D01*
X126873616Y-63767104D02*
X125946432Y-63392497D01*
X125946432Y-63392497D02*
X125857240Y-63613255D01*
X125857240Y-63613255D02*
X125847876Y-63763548D01*
X125847876Y-63763548D02*
X125900503Y-63887528D01*
X125900503Y-63887528D02*
X125970968Y-63967357D01*
X125970968Y-63967357D02*
X126129736Y-64082862D01*
X126129736Y-64082862D02*
X126262190Y-64136377D01*
X126262190Y-64136377D02*
X126456635Y-64163579D01*
X126456635Y-64163579D02*
X126562777Y-64155104D01*
X126562777Y-64155104D02*
X126686757Y-64102478D01*
X126686757Y-64102478D02*
X126784424Y-63987862D01*
X126784424Y-63987862D02*
X126873616Y-63767104D01*
X126302787Y-65179955D02*
X126516848Y-64650136D01*
X126409817Y-64915045D02*
X125482633Y-64540439D01*
X125482633Y-64540439D02*
X125650765Y-64505651D01*
X125650765Y-64505651D02*
X125774745Y-64453024D01*
X125774745Y-64453024D02*
X125854573Y-64382560D01*
X125036673Y-65644229D02*
X125215057Y-65202713D01*
X125215057Y-65202713D02*
X125674412Y-65336946D01*
X125674412Y-65336946D02*
X125612422Y-65363259D01*
X125612422Y-65363259D02*
X125532593Y-65433724D01*
X125532593Y-65433724D02*
X125443401Y-65654482D01*
X125443401Y-65654482D02*
X125451876Y-65760623D01*
X125451876Y-65760623D02*
X125478189Y-65822613D01*
X125478189Y-65822613D02*
X125548654Y-65902442D01*
X125548654Y-65902442D02*
X125769412Y-65991634D01*
X125769412Y-65991634D02*
X125875554Y-65983159D01*
X125875554Y-65983159D02*
X125937544Y-65956846D01*
X125937544Y-65956846D02*
X126017372Y-65886381D01*
X126017372Y-65886381D02*
X126106564Y-65665623D01*
X126106564Y-65665623D02*
X126098089Y-65559481D01*
X126098089Y-65559481D02*
X126071776Y-65497491D01*
X107542960Y-85919048D02*
X107852021Y-86043917D01*
X107852021Y-86043917D02*
X108114246Y-85394889D01*
X107594774Y-85256911D02*
X107576355Y-85213518D01*
X107576355Y-85213518D02*
X107527029Y-85157638D01*
X107527029Y-85157638D02*
X107372499Y-85095203D01*
X107372499Y-85095203D02*
X107298199Y-85101136D01*
X107298199Y-85101136D02*
X107254806Y-85119555D01*
X107254806Y-85119555D02*
X107198927Y-85168880D01*
X107198927Y-85168880D02*
X107173953Y-85230692D01*
X107173953Y-85230692D02*
X107167398Y-85335898D01*
X107167398Y-85335898D02*
X107388429Y-85856614D01*
X107388429Y-85856614D02*
X106986649Y-85694284D01*
X107032531Y-84957847D02*
X106599845Y-84783031D01*
X106599845Y-84783031D02*
X106615776Y-85544442D01*
X104762705Y-129070025D02*
X103823012Y-128728005D01*
X103823012Y-128728005D02*
X103741579Y-128951742D01*
X103741579Y-128951742D02*
X103737466Y-129102270D01*
X103737466Y-129102270D02*
X103794387Y-129224338D01*
X103794387Y-129224338D02*
X103867595Y-129301659D01*
X103867595Y-129301659D02*
X104030297Y-129411553D01*
X104030297Y-129411553D02*
X104164539Y-129460413D01*
X104164539Y-129460413D02*
X104359815Y-129480812D01*
X104359815Y-129480812D02*
X104465596Y-129468638D01*
X104465596Y-129468638D02*
X104587664Y-129411717D01*
X104587664Y-129411717D02*
X104681271Y-129293762D01*
X104681271Y-129293762D02*
X104762705Y-129070025D01*
X103647643Y-130184430D02*
X104274105Y-130412443D01*
X103371098Y-129830400D02*
X104123740Y-129850964D01*
X104123740Y-129850964D02*
X103912014Y-130432679D01*
X104078664Y-130949411D02*
X104013518Y-131128400D01*
X104013518Y-131128400D02*
X103936197Y-131201608D01*
X103936197Y-131201608D02*
X103875163Y-131230068D01*
X103875163Y-131230068D02*
X103708348Y-131270703D01*
X103708348Y-131270703D02*
X103513072Y-131250303D01*
X103513072Y-131250303D02*
X103155094Y-131120010D01*
X103155094Y-131120010D02*
X103081886Y-131042689D01*
X103081886Y-131042689D02*
X103053426Y-130981655D01*
X103053426Y-130981655D02*
X103041252Y-130875874D01*
X103041252Y-130875874D02*
X103106399Y-130696885D01*
X103106399Y-130696885D02*
X103183719Y-130623677D01*
X103183719Y-130623677D02*
X103244753Y-130595217D01*
X103244753Y-130595217D02*
X103350534Y-130583043D01*
X103350534Y-130583043D02*
X103574271Y-130664476D01*
X103574271Y-130664476D02*
X103647478Y-130741797D01*
X103647478Y-130741797D02*
X103675939Y-130802831D01*
X103675939Y-130802831D02*
X103688113Y-130908612D01*
X103688113Y-130908612D02*
X103622966Y-131087601D01*
X103622966Y-131087601D02*
X103545646Y-131160809D01*
X103545646Y-131160809D02*
X103484612Y-131189269D01*
X103484612Y-131189269D02*
X103378831Y-131201443D01*
X123431673Y-136425997D02*
X122457303Y-136201046D01*
X122457303Y-136201046D02*
X122403744Y-136433039D01*
X122403744Y-136433039D02*
X122418006Y-136582946D01*
X122418006Y-136582946D02*
X122489380Y-136697167D01*
X122489380Y-136697167D02*
X122571465Y-136764990D01*
X122571465Y-136764990D02*
X122746347Y-136854236D01*
X122746347Y-136854236D02*
X122885543Y-136886372D01*
X122885543Y-136886372D02*
X123081849Y-136882821D01*
X123081849Y-136882821D02*
X123185358Y-136857847D01*
X123185358Y-136857847D02*
X123299579Y-136786473D01*
X123299579Y-136786473D02*
X123378114Y-136657990D01*
X123378114Y-136657990D02*
X123431673Y-136425997D01*
X122125233Y-137639402D02*
X122232352Y-137175416D01*
X122232352Y-137175416D02*
X122707050Y-137236137D01*
X122707050Y-137236137D02*
X122649939Y-137271823D01*
X122649939Y-137271823D02*
X122582117Y-137353909D01*
X122582117Y-137353909D02*
X122528557Y-137585901D01*
X122528557Y-137585901D02*
X122553532Y-137689411D01*
X122553532Y-137689411D02*
X122589219Y-137746521D01*
X122589219Y-137746521D02*
X122671304Y-137814344D01*
X122671304Y-137814344D02*
X122903297Y-137867903D01*
X122903297Y-137867903D02*
X123006806Y-137842929D01*
X123006806Y-137842929D02*
X123063916Y-137807242D01*
X123063916Y-137807242D02*
X123131739Y-137725157D01*
X123131739Y-137725157D02*
X123185298Y-137493164D01*
X123185298Y-137493164D02*
X123160324Y-137389655D01*
X123160324Y-137389655D02*
X123124637Y-137332544D01*
X122874652Y-138838723D02*
X123003195Y-138281940D01*
X122938923Y-138560331D02*
X121964553Y-138335380D01*
X121964553Y-138335380D02*
X122125173Y-138274719D01*
X122125173Y-138274719D02*
X122239394Y-138203346D01*
X122239394Y-138203346D02*
X122307217Y-138121261D01*
X100406697Y-103581903D02*
X100715758Y-103706772D01*
X100715758Y-103706772D02*
X100977983Y-103057744D01*
X100514391Y-102870440D02*
X100112611Y-102708111D01*
X100112611Y-102708111D02*
X100229059Y-103042768D01*
X100229059Y-103042768D02*
X100136340Y-103005307D01*
X100136340Y-103005307D02*
X100062041Y-103011240D01*
X100062041Y-103011240D02*
X100018648Y-103029659D01*
X100018648Y-103029659D02*
X99962768Y-103078984D01*
X99962768Y-103078984D02*
X99900334Y-103233515D01*
X99900334Y-103233515D02*
X99906266Y-103307814D01*
X99906266Y-103307814D02*
X99924686Y-103351207D01*
X99924686Y-103351207D02*
X99974011Y-103407087D01*
X99974011Y-103407087D02*
X100159448Y-103482008D01*
X100159448Y-103482008D02*
X100233747Y-103476076D01*
X100233747Y-103476076D02*
X100277140Y-103457657D01*
X99541325Y-103232270D02*
X99417700Y-103182323D01*
X99417700Y-103182323D02*
X99368375Y-103126443D01*
X99368375Y-103126443D02*
X99349956Y-103083050D01*
X99349956Y-103083050D02*
X99325604Y-102965358D01*
X99325604Y-102965358D02*
X99344646Y-102829246D01*
X99344646Y-102829246D02*
X99444541Y-102581997D01*
X99444541Y-102581997D02*
X99500421Y-102532672D01*
X99500421Y-102532672D02*
X99543814Y-102514253D01*
X99543814Y-102514253D02*
X99618113Y-102508320D01*
X99618113Y-102508320D02*
X99741737Y-102558268D01*
X99741737Y-102558268D02*
X99791063Y-102614148D01*
X99791063Y-102614148D02*
X99809482Y-102657541D01*
X99809482Y-102657541D02*
X99815414Y-102731840D01*
X99815414Y-102731840D02*
X99752980Y-102886371D01*
X99752980Y-102886371D02*
X99697100Y-102935696D01*
X99697100Y-102935696D02*
X99653707Y-102954115D01*
X99653707Y-102954115D02*
X99579408Y-102960048D01*
X99579408Y-102960048D02*
X99455783Y-102910100D01*
X99455783Y-102910100D02*
X99406458Y-102854220D01*
X99406458Y-102854220D02*
X99388039Y-102810827D01*
X99388039Y-102810827D02*
X99382106Y-102736528D01*
X34866582Y-99092962D02*
X34927616Y-99064502D01*
X34927616Y-99064502D02*
X35021223Y-98946547D01*
X35021223Y-98946547D02*
X35053797Y-98857052D01*
X35053797Y-98857052D02*
X35057910Y-98706524D01*
X35057910Y-98706524D02*
X35000988Y-98584456D01*
X35000988Y-98584456D02*
X34927781Y-98507135D01*
X34927781Y-98507135D02*
X34765078Y-98397241D01*
X34765078Y-98397241D02*
X34630836Y-98348381D01*
X34630836Y-98348381D02*
X34435561Y-98327982D01*
X34435561Y-98327982D02*
X34329779Y-98340156D01*
X34329779Y-98340156D02*
X34207712Y-98397077D01*
X34207712Y-98397077D02*
X34114104Y-98515032D01*
X34114104Y-98515032D02*
X34081531Y-98604527D01*
X34081531Y-98604527D02*
X34077418Y-98755055D01*
X34077418Y-98755055D02*
X34105879Y-98816089D01*
X33902377Y-99096747D02*
X33674364Y-99723208D01*
X33674364Y-99723208D02*
X34760637Y-99662503D01*
X52404301Y-94737315D02*
X51438375Y-94478496D01*
X51438375Y-94478496D02*
X51376752Y-94708479D01*
X51376752Y-94708479D02*
X51385774Y-94858793D01*
X51385774Y-94858793D02*
X51453118Y-94975435D01*
X51453118Y-94975435D02*
X51532786Y-95046081D01*
X51532786Y-95046081D02*
X51704447Y-95141376D01*
X51704447Y-95141376D02*
X51842436Y-95178351D01*
X51842436Y-95178351D02*
X52038747Y-95181653D01*
X52038747Y-95181653D02*
X52143065Y-95160306D01*
X52143065Y-95160306D02*
X52259707Y-95092962D01*
X52259707Y-95092962D02*
X52342678Y-94967298D01*
X52342678Y-94967298D02*
X52404301Y-94737315D01*
X51204206Y-95352429D02*
X51043984Y-95950383D01*
X51043984Y-95950383D02*
X51498229Y-95727006D01*
X51498229Y-95727006D02*
X51461255Y-95864995D01*
X51461255Y-95864995D02*
X51482602Y-95969313D01*
X51482602Y-95969313D02*
X51516274Y-96027634D01*
X51516274Y-96027634D02*
X51595942Y-96098280D01*
X51595942Y-96098280D02*
X51825924Y-96159903D01*
X51825924Y-96159903D02*
X51930242Y-96138556D01*
X51930242Y-96138556D02*
X51988563Y-96104885D01*
X51988563Y-96104885D02*
X52059209Y-96025216D01*
X52059209Y-96025216D02*
X52133157Y-95749238D01*
X52133157Y-95749238D02*
X52111810Y-95644920D01*
X52111810Y-95644920D02*
X52078139Y-95586599D01*
X50957711Y-96272359D02*
X50785165Y-96916309D01*
X50785165Y-96916309D02*
X51862014Y-96761160D01*
X77365914Y-81254593D02*
X76414858Y-80945576D01*
X76414858Y-80945576D02*
X76341282Y-81172018D01*
X76341282Y-81172018D02*
X76342425Y-81322598D01*
X76342425Y-81322598D02*
X76403572Y-81442605D01*
X76403572Y-81442605D02*
X76479434Y-81517324D01*
X76479434Y-81517324D02*
X76645872Y-81621473D01*
X76645872Y-81621473D02*
X76781737Y-81665618D01*
X76781737Y-81665618D02*
X76977606Y-81679190D01*
X76977606Y-81679190D02*
X77082898Y-81663332D01*
X77082898Y-81663332D02*
X77202905Y-81602185D01*
X77202905Y-81602185D02*
X77292339Y-81481035D01*
X77292339Y-81481035D02*
X77365914Y-81254593D01*
X76211132Y-81880774D02*
X76151129Y-81911348D01*
X76151129Y-81911348D02*
X76076410Y-81987209D01*
X76076410Y-81987209D02*
X76002835Y-82213651D01*
X76002835Y-82213651D02*
X76018693Y-82318943D01*
X76018693Y-82318943D02*
X76049266Y-82378947D01*
X76049266Y-82378947D02*
X76125128Y-82453665D01*
X76125128Y-82453665D02*
X76215705Y-82483095D01*
X76215705Y-82483095D02*
X76366285Y-82481952D01*
X76366285Y-82481952D02*
X77086327Y-82115073D01*
X77086327Y-82115073D02*
X76895031Y-82703822D01*
X76747880Y-83156706D02*
X76689020Y-83337860D01*
X76689020Y-83337860D02*
X76614301Y-83413721D01*
X76614301Y-83413721D02*
X76554298Y-83444295D01*
X76554298Y-83444295D02*
X76389002Y-83490726D01*
X76389002Y-83490726D02*
X76193133Y-83477154D01*
X76193133Y-83477154D02*
X75830826Y-83359433D01*
X75830826Y-83359433D02*
X75754964Y-83284715D01*
X75754964Y-83284715D02*
X75724391Y-83224711D01*
X75724391Y-83224711D02*
X75708533Y-83119419D01*
X75708533Y-83119419D02*
X75767393Y-82938266D01*
X75767393Y-82938266D02*
X75842112Y-82862404D01*
X75842112Y-82862404D02*
X75902115Y-82831831D01*
X75902115Y-82831831D02*
X76007407Y-82815973D01*
X76007407Y-82815973D02*
X76233849Y-82889548D01*
X76233849Y-82889548D02*
X76309711Y-82964267D01*
X76309711Y-82964267D02*
X76340284Y-83024270D01*
X76340284Y-83024270D02*
X76356143Y-83129562D01*
X76356143Y-83129562D02*
X76297282Y-83310716D01*
X76297282Y-83310716D02*
X76222564Y-83386577D01*
X76222564Y-83386577D02*
X76162560Y-83417151D01*
X76162560Y-83417151D02*
X76057268Y-83433009D01*
D11*
%TO.C,L41*%
X58286497Y-100252846D02*
X57715864Y-100067436D01*
X58471908Y-99682213D01*
X58286497Y-100252846D01*
G36*
X58286497Y-100252846D02*
G01*
X57715864Y-100067436D01*
X58471908Y-99682213D01*
X58286497Y-100252846D01*
G37*
D12*
X62116787Y-104838930D02*
X61660280Y-104690602D01*
X61990509Y-104450917D01*
X62116787Y-104838930D01*
G36*
X62116787Y-104838930D02*
G01*
X61660280Y-104690602D01*
X61990509Y-104450917D01*
X62116787Y-104838930D01*
G37*
%TO.C,D43*%
X148267322Y-103300034D02*
X150121687Y-104049246D01*
X149769494Y-99582025D02*
X148267322Y-103300034D01*
X151623862Y-100331239D02*
X150121687Y-104049246D01*
%TO.C,D5*%
X84749220Y-47351091D02*
X86651331Y-47969124D01*
X85988379Y-43537353D02*
X84749220Y-47351091D01*
X87890492Y-44155387D02*
X86651331Y-47969124D01*
%TO.C,C1*%
X48414000Y-47744748D02*
X48414000Y-48267252D01*
X49884000Y-47744748D02*
X49884000Y-48267252D01*
%TO.C,D41*%
X67088898Y-101703961D02*
X68991009Y-102321994D01*
X68328057Y-97890223D02*
X67088898Y-101703961D01*
X70230170Y-98508257D02*
X68991009Y-102321994D01*
%TO.C,D13*%
X103541788Y-61439544D02*
X105396155Y-62188757D01*
X105043960Y-57721537D02*
X103541788Y-61439544D01*
X106898328Y-58470750D02*
X105396155Y-62188757D01*
%TO.C,D39*%
X108058905Y-101112636D02*
X109913272Y-101861849D01*
X109561077Y-97394629D02*
X108058905Y-101112636D01*
X111415445Y-98143842D02*
X109913272Y-101861849D01*
D11*
%TO.C,L37*%
X39275827Y-96307194D02*
X38696271Y-96151903D01*
X39431118Y-95727638D01*
X39275827Y-96307194D01*
G36*
X39275827Y-96307194D02*
G01*
X38696271Y-96151903D01*
X39431118Y-95727638D01*
X39275827Y-96307194D01*
G37*
D12*
X43340885Y-100686531D02*
X42877240Y-100562297D01*
X43194473Y-100305658D01*
X43340885Y-100686531D01*
G36*
X43340885Y-100686531D02*
G01*
X42877240Y-100562297D01*
X43194473Y-100305658D01*
X43340885Y-100686531D01*
G37*
%TO.C,D23*%
X96405544Y-79102399D02*
X98259911Y-79851612D01*
X97907716Y-75384392D02*
X96405544Y-79102399D01*
X99762084Y-76133605D02*
X98259911Y-79851612D01*
D11*
%TO.C,L21*%
X130187765Y-73650448D02*
X129631454Y-73425684D01*
X130412529Y-73094138D01*
X130187765Y-73650448D01*
G36*
X130187765Y-73650448D02*
G01*
X129631454Y-73425684D01*
X130412529Y-73094138D01*
X130187765Y-73650448D01*
G37*
D12*
X133688815Y-78492548D02*
X133243767Y-78312737D01*
X133589910Y-78096671D01*
X133688815Y-78492548D01*
G36*
X133688815Y-78492548D02*
G01*
X133243767Y-78312737D01*
X133589910Y-78096671D01*
X133688815Y-78492548D01*
G37*
D11*
%TO.C,L29*%
X64173271Y-82135229D02*
X63602638Y-81949819D01*
X64358682Y-81564596D01*
X64173271Y-82135229D01*
G36*
X64173271Y-82135229D02*
G01*
X63602638Y-81949819D01*
X64358682Y-81564596D01*
X64173271Y-82135229D01*
G37*
D12*
X68003561Y-86721313D02*
X67547054Y-86572985D01*
X67877283Y-86333300D01*
X68003561Y-86721313D01*
G36*
X68003561Y-86721313D02*
G01*
X67547054Y-86572985D01*
X67877283Y-86333300D01*
X68003561Y-86721313D01*
G37*
D11*
%TO.C,L49*%
X91547366Y-129489707D02*
X90983550Y-129284497D01*
X91752578Y-128925893D01*
X91547366Y-129489707D01*
G36*
X91547366Y-129489707D02*
G01*
X90983550Y-129284497D01*
X91752578Y-128925893D01*
X91547366Y-129489707D01*
G37*
D12*
X95215270Y-134206674D02*
X94764218Y-134042503D01*
X95102610Y-133814491D01*
X95215270Y-134206674D01*
G36*
X95215270Y-134206674D02*
G01*
X94764218Y-134042503D01*
X95102610Y-133814491D01*
X95215270Y-134206674D01*
G37*
D11*
%TO.C,L23*%
X87725811Y-77040795D02*
X87169500Y-76816031D01*
X87950575Y-76484485D01*
X87725811Y-77040795D01*
G36*
X87725811Y-77040795D02*
G01*
X87169500Y-76816031D01*
X87950575Y-76484485D01*
X87725811Y-77040795D01*
G37*
D12*
X91226861Y-81882895D02*
X90781813Y-81703084D01*
X91127956Y-81487018D01*
X91226861Y-81882895D01*
G36*
X91226861Y-81882895D02*
G01*
X90781813Y-81703084D01*
X91127956Y-81487018D01*
X91226861Y-81882895D01*
G37*
D11*
%TO.C,L35*%
X80589547Y-94703651D02*
X80033236Y-94478887D01*
X80814311Y-94147341D01*
X80589547Y-94703651D01*
G36*
X80589547Y-94703651D02*
G01*
X80033236Y-94478887D01*
X80814311Y-94147341D01*
X80589547Y-94703651D01*
G37*
D12*
X84090597Y-99545751D02*
X83645549Y-99365940D01*
X83991692Y-99149874D01*
X84090597Y-99545751D01*
G36*
X84090597Y-99545751D02*
G01*
X83645549Y-99365940D01*
X83991692Y-99149874D01*
X84090597Y-99545751D01*
G37*
D11*
%TO.C,L11*%
X49136831Y-59505413D02*
X48557275Y-59350122D01*
X49292122Y-58925857D01*
X49136831Y-59505413D01*
G36*
X49136831Y-59505413D02*
G01*
X48557275Y-59350122D01*
X49292122Y-58925857D01*
X49136831Y-59505413D01*
G37*
D12*
X53201889Y-63884750D02*
X52738244Y-63760516D01*
X53055477Y-63503877D01*
X53201889Y-63884750D01*
G36*
X53201889Y-63884750D02*
G01*
X52738244Y-63760516D01*
X53055477Y-63503877D01*
X53201889Y-63884750D01*
G37*
D11*
%TO.C,L15*%
X113651680Y-63725322D02*
X113095369Y-63500558D01*
X113876444Y-63169012D01*
X113651680Y-63725322D01*
G36*
X113651680Y-63725322D02*
G01*
X113095369Y-63500558D01*
X113876444Y-63169012D01*
X113651680Y-63725322D01*
G37*
D12*
X117152730Y-68567422D02*
X116707682Y-68387611D01*
X117053825Y-68171545D01*
X117152730Y-68567422D01*
G36*
X117152730Y-68567422D02*
G01*
X116707682Y-68387611D01*
X117053825Y-68171545D01*
X117152730Y-68567422D01*
G37*
%TO.C,D3*%
X110678051Y-43776689D02*
X112532418Y-44525902D01*
X112180223Y-40058682D02*
X110678051Y-43776689D01*
X114034591Y-40807895D02*
X112532418Y-44525902D01*
D11*
%TO.C,L13*%
X94862055Y-59377940D02*
X94305744Y-59153176D01*
X95086819Y-58821630D01*
X94862055Y-59377940D01*
G36*
X94862055Y-59377940D02*
G01*
X94305744Y-59153176D01*
X95086819Y-58821630D01*
X94862055Y-59377940D01*
G37*
D12*
X98363105Y-64220040D02*
X97918057Y-64040229D01*
X98264200Y-63824163D01*
X98363105Y-64220040D01*
G36*
X98363105Y-64220040D02*
G01*
X97918057Y-64040229D01*
X98264200Y-63824163D01*
X98363105Y-64220040D01*
G37*
%TO.C,D11*%
X58003113Y-60493857D02*
X59934965Y-61011495D01*
X59040978Y-56620494D02*
X58003113Y-60493857D01*
X60972829Y-57138132D02*
X59934965Y-61011495D01*
%TO.C,D7*%
X129467676Y-48124071D02*
X131322043Y-48873284D01*
X130969848Y-44406064D02*
X129467676Y-48124071D01*
X132824216Y-45155277D02*
X131322043Y-48873284D01*
%TO.C,D17*%
X78862446Y-65468708D02*
X80764557Y-66086741D01*
X80101605Y-61654970D02*
X78862446Y-65468708D01*
X82003718Y-62273004D02*
X80764557Y-66086741D01*
D11*
%TO.C,L9*%
X137324029Y-55987593D02*
X136767718Y-55762829D01*
X137548793Y-55431283D01*
X137324029Y-55987593D01*
G36*
X137324029Y-55987593D02*
G01*
X136767718Y-55762829D01*
X137548793Y-55431283D01*
X137324029Y-55987593D01*
G37*
D12*
X140825079Y-60829693D02*
X140380031Y-60649882D01*
X140726174Y-60433816D01*
X140825079Y-60829693D01*
G36*
X140825079Y-60829693D02*
G01*
X140380031Y-60649882D01*
X140726174Y-60433816D01*
X140825079Y-60829693D01*
G37*
D11*
%TO.C,L43*%
X139587587Y-101238429D02*
X139031277Y-101013665D01*
X139812352Y-100682119D01*
X139587587Y-101238429D01*
G36*
X139587587Y-101238429D02*
G01*
X139031277Y-101013665D01*
X139812352Y-100682119D01*
X139587587Y-101238429D01*
G37*
D12*
X143088638Y-106080529D02*
X142643590Y-105900718D01*
X142989733Y-105684652D01*
X143088638Y-106080529D01*
G36*
X143088638Y-106080529D02*
G01*
X142643590Y-105900718D01*
X142989733Y-105684652D01*
X143088638Y-106080529D01*
G37*
%TO.C,D9*%
X146003762Y-58049197D02*
X147858129Y-58798410D01*
X147505934Y-54331190D02*
X146003762Y-58049197D01*
X149360302Y-55080403D02*
X147858129Y-58798410D01*
D11*
%TO.C,L19*%
X153860095Y-65912719D02*
X153303785Y-65687955D01*
X154084860Y-65356409D01*
X153860095Y-65912719D01*
G36*
X153860095Y-65912719D02*
G01*
X153303785Y-65687955D01*
X154084860Y-65356409D01*
X153860095Y-65912719D01*
G37*
D12*
X157361146Y-70754819D02*
X156916098Y-70575008D01*
X157262241Y-70358942D01*
X157361146Y-70754819D01*
G36*
X157361146Y-70754819D02*
G01*
X156916098Y-70575008D01*
X157262241Y-70358942D01*
X157361146Y-70754819D01*
G37*
%TO.C,C6*%
X41302000Y-84553248D02*
X41302000Y-85075752D01*
X42772000Y-84553248D02*
X42772000Y-85075752D01*
%TO.C,D21*%
X138867498Y-75712052D02*
X140721865Y-76461265D01*
X140369670Y-71994045D02*
X138867498Y-75712052D01*
X142224038Y-72743258D02*
X140721865Y-76461265D01*
D11*
%TO.C,L1*%
X54067333Y-41104523D02*
X53487777Y-40949232D01*
X54222624Y-40524967D01*
X54067333Y-41104523D01*
G36*
X54067333Y-41104523D02*
G01*
X53487777Y-40949232D01*
X54222624Y-40524967D01*
X54067333Y-41104523D01*
G37*
D12*
X58132391Y-45483860D02*
X57668746Y-45359626D01*
X57985979Y-45102987D01*
X58132391Y-45483860D01*
G36*
X58132391Y-45483860D02*
G01*
X57668746Y-45359626D01*
X57985979Y-45102987D01*
X58132391Y-45483860D01*
G37*
%TO.C,D27*%
X115195168Y-83449781D02*
X117049535Y-84198994D01*
X116697340Y-79731774D02*
X115195168Y-83449781D01*
X118551708Y-80480987D02*
X117049535Y-84198994D01*
D11*
%TO.C,L47*%
X132451324Y-118901285D02*
X131895014Y-118676521D01*
X132676089Y-118344975D01*
X132451324Y-118901285D01*
G36*
X132451324Y-118901285D02*
G01*
X131895014Y-118676521D01*
X132676089Y-118344975D01*
X132451324Y-118901285D01*
G37*
D12*
X135952375Y-123743385D02*
X135507327Y-123563574D01*
X135853470Y-123347508D01*
X135952375Y-123743385D01*
G36*
X135952375Y-123743385D02*
G01*
X135507327Y-123563574D01*
X135853470Y-123347508D01*
X135952375Y-123743385D01*
G37*
%TO.C,D1*%
X62933615Y-42092967D02*
X64865467Y-42610605D01*
X63971480Y-38219604D02*
X62933615Y-42092967D01*
X65903331Y-38737242D02*
X64865467Y-42610605D01*
%TO.C,D19*%
X162539830Y-67974324D02*
X164394195Y-68723536D01*
X164042002Y-64256315D02*
X162539830Y-67974324D01*
X165896370Y-65005529D02*
X164394195Y-68723536D01*
D11*
%TO.C,L17*%
X70060045Y-64017593D02*
X69489412Y-63832183D01*
X70245456Y-63446960D01*
X70060045Y-64017593D01*
G36*
X70060045Y-64017593D02*
G01*
X69489412Y-63832183D01*
X70245456Y-63446960D01*
X70060045Y-64017593D01*
G37*
D12*
X73890335Y-68603677D02*
X73433828Y-68455349D01*
X73764057Y-68215664D01*
X73890335Y-68603677D01*
G36*
X73890335Y-68603677D02*
G01*
X73433828Y-68455349D01*
X73764057Y-68215664D01*
X73890335Y-68603677D01*
G37*
D11*
%TO.C,L25*%
X44206329Y-77906303D02*
X43626773Y-77751012D01*
X44361620Y-77326747D01*
X44206329Y-77906303D01*
G36*
X44206329Y-77906303D02*
G01*
X43626773Y-77751012D01*
X44361620Y-77326747D01*
X44206329Y-77906303D01*
G37*
D12*
X48271387Y-82285640D02*
X47807742Y-82161406D01*
X48124975Y-81904767D01*
X48271387Y-82285640D01*
G36*
X48271387Y-82285640D02*
G01*
X47807742Y-82161406D01*
X48124975Y-81904767D01*
X48271387Y-82285640D01*
G37*
D11*
%TO.C,L51*%
X110365985Y-138453097D02*
X109781363Y-138318126D01*
X110500956Y-137868475D01*
X110365985Y-138453097D01*
G36*
X110365985Y-138453097D02*
G01*
X109781363Y-138318126D01*
X110500956Y-137868475D01*
X110365985Y-138453097D01*
G37*
D12*
X114581403Y-142687897D02*
X114113707Y-142579921D01*
X114421788Y-142312367D01*
X114581403Y-142687897D01*
G36*
X114581403Y-142687897D02*
G01*
X114113707Y-142579921D01*
X114421788Y-142312367D01*
X114581403Y-142687897D01*
G37*
%TO.C,C5*%
X38635000Y-85696248D02*
X38635000Y-86218752D01*
X40105000Y-85696248D02*
X40105000Y-86218752D01*
%TO.C,D31*%
X155403566Y-85637179D02*
X157257931Y-86386391D01*
X156905738Y-81919170D02*
X155403566Y-85637179D01*
X158760106Y-82668384D02*
X157257931Y-86386391D01*
%TO.C,D47*%
X141131059Y-120962890D02*
X142985424Y-121712102D01*
X142633231Y-117244881D02*
X141131059Y-120962890D01*
X144487599Y-117994095D02*
X142985424Y-121712102D01*
%TO.C,D45*%
X124594991Y-111037762D02*
X126449358Y-111786975D01*
X126097163Y-107319755D02*
X124594991Y-111037762D01*
X127951531Y-108068968D02*
X126449358Y-111786975D01*
%TO.C,C4*%
X46001000Y-65884248D02*
X46001000Y-66406752D01*
X47471000Y-65884248D02*
X47471000Y-66406752D01*
D11*
%TO.C,L3*%
X101998318Y-41715085D02*
X101442007Y-41490321D01*
X102223082Y-41158775D01*
X101998318Y-41715085D01*
G36*
X101998318Y-41715085D02*
G01*
X101442007Y-41490321D01*
X102223082Y-41158775D01*
X101998318Y-41715085D01*
G37*
D12*
X105499368Y-46557185D02*
X105054320Y-46377374D01*
X105400463Y-46161308D01*
X105499368Y-46557185D01*
G36*
X105499368Y-46557185D02*
G01*
X105054320Y-46377374D01*
X105400463Y-46161308D01*
X105499368Y-46557185D01*
G37*
D11*
%TO.C,L5*%
X75946819Y-45899976D02*
X75376186Y-45714566D01*
X76132230Y-45329343D01*
X75946819Y-45899976D01*
G36*
X75946819Y-45899976D02*
G01*
X75376186Y-45714566D01*
X76132230Y-45329343D01*
X75946819Y-45899976D01*
G37*
D12*
X79777109Y-50486060D02*
X79320602Y-50337732D01*
X79650831Y-50098047D01*
X79777109Y-50486060D01*
G36*
X79777109Y-50486060D02*
G01*
X79320602Y-50337732D01*
X79650831Y-50098047D01*
X79777109Y-50486060D01*
G37*
D11*
%TO.C,L31*%
X146723831Y-83575574D02*
X146167521Y-83350810D01*
X146948596Y-83019264D01*
X146723831Y-83575574D01*
G36*
X146723831Y-83575574D02*
G01*
X146167521Y-83350810D01*
X146948596Y-83019264D01*
X146723831Y-83575574D01*
G37*
D12*
X150224882Y-88417674D02*
X149779834Y-88237863D01*
X150125977Y-88021797D01*
X150224882Y-88417674D01*
G36*
X150224882Y-88417674D02*
G01*
X149779834Y-88237863D01*
X150125977Y-88021797D01*
X150224882Y-88417674D01*
G37*
%TO.C,D33*%
X131731235Y-93374907D02*
X133585602Y-94124120D01*
X133233407Y-89656900D02*
X131731235Y-93374907D01*
X135087775Y-90406113D02*
X133585602Y-94124120D01*
%TO.C,D25*%
X53072611Y-78894747D02*
X55004463Y-79412385D01*
X54110476Y-75021384D02*
X53072611Y-78894747D01*
X56042327Y-75539022D02*
X55004463Y-79412385D01*
D11*
%TO.C,L33*%
X123051502Y-91313303D02*
X122495191Y-91088539D01*
X123276266Y-90756993D01*
X123051502Y-91313303D01*
G36*
X123051502Y-91313303D02*
G01*
X122495191Y-91088539D01*
X123276266Y-90756993D01*
X123051502Y-91313303D01*
G37*
D12*
X126552552Y-96155403D02*
X126107504Y-95975592D01*
X126453647Y-95759526D01*
X126552552Y-96155403D01*
G36*
X126552552Y-96155403D02*
G01*
X126107504Y-95975592D01*
X126453647Y-95759526D01*
X126552552Y-96155403D01*
G37*
%TO.C,D35*%
X89269280Y-96765255D02*
X91123647Y-97514468D01*
X90771452Y-93047248D02*
X89269280Y-96765255D01*
X92625820Y-93796461D02*
X91123647Y-97514468D01*
%TO.C,C3*%
X43207000Y-66265248D02*
X43207000Y-66787752D01*
X44677000Y-66265248D02*
X44677000Y-66787752D01*
%TO.C,C9*%
X93453973Y-135514888D02*
X93632679Y-136005881D01*
X94835321Y-135012119D02*
X95014027Y-135503112D01*
%TO.C,C2*%
X51081000Y-47109748D02*
X51081000Y-47632252D01*
X52551000Y-47109748D02*
X52551000Y-47632252D01*
%TO.C,C8*%
X34571000Y-100344248D02*
X34571000Y-100866752D01*
X36041000Y-100344248D02*
X36041000Y-100866752D01*
D11*
%TO.C,L45*%
X115915258Y-108976158D02*
X115358947Y-108751394D01*
X116140022Y-108419848D01*
X115915258Y-108976158D01*
G36*
X115915258Y-108976158D02*
G01*
X115358947Y-108751394D01*
X116140022Y-108419848D01*
X115915258Y-108976158D01*
G37*
D12*
X119416308Y-113818258D02*
X118971260Y-113638447D01*
X119317403Y-113422381D01*
X119416308Y-113818258D01*
G36*
X119416308Y-113818258D02*
G01*
X118971260Y-113638447D01*
X119317403Y-113422381D01*
X119416308Y-113818258D01*
G37*
D11*
%TO.C,L7*%
X120787943Y-46062467D02*
X120231632Y-45837703D01*
X121012707Y-45506157D01*
X120787943Y-46062467D01*
G36*
X120787943Y-46062467D02*
G01*
X120231632Y-45837703D01*
X121012707Y-45506157D01*
X120787943Y-46062467D01*
G37*
D12*
X124288993Y-50904567D02*
X123843945Y-50724756D01*
X124190088Y-50508690D01*
X124288993Y-50904567D01*
G36*
X124288993Y-50904567D02*
G01*
X123843945Y-50724756D01*
X124190088Y-50508690D01*
X124288993Y-50904567D01*
G37*
%TO.C,D15*%
X122331413Y-65786926D02*
X124185780Y-66536139D01*
X123833585Y-62068919D02*
X122331413Y-65786926D01*
X125687953Y-62818132D02*
X124185780Y-66536139D01*
D11*
%TO.C,L27*%
X106515435Y-81388177D02*
X105959124Y-81163413D01*
X106740199Y-80831867D01*
X106515435Y-81388177D01*
G36*
X106515435Y-81388177D02*
G01*
X105959124Y-81163413D01*
X106740199Y-80831867D01*
X106515435Y-81388177D01*
G37*
D12*
X110016485Y-86230277D02*
X109571437Y-86050466D01*
X109917580Y-85834400D01*
X110016485Y-86230277D01*
G36*
X110016485Y-86230277D02*
G01*
X109571437Y-86050466D01*
X109917580Y-85834400D01*
X110016485Y-86230277D01*
G37*
%TO.C,D49*%
X100293760Y-131247138D02*
X102173144Y-131931178D01*
X101665262Y-127478970D02*
X100293760Y-131247138D01*
X103544647Y-128163012D02*
X102173144Y-131931178D01*
%TO.C,D51*%
X119261362Y-139131511D02*
X121210103Y-139581411D01*
X120163417Y-135224286D02*
X119261362Y-139131511D01*
X122112156Y-135674187D02*
X121210103Y-139581411D01*
D11*
%TO.C,L39*%
X99379172Y-99051032D02*
X98822861Y-98826268D01*
X99603936Y-98494722D01*
X99379172Y-99051032D01*
G36*
X99379172Y-99051032D02*
G01*
X98822861Y-98826268D01*
X99603936Y-98494722D01*
X99379172Y-99051032D01*
G37*
D12*
X102880222Y-103893132D02*
X102435174Y-103713321D01*
X102781317Y-103497255D01*
X102880222Y-103893132D01*
G36*
X102880222Y-103893132D02*
G01*
X102435174Y-103713321D01*
X102781317Y-103497255D01*
X102880222Y-103893132D01*
G37*
%TO.C,C7*%
X32291678Y-98055118D02*
X32112972Y-98546110D01*
X33673028Y-98557890D02*
X33494322Y-99048882D01*
%TO.C,D37*%
X48142109Y-97295638D02*
X50073961Y-97813276D01*
X49179974Y-93422275D02*
X48142109Y-97295638D01*
X51111825Y-93939913D02*
X50073961Y-97813276D01*
%TO.C,D29*%
X72975672Y-83586344D02*
X74877783Y-84204377D01*
X74214831Y-79772606D02*
X72975672Y-83586344D01*
X76116944Y-80390640D02*
X74877783Y-84204377D01*
%TD*%
M02*
