%TF.GenerationSoftware,KiCad,Pcbnew,9.0.5*%
%TF.CreationDate,2025-10-09T16:25:36-06:00*%
%TF.ProjectId,ergo-kola (left),6572676f-2d6b-46f6-9c61-20286c656674,rev?*%
%TF.SameCoordinates,Original*%
%TF.FileFunction,Paste,Bot*%
%TF.FilePolarity,Positive*%
%FSLAX46Y46*%
G04 Gerber Fmt 4.6, Leading zero omitted, Abs format (unit mm)*
G04 Created by KiCad (PCBNEW 9.0.5) date 2025-10-09 16:25:36*
%MOMM*%
%LPD*%
G01*
G04 APERTURE LIST*
G04 Aperture macros list*
%AMRoundRect*
0 Rectangle with rounded corners*
0 $1 Rounding radius*
0 $2 $3 $4 $5 $6 $7 $8 $9 X,Y pos of 4 corners*
0 Add a 4 corners polygon primitive as box body*
4,1,4,$2,$3,$4,$5,$6,$7,$8,$9,$2,$3,0*
0 Add four circle primitives for the rounded corners*
1,1,$1+$1,$2,$3*
1,1,$1+$1,$4,$5*
1,1,$1+$1,$6,$7*
1,1,$1+$1,$8,$9*
0 Add four rect primitives between the rounded corners*
20,1,$1+$1,$2,$3,$4,$5,0*
20,1,$1+$1,$4,$5,$6,$7,0*
20,1,$1+$1,$6,$7,$8,$9,0*
20,1,$1+$1,$8,$9,$2,$3,0*%
%AMRotRect*
0 Rectangle, with rotation*
0 The origin of the aperture is its center*
0 $1 length*
0 $2 width*
0 $3 Rotation angle, in degrees counterclockwise*
0 Add horizontal line*
21,1,$1,$2,0,0,$3*%
G04 Aperture macros list end*
%ADD10RotRect,2.550000X2.500000X347.000000*%
%ADD11RotRect,2.550000X2.500000X338.000000*%
%ADD12RotRect,2.550000X2.500000X342.000000*%
%ADD13RotRect,2.550000X2.500000X345.000000*%
%ADD14RotRect,2.550000X2.500000X340.000000*%
%ADD15RotRect,1.450000X0.820000X162.000000*%
%ADD16RoundRect,0.205000X0.557898X0.034278X-0.431201X0.355655X-0.557898X-0.034278X0.431201X-0.355655X0*%
%ADD17RoundRect,0.225000X0.263407X-0.349094X0.431980X0.068139X-0.263407X0.349094X-0.431980X-0.068139X0*%
%ADD18RoundRect,0.225000X0.287117X-0.329869X0.426175X0.098106X-0.287117X0.329869X-0.426175X-0.098106X0*%
%ADD19RoundRect,0.250000X0.475000X-0.337500X0.475000X0.337500X-0.475000X0.337500X-0.475000X-0.337500X0*%
%ADD20RotRect,1.450000X0.820000X165.000000*%
%ADD21RoundRect,0.205000X0.555339X0.063429X-0.449224X0.332601X-0.555339X-0.063429X0.449224X-0.332601X0*%
%ADD22RotRect,1.450000X0.820000X158.000000*%
%ADD23RoundRect,0.205000X0.558930X-0.004723X-0.405341X0.384868X-0.558930X0.004723X0.405341X-0.384868X0*%
%ADD24RotRect,1.450000X0.820000X160.000000*%
%ADD25RoundRect,0.205000X0.558754X0.014787X-0.418526X0.370487X-0.558754X-0.014787X0.418526X-0.370487X0*%
%ADD26RoundRect,0.225000X0.303988X-0.314390X0.420456X0.120276X-0.303988X0.314390X-0.420456X-0.120276X0*%
%ADD27RotRect,1.450000X0.820000X167.000000*%
%ADD28RoundRect,0.205000X0.552787X0.082771X-0.460557X0.316720X-0.552787X-0.082771X0.460557X-0.316720X0*%
%ADD29RoundRect,0.250000X0.561786X-0.154687X0.330922X0.479606X-0.561786X0.154687X-0.330922X-0.479606X0*%
%ADD30RoundRect,0.225000X0.275430X-0.339688X0.429339X0.083173X-0.275430X0.339688X-0.429339X-0.083173X0*%
%ADD31RoundRect,0.225000X0.314775X-0.303590X0.416003X0.134877X-0.314775X0.303590X-0.416003X-0.134877X0*%
%ADD32RoundRect,0.250000X0.330922X-0.479606X0.561786X0.154687X-0.330922X0.479606X-0.561786X-0.154687X0*%
G04 APERTURE END LIST*
D10*
%TO.C,SW51*%
X106693211Y-131201033D03*
X120345505Y-131746101D03*
%TD*%
D11*
%TO.C,SW27*%
X104022351Y-73650850D03*
X117421295Y-76324897D03*
%TD*%
%TO.C,SW15*%
X111158596Y-55987995D03*
X124557540Y-58662042D03*
%TD*%
%TO.C,SW9*%
X134830945Y-48250266D03*
X148229889Y-50924313D03*
%TD*%
%TO.C,SW43*%
X137094504Y-93501103D03*
X150493448Y-96175149D03*
%TD*%
%TO.C,SW33*%
X120558418Y-83575976D03*
X133957362Y-86250023D03*
%TD*%
%TO.C,SW39*%
X96886088Y-91313705D03*
X110285032Y-93987752D03*
%TD*%
%TO.C,SW45*%
X113422174Y-101238831D03*
X126821118Y-103912878D03*
%TD*%
%TO.C,SW13*%
X92368971Y-51640613D03*
X105767915Y-54314661D03*
%TD*%
D12*
%TO.C,SW29*%
X61146532Y-74590659D03*
X74699369Y-76323528D03*
%TD*%
D13*
%TO.C,SW37*%
X35858384Y-88931370D03*
X49483339Y-89952564D03*
%TD*%
D11*
%TO.C,SW23*%
X85232727Y-69303468D03*
X98631671Y-71977515D03*
%TD*%
D13*
%TO.C,SW25*%
X40788885Y-70530479D03*
X54413841Y-71551673D03*
%TD*%
D11*
%TO.C,SW35*%
X78096463Y-86966324D03*
X91495407Y-89640371D03*
%TD*%
D12*
%TO.C,SW5*%
X72920080Y-38355406D03*
X86472917Y-40088275D03*
%TD*%
D11*
%TO.C,SW21*%
X127694681Y-65913121D03*
X141093625Y-68587168D03*
%TD*%
D12*
%TO.C,SW41*%
X55259758Y-92708276D03*
X68812595Y-94441145D03*
%TD*%
D13*
%TO.C,SW1*%
X50649890Y-33728700D03*
X64274844Y-34749893D03*
%TD*%
D11*
%TO.C,SW7*%
X118294859Y-38325140D03*
X131693803Y-40999188D03*
%TD*%
%TO.C,SW3*%
X99505235Y-33977759D03*
X112904178Y-36651805D03*
%TD*%
D12*
%TO.C,SW17*%
X67033306Y-56473023D03*
X80586143Y-58205892D03*
%TD*%
D11*
%TO.C,SW47*%
X129958241Y-111163959D03*
X143357185Y-113838005D03*
%TD*%
D13*
%TO.C,SW11*%
X45719388Y-52129589D03*
X59344343Y-53150782D03*
%TD*%
D14*
%TO.C,SW49*%
X88785770Y-121844103D03*
X102269876Y-124048904D03*
%TD*%
D11*
%TO.C,SW31*%
X144230748Y-75838248D03*
X157629692Y-78512294D03*
%TD*%
%TO.C,SW19*%
X151367012Y-58175393D03*
X164765956Y-60849439D03*
%TD*%
D15*
%TO.C,L41*%
X62258511Y-103804076D03*
X62722037Y-102377491D03*
D16*
X57633885Y-100724250D03*
D15*
X57170359Y-102150835D03*
%TD*%
D17*
%TO.C,D43*%
X149460475Y-103016339D03*
X150696677Y-99956633D03*
%TD*%
D18*
%TO.C,D5*%
X85919678Y-46984857D03*
X86939434Y-43846371D03*
%TD*%
D19*
%TO.C,C1*%
X49149000Y-49043500D03*
X49149000Y-46968500D03*
%TD*%
D18*
%TO.C,D41*%
X68259356Y-101337727D03*
X69279112Y-98199241D03*
%TD*%
D17*
%TO.C,D13*%
X104734942Y-61155850D03*
X105971144Y-58096144D03*
%TD*%
%TO.C,D39*%
X109252059Y-100828942D03*
X110488261Y-97769236D03*
%TD*%
D20*
%TO.C,L37*%
X43428254Y-99645677D03*
X43816483Y-98196789D03*
D21*
X38648780Y-96812107D03*
D20*
X38260551Y-98260995D03*
%TD*%
D17*
%TO.C,D23*%
X97598698Y-78818705D03*
X98834900Y-75758999D03*
%TD*%
D22*
%TO.C,L21*%
X133902382Y-77470101D03*
X134464292Y-76079325D03*
D23*
X129503858Y-74075179D03*
D22*
X128941948Y-75465955D03*
%TD*%
D15*
%TO.C,L29*%
X68145285Y-85686459D03*
X68608811Y-84259874D03*
D16*
X63520659Y-82606633D03*
D15*
X63057133Y-84033218D03*
%TD*%
D24*
%TO.C,L49*%
X95393024Y-133177396D03*
X95906054Y-131767857D03*
D25*
X90878698Y-129938050D03*
D24*
X90365668Y-131347589D03*
%TD*%
D22*
%TO.C,L23*%
X91440428Y-80860448D03*
X92002338Y-79469672D03*
D23*
X87041904Y-77465526D03*
D22*
X86479994Y-78856302D03*
%TD*%
%TO.C,L35*%
X84304164Y-98523304D03*
X84866074Y-97132528D03*
D23*
X79905640Y-95128382D03*
D22*
X79343730Y-96519158D03*
%TD*%
D20*
%TO.C,L11*%
X53289258Y-62843896D03*
X53677487Y-61395008D03*
D21*
X48509784Y-60010326D03*
D20*
X48121555Y-61459214D03*
%TD*%
D22*
%TO.C,L15*%
X117366297Y-67544975D03*
X117928207Y-66154199D03*
D23*
X112967773Y-64150053D03*
D22*
X112405863Y-65540829D03*
%TD*%
D17*
%TO.C,D3*%
X111871205Y-43492995D03*
X113107407Y-40433289D03*
%TD*%
D22*
%TO.C,L13*%
X98576672Y-63197593D03*
X99138582Y-61806817D03*
D23*
X94178148Y-59802671D03*
D22*
X93616238Y-61193447D03*
%TD*%
D26*
%TO.C,D11*%
X59152802Y-60066869D03*
X60006902Y-56879313D03*
%TD*%
D17*
%TO.C,D7*%
X130660830Y-47840377D03*
X131897032Y-44780671D03*
%TD*%
D18*
%TO.C,D17*%
X80032904Y-65102474D03*
X81052660Y-61963988D03*
%TD*%
D22*
%TO.C,L9*%
X141038646Y-59807246D03*
X141600556Y-58416470D03*
D23*
X136640122Y-56412324D03*
D22*
X136078212Y-57803100D03*
%TD*%
%TO.C,L43*%
X143302205Y-105058082D03*
X143864115Y-103667306D03*
D23*
X138903681Y-101663160D03*
D22*
X138341771Y-103053936D03*
%TD*%
D17*
%TO.C,D9*%
X147196916Y-57765503D03*
X148433118Y-54705797D03*
%TD*%
D22*
%TO.C,L19*%
X157574713Y-69732372D03*
X158136623Y-68341596D03*
D23*
X153176189Y-66337450D03*
D22*
X152614279Y-67728226D03*
%TD*%
D19*
%TO.C,C6*%
X42037000Y-85852000D03*
X42037000Y-83777000D03*
%TD*%
D17*
%TO.C,D21*%
X140060652Y-75428358D03*
X141296854Y-72368652D03*
%TD*%
D20*
%TO.C,L1*%
X58219760Y-44443006D03*
X58607989Y-42994118D03*
D21*
X53440286Y-41609436D03*
D20*
X53052057Y-43058324D03*
%TD*%
D17*
%TO.C,D27*%
X116388322Y-83166087D03*
X117624524Y-80106381D03*
%TD*%
D22*
%TO.C,L47*%
X136165942Y-122720938D03*
X136727852Y-121330162D03*
D23*
X131767418Y-119326016D03*
D22*
X131205508Y-120716792D03*
%TD*%
D26*
%TO.C,D1*%
X64083304Y-41665979D03*
X64937404Y-38478423D03*
%TD*%
D17*
%TO.C,D19*%
X163732983Y-67690629D03*
X164969185Y-64630923D03*
%TD*%
D15*
%TO.C,L17*%
X74032059Y-67568823D03*
X74495585Y-66142238D03*
D16*
X69407433Y-64488997D03*
D15*
X68943907Y-65915582D03*
%TD*%
D20*
%TO.C,L25*%
X48358756Y-81244786D03*
X48746985Y-79795898D03*
D21*
X43579282Y-78411216D03*
D20*
X43191053Y-79860104D03*
%TD*%
D27*
%TO.C,L51*%
X114632395Y-141644629D03*
X114969821Y-140183074D03*
D28*
X109756941Y-138979585D03*
D27*
X109419515Y-140441140D03*
%TD*%
D19*
%TO.C,C5*%
X39370000Y-86995000D03*
X39370000Y-84920000D03*
%TD*%
D17*
%TO.C,D31*%
X156596719Y-85353484D03*
X157832921Y-82293778D03*
%TD*%
%TO.C,D47*%
X142324212Y-120679195D03*
X143560414Y-117619489D03*
%TD*%
%TO.C,D45*%
X125788145Y-110754068D03*
X127024347Y-107694362D03*
%TD*%
D19*
%TO.C,C4*%
X46736000Y-67183000D03*
X46736000Y-65108000D03*
%TD*%
D22*
%TO.C,L3*%
X105712935Y-45534738D03*
X106274845Y-44143962D03*
D23*
X101314411Y-42139816D03*
D22*
X100752501Y-43530592D03*
%TD*%
D15*
%TO.C,L5*%
X79918833Y-49451206D03*
X80382359Y-48024621D03*
D16*
X75294207Y-46371380D03*
D15*
X74830681Y-47797965D03*
%TD*%
D22*
%TO.C,L31*%
X150438449Y-87395227D03*
X151000359Y-86004451D03*
D23*
X146039925Y-84000305D03*
D22*
X145478015Y-85391081D03*
%TD*%
D17*
%TO.C,D33*%
X132924389Y-93091213D03*
X134160591Y-90031507D03*
%TD*%
D26*
%TO.C,D25*%
X54222300Y-78467759D03*
X55076400Y-75280203D03*
%TD*%
D22*
%TO.C,L33*%
X126766119Y-95132956D03*
X127328029Y-93742180D03*
D23*
X122367595Y-91738034D03*
D22*
X121805685Y-93128810D03*
%TD*%
D17*
%TO.C,D35*%
X90462434Y-96481561D03*
X91698636Y-93421855D03*
%TD*%
D19*
%TO.C,C3*%
X43942000Y-67564000D03*
X43942000Y-65489000D03*
%TD*%
D29*
%TO.C,C9*%
X94588846Y-136483931D03*
X93879154Y-134534069D03*
%TD*%
D19*
%TO.C,C2*%
X51816000Y-48408500D03*
X51816000Y-46333500D03*
%TD*%
%TO.C,C8*%
X35306000Y-101643000D03*
X35306000Y-99568000D03*
%TD*%
D22*
%TO.C,L45*%
X119629875Y-112795811D03*
X120191785Y-111405035D03*
D23*
X115231351Y-109400889D03*
D22*
X114669441Y-110791665D03*
%TD*%
%TO.C,L7*%
X124502560Y-49882120D03*
X125064470Y-48491344D03*
D23*
X120104036Y-46487198D03*
D22*
X119542126Y-47877974D03*
%TD*%
D17*
%TO.C,D15*%
X123524567Y-65503232D03*
X124760769Y-62443526D03*
%TD*%
D22*
%TO.C,L27*%
X110230052Y-85207830D03*
X110791962Y-83817054D03*
D23*
X105831528Y-81812908D03*
D22*
X105269618Y-83203684D03*
%TD*%
D30*
%TO.C,D49*%
X101476287Y-130921977D03*
X102604953Y-127820991D03*
%TD*%
D31*
%TO.C,D51*%
X120395448Y-138664658D03*
X121137786Y-135449236D03*
%TD*%
D22*
%TO.C,L39*%
X103093789Y-102870685D03*
X103655699Y-101479909D03*
D23*
X98695265Y-99475763D03*
D22*
X98133355Y-100866539D03*
%TD*%
D32*
%TO.C,C7*%
X32538154Y-99526931D03*
X33247846Y-97577069D03*
%TD*%
D26*
%TO.C,D37*%
X49291798Y-96868650D03*
X50145898Y-93681094D03*
%TD*%
D18*
%TO.C,D29*%
X74146130Y-83220110D03*
X75165886Y-80081624D03*
%TD*%
M02*
