M48
; DRILL file {KiCad 9.0.5} date 2025-10-09T16:25:24-0600
; FORMAT={-:-/ absolute / inch / decimal}
; #@! TF.CreationDate,2025-10-09T16:25:24-06:00
; #@! TF.GenerationSoftware,Kicad,Pcbnew,9.0.5
; #@! TF.FileFunction,Plated,1,2,PTH
FMAT,2
INCH
; #@! TA.AperFunction,Plated,PTH,ViaDrill
T1C0.0118
; #@! TA.AperFunction,Plated,PTH,ComponentDrill
T2C0.0276
; #@! TA.AperFunction,Plated,PTH,ComponentDrill
T3C0.0402
%
G90
G05
T1
X1.309Y-3.8416
X1.39Y-3.92
X1.54Y-3.67
X1.55Y-3.3433
X1.655Y-3.2983
X1.7004Y-3.1441
X1.73Y-2.5783
X1.84Y-2.5633
X1.895Y-2.42
X1.9039Y-3.1986
X1.9192Y-3.1416
X1.935Y-1.8492
X1.9406Y-3.8137
X1.9941Y-1.3279
X2.04Y-1.8242
X2.0887Y-1.6952
X2.098Y-2.4742
X2.1133Y-2.4171
X2.1347Y-3.0893
X2.2921Y-1.7497
X2.3074Y-1.6927
X2.3289Y-2.3648
X2.4826Y-3.3084
X2.5113Y-3.4285
X2.523Y-1.6404
X2.6874Y-3.9897
X2.7143Y-2.5951
X2.7431Y-2.7152
X2.8Y-3.095
X2.8709Y-1.5101
X2.9191Y-3.2764
X2.9461Y-1.8818
X2.9749Y-2.0019
X3.035Y-2.38
X3.09Y-3.185
X3.1509Y-2.5631
X3.295Y-1.67
X3.365Y-2.5
X3.3827Y-1.8498
X3.4047Y-3.1046
X3.425Y-3.2264
X3.5577Y-5.1712
X3.5615Y-3.7985
X3.5823Y-5.2922
X3.63Y-1.74
X3.6857Y-2.4092
X3.696Y-5.2966
X3.706Y-2.531
X3.82Y-1.795
X3.8425Y-3.1031
X3.85Y-3.29
X3.89Y-3.195
X3.9175Y-1.3377
X3.9666Y-1.7138
X3.9951Y-5.1544
X4.0588Y-4.05
X4.0809Y-3.9953
X4.1234Y-2.4077
X4.1445Y-3.2757
X4.15Y-2.585
X4.1648Y-3.3975
X4.165Y-2.5
X4.3013Y-3.9696
X4.3398Y-3.3546
X4.3619Y-3.2999
X4.4Y-1.895
X4.4044Y-1.7123
X4.4254Y-2.5803
X4.4458Y-2.7021
X4.465Y-1.8218
X4.5145Y-4.3619
X4.5349Y-4.4837
X4.5822Y-3.2743
X4.6207Y-2.6593
X4.6428Y-2.6045
X4.6573Y-1.5089
X4.7064Y-1.885
X4.7098Y-4.4408
X4.7267Y-2.0068
X4.732Y-4.386
X4.74Y-5.4592
X4.7955Y-3.6665
X4.8158Y-3.7883
X4.8632Y-2.5789
X4.9017Y-1.9639
X4.9238Y-1.9091
X4.9523Y-4.3604
X4.9908Y-3.7454
X5.0129Y-3.6906
X5.0765Y-2.9711
X5.0968Y-3.0929
X5.1441Y-1.8835
X5.1656Y-4.7526
X5.1859Y-4.8744
X5.2332Y-3.665
X5.2717Y-3.05
X5.2939Y-2.9952
X5.3083Y-1.8996
X5.3574Y-2.2757
X5.3777Y-2.3975
X5.383Y-4.7768
X5.4465Y-4.0572
X5.4668Y-4.179
X5.5142Y-2.9696
X5.5527Y-2.3546
X5.5748Y-2.2999
X5.6033Y-4.7511
X5.6639Y-4.0814
X5.7275Y-3.3619
X5.7478Y-3.4837
X5.7952Y-2.2742
X5.8843Y-4.0558
X5.9449Y-3.386
X5.96Y-2.165
X6.0084Y-2.6665
X6.0288Y-2.7883
X6.1Y-4.02
X6.1652Y-3.3604
X6.2259Y-2.6906
X6.445Y-5.18
X6.4462Y-2.665
X6.53Y-4.88
X6.575Y-4.745
X6.585Y-2.84
X6.65Y-4.81
X6.665Y-2.685
X6.695Y-4.64
X6.715Y-4.39
X6.93Y-4.745
T3
X6.0039Y-4.746
X6.0413Y-4.6532
X6.0788Y-4.5605
X6.1162Y-4.4678
X6.1537Y-4.3751
X6.1912Y-4.2824
X6.2286Y-4.1896
X6.239Y-4.8312
X6.2661Y-4.0969
X6.3035Y-4.0042
X6.3318Y-4.8687
X6.341Y-3.9115
X6.3785Y-3.8188
X6.4159Y-3.726
X6.4245Y-4.9061
X6.4534Y-3.6333
X6.4908Y-3.5406
X6.5283Y-3.4479
X6.5658Y-3.3552
X6.6032Y-3.2625
X6.6407Y-3.1697
X6.6529Y-5.0082
X6.6782Y-3.077
X6.6903Y-4.9155
X6.7156Y-2.9843
X6.7278Y-4.8227
X6.7653Y-4.73
X6.8027Y-4.6373
X6.8402Y-4.5446
X6.8777Y-4.4519
X6.9151Y-4.3591
X6.9526Y-4.2664
X6.99Y-4.1737
X7.0275Y-4.081
X7.065Y-3.9883
X7.1024Y-3.8956
X7.1399Y-3.8028
X7.1773Y-3.7101
X7.2148Y-3.6174
X7.2523Y-3.5247
X7.2897Y-3.432
X7.3272Y-3.3392
X7.3646Y-3.2465
T2
G00X6.3433Y-5.3072
M15
G01X6.3141Y-5.2954
M16
G05
G00X6.3717Y-5.1319
M15
G01X6.3425Y-5.1201
M16
G05
G00X6.4893Y-5.3662
M15
G01X6.4601Y-5.3544
M16
G05
G00X6.5988Y-5.4105
M15
G01X6.5696Y-5.3987
M16
G05
M30
