M48
; DRILL file {KiCad 9.0.5} date 2025-10-09T16:25:24-0600
; FORMAT={-:-/ absolute / inch / decimal}
; #@! TF.CreationDate,2025-10-09T16:25:24-06:00
; #@! TF.GenerationSoftware,Kicad,Pcbnew,9.0.5
; #@! TF.FileFunction,NonPlated,1,2,NPTH
FMAT,2
INCH
; #@! TA.AperFunction,NonPlated,NPTH,ComponentDrill
T1C0.0591
; #@! TA.AperFunction,NonPlated,NPTH,ComponentDrill
T2C0.0689
; #@! TA.AperFunction,NonPlated,NPTH,ComponentDrill
T3C0.0709
; #@! TA.AperFunction,NonPlated,NPTH,ComponentDrill
T4C0.1181
; #@! TA.AperFunction,NonPlated,NPTH,ComponentDrill
T5C0.1575
%
G90
G05
T1
X6.4141Y-5.2424
X6.6696Y-5.3456
X6.905Y-3.195
X7.082Y-3.2665
T2
X1.4745Y-3.6216
X1.6686Y-2.8971
X1.8608Y-3.7251
X1.8627Y-2.1727
X2.055Y-3.0007
X2.0568Y-1.4482
X2.2319Y-3.7734
X2.2491Y-2.2762
X2.4432Y-1.5518
X2.4637Y-3.0601
X2.6123Y-3.897
X2.6954Y-2.3468
X2.8441Y-3.1837
X2.9272Y-1.6335
X3.0759Y-2.4704
X3.1223Y-3.551
X3.3076Y-1.7571
X3.4032Y-2.8556
X3.4931Y-3.7008
X3.5475Y-4.9224
X3.6842Y-2.1602
X3.7741Y-3.0054
X3.862Y-3.7221
X3.9234Y-5.0592
X3.9651Y-1.4648
X4.055Y-2.31
X4.143Y-3.0267
X4.2329Y-3.872
X4.2674Y-5.2835
X4.336Y-1.6146
X4.4239Y-2.3313
X4.513Y-4.1129
X4.5138Y-3.1766
X4.6572Y-5.3734
X4.7049Y-1.6359
X4.794Y-3.4175
X4.7948Y-2.4812
X4.8839Y-4.2627
X5.0749Y-2.7221
X5.0757Y-1.7858
X5.1641Y-4.5036
X5.1649Y-3.5673
X5.3559Y-2.0267
X5.445Y-3.8082
X5.4458Y-2.8719
X5.5349Y-4.6535
X5.726Y-3.1128
X5.7268Y-2.1765
X5.8159Y-3.9581
X6.0069Y-2.4175
X6.0968Y-3.2627
X6.3778Y-2.5673
T3
X6.9387Y-3.08
X7.1377Y-3.1603
T4
X1.5487Y-3.5379
X1.7428Y-2.8135
X1.816Y-3.506
X1.9369Y-2.089
X2.0101Y-2.7816
X2.131Y-1.3646
X2.2042Y-2.0571
X2.3104Y-3.6937
X2.3984Y-1.3327
X2.5421Y-2.9804
X2.579Y-3.6759
X2.7739Y-2.2671
X2.8108Y-2.9626
X3.0057Y-1.5539
X3.0426Y-2.2493
X3.2061Y-3.477
X3.2743Y-1.536
X3.4753Y-3.4779
X3.487Y-2.7816
X3.6287Y-4.8455
X3.7563Y-2.7825
X3.768Y-2.0862
X3.8978Y-4.837
X3.9458Y-3.6481
X4.0372Y-2.0871
X4.0489Y-1.3908
X4.2151Y-3.6491
X4.2268Y-2.9527
X4.3182Y-1.3917
X4.3386Y-5.1973
X4.496Y-2.9537
X4.5077Y-2.2573
X4.5969Y-4.0389
X4.6047Y-5.1561
X4.777Y-2.2583
X4.7887Y-1.562
X4.8661Y-4.0398
X4.8778Y-3.3435
X5.0579Y-1.5629
X5.1471Y-3.3444
X5.1588Y-2.6481
X5.2479Y-4.4296
X5.428Y-2.649
X5.4397Y-1.9527
X5.5171Y-4.4306
X5.5288Y-3.7342
X5.709Y-1.9536
X5.7981Y-3.7352
X5.8098Y-3.0389
X6.079Y-3.0398
X6.0907Y-2.3435
X6.36Y-2.3444
T5
X1.6677Y-3.6733
X1.8618Y-2.9489
X2.0559Y-2.2244
X2.25Y-1.5
X2.4221Y-3.8352
X2.6539Y-3.1219
X2.8857Y-2.4086
X3.1174Y-1.6953
X3.3077Y-3.6259
X3.5886Y-2.9305
X3.7354Y-4.9908
X3.8696Y-2.2351
X4.0474Y-3.797
X4.1506Y-1.5397
X4.3284Y-3.1016
X4.4623Y-5.3285
X4.6094Y-2.4063
X4.6985Y-4.1878
X4.8903Y-1.7109
X4.9794Y-3.4924
X5.2604Y-2.797
X5.3495Y-4.5785
X5.5413Y-2.1016
X5.6305Y-3.8831
X5.9114Y-3.1878
X6.1924Y-2.4924
M30
